G04 #@! TF.GenerationSoftware,KiCad,Pcbnew,7.0.7*
G04 #@! TF.CreationDate,2024-08-26T03:28:25+03:00*
G04 #@! TF.ProjectId,telemetry_box_01,74656c65-6d65-4747-9279-5f626f785f30,rev?*
G04 #@! TF.SameCoordinates,Original*
G04 #@! TF.FileFunction,Copper,L3,Inr*
G04 #@! TF.FilePolarity,Positive*
%FSLAX46Y46*%
G04 Gerber Fmt 4.6, Leading zero omitted, Abs format (unit mm)*
G04 Created by KiCad (PCBNEW 7.0.7) date 2024-08-26 03:28:25*
%MOMM*%
%LPD*%
G01*
G04 APERTURE LIST*
G04 #@! TA.AperFunction,ComponentPad*
%ADD10O,1.600000X0.800000*%
G04 #@! TD*
G04 #@! TA.AperFunction,ComponentPad*
%ADD11C,2.000000*%
G04 #@! TD*
G04 #@! TA.AperFunction,ViaPad*
%ADD12C,0.400000*%
G04 #@! TD*
G04 #@! TA.AperFunction,ViaPad*
%ADD13C,0.420000*%
G04 #@! TD*
G04 #@! TA.AperFunction,Conductor*
%ADD14C,0.140000*%
G04 #@! TD*
G04 #@! TA.AperFunction,Conductor*
%ADD15C,0.120000*%
G04 #@! TD*
G04 APERTURE END LIST*
D10*
X165550000Y-75905000D03*
X165550000Y-66925000D03*
X159600000Y-67285000D03*
X159600000Y-75545000D03*
D11*
X148850000Y-63200000D03*
X143600000Y-63200000D03*
X156750000Y-63200000D03*
X162000000Y-63200000D03*
D12*
X142450000Y-75950000D03*
X122750000Y-70650000D03*
X122750000Y-74150000D03*
X130700000Y-79950000D03*
X129500000Y-79950000D03*
D13*
X146950000Y-98050000D03*
X146950000Y-97150000D03*
X146950000Y-102550000D03*
X146950000Y-103450000D03*
X146950000Y-101650000D03*
X146950000Y-98950000D03*
X146950000Y-100750000D03*
X146950000Y-99850000D03*
X162700000Y-96750000D03*
X163600000Y-96750000D03*
X166300000Y-96750000D03*
X164500000Y-96750000D03*
X165400000Y-96750000D03*
X158200000Y-96750000D03*
X159100000Y-96750000D03*
X161800000Y-96750000D03*
X160000000Y-96750000D03*
X160900000Y-96750000D03*
X157300000Y-96750000D03*
X155500000Y-96750000D03*
X156400000Y-96750000D03*
X154600000Y-96750000D03*
X152800000Y-96750000D03*
X153700000Y-96750000D03*
X151900000Y-96750000D03*
X151000000Y-96750000D03*
X150100000Y-96750000D03*
X149200000Y-96750000D03*
X147700000Y-96750000D03*
X115450000Y-82950000D03*
X146900000Y-70050000D03*
X117700000Y-89250000D03*
X150400000Y-92900000D03*
X121900000Y-88850000D03*
X165750000Y-90650000D03*
X125900000Y-83850000D03*
X140850000Y-64350000D03*
X129000000Y-91650000D03*
X125800000Y-99900000D03*
X144350000Y-75700000D03*
X150100000Y-85400000D03*
X153900000Y-69450000D03*
X135450000Y-74850000D03*
X142350000Y-79300000D03*
X153300000Y-77950000D03*
X133800000Y-66000000D03*
X115450000Y-60950000D03*
X161750000Y-60650000D03*
X130300000Y-61650000D03*
X115450000Y-95250000D03*
X118000000Y-97350000D03*
X145200000Y-84050000D03*
X157250000Y-88250000D03*
X129600000Y-88700000D03*
X131250000Y-64150000D03*
X145700000Y-99050000D03*
X163750000Y-60650000D03*
X115450000Y-66950000D03*
X150100000Y-86400000D03*
X146900000Y-67050000D03*
X130700000Y-85100000D03*
X153350000Y-68200000D03*
X165750000Y-82650000D03*
X115450000Y-97250000D03*
X135450000Y-68850000D03*
X135600000Y-101350000D03*
X139200000Y-102850000D03*
X141200000Y-102850000D03*
X125600000Y-83100000D03*
X140500000Y-86500000D03*
X115450000Y-62950000D03*
X131650000Y-92200000D03*
X135600000Y-99850000D03*
X141500000Y-79800000D03*
X159300000Y-77950000D03*
X119050000Y-85850000D03*
X142500000Y-78300000D03*
X135600000Y-99050000D03*
X138300000Y-67400000D03*
X118550000Y-75900000D03*
X116700000Y-89250000D03*
X149100000Y-85400000D03*
X153750000Y-60650000D03*
X118200000Y-64050000D03*
X122050000Y-99650000D03*
X151100000Y-85400000D03*
X134250000Y-71000000D03*
X140750000Y-79450000D03*
X165750000Y-84650000D03*
X119800000Y-88750000D03*
X145200000Y-86550000D03*
X154200000Y-92900000D03*
X140850000Y-66350000D03*
X159100000Y-85900000D03*
X156150000Y-93900000D03*
X118750000Y-86750000D03*
X115450000Y-93250000D03*
X118100000Y-102950000D03*
X154850000Y-81500000D03*
X117900000Y-94600000D03*
X152950000Y-95600000D03*
X165750000Y-68650000D03*
X123350000Y-98650000D03*
X152950000Y-94850000D03*
X130250000Y-66550000D03*
X148500000Y-80850000D03*
X140500000Y-77250000D03*
X133650000Y-84900000D03*
X145200000Y-102850000D03*
X165750000Y-94650000D03*
X115450000Y-80950000D03*
X145700000Y-100550000D03*
X120400000Y-63400000D03*
X152800000Y-69450000D03*
X147750000Y-60650000D03*
X123300000Y-82700000D03*
X149450000Y-81500000D03*
X165750000Y-74650000D03*
X146100000Y-83250000D03*
X127600000Y-64600000D03*
X115450000Y-68950000D03*
X135100000Y-88850000D03*
X143750000Y-60650000D03*
X158050000Y-90400000D03*
X130800000Y-71500000D03*
X133000000Y-88050000D03*
X127900000Y-90550000D03*
X115450000Y-70950000D03*
X116800000Y-67900000D03*
X152950000Y-93350000D03*
X118550000Y-61450000D03*
X130750000Y-82500000D03*
X146900000Y-68550000D03*
X144500000Y-80450000D03*
X150100000Y-87400000D03*
X127800000Y-81950000D03*
X134550000Y-100350000D03*
X154000000Y-81900000D03*
X120600000Y-88050000D03*
X119850000Y-78050000D03*
X127900000Y-91650000D03*
X149750000Y-60650000D03*
X130100000Y-92750000D03*
X115450000Y-86950000D03*
X149100000Y-87400000D03*
X122650000Y-102850000D03*
X130100000Y-90550000D03*
X125600000Y-84600000D03*
X155750000Y-60650000D03*
X165750000Y-88650000D03*
X126850000Y-67550000D03*
X115450000Y-99250000D03*
X121250000Y-82850000D03*
X151100000Y-89400000D03*
X115450000Y-90000000D03*
X121950000Y-61350000D03*
X124650000Y-102850000D03*
X145700000Y-101350000D03*
X115450000Y-74950000D03*
X121100000Y-87150000D03*
X127100000Y-71500000D03*
X130850000Y-100200000D03*
X149100000Y-86400000D03*
X140850000Y-70350000D03*
X151100000Y-87400000D03*
X135600000Y-100550000D03*
X117400000Y-65950000D03*
X122400000Y-63950000D03*
X126650000Y-102850000D03*
X120650000Y-102850000D03*
X116550000Y-72150000D03*
X136400000Y-98250000D03*
X152100000Y-87400000D03*
X159600000Y-93250000D03*
X136700000Y-95200000D03*
X119650000Y-84000000D03*
X115450000Y-91250000D03*
X120350000Y-83300000D03*
X140850000Y-62350000D03*
X163300000Y-77950000D03*
X159600000Y-91250000D03*
X128650000Y-100000000D03*
X165750000Y-86650000D03*
X124650000Y-74900000D03*
X120950000Y-65950000D03*
X140500000Y-76200000D03*
X153100000Y-85400000D03*
X137200000Y-102850000D03*
X153100000Y-87400000D03*
X121300000Y-86150000D03*
X159600000Y-95250000D03*
X118000000Y-91700000D03*
X123300000Y-85000000D03*
X154050000Y-94550000D03*
X156500000Y-85400000D03*
X135100000Y-89850000D03*
X126350000Y-61200000D03*
X127900000Y-92750000D03*
X115450000Y-78950000D03*
X132300000Y-68200000D03*
X155300000Y-77950000D03*
X117550000Y-80100000D03*
X153300000Y-80250000D03*
X153500000Y-92900000D03*
X143200000Y-102850000D03*
X122300000Y-85000000D03*
X145700000Y-99850000D03*
X121550000Y-85250000D03*
X153100000Y-88400000D03*
X152800000Y-67650000D03*
X145750000Y-60650000D03*
X130100000Y-91650000D03*
X120050000Y-99650000D03*
X124600000Y-69050000D03*
X141750000Y-60650000D03*
X153100000Y-86400000D03*
X152100000Y-88400000D03*
X159750000Y-60650000D03*
X142500000Y-77250000D03*
X118850000Y-89150000D03*
X165750000Y-92650000D03*
X118050000Y-99650000D03*
X135200000Y-102850000D03*
X147800000Y-69300000D03*
X150950000Y-94100000D03*
X122300000Y-82700000D03*
X150100000Y-89400000D03*
X136100000Y-88850000D03*
X140850000Y-68350000D03*
X161300000Y-77950000D03*
X165750000Y-72650000D03*
X129000000Y-92750000D03*
X115450000Y-76950000D03*
X150950000Y-93350000D03*
X157300000Y-77950000D03*
X119200000Y-84850000D03*
X145400000Y-82600000D03*
X165750000Y-78650000D03*
X157750000Y-60650000D03*
X127800000Y-86650000D03*
X165750000Y-62650000D03*
X144550000Y-95950000D03*
X153350000Y-68900000D03*
X145500000Y-90150000D03*
X152100000Y-86400000D03*
X165750000Y-64650000D03*
X115450000Y-72950000D03*
X149100000Y-89400000D03*
X136100000Y-89850000D03*
X145200000Y-85000000D03*
X136800000Y-82800000D03*
X115450000Y-64950000D03*
X159500000Y-88250000D03*
X152100000Y-89400000D03*
X129050000Y-70050000D03*
X136050000Y-85500000D03*
X153500000Y-74500000D03*
X149450000Y-80850000D03*
X153050000Y-94100000D03*
X115450000Y-101250000D03*
X147800000Y-67800000D03*
X115450000Y-103250000D03*
X151100000Y-86400000D03*
X132650000Y-102850000D03*
X135250000Y-64150000D03*
X165750000Y-60650000D03*
X165750000Y-80650000D03*
X153900000Y-67650000D03*
X135450000Y-92650000D03*
X156750000Y-80300000D03*
X130650000Y-102850000D03*
X122250000Y-77500000D03*
X144550000Y-92350000D03*
X165750000Y-70650000D03*
X129000000Y-90550000D03*
X154000000Y-80900000D03*
X145500000Y-87650000D03*
X151750000Y-60650000D03*
X117700000Y-86950000D03*
X116700000Y-86950000D03*
X115450000Y-84950000D03*
X148500000Y-81500000D03*
X144450000Y-78300000D03*
X153100000Y-89400000D03*
X150100000Y-88400000D03*
X124300000Y-65600000D03*
X151100000Y-88400000D03*
X133750000Y-82200000D03*
X152100000Y-85400000D03*
X135600000Y-89350000D03*
X128650000Y-102850000D03*
X149100000Y-88400000D03*
D12*
X130150000Y-76050000D03*
X125800000Y-80250000D03*
X129350000Y-76900000D03*
X126550000Y-79700000D03*
X147277996Y-89130403D03*
X126750000Y-94400000D03*
X147250000Y-88250000D03*
X125900000Y-94400000D03*
X147400000Y-90600000D03*
X146850000Y-87100000D03*
X161600000Y-90900000D03*
X155330000Y-89100000D03*
X147396397Y-84865881D03*
X161600000Y-94400000D03*
X151750000Y-76800000D03*
X155690000Y-88740000D03*
X146100000Y-81000000D03*
X155800000Y-83400000D03*
X146100000Y-80550000D03*
X146700000Y-88100000D03*
X148700940Y-83796740D03*
X151750000Y-77700000D03*
X145200000Y-86000000D03*
X155450000Y-83050000D03*
X150000000Y-83050000D03*
X151750000Y-77250000D03*
X146750000Y-89500000D03*
X161600000Y-87400000D03*
X147900000Y-91400000D03*
X154787371Y-85325500D03*
D13*
X157450000Y-86500000D03*
D12*
X153300000Y-91200000D03*
X161600000Y-83900000D03*
X148500000Y-91400000D03*
X155650000Y-70950000D03*
X158650000Y-70900000D03*
X158450000Y-72150000D03*
X155650000Y-71700000D03*
X144950000Y-70800000D03*
X142250000Y-69250000D03*
X143500000Y-67050000D03*
X142800000Y-98200000D03*
X145250000Y-95950000D03*
X143500000Y-71550000D03*
X142000000Y-99700000D03*
X151750000Y-72500000D03*
X142000000Y-98950000D03*
X142000000Y-98200000D03*
X142250000Y-66300000D03*
X151750000Y-72000000D03*
X145250000Y-92350000D03*
X143500000Y-68550000D03*
X141250000Y-99700000D03*
X151750000Y-71500000D03*
X142250000Y-67800000D03*
X143500000Y-65550000D03*
X141250000Y-98200000D03*
X141250000Y-98950000D03*
X144950000Y-66300000D03*
X142250000Y-70800000D03*
X143500000Y-70050000D03*
X143550000Y-98200000D03*
D14*
X130700000Y-79950000D02*
X130700000Y-79300000D01*
X123500000Y-71000000D02*
X123150000Y-70650000D01*
X123150000Y-70650000D02*
X122750000Y-70650000D01*
X130700000Y-79300000D02*
X131200000Y-78800000D01*
X131200000Y-78800000D02*
X131200000Y-75300000D01*
X131200000Y-75300000D02*
X129600000Y-73700000D01*
X129600000Y-73700000D02*
X124050000Y-73700000D01*
X123500000Y-73150000D02*
X123500000Y-71000000D01*
X124050000Y-73700000D02*
X123500000Y-73150000D01*
X130650000Y-75550000D02*
X129250000Y-74150000D01*
X129250000Y-74150000D02*
X122750000Y-74150000D01*
X130650000Y-78400000D02*
X130650000Y-75550000D01*
X129500000Y-79950000D02*
X129500000Y-79550000D01*
X129500000Y-79550000D02*
X130650000Y-78400000D01*
X148500000Y-91400000D02*
X148500000Y-90700000D01*
X156965392Y-89620000D02*
X160920000Y-89620000D01*
X148500000Y-90700000D02*
X148780000Y-90420000D01*
X148780000Y-90420000D02*
X156165391Y-90420001D01*
X156165391Y-90420001D02*
X156965392Y-89620000D01*
X160920000Y-89620000D02*
X161080000Y-89780000D01*
X161080000Y-89780000D02*
X161080000Y-90402304D01*
X161080000Y-90402304D02*
X160889999Y-90592305D01*
X162007696Y-91610000D02*
X162360000Y-91257696D01*
X160889999Y-90592305D02*
X160890000Y-91257696D01*
X160890000Y-91257696D02*
X161242305Y-91610001D01*
X161242305Y-91610001D02*
X162007696Y-91610000D01*
X162360000Y-91257696D02*
X162360000Y-87360000D01*
X162360000Y-87360000D02*
X161600000Y-86600000D01*
X161600000Y-86600000D02*
X161600000Y-83900000D01*
X147900000Y-91400000D02*
X147900000Y-90767696D01*
X161350000Y-91350000D02*
X161900000Y-91350000D01*
X147900000Y-90767696D02*
X148507696Y-90160000D01*
X162100000Y-87900000D02*
X161600000Y-87400000D01*
X148507696Y-90160000D02*
X156057696Y-90160000D01*
X156057696Y-90160000D02*
X156857696Y-89360000D01*
X161150000Y-91150000D02*
X161350000Y-91350000D01*
X156857696Y-89360000D02*
X161042304Y-89360000D01*
X161042304Y-89360000D02*
X161340000Y-89657696D01*
X161340000Y-89657696D02*
X161340000Y-90510000D01*
X161340000Y-90510000D02*
X161150000Y-90700000D01*
X161150000Y-90700000D02*
X161150000Y-91150000D01*
X161900000Y-91350000D02*
X162100000Y-91150000D01*
X162100000Y-91150000D02*
X162100000Y-87900000D01*
X147700000Y-90600000D02*
X148400000Y-89900000D01*
X148400000Y-89900000D02*
X155950000Y-89900000D01*
X147400000Y-90600000D02*
X147700000Y-90600000D01*
X155950000Y-89900000D02*
X156750000Y-89100000D01*
X156750000Y-89100000D02*
X161150000Y-89100000D01*
X161600000Y-89550000D02*
X161600000Y-90900000D01*
X161150000Y-89100000D02*
X161600000Y-89550000D01*
X137757696Y-94210000D02*
X139910000Y-92057696D01*
X126940000Y-94210000D02*
X137757696Y-94210000D01*
X140567696Y-89050000D02*
X147197593Y-89050000D01*
X139910000Y-92057696D02*
X139910000Y-89707696D01*
X126750000Y-94400000D02*
X126940000Y-94210000D01*
X147197593Y-89050000D02*
X147277996Y-89130403D01*
X139910000Y-89707696D02*
X140567696Y-89050000D01*
X140460000Y-88790000D02*
X146710000Y-88790000D01*
X147250000Y-88250000D02*
X146710000Y-88790000D01*
X130150000Y-76050000D02*
X130150000Y-78050000D01*
X130150000Y-78050000D02*
X127950000Y-80250000D01*
X127950000Y-80250000D02*
X125800000Y-80250000D01*
X129350000Y-76900000D02*
X129350000Y-78300000D01*
X127950000Y-79700000D02*
X126550000Y-79700000D01*
X129350000Y-78300000D02*
X127950000Y-79700000D01*
X126350000Y-93950000D02*
X137650000Y-93950000D01*
X139650000Y-89600000D02*
X140460000Y-88790000D01*
X137650000Y-93950000D02*
X139650000Y-91950000D01*
X125900000Y-94400000D02*
X126350000Y-93950000D01*
X139650000Y-91950000D02*
X139650000Y-89600000D01*
D15*
X147400000Y-90600000D02*
X147400000Y-89700000D01*
X147200000Y-87100000D02*
X146850000Y-87100000D01*
X147400000Y-89700000D02*
X147700000Y-89400000D01*
X147700000Y-89400000D02*
X147700000Y-87600000D01*
X147700000Y-87600000D02*
X147200000Y-87100000D01*
D14*
X158650000Y-70900000D02*
X155900000Y-70900000D01*
X155700000Y-70900000D02*
X155650000Y-70950000D01*
X155900000Y-70900000D02*
X155700000Y-70900000D01*
X158000000Y-71700000D02*
X158450000Y-72150000D01*
X155650000Y-71700000D02*
X158000000Y-71700000D01*
G04 #@! TA.AperFunction,Conductor*
G36*
X166679290Y-60120710D02*
G01*
X166699500Y-60169500D01*
X166699500Y-96931000D01*
X166679290Y-96979790D01*
X166630500Y-97000000D01*
X148869000Y-97000000D01*
X148820210Y-96979790D01*
X148800000Y-96931000D01*
X148800000Y-96220890D01*
X148811586Y-96182619D01*
X148985204Y-95922193D01*
X149025876Y-95893530D01*
X149391760Y-95802060D01*
X149408495Y-95800000D01*
X151249995Y-95800000D01*
X151250000Y-95800000D01*
X151600000Y-95750000D01*
X152150000Y-95400000D01*
X152250000Y-95000000D01*
X152250002Y-94999978D01*
X152291538Y-94709242D01*
X152318444Y-94663800D01*
X152359844Y-94650000D01*
X152700000Y-94650000D01*
X152700000Y-94400000D01*
X161254247Y-94400000D01*
X161258544Y-94424373D01*
X161275098Y-94518254D01*
X161335138Y-94622246D01*
X161335140Y-94622248D01*
X161335139Y-94622248D01*
X161392299Y-94670210D01*
X161427123Y-94699431D01*
X161539961Y-94740500D01*
X161660038Y-94740500D01*
X161660039Y-94740500D01*
X161772877Y-94699431D01*
X161864862Y-94622246D01*
X161924902Y-94518254D01*
X161945753Y-94400000D01*
X161924902Y-94281746D01*
X161864862Y-94177754D01*
X161864859Y-94177751D01*
X161864860Y-94177751D01*
X161772877Y-94100569D01*
X161660040Y-94059500D01*
X161660039Y-94059500D01*
X161539961Y-94059500D01*
X161483542Y-94080034D01*
X161427123Y-94100569D01*
X161335140Y-94177751D01*
X161275097Y-94281748D01*
X161254247Y-94400000D01*
X152700000Y-94400000D01*
X152700000Y-92969000D01*
X152720210Y-92920210D01*
X152769000Y-92900000D01*
X152950000Y-92900000D01*
X152950000Y-91498778D01*
X152970210Y-91449988D01*
X153019000Y-91429778D01*
X153063352Y-91445921D01*
X153068199Y-91449988D01*
X153127123Y-91499431D01*
X153239961Y-91540500D01*
X153360038Y-91540500D01*
X153360039Y-91540500D01*
X153472877Y-91499431D01*
X153564862Y-91422246D01*
X153624902Y-91318254D01*
X153645753Y-91200000D01*
X153624902Y-91081746D01*
X153564862Y-90977754D01*
X153564859Y-90977751D01*
X153564860Y-90977751D01*
X153472877Y-90900569D01*
X153360040Y-90859500D01*
X153360039Y-90859500D01*
X153239961Y-90859500D01*
X153183542Y-90880034D01*
X153127123Y-90900569D01*
X153063352Y-90954079D01*
X153012986Y-90969959D01*
X152966143Y-90945574D01*
X152950000Y-90901222D01*
X152950000Y-90900000D01*
X151200000Y-90900000D01*
X151200000Y-92900000D01*
X151200000Y-94650000D01*
X151421073Y-94650000D01*
X151469863Y-94670210D01*
X151490073Y-94719000D01*
X151478484Y-94757274D01*
X151270484Y-95069274D01*
X151226605Y-95098660D01*
X151213073Y-95100000D01*
X149149998Y-95100000D01*
X148599999Y-95250000D01*
X148099999Y-95849999D01*
X148099999Y-95850000D01*
X148052870Y-96933997D01*
X148030560Y-96981864D01*
X147983935Y-97000000D01*
X147200000Y-97000000D01*
X147200000Y-103830500D01*
X147179790Y-103879290D01*
X147131000Y-103899500D01*
X115269000Y-103899500D01*
X115220210Y-103879290D01*
X115200000Y-103830500D01*
X115200000Y-99700000D01*
X140904247Y-99700000D01*
X140922378Y-99802832D01*
X140925098Y-99818254D01*
X140985138Y-99922246D01*
X140985140Y-99922248D01*
X140985139Y-99922248D01*
X141065925Y-99990034D01*
X141077123Y-99999431D01*
X141189961Y-100040500D01*
X141310038Y-100040500D01*
X141310039Y-100040500D01*
X141422877Y-99999431D01*
X141514862Y-99922246D01*
X141565245Y-99834980D01*
X141607142Y-99802832D01*
X141659500Y-99809725D01*
X141684754Y-99834979D01*
X141735138Y-99922246D01*
X141735140Y-99922248D01*
X141735139Y-99922248D01*
X141815925Y-99990034D01*
X141827123Y-99999431D01*
X141939961Y-100040500D01*
X142060038Y-100040500D01*
X142060039Y-100040500D01*
X142172877Y-99999431D01*
X142264862Y-99922246D01*
X142324902Y-99818254D01*
X142345753Y-99700000D01*
X142324902Y-99581746D01*
X142264862Y-99477754D01*
X142264859Y-99477751D01*
X142264860Y-99477751D01*
X142172877Y-99400569D01*
X142172876Y-99400569D01*
X142143394Y-99389838D01*
X142104459Y-99354161D01*
X142102155Y-99301401D01*
X142137833Y-99262465D01*
X142143387Y-99260164D01*
X142172877Y-99249431D01*
X142264862Y-99172246D01*
X142324902Y-99068254D01*
X142345753Y-98950000D01*
X142324902Y-98831746D01*
X142264862Y-98727754D01*
X142264859Y-98727751D01*
X142264860Y-98727751D01*
X142172877Y-98650569D01*
X142172876Y-98650569D01*
X142143394Y-98639838D01*
X142104459Y-98604161D01*
X142102155Y-98551401D01*
X142137833Y-98512465D01*
X142143387Y-98510164D01*
X142172877Y-98499431D01*
X142264862Y-98422246D01*
X142324902Y-98318254D01*
X142332047Y-98277727D01*
X142360423Y-98233187D01*
X142411981Y-98221756D01*
X142456521Y-98250131D01*
X142467952Y-98277727D01*
X142475097Y-98318252D01*
X142475097Y-98318253D01*
X142475098Y-98318254D01*
X142535138Y-98422246D01*
X142535140Y-98422248D01*
X142535139Y-98422248D01*
X142615925Y-98490034D01*
X142627123Y-98499431D01*
X142739961Y-98540500D01*
X142860038Y-98540500D01*
X142860039Y-98540500D01*
X142972877Y-98499431D01*
X143064862Y-98422246D01*
X143115245Y-98334978D01*
X143157140Y-98302832D01*
X143209499Y-98309725D01*
X143234754Y-98334980D01*
X143285138Y-98422246D01*
X143285139Y-98422248D01*
X143365925Y-98490034D01*
X143377123Y-98499431D01*
X143489961Y-98540500D01*
X143610038Y-98540500D01*
X143610039Y-98540500D01*
X143722877Y-98499431D01*
X143814862Y-98422246D01*
X143874902Y-98318254D01*
X143895753Y-98200000D01*
X143874902Y-98081746D01*
X143814862Y-97977754D01*
X143814859Y-97977751D01*
X143814860Y-97977751D01*
X143722877Y-97900569D01*
X143610040Y-97859500D01*
X143610039Y-97859500D01*
X143489961Y-97859500D01*
X143433542Y-97880034D01*
X143377123Y-97900569D01*
X143285139Y-97977751D01*
X143234756Y-98065018D01*
X143192858Y-98097167D01*
X143140500Y-98090274D01*
X143115244Y-98065018D01*
X143064862Y-97977754D01*
X143064859Y-97977751D01*
X143064860Y-97977751D01*
X142972877Y-97900569D01*
X142860040Y-97859500D01*
X142860039Y-97859500D01*
X142739961Y-97859500D01*
X142683542Y-97880034D01*
X142627123Y-97900569D01*
X142535140Y-97977751D01*
X142475097Y-98081748D01*
X142467952Y-98122272D01*
X142439577Y-98166812D01*
X142388019Y-98178243D01*
X142343479Y-98149868D01*
X142332048Y-98122272D01*
X142327621Y-98097167D01*
X142324902Y-98081746D01*
X142264862Y-97977754D01*
X142264859Y-97977751D01*
X142264860Y-97977751D01*
X142172877Y-97900569D01*
X142060040Y-97859500D01*
X142060039Y-97859500D01*
X141939961Y-97859500D01*
X141883542Y-97880034D01*
X141827123Y-97900569D01*
X141735139Y-97977751D01*
X141684756Y-98065018D01*
X141642858Y-98097167D01*
X141590500Y-98090274D01*
X141565244Y-98065018D01*
X141514862Y-97977754D01*
X141514859Y-97977751D01*
X141514860Y-97977751D01*
X141422877Y-97900569D01*
X141310040Y-97859500D01*
X141310039Y-97859500D01*
X141189961Y-97859500D01*
X141133542Y-97880034D01*
X141077123Y-97900569D01*
X140985140Y-97977751D01*
X140925097Y-98081748D01*
X140904247Y-98200000D01*
X140922378Y-98302832D01*
X140925098Y-98318254D01*
X140985138Y-98422246D01*
X140985140Y-98422248D01*
X140985139Y-98422248D01*
X141065925Y-98490034D01*
X141077123Y-98499431D01*
X141106604Y-98510161D01*
X141145540Y-98545839D01*
X141147844Y-98598599D01*
X141112166Y-98637535D01*
X141106605Y-98639839D01*
X141077122Y-98650569D01*
X140985140Y-98727751D01*
X140925097Y-98831748D01*
X140904247Y-98949999D01*
X140922378Y-99052832D01*
X140925098Y-99068254D01*
X140985138Y-99172246D01*
X140985140Y-99172248D01*
X140985139Y-99172248D01*
X141065925Y-99240034D01*
X141077123Y-99249431D01*
X141106604Y-99260161D01*
X141145540Y-99295839D01*
X141147844Y-99348599D01*
X141112166Y-99387535D01*
X141106605Y-99389839D01*
X141077122Y-99400569D01*
X140985140Y-99477751D01*
X140985138Y-99477753D01*
X140985138Y-99477754D01*
X140925098Y-99581746D01*
X140925097Y-99581748D01*
X140904247Y-99700000D01*
X115200000Y-99700000D01*
X115200000Y-95950000D01*
X144904247Y-95950000D01*
X144925098Y-96068254D01*
X144985138Y-96172246D01*
X144985140Y-96172248D01*
X144985139Y-96172248D01*
X145043109Y-96220890D01*
X145077123Y-96249431D01*
X145189961Y-96290500D01*
X145310038Y-96290500D01*
X145310039Y-96290500D01*
X145422877Y-96249431D01*
X145514862Y-96172246D01*
X145574902Y-96068254D01*
X145595753Y-95950000D01*
X145574902Y-95831746D01*
X145514862Y-95727754D01*
X145514859Y-95727751D01*
X145514860Y-95727751D01*
X145422877Y-95650569D01*
X145310040Y-95609500D01*
X145310039Y-95609500D01*
X145189961Y-95609500D01*
X145133542Y-95630034D01*
X145077123Y-95650569D01*
X144985140Y-95727751D01*
X144925097Y-95831748D01*
X144904247Y-95949999D01*
X144904247Y-95950000D01*
X115200000Y-95950000D01*
X115200000Y-94400000D01*
X125554247Y-94400000D01*
X125558544Y-94424373D01*
X125575098Y-94518254D01*
X125635138Y-94622246D01*
X125635140Y-94622248D01*
X125635139Y-94622248D01*
X125692299Y-94670210D01*
X125727123Y-94699431D01*
X125839961Y-94740500D01*
X125960038Y-94740500D01*
X125960039Y-94740500D01*
X126072877Y-94699431D01*
X126164862Y-94622246D01*
X126224902Y-94518254D01*
X126245753Y-94400000D01*
X126244786Y-94394517D01*
X126256213Y-94342960D01*
X126263935Y-94333755D01*
X126293724Y-94303967D01*
X126342513Y-94283759D01*
X126391303Y-94303969D01*
X126411512Y-94352760D01*
X126410464Y-94364740D01*
X126407218Y-94383149D01*
X126404247Y-94400000D01*
X126425098Y-94518254D01*
X126485138Y-94622246D01*
X126485140Y-94622248D01*
X126485139Y-94622248D01*
X126542299Y-94670210D01*
X126577123Y-94699431D01*
X126689961Y-94740500D01*
X126810038Y-94740500D01*
X126810039Y-94740500D01*
X126922877Y-94699431D01*
X127014862Y-94622246D01*
X127074902Y-94518254D01*
X127082084Y-94477518D01*
X127110460Y-94432978D01*
X127150037Y-94420500D01*
X137710205Y-94420500D01*
X137732996Y-94424373D01*
X137733363Y-94424501D01*
X137733521Y-94424556D01*
X137767593Y-94420716D01*
X137771457Y-94420500D01*
X137781411Y-94420500D01*
X137781412Y-94420500D01*
X137791119Y-94418283D01*
X137794934Y-94417636D01*
X137802870Y-94416741D01*
X137829008Y-94413797D01*
X137829475Y-94413502D01*
X137850839Y-94404653D01*
X137851377Y-94404531D01*
X137878198Y-94383140D01*
X137881336Y-94380915D01*
X137889772Y-94375616D01*
X137896815Y-94368571D01*
X137899696Y-94365998D01*
X137916296Y-94352760D01*
X137926504Y-94344620D01*
X137926745Y-94344118D01*
X137940121Y-94325265D01*
X139915386Y-92350000D01*
X144904247Y-92350000D01*
X144925098Y-92468254D01*
X144985138Y-92572246D01*
X144985140Y-92572248D01*
X144985139Y-92572248D01*
X145065925Y-92640034D01*
X145077123Y-92649431D01*
X145189961Y-92690500D01*
X145310038Y-92690500D01*
X145310039Y-92690500D01*
X145422877Y-92649431D01*
X145514862Y-92572246D01*
X145574902Y-92468254D01*
X145595753Y-92350000D01*
X145574902Y-92231746D01*
X145514862Y-92127754D01*
X145514859Y-92127751D01*
X145514860Y-92127751D01*
X145422877Y-92050569D01*
X145310040Y-92009500D01*
X145310039Y-92009500D01*
X145189961Y-92009500D01*
X145133542Y-92030034D01*
X145077123Y-92050569D01*
X144985140Y-92127751D01*
X144985138Y-92127753D01*
X144985138Y-92127754D01*
X144925098Y-92231746D01*
X144925097Y-92231748D01*
X144904247Y-92349999D01*
X144904247Y-92350000D01*
X139915386Y-92350000D01*
X140025265Y-92240121D01*
X140044118Y-92226745D01*
X140044620Y-92226504D01*
X140056122Y-92212079D01*
X140065998Y-92199696D01*
X140068571Y-92196815D01*
X140075616Y-92189772D01*
X140080913Y-92181339D01*
X140083150Y-92178187D01*
X140104531Y-92151377D01*
X140104654Y-92150839D01*
X140113505Y-92129472D01*
X140113797Y-92129007D01*
X140113797Y-92129005D01*
X140113938Y-92127754D01*
X140117637Y-92094917D01*
X140118284Y-92091120D01*
X140118365Y-92090764D01*
X140120500Y-92081412D01*
X140120500Y-92071455D01*
X140120717Y-92067588D01*
X140124556Y-92033521D01*
X140124372Y-92032995D01*
X140120500Y-92010206D01*
X140120500Y-89823467D01*
X140140709Y-89774678D01*
X140634678Y-89280710D01*
X140683468Y-89260500D01*
X146375588Y-89260500D01*
X146424378Y-89280710D01*
X146444588Y-89329500D01*
X146435344Y-89363998D01*
X146431011Y-89371503D01*
X146425097Y-89381747D01*
X146404247Y-89500000D01*
X146419794Y-89588177D01*
X146425098Y-89618254D01*
X146485138Y-89722246D01*
X146485140Y-89722248D01*
X146485139Y-89722248D01*
X146547622Y-89774677D01*
X146577123Y-89799431D01*
X146689961Y-89840500D01*
X146810038Y-89840500D01*
X146810039Y-89840500D01*
X146922877Y-89799431D01*
X147014862Y-89722246D01*
X147074233Y-89619412D01*
X147116127Y-89587266D01*
X147168486Y-89594159D01*
X147200635Y-89636056D01*
X147202552Y-89661639D01*
X147202238Y-89664431D01*
X147201590Y-89668244D01*
X147199501Y-89677402D01*
X147199500Y-89677411D01*
X147199500Y-89686807D01*
X147199283Y-89690667D01*
X147198660Y-89696204D01*
X147195637Y-89723026D01*
X147195647Y-89723111D01*
X147199500Y-89745786D01*
X147199500Y-90291572D01*
X147179290Y-90340362D01*
X147174852Y-90344429D01*
X147135140Y-90377751D01*
X147135138Y-90377753D01*
X147135138Y-90377754D01*
X147081705Y-90470302D01*
X147075097Y-90481748D01*
X147054247Y-90600000D01*
X147069794Y-90688177D01*
X147075098Y-90718254D01*
X147135138Y-90822246D01*
X147135140Y-90822248D01*
X147135139Y-90822248D01*
X147208099Y-90883468D01*
X147227123Y-90899431D01*
X147339961Y-90940500D01*
X147460038Y-90940500D01*
X147460039Y-90940500D01*
X147572877Y-90899431D01*
X147576147Y-90896686D01*
X147626512Y-90880805D01*
X147673356Y-90905189D01*
X147689500Y-90949543D01*
X147689500Y-91099963D01*
X147669290Y-91148753D01*
X147664852Y-91152820D01*
X147635140Y-91177751D01*
X147635138Y-91177753D01*
X147635138Y-91177754D01*
X147575291Y-91281412D01*
X147575097Y-91281748D01*
X147554247Y-91400000D01*
X147571778Y-91499430D01*
X147575098Y-91518254D01*
X147635138Y-91622246D01*
X147635140Y-91622248D01*
X147635139Y-91622248D01*
X147715925Y-91690034D01*
X147727123Y-91699431D01*
X147839961Y-91740500D01*
X147960038Y-91740500D01*
X147960039Y-91740500D01*
X148072877Y-91699431D01*
X148128283Y-91652939D01*
X148155648Y-91629978D01*
X148206014Y-91614098D01*
X148244352Y-91629978D01*
X148306783Y-91682363D01*
X148327123Y-91699431D01*
X148439961Y-91740500D01*
X148560038Y-91740500D01*
X148560039Y-91740500D01*
X148672877Y-91699431D01*
X148764862Y-91622246D01*
X148824902Y-91518254D01*
X148845753Y-91400000D01*
X148824902Y-91281746D01*
X148764862Y-91177754D01*
X148764860Y-91177752D01*
X148735147Y-91152819D01*
X148710762Y-91105975D01*
X148710500Y-91099963D01*
X148710500Y-90815772D01*
X148730710Y-90766982D01*
X148846982Y-90650710D01*
X148895772Y-90630500D01*
X156117898Y-90630500D01*
X156140689Y-90634373D01*
X156141213Y-90634556D01*
X156141216Y-90634557D01*
X156175289Y-90630716D01*
X156179153Y-90630500D01*
X156189107Y-90630501D01*
X156198811Y-90628285D01*
X156202629Y-90627637D01*
X156210565Y-90626742D01*
X156236703Y-90623798D01*
X156237170Y-90623503D01*
X156258534Y-90614654D01*
X156259072Y-90614532D01*
X156285893Y-90593141D01*
X156289031Y-90590916D01*
X156297467Y-90585617D01*
X156304510Y-90578572D01*
X156307391Y-90575999D01*
X156319774Y-90566123D01*
X156334199Y-90554621D01*
X156334440Y-90554119D01*
X156347816Y-90535266D01*
X157032373Y-89850710D01*
X157081164Y-89830500D01*
X160800500Y-89830500D01*
X160849290Y-89850710D01*
X160869500Y-89899500D01*
X160869500Y-90286531D01*
X160849290Y-90335320D01*
X160806860Y-90377751D01*
X160774732Y-90409879D01*
X160755889Y-90423251D01*
X160755378Y-90423496D01*
X160734000Y-90450304D01*
X160731422Y-90453189D01*
X160724388Y-90460222D01*
X160724382Y-90460230D01*
X160719082Y-90468663D01*
X160716846Y-90471815D01*
X160707316Y-90483765D01*
X160695468Y-90498624D01*
X160695467Y-90498625D01*
X160695467Y-90498626D01*
X160695466Y-90498628D01*
X160695342Y-90499172D01*
X160686503Y-90520512D01*
X160686201Y-90520991D01*
X160682361Y-90555066D01*
X160681714Y-90558878D01*
X160679499Y-90568584D01*
X160679499Y-90578543D01*
X160679282Y-90582409D01*
X160675442Y-90616480D01*
X160675626Y-90617005D01*
X160679499Y-90639796D01*
X160679499Y-91210209D01*
X160675629Y-91232993D01*
X160675444Y-91233521D01*
X160679282Y-91267589D01*
X160679499Y-91271451D01*
X160679499Y-91281410D01*
X160681715Y-91291122D01*
X160682362Y-91294934D01*
X160686202Y-91329006D01*
X160686202Y-91329008D01*
X160686501Y-91329483D01*
X160695343Y-91350828D01*
X160695467Y-91351373D01*
X160695469Y-91351377D01*
X160716845Y-91378184D01*
X160719083Y-91381338D01*
X160723921Y-91389036D01*
X160724384Y-91389772D01*
X160731425Y-91396813D01*
X160733997Y-91399691D01*
X160742972Y-91410945D01*
X160755380Y-91426504D01*
X160755878Y-91426744D01*
X160774734Y-91440122D01*
X161059877Y-91725265D01*
X161073253Y-91744115D01*
X161073496Y-91744620D01*
X161073497Y-91744621D01*
X161100308Y-91766002D01*
X161103183Y-91768571D01*
X161110229Y-91775617D01*
X161118647Y-91780906D01*
X161118663Y-91780916D01*
X161121820Y-91783157D01*
X161148623Y-91804531D01*
X161148624Y-91804532D01*
X161149162Y-91804655D01*
X161170521Y-91813501D01*
X161170686Y-91813604D01*
X161170994Y-91813798D01*
X161184430Y-91815311D01*
X161205063Y-91817637D01*
X161208875Y-91818283D01*
X161218589Y-91820501D01*
X161228541Y-91820500D01*
X161232405Y-91820716D01*
X161266480Y-91824557D01*
X161266802Y-91824444D01*
X161267004Y-91824374D01*
X161289798Y-91820500D01*
X161960206Y-91820500D01*
X161982995Y-91824372D01*
X161983521Y-91824556D01*
X162017593Y-91820716D01*
X162021457Y-91820500D01*
X162031411Y-91820500D01*
X162031412Y-91820500D01*
X162041119Y-91818283D01*
X162044934Y-91817636D01*
X162052870Y-91816741D01*
X162079008Y-91813797D01*
X162079475Y-91813502D01*
X162100839Y-91804653D01*
X162101377Y-91804531D01*
X162128198Y-91783140D01*
X162131336Y-91780915D01*
X162139772Y-91775616D01*
X162146815Y-91768571D01*
X162149696Y-91765998D01*
X162162079Y-91756122D01*
X162176504Y-91744620D01*
X162176745Y-91744118D01*
X162190121Y-91725265D01*
X162475265Y-91440121D01*
X162494118Y-91426745D01*
X162494620Y-91426504D01*
X162506122Y-91412079D01*
X162515998Y-91399696D01*
X162518571Y-91396815D01*
X162525616Y-91389772D01*
X162530915Y-91381336D01*
X162533140Y-91378198D01*
X162554531Y-91351377D01*
X162554653Y-91350839D01*
X162563502Y-91329475D01*
X162563797Y-91329008D01*
X162567636Y-91294934D01*
X162568285Y-91291113D01*
X162570500Y-91281411D01*
X162570500Y-91271456D01*
X162570717Y-91267589D01*
X162574556Y-91233521D01*
X162574372Y-91232996D01*
X162570500Y-91210207D01*
X162570500Y-87407489D01*
X162574373Y-87384698D01*
X162574556Y-87384174D01*
X162571032Y-87352902D01*
X162570716Y-87350103D01*
X162570500Y-87346241D01*
X162570500Y-87336285D01*
X162570500Y-87336284D01*
X162568281Y-87326566D01*
X162567635Y-87322762D01*
X162563796Y-87288688D01*
X162563796Y-87288687D01*
X162563501Y-87288218D01*
X162554654Y-87266859D01*
X162554531Y-87266319D01*
X162533149Y-87239507D01*
X162530913Y-87236355D01*
X162525615Y-87227922D01*
X162522097Y-87224405D01*
X162518570Y-87220878D01*
X162515997Y-87217999D01*
X162499133Y-87196852D01*
X162494620Y-87191192D01*
X162494619Y-87191191D01*
X162494114Y-87190948D01*
X162475264Y-87177572D01*
X161830710Y-86533018D01*
X161810500Y-86484228D01*
X161810500Y-84200036D01*
X161830710Y-84151246D01*
X161835135Y-84147189D01*
X161864862Y-84122246D01*
X161924902Y-84018254D01*
X161945753Y-83900000D01*
X161924902Y-83781746D01*
X161864862Y-83677754D01*
X161864859Y-83677751D01*
X161864860Y-83677751D01*
X161772877Y-83600569D01*
X161660040Y-83559500D01*
X161660039Y-83559500D01*
X161539961Y-83559500D01*
X161486756Y-83578865D01*
X161427123Y-83600569D01*
X161335140Y-83677751D01*
X161335138Y-83677753D01*
X161335138Y-83677754D01*
X161275098Y-83781746D01*
X161275097Y-83781748D01*
X161254247Y-83900000D01*
X161262018Y-83944076D01*
X161275098Y-84018254D01*
X161335138Y-84122246D01*
X161364852Y-84147179D01*
X161389237Y-84194021D01*
X161389500Y-84200036D01*
X161389500Y-86552510D01*
X161385628Y-86575299D01*
X161385443Y-86575825D01*
X161388283Y-86601021D01*
X161389256Y-86609658D01*
X161389283Y-86609893D01*
X161389500Y-86613760D01*
X161389500Y-86623723D01*
X161391715Y-86633426D01*
X161392362Y-86637239D01*
X161396202Y-86671311D01*
X161396202Y-86671312D01*
X161396501Y-86671787D01*
X161405343Y-86693132D01*
X161405467Y-86693677D01*
X161405469Y-86693681D01*
X161426845Y-86720488D01*
X161429083Y-86723642D01*
X161433921Y-86731340D01*
X161434384Y-86732076D01*
X161441425Y-86739117D01*
X161443997Y-86741995D01*
X161452972Y-86753249D01*
X161465380Y-86768808D01*
X161465878Y-86769048D01*
X161484734Y-86782426D01*
X161644018Y-86941710D01*
X161664228Y-86990500D01*
X161644018Y-87039290D01*
X161595228Y-87059500D01*
X161539961Y-87059500D01*
X161483542Y-87080034D01*
X161427123Y-87100569D01*
X161335140Y-87177751D01*
X161335138Y-87177753D01*
X161335138Y-87177754D01*
X161284005Y-87266319D01*
X161275097Y-87281748D01*
X161254247Y-87400000D01*
X161269289Y-87485312D01*
X161275098Y-87518254D01*
X161335138Y-87622246D01*
X161335140Y-87622248D01*
X161335139Y-87622248D01*
X161407600Y-87683049D01*
X161427123Y-87699431D01*
X161539961Y-87740500D01*
X161614228Y-87740500D01*
X161663018Y-87760710D01*
X161869290Y-87966982D01*
X161889500Y-88015772D01*
X161889500Y-89376079D01*
X161869290Y-89424869D01*
X161820500Y-89445079D01*
X161771710Y-89424869D01*
X161766551Y-89419097D01*
X161765618Y-89417928D01*
X161765616Y-89417924D01*
X161758570Y-89410878D01*
X161755997Y-89407999D01*
X161749164Y-89399431D01*
X161734620Y-89381192D01*
X161734619Y-89381191D01*
X161734114Y-89380948D01*
X161715264Y-89367572D01*
X161332426Y-88984734D01*
X161319047Y-88965877D01*
X161318808Y-88965380D01*
X161303249Y-88952972D01*
X161291995Y-88943997D01*
X161289115Y-88941423D01*
X161282076Y-88934384D01*
X161281340Y-88933921D01*
X161273642Y-88929083D01*
X161270488Y-88926845D01*
X161243681Y-88905469D01*
X161243677Y-88905467D01*
X161243132Y-88905343D01*
X161221787Y-88896501D01*
X161221311Y-88896202D01*
X161187239Y-88892362D01*
X161183426Y-88891715D01*
X161173723Y-88889500D01*
X161173716Y-88889500D01*
X161163761Y-88889500D01*
X161159897Y-88889283D01*
X161155103Y-88888743D01*
X161125823Y-88885443D01*
X161125300Y-88885627D01*
X161102509Y-88889500D01*
X156797491Y-88889500D01*
X156774700Y-88885627D01*
X156774175Y-88885443D01*
X156743937Y-88888851D01*
X156740102Y-88889283D01*
X156736239Y-88889500D01*
X156726279Y-88889500D01*
X156716573Y-88891715D01*
X156712761Y-88892362D01*
X156678686Y-88896202D01*
X156678207Y-88896504D01*
X156656867Y-88905343D01*
X156656323Y-88905467D01*
X156656321Y-88905468D01*
X156656320Y-88905468D01*
X156656319Y-88905469D01*
X156641460Y-88917317D01*
X156629510Y-88926847D01*
X156626358Y-88929083D01*
X156617925Y-88934383D01*
X156617917Y-88934389D01*
X156610884Y-88941423D01*
X156607999Y-88944001D01*
X156581191Y-88965379D01*
X156580946Y-88965890D01*
X156567573Y-88984733D01*
X155883018Y-89669290D01*
X155834228Y-89689500D01*
X148447490Y-89689500D01*
X148424701Y-89685628D01*
X148424173Y-89685443D01*
X148396510Y-89688561D01*
X148390103Y-89689283D01*
X148386241Y-89689500D01*
X148376284Y-89689500D01*
X148376282Y-89689500D01*
X148376275Y-89689501D01*
X148366572Y-89691715D01*
X148362760Y-89692363D01*
X148328686Y-89696204D01*
X148328208Y-89696505D01*
X148306869Y-89705343D01*
X148306321Y-89705467D01*
X148306317Y-89705470D01*
X148279504Y-89726851D01*
X148276349Y-89729090D01*
X148267921Y-89734386D01*
X148267917Y-89734389D01*
X148260884Y-89741423D01*
X148257999Y-89744001D01*
X148231191Y-89765379D01*
X148230946Y-89765890D01*
X148217573Y-89784733D01*
X147718290Y-90284016D01*
X147669500Y-90304226D01*
X147620710Y-90284016D01*
X147600500Y-90235226D01*
X147600500Y-89811628D01*
X147620709Y-89762839D01*
X147809396Y-89574151D01*
X147828159Y-89560838D01*
X147828219Y-89560790D01*
X147828224Y-89560788D01*
X147848542Y-89535308D01*
X147851096Y-89532451D01*
X147857748Y-89525801D01*
X147862745Y-89517847D01*
X147864976Y-89514703D01*
X147885290Y-89489231D01*
X147885290Y-89489229D01*
X147885291Y-89489229D01*
X147885335Y-89489137D01*
X147894084Y-89468012D01*
X147894115Y-89467925D01*
X147894116Y-89467924D01*
X147897764Y-89435535D01*
X147898404Y-89431769D01*
X147900500Y-89422590D01*
X147900500Y-89413191D01*
X147900717Y-89409325D01*
X147900819Y-89408426D01*
X147904362Y-89376974D01*
X147904355Y-89376909D01*
X147900500Y-89354212D01*
X147900500Y-89100000D01*
X154984247Y-89100000D01*
X155005098Y-89218254D01*
X155065138Y-89322246D01*
X155065140Y-89322248D01*
X155065139Y-89322248D01*
X155135387Y-89381192D01*
X155157123Y-89399431D01*
X155269961Y-89440500D01*
X155390038Y-89440500D01*
X155390039Y-89440500D01*
X155502877Y-89399431D01*
X155594862Y-89322246D01*
X155654902Y-89218254D01*
X155669137Y-89137518D01*
X155697513Y-89092979D01*
X155737090Y-89080500D01*
X155750038Y-89080500D01*
X155750039Y-89080500D01*
X155862877Y-89039431D01*
X155954862Y-88962246D01*
X156014902Y-88858254D01*
X156035753Y-88740000D01*
X156014902Y-88621746D01*
X155954862Y-88517754D01*
X155954859Y-88517751D01*
X155954860Y-88517751D01*
X155862877Y-88440569D01*
X155750040Y-88399500D01*
X155750039Y-88399500D01*
X155629961Y-88399500D01*
X155573542Y-88420034D01*
X155517123Y-88440569D01*
X155425140Y-88517751D01*
X155425138Y-88517753D01*
X155425138Y-88517754D01*
X155402162Y-88557549D01*
X155365097Y-88621747D01*
X155350862Y-88702482D01*
X155322487Y-88747021D01*
X155282910Y-88759500D01*
X155269961Y-88759500D01*
X155213542Y-88780034D01*
X155157123Y-88800569D01*
X155065140Y-88877751D01*
X155065138Y-88877753D01*
X155065138Y-88877754D01*
X155008262Y-88976266D01*
X155005097Y-88981748D01*
X154990268Y-89065852D01*
X154984247Y-89100000D01*
X147900500Y-89100000D01*
X147900500Y-87645786D01*
X147904352Y-87623111D01*
X147904362Y-87623026D01*
X147900717Y-87590673D01*
X147900500Y-87586807D01*
X147900500Y-87577410D01*
X147898408Y-87568246D01*
X147897761Y-87564442D01*
X147894116Y-87532076D01*
X147894115Y-87532074D01*
X147894115Y-87532073D01*
X147894086Y-87531991D01*
X147885334Y-87510861D01*
X147885290Y-87510769D01*
X147864981Y-87485303D01*
X147862754Y-87482164D01*
X147857749Y-87474199D01*
X147857748Y-87474198D01*
X147857746Y-87474195D01*
X147851105Y-87467555D01*
X147848525Y-87464668D01*
X147829251Y-87440500D01*
X147828224Y-87439212D01*
X147828223Y-87439211D01*
X147828221Y-87439209D01*
X147828181Y-87439177D01*
X147809397Y-87425847D01*
X147374154Y-86990605D01*
X147360844Y-86971845D01*
X147360789Y-86971776D01*
X147335324Y-86951469D01*
X147332445Y-86948896D01*
X147329120Y-86945571D01*
X147325804Y-86942254D01*
X147325801Y-86942252D01*
X147317849Y-86937254D01*
X147314702Y-86935022D01*
X147289230Y-86914709D01*
X147289155Y-86914673D01*
X147268000Y-86905910D01*
X147267922Y-86905883D01*
X147245195Y-86903323D01*
X147235563Y-86902238D01*
X147231754Y-86901590D01*
X147222596Y-86899500D01*
X147222590Y-86899500D01*
X147213192Y-86899500D01*
X147209333Y-86899283D01*
X147193425Y-86897491D01*
X147176969Y-86895637D01*
X147170409Y-86896376D01*
X147119664Y-86881754D01*
X147118335Y-86880667D01*
X147022877Y-86800569D01*
X146910040Y-86759500D01*
X146910039Y-86759500D01*
X146789961Y-86759500D01*
X146763731Y-86769047D01*
X146677123Y-86800569D01*
X146585140Y-86877751D01*
X146585138Y-86877753D01*
X146585138Y-86877754D01*
X146525098Y-86981746D01*
X146525097Y-86981748D01*
X146504247Y-87100000D01*
X146520909Y-87194500D01*
X146525098Y-87218254D01*
X146585138Y-87322246D01*
X146585140Y-87322248D01*
X146585139Y-87322248D01*
X146659565Y-87384698D01*
X146677123Y-87399431D01*
X146789961Y-87440500D01*
X146910038Y-87440500D01*
X146910039Y-87440500D01*
X147022877Y-87399431D01*
X147079389Y-87352011D01*
X147129753Y-87336132D01*
X147172530Y-87356079D01*
X147479290Y-87662839D01*
X147499500Y-87711629D01*
X147499500Y-87879915D01*
X147479290Y-87928705D01*
X147430500Y-87948915D01*
X147406901Y-87944754D01*
X147310040Y-87909500D01*
X147310039Y-87909500D01*
X147189961Y-87909500D01*
X147156859Y-87921548D01*
X147073501Y-87951887D01*
X147020741Y-87949583D01*
X146990147Y-87921549D01*
X146964862Y-87877754D01*
X146964859Y-87877751D01*
X146964860Y-87877751D01*
X146872877Y-87800569D01*
X146760040Y-87759500D01*
X146760039Y-87759500D01*
X146639961Y-87759500D01*
X146636637Y-87760710D01*
X146527123Y-87800569D01*
X146435140Y-87877751D01*
X146435138Y-87877753D01*
X146435138Y-87877754D01*
X146393098Y-87950569D01*
X146375097Y-87981748D01*
X146369098Y-88015772D01*
X146354247Y-88100000D01*
X146375098Y-88218254D01*
X146435138Y-88322246D01*
X146435140Y-88322248D01*
X146435139Y-88322248D01*
X146482287Y-88361809D01*
X146527123Y-88399431D01*
X146627516Y-88435970D01*
X146666452Y-88471648D01*
X146668756Y-88524408D01*
X146652710Y-88549597D01*
X146643020Y-88559288D01*
X146594231Y-88579500D01*
X140507491Y-88579500D01*
X140484700Y-88575627D01*
X140484175Y-88575443D01*
X140453937Y-88578851D01*
X140450102Y-88579283D01*
X140446239Y-88579500D01*
X140436279Y-88579500D01*
X140426573Y-88581715D01*
X140422761Y-88582362D01*
X140388686Y-88586202D01*
X140388207Y-88586504D01*
X140366867Y-88595343D01*
X140366323Y-88595467D01*
X140366321Y-88595468D01*
X140366320Y-88595468D01*
X140366319Y-88595469D01*
X140351460Y-88607317D01*
X140339510Y-88616847D01*
X140336358Y-88619083D01*
X140327925Y-88624383D01*
X140327917Y-88624389D01*
X140320884Y-88631423D01*
X140317999Y-88634001D01*
X140291191Y-88655379D01*
X140290946Y-88655890D01*
X140277573Y-88674733D01*
X139534733Y-89417573D01*
X139515890Y-89430946D01*
X139515379Y-89431191D01*
X139494001Y-89457999D01*
X139491423Y-89460884D01*
X139484389Y-89467917D01*
X139484383Y-89467925D01*
X139479083Y-89476358D01*
X139476847Y-89479510D01*
X139469097Y-89489229D01*
X139455469Y-89506319D01*
X139455468Y-89506320D01*
X139455468Y-89506321D01*
X139455467Y-89506323D01*
X139455343Y-89506867D01*
X139446504Y-89528207D01*
X139446202Y-89528686D01*
X139442362Y-89562761D01*
X139441715Y-89566573D01*
X139439500Y-89576279D01*
X139439500Y-89586238D01*
X139439283Y-89590104D01*
X139435443Y-89624175D01*
X139435627Y-89624700D01*
X139439500Y-89647491D01*
X139439500Y-91834227D01*
X139419290Y-91883017D01*
X137583018Y-93719290D01*
X137534228Y-93739500D01*
X126397490Y-93739500D01*
X126374699Y-93735627D01*
X126374174Y-93735443D01*
X126343936Y-93738851D01*
X126340101Y-93739283D01*
X126336238Y-93739500D01*
X126326279Y-93739500D01*
X126316573Y-93741715D01*
X126312761Y-93742362D01*
X126278686Y-93746202D01*
X126278207Y-93746504D01*
X126256867Y-93755343D01*
X126256323Y-93755467D01*
X126256321Y-93755468D01*
X126256320Y-93755468D01*
X126256319Y-93755469D01*
X126241460Y-93767317D01*
X126229510Y-93776847D01*
X126226358Y-93779083D01*
X126217925Y-93784383D01*
X126217917Y-93784389D01*
X126210884Y-93791423D01*
X126207999Y-93794001D01*
X126181191Y-93815379D01*
X126180946Y-93815890D01*
X126167573Y-93834733D01*
X125963017Y-94039290D01*
X125914228Y-94059500D01*
X125839961Y-94059500D01*
X125783542Y-94080034D01*
X125727123Y-94100569D01*
X125635140Y-94177751D01*
X125575097Y-94281748D01*
X125554247Y-94400000D01*
X115200000Y-94400000D01*
X115200000Y-90700000D01*
X115200000Y-89899500D01*
X115199999Y-89065851D01*
X115220209Y-89017062D01*
X115268940Y-88996852D01*
X118150303Y-88994510D01*
X118162743Y-88994500D01*
X118487423Y-88976266D01*
X118487426Y-88976265D01*
X118487435Y-88976265D01*
X118808049Y-88921791D01*
X119120547Y-88831762D01*
X119421001Y-88707310D01*
X119705631Y-88550000D01*
X119970858Y-88361811D01*
X120213348Y-88145110D01*
X120430049Y-87902620D01*
X120618238Y-87637393D01*
X120775548Y-87352763D01*
X120900000Y-87052309D01*
X120990029Y-86739811D01*
X121030774Y-86500003D01*
X157095131Y-86500003D01*
X157112498Y-86609658D01*
X157112501Y-86609665D01*
X157162902Y-86708583D01*
X157162905Y-86708587D01*
X157241412Y-86787094D01*
X157241416Y-86787097D01*
X157340334Y-86837498D01*
X157340341Y-86837501D01*
X157449996Y-86854869D01*
X157450000Y-86854869D01*
X157450004Y-86854869D01*
X157559658Y-86837501D01*
X157559659Y-86837500D01*
X157559661Y-86837500D01*
X157658587Y-86787095D01*
X157737095Y-86708587D01*
X157780339Y-86623716D01*
X157787498Y-86609665D01*
X157787501Y-86609658D01*
X157804869Y-86500003D01*
X157804869Y-86499996D01*
X157787501Y-86390341D01*
X157787498Y-86390334D01*
X157737097Y-86291416D01*
X157737094Y-86291412D01*
X157658587Y-86212905D01*
X157658583Y-86212902D01*
X157559665Y-86162501D01*
X157559658Y-86162498D01*
X157450004Y-86145131D01*
X157449996Y-86145131D01*
X157340341Y-86162498D01*
X157340334Y-86162501D01*
X157241416Y-86212902D01*
X157241412Y-86212905D01*
X157162905Y-86291412D01*
X157162902Y-86291416D01*
X157112501Y-86390334D01*
X157112498Y-86390341D01*
X157095131Y-86499996D01*
X157095131Y-86500003D01*
X121030774Y-86500003D01*
X121044503Y-86419197D01*
X121046124Y-86390334D01*
X121062738Y-86094509D01*
X121062737Y-86094505D01*
X121062738Y-86094500D01*
X121053431Y-86000000D01*
X144854247Y-86000000D01*
X144870909Y-86094500D01*
X144875098Y-86118254D01*
X144935138Y-86222246D01*
X144935140Y-86222248D01*
X144935139Y-86222248D01*
X145015925Y-86290034D01*
X145027123Y-86299431D01*
X145139961Y-86340500D01*
X145260038Y-86340500D01*
X145260039Y-86340500D01*
X145372877Y-86299431D01*
X145464862Y-86222246D01*
X145524902Y-86118254D01*
X145545753Y-86000000D01*
X145524902Y-85881746D01*
X145464862Y-85777754D01*
X145464859Y-85777751D01*
X145464860Y-85777751D01*
X145372877Y-85700569D01*
X145260040Y-85659500D01*
X145260039Y-85659500D01*
X145139961Y-85659500D01*
X145083542Y-85680034D01*
X145027123Y-85700569D01*
X144935140Y-85777751D01*
X144875097Y-85881748D01*
X144854247Y-86000000D01*
X121053431Y-86000000D01*
X121051490Y-85980294D01*
X121051324Y-85976911D01*
X121051324Y-85922672D01*
X121051490Y-85919289D01*
X121058691Y-85846174D01*
X121058691Y-85755975D01*
X121059739Y-85743993D01*
X121074638Y-85659500D01*
X121091066Y-85566328D01*
X121094179Y-85554712D01*
X121096714Y-85547748D01*
X121155883Y-85385180D01*
X121160955Y-85374303D01*
X121189132Y-85325500D01*
X154441618Y-85325500D01*
X154462469Y-85443754D01*
X154522509Y-85547746D01*
X154522511Y-85547748D01*
X154522510Y-85547748D01*
X154603296Y-85615534D01*
X154614494Y-85624931D01*
X154727332Y-85666000D01*
X154847409Y-85666000D01*
X154847410Y-85666000D01*
X154960248Y-85624931D01*
X155052233Y-85547746D01*
X155112273Y-85443754D01*
X155133124Y-85325500D01*
X155112273Y-85207246D01*
X155052233Y-85103254D01*
X155052230Y-85103251D01*
X155052231Y-85103251D01*
X154960248Y-85026069D01*
X154847411Y-84985000D01*
X154847410Y-84985000D01*
X154727332Y-84985000D01*
X154670913Y-85005534D01*
X154614494Y-85026069D01*
X154522511Y-85103251D01*
X154522509Y-85103253D01*
X154522509Y-85103254D01*
X154462469Y-85207246D01*
X154462468Y-85207248D01*
X154441618Y-85325499D01*
X154441618Y-85325500D01*
X121189132Y-85325500D01*
X121251171Y-85218045D01*
X121258055Y-85208214D01*
X121374027Y-85070003D01*
X121382519Y-85061511D01*
X121520730Y-84945539D01*
X121530561Y-84938655D01*
X121656609Y-84865881D01*
X147050644Y-84865881D01*
X147064006Y-84941666D01*
X147071495Y-84984135D01*
X147131535Y-85088127D01*
X147131537Y-85088129D01*
X147131536Y-85088129D01*
X147212322Y-85155915D01*
X147223520Y-85165312D01*
X147336358Y-85206381D01*
X147456435Y-85206381D01*
X147456436Y-85206381D01*
X147569274Y-85165312D01*
X147661259Y-85088127D01*
X147721299Y-84984135D01*
X147742150Y-84865881D01*
X147721299Y-84747627D01*
X147661259Y-84643635D01*
X147661256Y-84643632D01*
X147661257Y-84643632D01*
X147569274Y-84566450D01*
X147456437Y-84525381D01*
X147456436Y-84525381D01*
X147336358Y-84525381D01*
X147279939Y-84545915D01*
X147223520Y-84566450D01*
X147131537Y-84643632D01*
X147131535Y-84643634D01*
X147131535Y-84643635D01*
X147115049Y-84672190D01*
X147071494Y-84747629D01*
X147050644Y-84865881D01*
X121656609Y-84865881D01*
X121686819Y-84848439D01*
X121697696Y-84843367D01*
X121867229Y-84781662D01*
X121878845Y-84778550D01*
X122034817Y-84751048D01*
X122046799Y-84750000D01*
X124749991Y-84750000D01*
X124750000Y-84750000D01*
X124937121Y-84730333D01*
X125116063Y-84672191D01*
X125279007Y-84578115D01*
X125418830Y-84452218D01*
X125529423Y-84300000D01*
X125605951Y-84128115D01*
X125645070Y-83944076D01*
X125645070Y-83796740D01*
X148355187Y-83796740D01*
X148376038Y-83914994D01*
X148436078Y-84018986D01*
X148436080Y-84018988D01*
X148436079Y-84018988D01*
X148516865Y-84086774D01*
X148528063Y-84096171D01*
X148640901Y-84137240D01*
X148760978Y-84137240D01*
X148760979Y-84137240D01*
X148873817Y-84096171D01*
X148965802Y-84018986D01*
X149025842Y-83914994D01*
X149046693Y-83796740D01*
X149025842Y-83678486D01*
X148965802Y-83574494D01*
X148965799Y-83574491D01*
X148965800Y-83574491D01*
X148873817Y-83497309D01*
X148760980Y-83456240D01*
X148760979Y-83456240D01*
X148640901Y-83456240D01*
X148584482Y-83476774D01*
X148528063Y-83497309D01*
X148436080Y-83574491D01*
X148436078Y-83574493D01*
X148436078Y-83574494D01*
X148376461Y-83677754D01*
X148376037Y-83678488D01*
X148365103Y-83740500D01*
X148355187Y-83796740D01*
X125645070Y-83796740D01*
X125645070Y-83755924D01*
X125605951Y-83571885D01*
X125529423Y-83400000D01*
X125529421Y-83399997D01*
X125529420Y-83399995D01*
X125418833Y-83247785D01*
X125279008Y-83121885D01*
X125154497Y-83049999D01*
X149654247Y-83049999D01*
X149663163Y-83100569D01*
X149675098Y-83168254D01*
X149735138Y-83272246D01*
X149735140Y-83272248D01*
X149735139Y-83272248D01*
X149815925Y-83340034D01*
X149827123Y-83349431D01*
X149939961Y-83390500D01*
X150060038Y-83390500D01*
X150060039Y-83390500D01*
X150172877Y-83349431D01*
X150264862Y-83272246D01*
X150324902Y-83168254D01*
X150345753Y-83050000D01*
X155104247Y-83050000D01*
X155113163Y-83100569D01*
X155125098Y-83168254D01*
X155185138Y-83272246D01*
X155185140Y-83272248D01*
X155185139Y-83272248D01*
X155265925Y-83340034D01*
X155277123Y-83349431D01*
X155389961Y-83390500D01*
X155394674Y-83390500D01*
X155443464Y-83410710D01*
X155462625Y-83447518D01*
X155466269Y-83468184D01*
X155475097Y-83518252D01*
X155475097Y-83518253D01*
X155475098Y-83518254D01*
X155535138Y-83622246D01*
X155535140Y-83622248D01*
X155535139Y-83622248D01*
X155601286Y-83677751D01*
X155627123Y-83699431D01*
X155739961Y-83740500D01*
X155860038Y-83740500D01*
X155860039Y-83740500D01*
X155972877Y-83699431D01*
X156064862Y-83622246D01*
X156124902Y-83518254D01*
X156145753Y-83400000D01*
X156124902Y-83281746D01*
X156064862Y-83177754D01*
X156064859Y-83177751D01*
X156064860Y-83177751D01*
X155972877Y-83100569D01*
X155860040Y-83059500D01*
X155860039Y-83059500D01*
X155855326Y-83059500D01*
X155806536Y-83039290D01*
X155787374Y-83002481D01*
X155778120Y-82950000D01*
X155774902Y-82931746D01*
X155714862Y-82827754D01*
X155714859Y-82827751D01*
X155714860Y-82827751D01*
X155622877Y-82750569D01*
X155510040Y-82709500D01*
X155510039Y-82709500D01*
X155389961Y-82709500D01*
X155333542Y-82730034D01*
X155277123Y-82750569D01*
X155185140Y-82827751D01*
X155125097Y-82931748D01*
X155104247Y-83050000D01*
X150345753Y-83050000D01*
X150324902Y-82931746D01*
X150264862Y-82827754D01*
X150264859Y-82827751D01*
X150264860Y-82827751D01*
X150172877Y-82750569D01*
X150060040Y-82709500D01*
X150060039Y-82709500D01*
X149939961Y-82709500D01*
X149883542Y-82730034D01*
X149827123Y-82750569D01*
X149735140Y-82827751D01*
X149675097Y-82931748D01*
X149654247Y-83049999D01*
X125154497Y-83049999D01*
X125116063Y-83027809D01*
X124937121Y-82969667D01*
X124937118Y-82969666D01*
X124750010Y-82950001D01*
X124750009Y-82950000D01*
X124750000Y-82950000D01*
X124749991Y-82950000D01*
X122199225Y-82950000D01*
X122195842Y-82949834D01*
X122158691Y-82946175D01*
X122158683Y-82946174D01*
X122114568Y-82948652D01*
X122091530Y-82949946D01*
X122089622Y-82950000D01*
X122000000Y-82950000D01*
X121999992Y-82950000D01*
X121999988Y-82950001D01*
X121896886Y-82960837D01*
X121895214Y-82960971D01*
X121834005Y-82964408D01*
X121833998Y-82964409D01*
X121513391Y-83018881D01*
X121513374Y-83018885D01*
X121200877Y-83108914D01*
X120900427Y-83233365D01*
X120900426Y-83233365D01*
X120615808Y-83390669D01*
X120615796Y-83390676D01*
X120350569Y-83578865D01*
X120108081Y-83795565D01*
X119891381Y-84038053D01*
X119703192Y-84303280D01*
X119703185Y-84303292D01*
X119545881Y-84587910D01*
X119545881Y-84587911D01*
X119421430Y-84888361D01*
X119331401Y-85200858D01*
X119331397Y-85200875D01*
X119276925Y-85521482D01*
X119276924Y-85521489D01*
X119269818Y-85648024D01*
X119269684Y-85649696D01*
X119251325Y-85824378D01*
X119251324Y-85824398D01*
X119251324Y-86074381D01*
X119251325Y-86074401D01*
X119262234Y-86178198D01*
X119261564Y-86197392D01*
X119230362Y-86374345D01*
X119227249Y-86385962D01*
X119165550Y-86555482D01*
X119160467Y-86566383D01*
X119070264Y-86722618D01*
X119063365Y-86732470D01*
X118947407Y-86870664D01*
X118938902Y-86879169D01*
X118800708Y-86995127D01*
X118790856Y-87002026D01*
X118634621Y-87092229D01*
X118623720Y-87097312D01*
X118454200Y-87159011D01*
X118442583Y-87162124D01*
X118264919Y-87193452D01*
X118252937Y-87194500D01*
X118162738Y-87194500D01*
X115269055Y-87196852D01*
X115220248Y-87176682D01*
X115199999Y-87127908D01*
X115199999Y-87127852D01*
X115200000Y-85846175D01*
X115200000Y-84550000D01*
X115200000Y-81000000D01*
X145754247Y-81000000D01*
X145775098Y-81118254D01*
X145835138Y-81222246D01*
X145835140Y-81222248D01*
X145835139Y-81222248D01*
X145915925Y-81290034D01*
X145927123Y-81299431D01*
X146039961Y-81340500D01*
X146160038Y-81340500D01*
X146160039Y-81340500D01*
X146272877Y-81299431D01*
X146364862Y-81222246D01*
X146424902Y-81118254D01*
X146445753Y-81000000D01*
X146424902Y-80881746D01*
X146383189Y-80809498D01*
X146376297Y-80757140D01*
X146383189Y-80740502D01*
X146424902Y-80668254D01*
X146445753Y-80550000D01*
X146424902Y-80431746D01*
X146364862Y-80327754D01*
X146364859Y-80327751D01*
X146364860Y-80327751D01*
X146272877Y-80250569D01*
X146160040Y-80209500D01*
X146160039Y-80209500D01*
X146039961Y-80209500D01*
X145983542Y-80230034D01*
X145927123Y-80250569D01*
X145835140Y-80327751D01*
X145835138Y-80327753D01*
X145835138Y-80327754D01*
X145775098Y-80431746D01*
X145775097Y-80431748D01*
X145754247Y-80549999D01*
X145775097Y-80668252D01*
X145816809Y-80740500D01*
X145823702Y-80792859D01*
X145816809Y-80809500D01*
X145775097Y-80881747D01*
X145754247Y-80999999D01*
X145754247Y-81000000D01*
X115200000Y-81000000D01*
X115200000Y-74150000D01*
X122404247Y-74150000D01*
X122425098Y-74268254D01*
X122485138Y-74372246D01*
X122485140Y-74372248D01*
X122485139Y-74372248D01*
X122565925Y-74440034D01*
X122577123Y-74449431D01*
X122689961Y-74490500D01*
X122810038Y-74490500D01*
X122810039Y-74490500D01*
X122922877Y-74449431D01*
X123009621Y-74376643D01*
X123053974Y-74360500D01*
X129134228Y-74360500D01*
X129183018Y-74380710D01*
X130419290Y-75616982D01*
X130439500Y-75665772D01*
X130439500Y-75700456D01*
X130419290Y-75749246D01*
X130370500Y-75769456D01*
X130326150Y-75753315D01*
X130322877Y-75750569D01*
X130210040Y-75709500D01*
X130210039Y-75709500D01*
X130089961Y-75709500D01*
X130039808Y-75727754D01*
X129977123Y-75750569D01*
X129885140Y-75827751D01*
X129825097Y-75931748D01*
X129804247Y-76049999D01*
X129822937Y-76156003D01*
X129825098Y-76168254D01*
X129885138Y-76272246D01*
X129914852Y-76297179D01*
X129939237Y-76344021D01*
X129939500Y-76350036D01*
X129939500Y-77934227D01*
X129919290Y-77983017D01*
X129678290Y-78224017D01*
X129629500Y-78244227D01*
X129580710Y-78224017D01*
X129560500Y-78175227D01*
X129560500Y-77200036D01*
X129580710Y-77151246D01*
X129585135Y-77147189D01*
X129614862Y-77122246D01*
X129674902Y-77018254D01*
X129695753Y-76900000D01*
X129674902Y-76781746D01*
X129614862Y-76677754D01*
X129614859Y-76677751D01*
X129614860Y-76677751D01*
X129522877Y-76600569D01*
X129410040Y-76559500D01*
X129410039Y-76559500D01*
X129289961Y-76559500D01*
X129239808Y-76577754D01*
X129177123Y-76600569D01*
X129085140Y-76677751D01*
X129025097Y-76781748D01*
X129004247Y-76900000D01*
X129023138Y-77007142D01*
X129025098Y-77018254D01*
X129085138Y-77122246D01*
X129114852Y-77147179D01*
X129139237Y-77194021D01*
X129139500Y-77200036D01*
X129139499Y-78184228D01*
X129119289Y-78233018D01*
X127883018Y-79469290D01*
X127834228Y-79489500D01*
X126853974Y-79489500D01*
X126809622Y-79473357D01*
X126722877Y-79400569D01*
X126610040Y-79359500D01*
X126610039Y-79359500D01*
X126489961Y-79359500D01*
X126445004Y-79375863D01*
X126377123Y-79400569D01*
X126285140Y-79477751D01*
X126285138Y-79477753D01*
X126285138Y-79477754D01*
X126264927Y-79512761D01*
X126225097Y-79581748D01*
X126210738Y-79663187D01*
X126204247Y-79700000D01*
X126225098Y-79818254D01*
X126232888Y-79831746D01*
X126285139Y-79922248D01*
X126288415Y-79926152D01*
X126304291Y-79976519D01*
X126279902Y-80023361D01*
X126235554Y-80039500D01*
X126103974Y-80039500D01*
X126059622Y-80023357D01*
X125972877Y-79950569D01*
X125860040Y-79909500D01*
X125860039Y-79909500D01*
X125739961Y-79909500D01*
X125704936Y-79922248D01*
X125627123Y-79950569D01*
X125535140Y-80027751D01*
X125535138Y-80027753D01*
X125535138Y-80027754D01*
X125511757Y-80068251D01*
X125475097Y-80131748D01*
X125454347Y-80249431D01*
X125454247Y-80250000D01*
X125475098Y-80368254D01*
X125535138Y-80472246D01*
X125535140Y-80472248D01*
X125535139Y-80472248D01*
X125615925Y-80540034D01*
X125627123Y-80549431D01*
X125739961Y-80590500D01*
X125860038Y-80590500D01*
X125860039Y-80590500D01*
X125972877Y-80549431D01*
X126059621Y-80476643D01*
X126103974Y-80460500D01*
X127902509Y-80460500D01*
X127925300Y-80464373D01*
X127925667Y-80464501D01*
X127925825Y-80464556D01*
X127959897Y-80460716D01*
X127963761Y-80460500D01*
X127973715Y-80460500D01*
X127973716Y-80460500D01*
X127983423Y-80458283D01*
X127987238Y-80457636D01*
X127995174Y-80456741D01*
X128021312Y-80453797D01*
X128021779Y-80453502D01*
X128043143Y-80444653D01*
X128043681Y-80444531D01*
X128070502Y-80423140D01*
X128073640Y-80420915D01*
X128082076Y-80415616D01*
X128089119Y-80408571D01*
X128092000Y-80405998D01*
X128104383Y-80396122D01*
X128118808Y-80384620D01*
X128119049Y-80384118D01*
X128132425Y-80365265D01*
X130265265Y-78232425D01*
X130284118Y-78219049D01*
X130284620Y-78218808D01*
X130296122Y-78204383D01*
X130305998Y-78192000D01*
X130308571Y-78189119D01*
X130315616Y-78182076D01*
X130315621Y-78182067D01*
X130316542Y-78180913D01*
X130317071Y-78180620D01*
X130318360Y-78179332D01*
X130318730Y-78179702D01*
X130362756Y-78155356D01*
X130413506Y-78169963D01*
X130439063Y-78216177D01*
X130439499Y-78223919D01*
X130439500Y-78284226D01*
X130419291Y-78333017D01*
X130419290Y-78333017D01*
X129384733Y-79367573D01*
X129365890Y-79380946D01*
X129365379Y-79381191D01*
X129344001Y-79407999D01*
X129341423Y-79410884D01*
X129334389Y-79417917D01*
X129334383Y-79417925D01*
X129329083Y-79426358D01*
X129326847Y-79429510D01*
X129305469Y-79456319D01*
X129305468Y-79456320D01*
X129305468Y-79456321D01*
X129305467Y-79456323D01*
X129305343Y-79456867D01*
X129296504Y-79478207D01*
X129296202Y-79478686D01*
X129292362Y-79512761D01*
X129291715Y-79516573D01*
X129289500Y-79526279D01*
X129289500Y-79536238D01*
X129289283Y-79540104D01*
X129285443Y-79574176D01*
X129285628Y-79574704D01*
X129289499Y-79597490D01*
X129289499Y-79649963D01*
X129269289Y-79698753D01*
X129264853Y-79702819D01*
X129235143Y-79727750D01*
X129235138Y-79727754D01*
X129182890Y-79818251D01*
X129175097Y-79831748D01*
X129159140Y-79922248D01*
X129154247Y-79950000D01*
X129158923Y-79976519D01*
X129167181Y-80023357D01*
X129175098Y-80068254D01*
X129235138Y-80172246D01*
X129235140Y-80172248D01*
X129235139Y-80172248D01*
X129279535Y-80209500D01*
X129327123Y-80249431D01*
X129439961Y-80290500D01*
X129560038Y-80290500D01*
X129560039Y-80290500D01*
X129672877Y-80249431D01*
X129764862Y-80172246D01*
X129824902Y-80068254D01*
X129845753Y-79950000D01*
X129824902Y-79831746D01*
X129764862Y-79727754D01*
X129743741Y-79710031D01*
X129719357Y-79663187D01*
X129735239Y-79612821D01*
X129739294Y-79608396D01*
X130765265Y-78582425D01*
X130784118Y-78569049D01*
X130784620Y-78568808D01*
X130796122Y-78554383D01*
X130805998Y-78542000D01*
X130808571Y-78539119D01*
X130815616Y-78532076D01*
X130820913Y-78523643D01*
X130823150Y-78520491D01*
X130844531Y-78493681D01*
X130844654Y-78493143D01*
X130853505Y-78471776D01*
X130853575Y-78471662D01*
X130853797Y-78471311D01*
X130853797Y-78471309D01*
X130855372Y-78466811D01*
X130890562Y-78427433D01*
X130943289Y-78424472D01*
X130982667Y-78459662D01*
X130989500Y-78489600D01*
X130989500Y-78684227D01*
X130969290Y-78733017D01*
X130584733Y-79117573D01*
X130565890Y-79130946D01*
X130565379Y-79131191D01*
X130544001Y-79157999D01*
X130541423Y-79160884D01*
X130534389Y-79167917D01*
X130534383Y-79167925D01*
X130529083Y-79176358D01*
X130526847Y-79179510D01*
X130505469Y-79206319D01*
X130505468Y-79206320D01*
X130505468Y-79206321D01*
X130505467Y-79206323D01*
X130505343Y-79206867D01*
X130496504Y-79228207D01*
X130496202Y-79228686D01*
X130492362Y-79262761D01*
X130491715Y-79266573D01*
X130489500Y-79276279D01*
X130489500Y-79286238D01*
X130489283Y-79290104D01*
X130485443Y-79324175D01*
X130485627Y-79324700D01*
X130489500Y-79347491D01*
X130489499Y-79649963D01*
X130469289Y-79698754D01*
X130464852Y-79702819D01*
X130435140Y-79727750D01*
X130435140Y-79727751D01*
X130435138Y-79727753D01*
X130435138Y-79727754D01*
X130382888Y-79818254D01*
X130375097Y-79831748D01*
X130359140Y-79922248D01*
X130354247Y-79950000D01*
X130358923Y-79976519D01*
X130367181Y-80023357D01*
X130375098Y-80068254D01*
X130435138Y-80172246D01*
X130435140Y-80172248D01*
X130435139Y-80172248D01*
X130479535Y-80209500D01*
X130527123Y-80249431D01*
X130639961Y-80290500D01*
X130760038Y-80290500D01*
X130760039Y-80290500D01*
X130872877Y-80249431D01*
X130964862Y-80172246D01*
X131024902Y-80068254D01*
X131045753Y-79950000D01*
X131024902Y-79831746D01*
X130964862Y-79727754D01*
X130964860Y-79727752D01*
X130935147Y-79702819D01*
X130910762Y-79655975D01*
X130910500Y-79649963D01*
X130910500Y-79415771D01*
X130930710Y-79366981D01*
X131121333Y-79176358D01*
X131315265Y-78982425D01*
X131334118Y-78969049D01*
X131334620Y-78968808D01*
X131346122Y-78954383D01*
X131355998Y-78942000D01*
X131358571Y-78939119D01*
X131365616Y-78932076D01*
X131370915Y-78923640D01*
X131373140Y-78920502D01*
X131394531Y-78893681D01*
X131394653Y-78893143D01*
X131403502Y-78871779D01*
X131403797Y-78871312D01*
X131407636Y-78837238D01*
X131408285Y-78833417D01*
X131410500Y-78823715D01*
X131410500Y-78822962D01*
X140848564Y-78822962D01*
X140850000Y-79400000D01*
X142150000Y-79400000D01*
X142150000Y-77700000D01*
X151404246Y-77700000D01*
X151404247Y-77700000D01*
X151425098Y-77818254D01*
X151485138Y-77922246D01*
X151485140Y-77922248D01*
X151485139Y-77922248D01*
X151557562Y-77983017D01*
X151577123Y-77999431D01*
X151689961Y-78040500D01*
X151810038Y-78040500D01*
X151810039Y-78040500D01*
X151922877Y-77999431D01*
X152014862Y-77922246D01*
X152074902Y-77818254D01*
X152095753Y-77700000D01*
X152074902Y-77581746D01*
X152033189Y-77509498D01*
X152026297Y-77457142D01*
X152033188Y-77440503D01*
X152074902Y-77368254D01*
X152095753Y-77250000D01*
X152074902Y-77131746D01*
X152033189Y-77059498D01*
X152026297Y-77007142D01*
X152033188Y-76990503D01*
X152074902Y-76918254D01*
X152095753Y-76800000D01*
X152074902Y-76681746D01*
X152014862Y-76577754D01*
X152014859Y-76577751D01*
X152014860Y-76577751D01*
X151922877Y-76500569D01*
X151810040Y-76459500D01*
X151810039Y-76459500D01*
X151689961Y-76459500D01*
X151633542Y-76480034D01*
X151577123Y-76500569D01*
X151485140Y-76577751D01*
X151425097Y-76681748D01*
X151404247Y-76800000D01*
X151425097Y-76918252D01*
X151466809Y-76990500D01*
X151473702Y-77042859D01*
X151466809Y-77059500D01*
X151425097Y-77131747D01*
X151404247Y-77250000D01*
X151425097Y-77368252D01*
X151466809Y-77440500D01*
X151473702Y-77492859D01*
X151466809Y-77509500D01*
X151425097Y-77581747D01*
X151404246Y-77700000D01*
X142150000Y-77700000D01*
X142150000Y-76290732D01*
X142170210Y-76241942D01*
X142219000Y-76221732D01*
X142263351Y-76237874D01*
X142277123Y-76249431D01*
X142389961Y-76290500D01*
X142510038Y-76290500D01*
X142510039Y-76290500D01*
X142622877Y-76249431D01*
X142714862Y-76172246D01*
X142774902Y-76068254D01*
X142795753Y-75950000D01*
X142774902Y-75831746D01*
X142714862Y-75727754D01*
X142714859Y-75727751D01*
X142714860Y-75727751D01*
X142622877Y-75650569D01*
X142510040Y-75609500D01*
X142510039Y-75609500D01*
X142389961Y-75609500D01*
X142348893Y-75624447D01*
X142277125Y-75650568D01*
X142263351Y-75662126D01*
X142212984Y-75678004D01*
X142166141Y-75653618D01*
X142150000Y-75609267D01*
X142150000Y-74981896D01*
X157908292Y-74981896D01*
X157918158Y-75113561D01*
X157918159Y-75113566D01*
X157966395Y-75236470D01*
X157966396Y-75236472D01*
X157966397Y-75236473D01*
X158048720Y-75339703D01*
X158157812Y-75414081D01*
X158202926Y-75427997D01*
X158283977Y-75452999D01*
X158283980Y-75452999D01*
X158283982Y-75453000D01*
X158283983Y-75453000D01*
X158382819Y-75453000D01*
X158382821Y-75453000D01*
X158443136Y-75443908D01*
X158480556Y-75438269D01*
X158480557Y-75438269D01*
X158480558Y-75438268D01*
X158480561Y-75438268D01*
X158564967Y-75397619D01*
X158617692Y-75394659D01*
X158657070Y-75429849D01*
X158663742Y-75464495D01*
X158659084Y-75532611D01*
X158655690Y-75582232D01*
X158657382Y-75590374D01*
X158685918Y-75727703D01*
X158754274Y-75859624D01*
X158754276Y-75859626D01*
X158855690Y-75968214D01*
X158855693Y-75968216D01*
X158855692Y-75968216D01*
X158926300Y-76011153D01*
X158982640Y-76045414D01*
X159125710Y-76085500D01*
X159125712Y-76085500D01*
X160036970Y-76085500D01*
X160036974Y-76085500D01*
X160082157Y-76079289D01*
X160147192Y-76070351D01*
X160147193Y-76070350D01*
X160147196Y-76070350D01*
X160283476Y-76011156D01*
X160368196Y-75942231D01*
X164605690Y-75942231D01*
X164635918Y-76087703D01*
X164704274Y-76219624D01*
X164704276Y-76219626D01*
X164805690Y-76328214D01*
X164805693Y-76328216D01*
X164805692Y-76328216D01*
X164876300Y-76371153D01*
X164932640Y-76405414D01*
X165075710Y-76445500D01*
X165075712Y-76445500D01*
X165986970Y-76445500D01*
X165986974Y-76445500D01*
X166032157Y-76439289D01*
X166097192Y-76430351D01*
X166097193Y-76430350D01*
X166097196Y-76430350D01*
X166233476Y-76371156D01*
X166348731Y-76277389D01*
X166434414Y-76156003D01*
X166484171Y-76016002D01*
X166494310Y-75867768D01*
X166464081Y-75722296D01*
X166441131Y-75678004D01*
X166395725Y-75590375D01*
X166335868Y-75526284D01*
X166294310Y-75481786D01*
X166294307Y-75481784D01*
X166294306Y-75481783D01*
X166294307Y-75481783D01*
X166167362Y-75404587D01*
X166167361Y-75404586D01*
X166167360Y-75404586D01*
X166167357Y-75404585D01*
X166167354Y-75404584D01*
X166024295Y-75364501D01*
X166024292Y-75364500D01*
X166024290Y-75364500D01*
X165113026Y-75364500D01*
X165113020Y-75364500D01*
X165002807Y-75379648D01*
X164866519Y-75438846D01*
X164751268Y-75532611D01*
X164665587Y-75653995D01*
X164665586Y-75653997D01*
X164664873Y-75656004D01*
X164615829Y-75793995D01*
X164615828Y-75793997D01*
X164605690Y-75942231D01*
X160368196Y-75942231D01*
X160398731Y-75917389D01*
X160484414Y-75796003D01*
X160534171Y-75656002D01*
X160544310Y-75507768D01*
X160514081Y-75362296D01*
X160476674Y-75290104D01*
X160445725Y-75230375D01*
X160434437Y-75218289D01*
X160344310Y-75121786D01*
X160344307Y-75121784D01*
X160344306Y-75121783D01*
X160344307Y-75121783D01*
X160217362Y-75044587D01*
X160217361Y-75044586D01*
X160217360Y-75044586D01*
X160217357Y-75044585D01*
X160217354Y-75044584D01*
X160074295Y-75004501D01*
X160074292Y-75004500D01*
X160074290Y-75004500D01*
X159163026Y-75004500D01*
X159163020Y-75004500D01*
X159052807Y-75019648D01*
X158916519Y-75078846D01*
X158903531Y-75089414D01*
X158852930Y-75104528D01*
X158806462Y-75079435D01*
X158791179Y-75041046D01*
X158789575Y-75019648D01*
X158781841Y-74916435D01*
X158757012Y-74853173D01*
X158733604Y-74793529D01*
X158733603Y-74793527D01*
X158689981Y-74738827D01*
X158651280Y-74690297D01*
X158651277Y-74690295D01*
X158651278Y-74690295D01*
X158590738Y-74649020D01*
X158542188Y-74615919D01*
X158542185Y-74615918D01*
X158416022Y-74577000D01*
X158416018Y-74577000D01*
X158317179Y-74577000D01*
X158317174Y-74577000D01*
X158219443Y-74591730D01*
X158219442Y-74591730D01*
X158100479Y-74649020D01*
X158003690Y-74738826D01*
X157937670Y-74853175D01*
X157937670Y-74853176D01*
X157908292Y-74981896D01*
X142150000Y-74981896D01*
X142150000Y-74800000D01*
X140850000Y-74800000D01*
X140848564Y-78822962D01*
X131410500Y-78822962D01*
X131410500Y-78813760D01*
X131410717Y-78809893D01*
X131414556Y-78775825D01*
X131414372Y-78775299D01*
X131410500Y-78752510D01*
X131410500Y-75347491D01*
X131414373Y-75324700D01*
X131414556Y-75324175D01*
X131411156Y-75293997D01*
X131410716Y-75290101D01*
X131410500Y-75286238D01*
X131410500Y-75276286D01*
X131410500Y-75276284D01*
X131408280Y-75266562D01*
X131407637Y-75262776D01*
X131403797Y-75228688D01*
X131403497Y-75228212D01*
X131394654Y-75206861D01*
X131394531Y-75206319D01*
X131373156Y-75179515D01*
X131370915Y-75176358D01*
X131365616Y-75167924D01*
X131358570Y-75160878D01*
X131355997Y-75157999D01*
X131334619Y-75131191D01*
X131334114Y-75130948D01*
X131315264Y-75117572D01*
X129782426Y-73584734D01*
X129769047Y-73565877D01*
X129768808Y-73565380D01*
X129753249Y-73552972D01*
X129741995Y-73543997D01*
X129739117Y-73541425D01*
X129732076Y-73534384D01*
X129731340Y-73533921D01*
X129723642Y-73529083D01*
X129720488Y-73526845D01*
X129693681Y-73505469D01*
X129693677Y-73505467D01*
X129693132Y-73505343D01*
X129671787Y-73496501D01*
X129671311Y-73496202D01*
X129637239Y-73492362D01*
X129633426Y-73491715D01*
X129623723Y-73489500D01*
X129623716Y-73489500D01*
X129613761Y-73489500D01*
X129609897Y-73489283D01*
X129605103Y-73488743D01*
X129575823Y-73485443D01*
X129575300Y-73485627D01*
X129552509Y-73489500D01*
X124165772Y-73489500D01*
X124116982Y-73469290D01*
X123730710Y-73083018D01*
X123710500Y-73034228D01*
X123710500Y-72500000D01*
X151404247Y-72500000D01*
X151425098Y-72618254D01*
X151485138Y-72722246D01*
X151485140Y-72722248D01*
X151485139Y-72722248D01*
X151565925Y-72790034D01*
X151577123Y-72799431D01*
X151689961Y-72840500D01*
X151810038Y-72840500D01*
X151810039Y-72840500D01*
X151922877Y-72799431D01*
X152014862Y-72722246D01*
X152074902Y-72618254D01*
X152095753Y-72500000D01*
X152074902Y-72381746D01*
X152018755Y-72284498D01*
X152011863Y-72232141D01*
X152018754Y-72215503D01*
X152074902Y-72118254D01*
X152095753Y-72000000D01*
X152074902Y-71881746D01*
X152018755Y-71784498D01*
X152011863Y-71732141D01*
X152018754Y-71715503D01*
X152027705Y-71700000D01*
X155304247Y-71700000D01*
X155316985Y-71772246D01*
X155325098Y-71818254D01*
X155385138Y-71922246D01*
X155385140Y-71922248D01*
X155385139Y-71922248D01*
X155465925Y-71990034D01*
X155477123Y-71999431D01*
X155589961Y-72040500D01*
X155710038Y-72040500D01*
X155710039Y-72040500D01*
X155822877Y-71999431D01*
X155908298Y-71927754D01*
X155909622Y-71926643D01*
X155953974Y-71910500D01*
X157884228Y-71910500D01*
X157933018Y-71930710D01*
X158086052Y-72083744D01*
X158106262Y-72132534D01*
X158105214Y-72144514D01*
X158104247Y-72149998D01*
X158104247Y-72149999D01*
X158116985Y-72222246D01*
X158125098Y-72268254D01*
X158185138Y-72372246D01*
X158185140Y-72372248D01*
X158185139Y-72372248D01*
X158265925Y-72440034D01*
X158277123Y-72449431D01*
X158389961Y-72490500D01*
X158510038Y-72490500D01*
X158510039Y-72490500D01*
X158622877Y-72449431D01*
X158714862Y-72372246D01*
X158774902Y-72268254D01*
X158795753Y-72150000D01*
X158774902Y-72031746D01*
X158714862Y-71927754D01*
X158714859Y-71927751D01*
X158714860Y-71927751D01*
X158622877Y-71850569D01*
X158510040Y-71809500D01*
X158510039Y-71809500D01*
X158435772Y-71809500D01*
X158386982Y-71789290D01*
X158182426Y-71584734D01*
X158169047Y-71565877D01*
X158168808Y-71565380D01*
X158149521Y-71549999D01*
X158141995Y-71543997D01*
X158139117Y-71541425D01*
X158132076Y-71534384D01*
X158131340Y-71533921D01*
X158123642Y-71529083D01*
X158120488Y-71526845D01*
X158093681Y-71505469D01*
X158093677Y-71505467D01*
X158093132Y-71505343D01*
X158071787Y-71496501D01*
X158071311Y-71496202D01*
X158037239Y-71492362D01*
X158033426Y-71491715D01*
X158023723Y-71489500D01*
X158023716Y-71489500D01*
X158013761Y-71489500D01*
X158009897Y-71489283D01*
X158005103Y-71488743D01*
X157975823Y-71485443D01*
X157975300Y-71485627D01*
X157952509Y-71489500D01*
X155953974Y-71489500D01*
X155909622Y-71473357D01*
X155822877Y-71400569D01*
X155793394Y-71389838D01*
X155754459Y-71354161D01*
X155752155Y-71301401D01*
X155787833Y-71262465D01*
X155793387Y-71260164D01*
X155822877Y-71249431D01*
X155914862Y-71172246D01*
X155930592Y-71144999D01*
X155972490Y-71112851D01*
X155990348Y-71110500D01*
X158346026Y-71110500D01*
X158390378Y-71126643D01*
X158477123Y-71199431D01*
X158589961Y-71240500D01*
X158710038Y-71240500D01*
X158710039Y-71240500D01*
X158822877Y-71199431D01*
X158914862Y-71122246D01*
X158974902Y-71018254D01*
X158995753Y-70900000D01*
X158974902Y-70781746D01*
X158914862Y-70677754D01*
X158914859Y-70677751D01*
X158914860Y-70677751D01*
X158822877Y-70600569D01*
X158710040Y-70559500D01*
X158710039Y-70559500D01*
X158589961Y-70559500D01*
X158539808Y-70577754D01*
X158477123Y-70600569D01*
X158390378Y-70673357D01*
X158346026Y-70689500D01*
X155894387Y-70689500D01*
X155850035Y-70673357D01*
X155822877Y-70650569D01*
X155710040Y-70609500D01*
X155710039Y-70609500D01*
X155589961Y-70609500D01*
X155533542Y-70630034D01*
X155477123Y-70650569D01*
X155385140Y-70727751D01*
X155385138Y-70727753D01*
X155385138Y-70727754D01*
X155325418Y-70831192D01*
X155325097Y-70831748D01*
X155304247Y-70950000D01*
X155324873Y-71066982D01*
X155325098Y-71068254D01*
X155385138Y-71172246D01*
X155385140Y-71172248D01*
X155385139Y-71172248D01*
X155429535Y-71209500D01*
X155477123Y-71249431D01*
X155506604Y-71260161D01*
X155545540Y-71295839D01*
X155547844Y-71348599D01*
X155512166Y-71387535D01*
X155506605Y-71389839D01*
X155477122Y-71400569D01*
X155385140Y-71477751D01*
X155385138Y-71477753D01*
X155385138Y-71477754D01*
X155343427Y-71549999D01*
X155325097Y-71581748D01*
X155304247Y-71700000D01*
X152027705Y-71700000D01*
X152074902Y-71618254D01*
X152095753Y-71500000D01*
X152074902Y-71381746D01*
X152014862Y-71277754D01*
X152014859Y-71277751D01*
X152014860Y-71277751D01*
X151922877Y-71200569D01*
X151810040Y-71159500D01*
X151810039Y-71159500D01*
X151689961Y-71159500D01*
X151654936Y-71172248D01*
X151577123Y-71200569D01*
X151485140Y-71277751D01*
X151485138Y-71277753D01*
X151485138Y-71277754D01*
X151441024Y-71354161D01*
X151425097Y-71381748D01*
X151404247Y-71500000D01*
X151425097Y-71618252D01*
X151481243Y-71715500D01*
X151488136Y-71767859D01*
X151481243Y-71784500D01*
X151425097Y-71881747D01*
X151404247Y-72000000D01*
X151425097Y-72118252D01*
X151425097Y-72118253D01*
X151425098Y-72118254D01*
X151443426Y-72149999D01*
X151481243Y-72215500D01*
X151488136Y-72267859D01*
X151481243Y-72284500D01*
X151425097Y-72381747D01*
X151405922Y-72490500D01*
X151404247Y-72500000D01*
X123710500Y-72500000D01*
X123710500Y-71550000D01*
X143154247Y-71550000D01*
X143175098Y-71668254D01*
X143235138Y-71772246D01*
X143235140Y-71772248D01*
X143235139Y-71772248D01*
X143315925Y-71840034D01*
X143327123Y-71849431D01*
X143439961Y-71890500D01*
X143560038Y-71890500D01*
X143560039Y-71890500D01*
X143672877Y-71849431D01*
X143764862Y-71772246D01*
X143824902Y-71668254D01*
X143845753Y-71550000D01*
X143824902Y-71431746D01*
X143764862Y-71327754D01*
X143764859Y-71327751D01*
X143764860Y-71327751D01*
X143672877Y-71250569D01*
X143560040Y-71209500D01*
X143560039Y-71209500D01*
X143439961Y-71209500D01*
X143383542Y-71230034D01*
X143327123Y-71250569D01*
X143235140Y-71327751D01*
X143235138Y-71327753D01*
X143235138Y-71327754D01*
X143199293Y-71389839D01*
X143175097Y-71431748D01*
X143157935Y-71529083D01*
X143154247Y-71550000D01*
X123710500Y-71550000D01*
X123710500Y-71047491D01*
X123714373Y-71024700D01*
X123714556Y-71024175D01*
X123710717Y-70990104D01*
X123710500Y-70986238D01*
X123710500Y-70976286D01*
X123710500Y-70976284D01*
X123708280Y-70966562D01*
X123707637Y-70962776D01*
X123703797Y-70928688D01*
X123703497Y-70928212D01*
X123694654Y-70906861D01*
X123694531Y-70906319D01*
X123673156Y-70879515D01*
X123670915Y-70876358D01*
X123665616Y-70867924D01*
X123658570Y-70860878D01*
X123655997Y-70857999D01*
X123634619Y-70831191D01*
X123634114Y-70830948D01*
X123615264Y-70817572D01*
X123597692Y-70800000D01*
X141904247Y-70800000D01*
X141922993Y-70906319D01*
X141925098Y-70918254D01*
X141985138Y-71022246D01*
X141985140Y-71022248D01*
X141985139Y-71022248D01*
X142062537Y-71087192D01*
X142077123Y-71099431D01*
X142189961Y-71140500D01*
X142310038Y-71140500D01*
X142310039Y-71140500D01*
X142422877Y-71099431D01*
X142514862Y-71022246D01*
X142574902Y-70918254D01*
X142595753Y-70800000D01*
X144604247Y-70800000D01*
X144622993Y-70906319D01*
X144625098Y-70918254D01*
X144685138Y-71022246D01*
X144685140Y-71022248D01*
X144685139Y-71022248D01*
X144762537Y-71087192D01*
X144777123Y-71099431D01*
X144889961Y-71140500D01*
X145010038Y-71140500D01*
X145010039Y-71140500D01*
X145122877Y-71099431D01*
X145214862Y-71022246D01*
X145274902Y-70918254D01*
X145295753Y-70800000D01*
X145274902Y-70681746D01*
X145214862Y-70577754D01*
X145214859Y-70577751D01*
X145214860Y-70577751D01*
X145122877Y-70500569D01*
X145010040Y-70459500D01*
X145010039Y-70459500D01*
X144889961Y-70459500D01*
X144842306Y-70476845D01*
X144777123Y-70500569D01*
X144685140Y-70577751D01*
X144685138Y-70577753D01*
X144685138Y-70577754D01*
X144627405Y-70677751D01*
X144625097Y-70681748D01*
X144604247Y-70800000D01*
X142595753Y-70800000D01*
X142574902Y-70681746D01*
X142514862Y-70577754D01*
X142514859Y-70577751D01*
X142514860Y-70577751D01*
X142422877Y-70500569D01*
X142310040Y-70459500D01*
X142310039Y-70459500D01*
X142189961Y-70459500D01*
X142142306Y-70476845D01*
X142077123Y-70500569D01*
X141985140Y-70577751D01*
X141985138Y-70577753D01*
X141985138Y-70577754D01*
X141927405Y-70677751D01*
X141925097Y-70681748D01*
X141904247Y-70800000D01*
X123597692Y-70800000D01*
X123332426Y-70534734D01*
X123319047Y-70515877D01*
X123318808Y-70515380D01*
X123303249Y-70502972D01*
X123291995Y-70493997D01*
X123289117Y-70491425D01*
X123282076Y-70484384D01*
X123281340Y-70483921D01*
X123273642Y-70479083D01*
X123270488Y-70476845D01*
X123243681Y-70455469D01*
X123243677Y-70455467D01*
X123243132Y-70455343D01*
X123221787Y-70446501D01*
X123221311Y-70446202D01*
X123187239Y-70442362D01*
X123183426Y-70441715D01*
X123173723Y-70439500D01*
X123173716Y-70439500D01*
X123163761Y-70439500D01*
X123159897Y-70439283D01*
X123155103Y-70438743D01*
X123125823Y-70435443D01*
X123125300Y-70435627D01*
X123102509Y-70439500D01*
X123053974Y-70439500D01*
X123009622Y-70423357D01*
X122922877Y-70350569D01*
X122810040Y-70309500D01*
X122810039Y-70309500D01*
X122689961Y-70309500D01*
X122633542Y-70330034D01*
X122577123Y-70350569D01*
X122485140Y-70427751D01*
X122485138Y-70427753D01*
X122485138Y-70427754D01*
X122443098Y-70500569D01*
X122425097Y-70531748D01*
X122404247Y-70650000D01*
X122409844Y-70681746D01*
X122425098Y-70768254D01*
X122485138Y-70872246D01*
X122485140Y-70872248D01*
X122485139Y-70872248D01*
X122552405Y-70928690D01*
X122577123Y-70949431D01*
X122689961Y-70990500D01*
X122810038Y-70990500D01*
X122810039Y-70990500D01*
X122922877Y-70949431D01*
X122998886Y-70885651D01*
X123049250Y-70869772D01*
X123092027Y-70889719D01*
X123269290Y-71066982D01*
X123289500Y-71115772D01*
X123289500Y-73102509D01*
X123285628Y-73125298D01*
X123285444Y-73125824D01*
X123285443Y-73125824D01*
X123289282Y-73159893D01*
X123289499Y-73163756D01*
X123289499Y-73173714D01*
X123291715Y-73183426D01*
X123292362Y-73187238D01*
X123296202Y-73221310D01*
X123296202Y-73221312D01*
X123296501Y-73221787D01*
X123305343Y-73243132D01*
X123305467Y-73243677D01*
X123305469Y-73243681D01*
X123326845Y-73270488D01*
X123329083Y-73273642D01*
X123333921Y-73281340D01*
X123334384Y-73282076D01*
X123341425Y-73289117D01*
X123343997Y-73291995D01*
X123352972Y-73303249D01*
X123365380Y-73318808D01*
X123365878Y-73319048D01*
X123384734Y-73332426D01*
X123867572Y-73815264D01*
X123880946Y-73834110D01*
X123884051Y-73840556D01*
X123887017Y-73893283D01*
X123851831Y-73932664D01*
X123821887Y-73939500D01*
X123053974Y-73939500D01*
X123009622Y-73923357D01*
X122922877Y-73850569D01*
X122810040Y-73809500D01*
X122810039Y-73809500D01*
X122689961Y-73809500D01*
X122651345Y-73823555D01*
X122577123Y-73850569D01*
X122485140Y-73927751D01*
X122485138Y-73927753D01*
X122485138Y-73927754D01*
X122437979Y-74009436D01*
X122425097Y-74031748D01*
X122424571Y-74034734D01*
X122404247Y-74150000D01*
X115200000Y-74150000D01*
X115200000Y-70050000D01*
X143154247Y-70050000D01*
X143175098Y-70168254D01*
X143235138Y-70272246D01*
X143235140Y-70272248D01*
X143235139Y-70272248D01*
X143279535Y-70309500D01*
X143327123Y-70349431D01*
X143439961Y-70390500D01*
X143560038Y-70390500D01*
X143560039Y-70390500D01*
X143672877Y-70349431D01*
X143764862Y-70272246D01*
X143824902Y-70168254D01*
X143845753Y-70050000D01*
X143824902Y-69931746D01*
X143764862Y-69827754D01*
X143764859Y-69827751D01*
X143764860Y-69827751D01*
X143672877Y-69750569D01*
X143560040Y-69709500D01*
X143560039Y-69709500D01*
X143439961Y-69709500D01*
X143383542Y-69730034D01*
X143327123Y-69750569D01*
X143235140Y-69827751D01*
X143175097Y-69931748D01*
X143154247Y-70049999D01*
X143154247Y-70050000D01*
X115200000Y-70050000D01*
X115200000Y-69250000D01*
X141904247Y-69250000D01*
X141925098Y-69368254D01*
X141985138Y-69472246D01*
X141985140Y-69472248D01*
X141985139Y-69472248D01*
X142065925Y-69540034D01*
X142077123Y-69549431D01*
X142189961Y-69590500D01*
X142310038Y-69590500D01*
X142310039Y-69590500D01*
X142422877Y-69549431D01*
X142514862Y-69472246D01*
X142574902Y-69368254D01*
X142595753Y-69250000D01*
X142574902Y-69131746D01*
X142514862Y-69027754D01*
X142514859Y-69027751D01*
X142514860Y-69027751D01*
X142422877Y-68950569D01*
X142310040Y-68909500D01*
X142310039Y-68909500D01*
X142189961Y-68909500D01*
X142133542Y-68930034D01*
X142077123Y-68950569D01*
X141985140Y-69027751D01*
X141925097Y-69131748D01*
X141904247Y-69249999D01*
X141904247Y-69250000D01*
X115200000Y-69250000D01*
X115200000Y-68550000D01*
X143154247Y-68550000D01*
X143175098Y-68668254D01*
X143235138Y-68772246D01*
X143235140Y-68772248D01*
X143235139Y-68772248D01*
X143315925Y-68840034D01*
X143327123Y-68849431D01*
X143439961Y-68890500D01*
X143560038Y-68890500D01*
X143560039Y-68890500D01*
X143672877Y-68849431D01*
X143764862Y-68772246D01*
X143824902Y-68668254D01*
X143845753Y-68550000D01*
X143824902Y-68431746D01*
X143764862Y-68327754D01*
X143764859Y-68327751D01*
X143764860Y-68327751D01*
X143672877Y-68250569D01*
X143560040Y-68209500D01*
X143560039Y-68209500D01*
X143439961Y-68209500D01*
X143383542Y-68230034D01*
X143327123Y-68250569D01*
X143235140Y-68327751D01*
X143235138Y-68327753D01*
X143235138Y-68327754D01*
X143196386Y-68394875D01*
X143175097Y-68431748D01*
X143154247Y-68549999D01*
X143154247Y-68550000D01*
X115200000Y-68550000D01*
X115200000Y-67800000D01*
X141904247Y-67800000D01*
X141913753Y-67853915D01*
X141925098Y-67918254D01*
X141985138Y-68022246D01*
X141985140Y-68022248D01*
X141985139Y-68022248D01*
X142065925Y-68090034D01*
X142077123Y-68099431D01*
X142189961Y-68140500D01*
X142310038Y-68140500D01*
X142310039Y-68140500D01*
X142422877Y-68099431D01*
X142514862Y-68022246D01*
X142574902Y-67918254D01*
X142593108Y-67815002D01*
X157919196Y-67815002D01*
X157923650Y-67843120D01*
X157924500Y-67853915D01*
X157924500Y-68026177D01*
X157958067Y-68140500D01*
X157958971Y-68143577D01*
X158025121Y-68246509D01*
X158117591Y-68326635D01*
X158228890Y-68377463D01*
X158350000Y-68394876D01*
X158471110Y-68377463D01*
X158582409Y-68326635D01*
X158674879Y-68246509D01*
X158741029Y-68143577D01*
X158775500Y-68026178D01*
X158775500Y-67965000D01*
X158775500Y-67938071D01*
X158775500Y-67938070D01*
X158775500Y-67853914D01*
X158776350Y-67843120D01*
X158780804Y-67815002D01*
X158780804Y-67814998D01*
X158777416Y-67793609D01*
X158789743Y-67742257D01*
X158834771Y-67714664D01*
X158881417Y-67723859D01*
X158982640Y-67785414D01*
X159125710Y-67825500D01*
X159125712Y-67825500D01*
X160036970Y-67825500D01*
X160036974Y-67825500D01*
X160082157Y-67819289D01*
X160147192Y-67810351D01*
X160147193Y-67810350D01*
X160147196Y-67810350D01*
X160283476Y-67751156D01*
X160398731Y-67657389D01*
X160484414Y-67536003D01*
X160534171Y-67396002D01*
X160544310Y-67247768D01*
X160514081Y-67102296D01*
X160445724Y-66970374D01*
X160438119Y-66962231D01*
X164605690Y-66962231D01*
X164635918Y-67107703D01*
X164704274Y-67239624D01*
X164704276Y-67239626D01*
X164805690Y-67348214D01*
X164805693Y-67348216D01*
X164805692Y-67348216D01*
X164875226Y-67390500D01*
X164932640Y-67425414D01*
X165075710Y-67465500D01*
X165075712Y-67465500D01*
X165986970Y-67465500D01*
X165986974Y-67465500D01*
X166032157Y-67459289D01*
X166097192Y-67450351D01*
X166097193Y-67450350D01*
X166097196Y-67450350D01*
X166233476Y-67391156D01*
X166234283Y-67390500D01*
X166256842Y-67372146D01*
X166348731Y-67297389D01*
X166434414Y-67176003D01*
X166484171Y-67036002D01*
X166494310Y-66887768D01*
X166464081Y-66742296D01*
X166428690Y-66673995D01*
X166395725Y-66610375D01*
X166341777Y-66552611D01*
X166294310Y-66501786D01*
X166294307Y-66501784D01*
X166294306Y-66501783D01*
X166294307Y-66501783D01*
X166167362Y-66424587D01*
X166167361Y-66424586D01*
X166167360Y-66424586D01*
X166167357Y-66424585D01*
X166167354Y-66424584D01*
X166024295Y-66384501D01*
X166024292Y-66384500D01*
X166024290Y-66384500D01*
X165113026Y-66384500D01*
X165113020Y-66384500D01*
X165002807Y-66399648D01*
X164866519Y-66458846D01*
X164751268Y-66552611D01*
X164665587Y-66673995D01*
X164615829Y-66813995D01*
X164615828Y-66813997D01*
X164605690Y-66962231D01*
X160438119Y-66962231D01*
X160344310Y-66861786D01*
X160344307Y-66861784D01*
X160344306Y-66861783D01*
X160344307Y-66861783D01*
X160217362Y-66784587D01*
X160217361Y-66784586D01*
X160217360Y-66784586D01*
X160217357Y-66784585D01*
X160217354Y-66784584D01*
X160074295Y-66744501D01*
X160074292Y-66744500D01*
X160074290Y-66744500D01*
X159163026Y-66744500D01*
X159163020Y-66744500D01*
X159052807Y-66759648D01*
X158916519Y-66818846D01*
X158801268Y-66912611D01*
X158715587Y-67033995D01*
X158715586Y-67033997D01*
X158704970Y-67063865D01*
X158665829Y-67173995D01*
X158665828Y-67173997D01*
X158661525Y-67236912D01*
X158638033Y-67284210D01*
X158587977Y-67301042D01*
X158564023Y-67294968D01*
X158471112Y-67252538D01*
X158471110Y-67252537D01*
X158350000Y-67235124D01*
X158228890Y-67252537D01*
X158228888Y-67252537D01*
X158228887Y-67252538D01*
X158117591Y-67303364D01*
X158025120Y-67383491D01*
X157958970Y-67486424D01*
X157924499Y-67603822D01*
X157924498Y-67677651D01*
X157924500Y-67677664D01*
X157924500Y-67776077D01*
X157923651Y-67786869D01*
X157919196Y-67815000D01*
X157919196Y-67815002D01*
X142593108Y-67815002D01*
X142595753Y-67800000D01*
X142574902Y-67681746D01*
X142514862Y-67577754D01*
X142514859Y-67577751D01*
X142514860Y-67577751D01*
X142422877Y-67500569D01*
X142310040Y-67459500D01*
X142310039Y-67459500D01*
X142189961Y-67459500D01*
X142133542Y-67480034D01*
X142077123Y-67500569D01*
X141985140Y-67577751D01*
X141925097Y-67681748D01*
X141904247Y-67800000D01*
X115200000Y-67800000D01*
X115200000Y-67049999D01*
X143154247Y-67049999D01*
X143164421Y-67107704D01*
X143175098Y-67168254D01*
X143235138Y-67272246D01*
X143235140Y-67272248D01*
X143235139Y-67272248D01*
X143315925Y-67340034D01*
X143327123Y-67349431D01*
X143439961Y-67390500D01*
X143560038Y-67390500D01*
X143560039Y-67390500D01*
X143672877Y-67349431D01*
X143764862Y-67272246D01*
X143824902Y-67168254D01*
X143845753Y-67050000D01*
X143824902Y-66931746D01*
X143764862Y-66827754D01*
X143764859Y-66827751D01*
X143764860Y-66827751D01*
X143672877Y-66750569D01*
X143560040Y-66709500D01*
X143560039Y-66709500D01*
X143439961Y-66709500D01*
X143383542Y-66730034D01*
X143327123Y-66750569D01*
X143235140Y-66827751D01*
X143235138Y-66827753D01*
X143235138Y-66827754D01*
X143215490Y-66861786D01*
X143175097Y-66931748D01*
X143154247Y-67049999D01*
X115200000Y-67049999D01*
X115200000Y-66300000D01*
X141904247Y-66300000D01*
X141921817Y-66399650D01*
X141925098Y-66418254D01*
X141985138Y-66522246D01*
X141985140Y-66522248D01*
X141985139Y-66522248D01*
X142021325Y-66552611D01*
X142077123Y-66599431D01*
X142189961Y-66640500D01*
X142310038Y-66640500D01*
X142310039Y-66640500D01*
X142422877Y-66599431D01*
X142514862Y-66522246D01*
X142574902Y-66418254D01*
X142595753Y-66300000D01*
X144604247Y-66300000D01*
X144621817Y-66399650D01*
X144625098Y-66418254D01*
X144685138Y-66522246D01*
X144685140Y-66522248D01*
X144685139Y-66522248D01*
X144721325Y-66552611D01*
X144777123Y-66599431D01*
X144889961Y-66640500D01*
X145010038Y-66640500D01*
X145010039Y-66640500D01*
X145122877Y-66599431D01*
X145214862Y-66522246D01*
X145274902Y-66418254D01*
X145295753Y-66300000D01*
X145274902Y-66181746D01*
X145214862Y-66077754D01*
X145214859Y-66077751D01*
X145214860Y-66077751D01*
X145122877Y-66000569D01*
X145010040Y-65959500D01*
X145010039Y-65959500D01*
X144889961Y-65959500D01*
X144833542Y-65980034D01*
X144777123Y-66000569D01*
X144685140Y-66077751D01*
X144625097Y-66181748D01*
X144604247Y-66300000D01*
X142595753Y-66300000D01*
X142574902Y-66181746D01*
X142514862Y-66077754D01*
X142514859Y-66077751D01*
X142514860Y-66077751D01*
X142422877Y-66000569D01*
X142310040Y-65959500D01*
X142310039Y-65959500D01*
X142189961Y-65959500D01*
X142133542Y-65980034D01*
X142077123Y-66000569D01*
X141985140Y-66077751D01*
X141925097Y-66181748D01*
X141904247Y-66300000D01*
X115200000Y-66300000D01*
X115200000Y-65550000D01*
X143154247Y-65550000D01*
X143175098Y-65668254D01*
X143235138Y-65772246D01*
X143235140Y-65772248D01*
X143235139Y-65772248D01*
X143315925Y-65840034D01*
X143327123Y-65849431D01*
X143439961Y-65890500D01*
X143560038Y-65890500D01*
X143560039Y-65890500D01*
X143672877Y-65849431D01*
X143764862Y-65772246D01*
X143824902Y-65668254D01*
X143845753Y-65550000D01*
X143824902Y-65431746D01*
X143764862Y-65327754D01*
X143764859Y-65327751D01*
X143764860Y-65327751D01*
X143672877Y-65250569D01*
X143560040Y-65209500D01*
X143560039Y-65209500D01*
X143439961Y-65209500D01*
X143383542Y-65230034D01*
X143327123Y-65250569D01*
X143235140Y-65327751D01*
X143175097Y-65431748D01*
X143154247Y-65549999D01*
X143154247Y-65550000D01*
X115200000Y-65550000D01*
X115200000Y-63200000D01*
X142454614Y-63200000D01*
X142474116Y-63410464D01*
X142474117Y-63410467D01*
X142531959Y-63613760D01*
X142626171Y-63802965D01*
X142626175Y-63802971D01*
X142753547Y-63971639D01*
X142909749Y-64114036D01*
X142909752Y-64114039D01*
X143040528Y-64195011D01*
X143089458Y-64225308D01*
X143286550Y-64301662D01*
X143494317Y-64340500D01*
X143494318Y-64340500D01*
X143705682Y-64340500D01*
X143705683Y-64340500D01*
X143913450Y-64301662D01*
X144110542Y-64225308D01*
X144290249Y-64114038D01*
X144446450Y-63971642D01*
X144573827Y-63802968D01*
X144668041Y-63613761D01*
X144725884Y-63410464D01*
X144745386Y-63200000D01*
X144745386Y-63199999D01*
X147704614Y-63199999D01*
X147724116Y-63410464D01*
X147724117Y-63410467D01*
X147781959Y-63613760D01*
X147876171Y-63802965D01*
X147876175Y-63802971D01*
X148003547Y-63971639D01*
X148159749Y-64114036D01*
X148159752Y-64114039D01*
X148290528Y-64195011D01*
X148339458Y-64225308D01*
X148536550Y-64301662D01*
X148744317Y-64340500D01*
X148744318Y-64340500D01*
X148955682Y-64340500D01*
X148955683Y-64340500D01*
X149163450Y-64301662D01*
X149360542Y-64225308D01*
X149540249Y-64114038D01*
X149696450Y-63971642D01*
X149823827Y-63802968D01*
X149918041Y-63613761D01*
X149975884Y-63410464D01*
X149995386Y-63200000D01*
X149995386Y-63199999D01*
X155604614Y-63199999D01*
X155624116Y-63410464D01*
X155624117Y-63410467D01*
X155681959Y-63613760D01*
X155776171Y-63802965D01*
X155776175Y-63802971D01*
X155903547Y-63971639D01*
X156059749Y-64114036D01*
X156059752Y-64114039D01*
X156190528Y-64195011D01*
X156239458Y-64225308D01*
X156436550Y-64301662D01*
X156644317Y-64340500D01*
X156644318Y-64340500D01*
X156855682Y-64340500D01*
X156855683Y-64340500D01*
X157063450Y-64301662D01*
X157260542Y-64225308D01*
X157440249Y-64114038D01*
X157596450Y-63971642D01*
X157723827Y-63802968D01*
X157818041Y-63613761D01*
X157875884Y-63410464D01*
X157895386Y-63200000D01*
X157875884Y-62989536D01*
X157818041Y-62786239D01*
X157723827Y-62597032D01*
X157596450Y-62428358D01*
X157440249Y-62285962D01*
X157440247Y-62285960D01*
X157260544Y-62174693D01*
X157260542Y-62174692D01*
X157063450Y-62098338D01*
X157063449Y-62098337D01*
X157063447Y-62098337D01*
X156917709Y-62071094D01*
X156855683Y-62059500D01*
X156644317Y-62059500D01*
X156596551Y-62068428D01*
X156436552Y-62098337D01*
X156239455Y-62174693D01*
X156059752Y-62285960D01*
X156059749Y-62285963D01*
X155903547Y-62428360D01*
X155776175Y-62597028D01*
X155776171Y-62597034D01*
X155681959Y-62786239D01*
X155624117Y-62989532D01*
X155624116Y-62989535D01*
X155604614Y-63199999D01*
X149995386Y-63199999D01*
X149975884Y-62989536D01*
X149918041Y-62786239D01*
X149823827Y-62597032D01*
X149696450Y-62428358D01*
X149540249Y-62285962D01*
X149540247Y-62285960D01*
X149360544Y-62174693D01*
X149360542Y-62174692D01*
X149163450Y-62098338D01*
X149163449Y-62098337D01*
X149163447Y-62098337D01*
X149017709Y-62071094D01*
X148955683Y-62059500D01*
X148744317Y-62059500D01*
X148696551Y-62068428D01*
X148536552Y-62098337D01*
X148339455Y-62174693D01*
X148159752Y-62285960D01*
X148159749Y-62285963D01*
X148003547Y-62428360D01*
X147876175Y-62597028D01*
X147876171Y-62597034D01*
X147781959Y-62786239D01*
X147724117Y-62989532D01*
X147724116Y-62989535D01*
X147704614Y-63199999D01*
X144745386Y-63199999D01*
X144725884Y-62989536D01*
X144668041Y-62786239D01*
X144573827Y-62597032D01*
X144446450Y-62428358D01*
X144290249Y-62285962D01*
X144290247Y-62285960D01*
X144110544Y-62174693D01*
X144110542Y-62174692D01*
X143913450Y-62098338D01*
X143913449Y-62098337D01*
X143913447Y-62098337D01*
X143767709Y-62071094D01*
X143705683Y-62059500D01*
X143494317Y-62059500D01*
X143446551Y-62068428D01*
X143286552Y-62098337D01*
X143089455Y-62174693D01*
X142909752Y-62285960D01*
X142909749Y-62285963D01*
X142753547Y-62428360D01*
X142626175Y-62597028D01*
X142626171Y-62597034D01*
X142531959Y-62786239D01*
X142474117Y-62989532D01*
X142474116Y-62989535D01*
X142454614Y-63200000D01*
X115200000Y-63200000D01*
X115200000Y-60169499D01*
X115220210Y-60120710D01*
X115269000Y-60100500D01*
X166630500Y-60100500D01*
X166679290Y-60120710D01*
G37*
G04 #@! TD.AperFunction*
M02*
