G04 #@! TF.GenerationSoftware,KiCad,Pcbnew,7.0.2*
G04 #@! TF.CreationDate,2023-10-17T11:35:56+03:00*
G04 #@! TF.ProjectId,telemetry_box_01,74656c65-6d65-4747-9279-5f626f785f30,rev?*
G04 #@! TF.SameCoordinates,Original*
G04 #@! TF.FileFunction,Legend,Top*
G04 #@! TF.FilePolarity,Positive*
%FSLAX46Y46*%
G04 Gerber Fmt 4.6, Leading zero omitted, Abs format (unit mm)*
G04 Created by KiCad (PCBNEW 7.0.2) date 2023-10-17 11:35:56*
%MOMM*%
%LPD*%
G01*
G04 APERTURE LIST*
G04 Aperture macros list*
%AMRoundRect*
0 Rectangle with rounded corners*
0 $1 Rounding radius*
0 $2 $3 $4 $5 $6 $7 $8 $9 X,Y pos of 4 corners*
0 Add a 4 corners polygon primitive as box body*
4,1,4,$2,$3,$4,$5,$6,$7,$8,$9,$2,$3,0*
0 Add four circle primitives for the rounded corners*
1,1,$1+$1,$2,$3*
1,1,$1+$1,$4,$5*
1,1,$1+$1,$6,$7*
1,1,$1+$1,$8,$9*
0 Add four rect primitives between the rounded corners*
20,1,$1+$1,$2,$3,$4,$5,0*
20,1,$1+$1,$4,$5,$6,$7,0*
20,1,$1+$1,$6,$7,$8,$9,0*
20,1,$1+$1,$8,$9,$2,$3,0*%
G04 Aperture macros list end*
%ADD10C,0.150000*%
%ADD11C,0.120000*%
%ADD12C,0.127000*%
%ADD13C,0.200000*%
%ADD14C,0.100000*%
%ADD15RoundRect,0.225000X-0.225000X-0.250000X0.225000X-0.250000X0.225000X0.250000X-0.225000X0.250000X0*%
%ADD16RoundRect,0.147500X-0.172500X0.147500X-0.172500X-0.147500X0.172500X-0.147500X0.172500X0.147500X0*%
%ADD17RoundRect,0.100000X0.130000X0.100000X-0.130000X0.100000X-0.130000X-0.100000X0.130000X-0.100000X0*%
%ADD18RoundRect,0.100000X-0.130000X-0.100000X0.130000X-0.100000X0.130000X0.100000X-0.130000X0.100000X0*%
%ADD19RoundRect,0.140000X-0.140000X-0.170000X0.140000X-0.170000X0.140000X0.170000X-0.140000X0.170000X0*%
%ADD20RoundRect,0.140000X-0.170000X0.140000X-0.170000X-0.140000X0.170000X-0.140000X0.170000X0.140000X0*%
%ADD21R,0.800000X0.900000*%
%ADD22C,0.675000*%
%ADD23C,0.650000*%
%ADD24R,0.700000X0.300000*%
%ADD25O,1.600000X0.800000*%
%ADD26RoundRect,0.102000X-1.100000X0.525000X-1.100000X-0.525000X1.100000X-0.525000X1.100000X0.525000X0*%
%ADD27RoundRect,0.102000X-0.525000X0.500000X-0.525000X-0.500000X0.525000X-0.500000X0.525000X0.500000X0*%
%ADD28RoundRect,0.100000X-0.100000X0.130000X-0.100000X-0.130000X0.100000X-0.130000X0.100000X0.130000X0*%
%ADD29RoundRect,0.100000X0.100000X-0.130000X0.100000X0.130000X-0.100000X0.130000X-0.100000X-0.130000X0*%
%ADD30RoundRect,0.218750X-0.218750X-0.256250X0.218750X-0.256250X0.218750X0.256250X-0.218750X0.256250X0*%
%ADD31RoundRect,0.225000X0.225000X0.250000X-0.225000X0.250000X-0.225000X-0.250000X0.225000X-0.250000X0*%
%ADD32C,2.000000*%
%ADD33RoundRect,0.140000X0.140000X0.170000X-0.140000X0.170000X-0.140000X-0.170000X0.140000X-0.170000X0*%
%ADD34RoundRect,0.140000X0.170000X-0.140000X0.170000X0.140000X-0.170000X0.140000X-0.170000X-0.140000X0*%
%ADD35C,0.250000*%
%ADD36R,4.850000X4.850000*%
%ADD37R,0.650000X1.150000*%
%ADD38R,0.450000X1.300000*%
%ADD39R,1.400000X1.700000*%
%ADD40R,0.540000X0.800000*%
%ADD41R,0.470000X0.520000*%
%ADD42RoundRect,0.125000X-0.175000X-0.125000X0.175000X-0.125000X0.175000X0.125000X-0.175000X0.125000X0*%
%ADD43RoundRect,0.150000X-0.150000X-0.250000X0.150000X-0.250000X0.150000X0.250000X-0.150000X0.250000X0*%
%ADD44RoundRect,0.150000X-0.150000X-0.650000X0.150000X-0.650000X0.150000X0.650000X-0.150000X0.650000X0*%
%ADD45RoundRect,0.147500X0.172500X-0.147500X0.172500X0.147500X-0.172500X0.147500X-0.172500X-0.147500X0*%
%ADD46RoundRect,0.102000X-0.525000X-1.100000X0.525000X-1.100000X0.525000X1.100000X-0.525000X1.100000X0*%
%ADD47RoundRect,0.102000X-0.500000X-0.525000X0.500000X-0.525000X0.500000X0.525000X-0.500000X0.525000X0*%
%ADD48RoundRect,0.320000X-0.080000X-0.480000X0.080000X-0.480000X0.080000X0.480000X-0.080000X0.480000X0*%
%ADD49RoundRect,0.320000X0.480000X-0.080000X0.480000X0.080000X-0.480000X0.080000X-0.480000X-0.080000X0*%
%ADD50RoundRect,0.320000X0.080000X0.480000X-0.080000X0.480000X-0.080000X-0.480000X0.080000X-0.480000X0*%
%ADD51R,3.000000X3.000000*%
%ADD52R,1.500000X1.500000*%
%ADD53R,0.320000X0.690000*%
%ADD54R,1.600000X1.000000*%
%ADD55RoundRect,0.102000X0.350000X-0.500000X0.350000X0.500000X-0.350000X0.500000X-0.350000X-0.500000X0*%
%ADD56RoundRect,0.250000X0.325000X0.450000X-0.325000X0.450000X-0.325000X-0.450000X0.325000X-0.450000X0*%
%ADD57RoundRect,0.218750X0.256250X-0.218750X0.256250X0.218750X-0.256250X0.218750X-0.256250X-0.218750X0*%
%ADD58RoundRect,0.157480X0.842520X-0.442520X0.842520X0.442520X-0.842520X0.442520X-0.842520X-0.442520X0*%
%ADD59RoundRect,0.380577X4.569423X-1.069423X4.569423X1.069423X-4.569423X1.069423X-4.569423X-1.069423X0*%
%ADD60R,1.000000X1.200000*%
%ADD61RoundRect,0.020000X-0.410000X-0.180000X0.410000X-0.180000X0.410000X0.180000X-0.410000X0.180000X0*%
%ADD62R,1.625000X2.365000*%
G04 APERTURE END LIST*
D10*
X124195238Y-98657619D02*
X124766666Y-98657619D01*
X124480952Y-99657619D02*
X124480952Y-98657619D01*
X125480952Y-99610000D02*
X125385714Y-99657619D01*
X125385714Y-99657619D02*
X125195238Y-99657619D01*
X125195238Y-99657619D02*
X125100000Y-99610000D01*
X125100000Y-99610000D02*
X125052381Y-99514761D01*
X125052381Y-99514761D02*
X125052381Y-99133809D01*
X125052381Y-99133809D02*
X125100000Y-99038571D01*
X125100000Y-99038571D02*
X125195238Y-98990952D01*
X125195238Y-98990952D02*
X125385714Y-98990952D01*
X125385714Y-98990952D02*
X125480952Y-99038571D01*
X125480952Y-99038571D02*
X125528571Y-99133809D01*
X125528571Y-99133809D02*
X125528571Y-99229047D01*
X125528571Y-99229047D02*
X125052381Y-99324285D01*
X126100000Y-99657619D02*
X126004762Y-99610000D01*
X126004762Y-99610000D02*
X125957143Y-99514761D01*
X125957143Y-99514761D02*
X125957143Y-98657619D01*
X126861905Y-99610000D02*
X126766667Y-99657619D01*
X126766667Y-99657619D02*
X126576191Y-99657619D01*
X126576191Y-99657619D02*
X126480953Y-99610000D01*
X126480953Y-99610000D02*
X126433334Y-99514761D01*
X126433334Y-99514761D02*
X126433334Y-99133809D01*
X126433334Y-99133809D02*
X126480953Y-99038571D01*
X126480953Y-99038571D02*
X126576191Y-98990952D01*
X126576191Y-98990952D02*
X126766667Y-98990952D01*
X126766667Y-98990952D02*
X126861905Y-99038571D01*
X126861905Y-99038571D02*
X126909524Y-99133809D01*
X126909524Y-99133809D02*
X126909524Y-99229047D01*
X126909524Y-99229047D02*
X126433334Y-99324285D01*
X127909524Y-99657619D02*
X127576191Y-99181428D01*
X127338096Y-99657619D02*
X127338096Y-98657619D01*
X127338096Y-98657619D02*
X127719048Y-98657619D01*
X127719048Y-98657619D02*
X127814286Y-98705238D01*
X127814286Y-98705238D02*
X127861905Y-98752857D01*
X127861905Y-98752857D02*
X127909524Y-98848095D01*
X127909524Y-98848095D02*
X127909524Y-98990952D01*
X127909524Y-98990952D02*
X127861905Y-99086190D01*
X127861905Y-99086190D02*
X127814286Y-99133809D01*
X127814286Y-99133809D02*
X127719048Y-99181428D01*
X127719048Y-99181428D02*
X127338096Y-99181428D01*
X128766667Y-99657619D02*
X128766667Y-99133809D01*
X128766667Y-99133809D02*
X128719048Y-99038571D01*
X128719048Y-99038571D02*
X128623810Y-98990952D01*
X128623810Y-98990952D02*
X128433334Y-98990952D01*
X128433334Y-98990952D02*
X128338096Y-99038571D01*
X128766667Y-99610000D02*
X128671429Y-99657619D01*
X128671429Y-99657619D02*
X128433334Y-99657619D01*
X128433334Y-99657619D02*
X128338096Y-99610000D01*
X128338096Y-99610000D02*
X128290477Y-99514761D01*
X128290477Y-99514761D02*
X128290477Y-99419523D01*
X128290477Y-99419523D02*
X128338096Y-99324285D01*
X128338096Y-99324285D02*
X128433334Y-99276666D01*
X128433334Y-99276666D02*
X128671429Y-99276666D01*
X128671429Y-99276666D02*
X128766667Y-99229047D01*
X129671429Y-99610000D02*
X129576191Y-99657619D01*
X129576191Y-99657619D02*
X129385715Y-99657619D01*
X129385715Y-99657619D02*
X129290477Y-99610000D01*
X129290477Y-99610000D02*
X129242858Y-99562380D01*
X129242858Y-99562380D02*
X129195239Y-99467142D01*
X129195239Y-99467142D02*
X129195239Y-99181428D01*
X129195239Y-99181428D02*
X129242858Y-99086190D01*
X129242858Y-99086190D02*
X129290477Y-99038571D01*
X129290477Y-99038571D02*
X129385715Y-98990952D01*
X129385715Y-98990952D02*
X129576191Y-98990952D01*
X129576191Y-98990952D02*
X129671429Y-99038571D01*
X130480953Y-99610000D02*
X130385715Y-99657619D01*
X130385715Y-99657619D02*
X130195239Y-99657619D01*
X130195239Y-99657619D02*
X130100001Y-99610000D01*
X130100001Y-99610000D02*
X130052382Y-99514761D01*
X130052382Y-99514761D02*
X130052382Y-99133809D01*
X130052382Y-99133809D02*
X130100001Y-99038571D01*
X130100001Y-99038571D02*
X130195239Y-98990952D01*
X130195239Y-98990952D02*
X130385715Y-98990952D01*
X130385715Y-98990952D02*
X130480953Y-99038571D01*
X130480953Y-99038571D02*
X130528572Y-99133809D01*
X130528572Y-99133809D02*
X130528572Y-99229047D01*
X130528572Y-99229047D02*
X130052382Y-99324285D01*
X130719049Y-99752857D02*
X131480953Y-99752857D01*
X131909525Y-98657619D02*
X132004763Y-98657619D01*
X132004763Y-98657619D02*
X132100001Y-98705238D01*
X132100001Y-98705238D02*
X132147620Y-98752857D01*
X132147620Y-98752857D02*
X132195239Y-98848095D01*
X132195239Y-98848095D02*
X132242858Y-99038571D01*
X132242858Y-99038571D02*
X132242858Y-99276666D01*
X132242858Y-99276666D02*
X132195239Y-99467142D01*
X132195239Y-99467142D02*
X132147620Y-99562380D01*
X132147620Y-99562380D02*
X132100001Y-99610000D01*
X132100001Y-99610000D02*
X132004763Y-99657619D01*
X132004763Y-99657619D02*
X131909525Y-99657619D01*
X131909525Y-99657619D02*
X131814287Y-99610000D01*
X131814287Y-99610000D02*
X131766668Y-99562380D01*
X131766668Y-99562380D02*
X131719049Y-99467142D01*
X131719049Y-99467142D02*
X131671430Y-99276666D01*
X131671430Y-99276666D02*
X131671430Y-99038571D01*
X131671430Y-99038571D02*
X131719049Y-98848095D01*
X131719049Y-98848095D02*
X131766668Y-98752857D01*
X131766668Y-98752857D02*
X131814287Y-98705238D01*
X131814287Y-98705238D02*
X131909525Y-98657619D01*
X133195239Y-99657619D02*
X132623811Y-99657619D01*
X132909525Y-99657619D02*
X132909525Y-98657619D01*
X132909525Y-98657619D02*
X132814287Y-98800476D01*
X132814287Y-98800476D02*
X132719049Y-98895714D01*
X132719049Y-98895714D02*
X132623811Y-98943333D01*
X124290476Y-100372857D02*
X124338095Y-100325238D01*
X124338095Y-100325238D02*
X124433333Y-100277619D01*
X124433333Y-100277619D02*
X124671428Y-100277619D01*
X124671428Y-100277619D02*
X124766666Y-100325238D01*
X124766666Y-100325238D02*
X124814285Y-100372857D01*
X124814285Y-100372857D02*
X124861904Y-100468095D01*
X124861904Y-100468095D02*
X124861904Y-100563333D01*
X124861904Y-100563333D02*
X124814285Y-100706190D01*
X124814285Y-100706190D02*
X124242857Y-101277619D01*
X124242857Y-101277619D02*
X124861904Y-101277619D01*
X125480952Y-100277619D02*
X125576190Y-100277619D01*
X125576190Y-100277619D02*
X125671428Y-100325238D01*
X125671428Y-100325238D02*
X125719047Y-100372857D01*
X125719047Y-100372857D02*
X125766666Y-100468095D01*
X125766666Y-100468095D02*
X125814285Y-100658571D01*
X125814285Y-100658571D02*
X125814285Y-100896666D01*
X125814285Y-100896666D02*
X125766666Y-101087142D01*
X125766666Y-101087142D02*
X125719047Y-101182380D01*
X125719047Y-101182380D02*
X125671428Y-101230000D01*
X125671428Y-101230000D02*
X125576190Y-101277619D01*
X125576190Y-101277619D02*
X125480952Y-101277619D01*
X125480952Y-101277619D02*
X125385714Y-101230000D01*
X125385714Y-101230000D02*
X125338095Y-101182380D01*
X125338095Y-101182380D02*
X125290476Y-101087142D01*
X125290476Y-101087142D02*
X125242857Y-100896666D01*
X125242857Y-100896666D02*
X125242857Y-100658571D01*
X125242857Y-100658571D02*
X125290476Y-100468095D01*
X125290476Y-100468095D02*
X125338095Y-100372857D01*
X125338095Y-100372857D02*
X125385714Y-100325238D01*
X125385714Y-100325238D02*
X125480952Y-100277619D01*
X126195238Y-100372857D02*
X126242857Y-100325238D01*
X126242857Y-100325238D02*
X126338095Y-100277619D01*
X126338095Y-100277619D02*
X126576190Y-100277619D01*
X126576190Y-100277619D02*
X126671428Y-100325238D01*
X126671428Y-100325238D02*
X126719047Y-100372857D01*
X126719047Y-100372857D02*
X126766666Y-100468095D01*
X126766666Y-100468095D02*
X126766666Y-100563333D01*
X126766666Y-100563333D02*
X126719047Y-100706190D01*
X126719047Y-100706190D02*
X126147619Y-101277619D01*
X126147619Y-101277619D02*
X126766666Y-101277619D01*
X127100000Y-100277619D02*
X127719047Y-100277619D01*
X127719047Y-100277619D02*
X127385714Y-100658571D01*
X127385714Y-100658571D02*
X127528571Y-100658571D01*
X127528571Y-100658571D02*
X127623809Y-100706190D01*
X127623809Y-100706190D02*
X127671428Y-100753809D01*
X127671428Y-100753809D02*
X127719047Y-100849047D01*
X127719047Y-100849047D02*
X127719047Y-101087142D01*
X127719047Y-101087142D02*
X127671428Y-101182380D01*
X127671428Y-101182380D02*
X127623809Y-101230000D01*
X127623809Y-101230000D02*
X127528571Y-101277619D01*
X127528571Y-101277619D02*
X127242857Y-101277619D01*
X127242857Y-101277619D02*
X127147619Y-101230000D01*
X127147619Y-101230000D02*
X127100000Y-101182380D01*
X128147619Y-101182380D02*
X128195238Y-101230000D01*
X128195238Y-101230000D02*
X128147619Y-101277619D01*
X128147619Y-101277619D02*
X128100000Y-101230000D01*
X128100000Y-101230000D02*
X128147619Y-101182380D01*
X128147619Y-101182380D02*
X128147619Y-101277619D01*
X129147618Y-101277619D02*
X128576190Y-101277619D01*
X128861904Y-101277619D02*
X128861904Y-100277619D01*
X128861904Y-100277619D02*
X128766666Y-100420476D01*
X128766666Y-100420476D02*
X128671428Y-100515714D01*
X128671428Y-100515714D02*
X128576190Y-100563333D01*
X129766666Y-100277619D02*
X129861904Y-100277619D01*
X129861904Y-100277619D02*
X129957142Y-100325238D01*
X129957142Y-100325238D02*
X130004761Y-100372857D01*
X130004761Y-100372857D02*
X130052380Y-100468095D01*
X130052380Y-100468095D02*
X130099999Y-100658571D01*
X130099999Y-100658571D02*
X130099999Y-100896666D01*
X130099999Y-100896666D02*
X130052380Y-101087142D01*
X130052380Y-101087142D02*
X130004761Y-101182380D01*
X130004761Y-101182380D02*
X129957142Y-101230000D01*
X129957142Y-101230000D02*
X129861904Y-101277619D01*
X129861904Y-101277619D02*
X129766666Y-101277619D01*
X129766666Y-101277619D02*
X129671428Y-101230000D01*
X129671428Y-101230000D02*
X129623809Y-101182380D01*
X129623809Y-101182380D02*
X129576190Y-101087142D01*
X129576190Y-101087142D02*
X129528571Y-100896666D01*
X129528571Y-100896666D02*
X129528571Y-100658571D01*
X129528571Y-100658571D02*
X129576190Y-100468095D01*
X129576190Y-100468095D02*
X129623809Y-100372857D01*
X129623809Y-100372857D02*
X129671428Y-100325238D01*
X129671428Y-100325238D02*
X129766666Y-100277619D01*
D11*
X143859420Y-100440000D02*
X144140580Y-100440000D01*
X143859420Y-101460000D02*
X144140580Y-101460000D01*
X177042164Y-85540000D02*
X177257836Y-85540000D01*
X177042164Y-86260000D02*
X177257836Y-86260000D01*
X146210000Y-62112164D02*
X146210000Y-62327836D01*
X145490000Y-62112164D02*
X145490000Y-62327836D01*
X154642164Y-60290000D02*
X154857836Y-60290000D01*
X154642164Y-61010000D02*
X154857836Y-61010000D01*
X175150000Y-93500000D02*
X177450000Y-93500000D01*
X177450000Y-93500000D02*
X177450000Y-90800000D01*
D12*
X176640000Y-76015000D02*
X177750000Y-76015000D01*
X179870000Y-76015000D02*
X183620000Y-76015000D01*
X176640000Y-74645000D02*
X176640000Y-76015000D01*
X176640000Y-66815000D02*
X176640000Y-68185000D01*
X177750000Y-66815000D02*
X176640000Y-66815000D01*
X183620000Y-66815000D02*
X179870000Y-66815000D01*
D13*
X176150000Y-74215000D02*
G75*
G03*
X176150000Y-74215000I-100000J0D01*
G01*
D12*
X146650000Y-69675000D02*
X146650000Y-72275000D01*
X144050000Y-69675000D02*
X144050000Y-70305000D01*
X144050000Y-72275000D02*
X144050000Y-71645000D01*
D11*
X146077500Y-79765000D02*
X146077500Y-81235000D01*
X146077500Y-81235000D02*
X148362500Y-81235000D01*
X148362500Y-79765000D02*
X146077500Y-79765000D01*
X137440580Y-101460000D02*
X137159420Y-101460000D01*
X137440580Y-100440000D02*
X137159420Y-100440000D01*
X169250000Y-63200000D02*
G75*
G03*
X169250000Y-63200000I-1200000J0D01*
G01*
X153642164Y-62740000D02*
X153857836Y-62740000D01*
X153642164Y-63460000D02*
X153857836Y-63460000D01*
X173607836Y-66610000D02*
X173392164Y-66610000D01*
X173607836Y-65890000D02*
X173392164Y-65890000D01*
X168290000Y-82757836D02*
X168290000Y-82542164D01*
X169010000Y-82757836D02*
X169010000Y-82542164D01*
X164000000Y-63200000D02*
G75*
G03*
X164000000Y-63200000I-1200000J0D01*
G01*
X173910000Y-83790000D02*
X173910000Y-84350000D01*
X166690000Y-83790000D02*
X167250000Y-83790000D01*
X166690000Y-83790000D02*
X166690000Y-84350000D01*
X173910000Y-91010000D02*
X173910000Y-90450000D01*
X173910000Y-91010000D02*
X173350000Y-91010000D01*
X166690000Y-91010000D02*
X166690000Y-90450000D01*
X166690000Y-91010000D02*
X167250000Y-91010000D01*
X183350000Y-93650000D02*
G75*
G03*
X183350000Y-93650000I-1200000J0D01*
G01*
X137440580Y-99960000D02*
X137159420Y-99960000D01*
X137440580Y-98940000D02*
X137159420Y-98940000D01*
X164050000Y-100200000D02*
G75*
G03*
X164050000Y-100200000I-1200000J0D01*
G01*
X177150000Y-63200000D02*
G75*
G03*
X177150000Y-63200000I-1200000J0D01*
G01*
X183350000Y-86650000D02*
G75*
G03*
X183350000Y-86650000I-1200000J0D01*
G01*
X157050000Y-100200000D02*
G75*
G03*
X157050000Y-100200000I-1200000J0D01*
G01*
X183350000Y-83150000D02*
G75*
G03*
X183350000Y-83150000I-1200000J0D01*
G01*
X153550000Y-100200000D02*
G75*
G03*
X153550000Y-100200000I-1200000J0D01*
G01*
X164234420Y-69540000D02*
X164515580Y-69540000D01*
X164234420Y-70560000D02*
X164515580Y-70560000D01*
X153550000Y-86700000D02*
G75*
G03*
X153550000Y-86700000I-1200000J0D01*
G01*
X182400000Y-63200000D02*
G75*
G03*
X182400000Y-63200000I-1200000J0D01*
G01*
X157050000Y-90200000D02*
G75*
G03*
X157050000Y-90200000I-1200000J0D01*
G01*
X150050000Y-90200000D02*
G75*
G03*
X150050000Y-90200000I-1200000J0D01*
G01*
D12*
X124170000Y-75477500D02*
X125415000Y-75477500D01*
X124170000Y-75477500D02*
X124170000Y-73777500D01*
X133495000Y-75477500D02*
X136820000Y-75477500D01*
X136820000Y-75477500D02*
X136820000Y-73777500D01*
X136820000Y-69547500D02*
X136820000Y-62547500D01*
X124170000Y-69047500D02*
X124170000Y-63047500D01*
X124170000Y-60027500D02*
X136820000Y-60027500D01*
D13*
X127840000Y-76547500D02*
G75*
G03*
X127840000Y-76547500I-100000J0D01*
G01*
D11*
X170590000Y-75587836D02*
X170590000Y-75372164D01*
X171310000Y-75587836D02*
X171310000Y-75372164D01*
X164234420Y-66540000D02*
X164515580Y-66540000D01*
X164234420Y-67560000D02*
X164515580Y-67560000D01*
X153550000Y-90200000D02*
G75*
G03*
X153550000Y-90200000I-1200000J0D01*
G01*
D13*
X172720000Y-81610000D02*
G75*
G03*
X172720000Y-81610000I-100000J0D01*
G01*
D11*
X183350000Y-90150000D02*
G75*
G03*
X183350000Y-90150000I-1200000J0D01*
G01*
X114557836Y-88460000D02*
X114342164Y-88460000D01*
X114557836Y-87740000D02*
X114342164Y-87740000D01*
D12*
X119875000Y-79100000D02*
X122475000Y-79100000D01*
X119875000Y-81700000D02*
X120505000Y-81700000D01*
X122475000Y-81700000D02*
X121845000Y-81700000D01*
D11*
X165657836Y-85360000D02*
X165442164Y-85360000D01*
X165657836Y-84640000D02*
X165442164Y-84640000D01*
X171512164Y-65890000D02*
X171727836Y-65890000D01*
X171512164Y-66610000D02*
X171727836Y-66610000D01*
X164234420Y-68040000D02*
X164515580Y-68040000D01*
X164234420Y-69060000D02*
X164515580Y-69060000D01*
D12*
X124100000Y-96850000D02*
X124100000Y-78050000D01*
X143300000Y-96850000D02*
X124100000Y-96850000D01*
X143300000Y-96850000D02*
X143300000Y-78050000D01*
X124100000Y-78050000D02*
X143300000Y-78050000D01*
D11*
X148960000Y-62112164D02*
X148960000Y-62327836D01*
X148240000Y-62112164D02*
X148240000Y-62327836D01*
D12*
X171570000Y-75500000D02*
X171570000Y-73500000D01*
X173830000Y-75500000D02*
X173830000Y-73500000D01*
D13*
X172150000Y-76410000D02*
G75*
G03*
X172150000Y-76410000I-100000J0D01*
G01*
D12*
X155050000Y-83787500D02*
X157050000Y-83787500D01*
X157850000Y-83487500D02*
X158450000Y-82887500D01*
X153650000Y-82887500D02*
X154250000Y-83487500D01*
X158450000Y-82887500D02*
X158450000Y-79887500D01*
X153650000Y-79887500D02*
X153650000Y-82887500D01*
X153650000Y-79887500D02*
X154250000Y-79287500D01*
X158450000Y-79887500D02*
X157850000Y-79287500D01*
X155050000Y-78987500D02*
X157050000Y-78987500D01*
D13*
X154250000Y-85787500D02*
G75*
G03*
X154250000Y-85787500I-100000J0D01*
G01*
D11*
X140911252Y-101410000D02*
X140388748Y-101410000D01*
X140911252Y-99990000D02*
X140388748Y-99990000D01*
X147112164Y-61410000D02*
X147327836Y-61410000D01*
X147112164Y-62130000D02*
X147327836Y-62130000D01*
X165990000Y-82262779D02*
X165990000Y-81937221D01*
X167010000Y-82262779D02*
X167010000Y-81937221D01*
X143859420Y-98940000D02*
X144140580Y-98940000D01*
X143859420Y-99960000D02*
X144140580Y-99960000D01*
X165657836Y-84410000D02*
X165442164Y-84410000D01*
X165657836Y-83690000D02*
X165442164Y-83690000D01*
X116310000Y-88792164D02*
X116310000Y-89007836D01*
X115590000Y-88792164D02*
X115590000Y-89007836D01*
X146077500Y-83265000D02*
X146077500Y-84735000D01*
X146077500Y-84735000D02*
X148362500Y-84735000D01*
X148362500Y-83265000D02*
X146077500Y-83265000D01*
X160550000Y-90200000D02*
G75*
G03*
X160550000Y-90200000I-1200000J0D01*
G01*
D12*
X169600000Y-102250000D02*
X166400000Y-102250000D01*
X166400000Y-103850000D02*
X169600000Y-103850000D01*
D14*
X170350000Y-103850000D02*
G75*
G03*
X170350000Y-103850000I-50000J0D01*
G01*
D11*
X175437221Y-83790000D02*
X175762779Y-83790000D01*
X175437221Y-84810000D02*
X175762779Y-84810000D01*
X146077500Y-81515000D02*
X146077500Y-82985000D01*
X146077500Y-82985000D02*
X148362500Y-82985000D01*
X148362500Y-81515000D02*
X146077500Y-81515000D01*
X167340000Y-82757836D02*
X167340000Y-82542164D01*
X168060000Y-82757836D02*
X168060000Y-82542164D01*
X173690000Y-82757836D02*
X173690000Y-82542164D01*
X174410000Y-82757836D02*
X174410000Y-82542164D01*
X165660000Y-81992164D02*
X165660000Y-82207836D01*
X164940000Y-81992164D02*
X164940000Y-82207836D01*
X171310000Y-73462164D02*
X171310000Y-73677836D01*
X170590000Y-73462164D02*
X170590000Y-73677836D01*
D12*
X171000000Y-67000000D02*
X174100000Y-67000000D01*
X171000000Y-70100000D02*
X174100000Y-70100000D01*
D13*
X170155000Y-67600000D02*
G75*
G03*
X170155000Y-67600000I-100000J0D01*
G01*
D11*
X160550000Y-100200000D02*
G75*
G03*
X160550000Y-100200000I-1200000J0D01*
G01*
X146077500Y-78015000D02*
X146077500Y-79485000D01*
X146077500Y-79485000D02*
X148362500Y-79485000D01*
X148362500Y-78015000D02*
X146077500Y-78015000D01*
X150050000Y-100200000D02*
G75*
G03*
X150050000Y-100200000I-1200000J0D01*
G01*
%LPC*%
D15*
X143225000Y-100950000D03*
X144775000Y-100950000D03*
D16*
X171200000Y-92415000D03*
X171200000Y-93385000D03*
D17*
X174275000Y-71695000D03*
X173635000Y-71695000D03*
D18*
X152130000Y-78750000D03*
X152770000Y-78750000D03*
D19*
X176670000Y-85900000D03*
X177630000Y-85900000D03*
D20*
X145850000Y-61740000D03*
X145850000Y-62700000D03*
D19*
X154270000Y-60650000D03*
X155230000Y-60650000D03*
D17*
X150082500Y-80500000D03*
X149442500Y-80500000D03*
D21*
X176850000Y-92850000D03*
X176850000Y-91450000D03*
X175750000Y-91450000D03*
X175750000Y-92850000D03*
D22*
X177550000Y-75015000D03*
D23*
X177550000Y-67815000D03*
D24*
X176890000Y-74165000D03*
X176890000Y-73665000D03*
X176890000Y-73165000D03*
X176890000Y-72665000D03*
X176890000Y-72165000D03*
X176890000Y-71665000D03*
X176890000Y-71165000D03*
X176890000Y-70665000D03*
X176890000Y-70165000D03*
X176890000Y-69665000D03*
X176890000Y-69165000D03*
X176890000Y-68665000D03*
X178590000Y-68915000D03*
X178590000Y-69415000D03*
X178590000Y-69915000D03*
X178590000Y-70415000D03*
X178590000Y-70915000D03*
X178590000Y-71415000D03*
X178590000Y-71915000D03*
X178590000Y-72415000D03*
X178590000Y-72915000D03*
X178590000Y-73415000D03*
X178590000Y-73915000D03*
X178590000Y-74415000D03*
D25*
X178800000Y-75545000D03*
X178800000Y-67285000D03*
X184750000Y-66925000D03*
X184750000Y-75905000D03*
D17*
X127070000Y-76600000D03*
X126430000Y-76600000D03*
D26*
X145350000Y-69500000D03*
D27*
X143825000Y-70975000D03*
D26*
X145350000Y-72450000D03*
D28*
X144550000Y-94735000D03*
X144550000Y-95375000D03*
X170050000Y-91630000D03*
X170050000Y-92270000D03*
D29*
X145250000Y-95375000D03*
X145250000Y-94735000D03*
D18*
X165030000Y-85850000D03*
X165670000Y-85850000D03*
D30*
X146775000Y-80500000D03*
X148350000Y-80500000D03*
D17*
X173065000Y-76750000D03*
X172425000Y-76750000D03*
D31*
X138075000Y-100950000D03*
X136525000Y-100950000D03*
D32*
X168050000Y-63200000D03*
D19*
X153270000Y-63100000D03*
X154230000Y-63100000D03*
D33*
X173980000Y-66250000D03*
X173020000Y-66250000D03*
D34*
X168650000Y-83130000D03*
X168650000Y-82170000D03*
D32*
X162800000Y-63200000D03*
D35*
X173550000Y-86150000D03*
X173550000Y-86650000D03*
X173550000Y-87150000D03*
X173550000Y-87650000D03*
X173550000Y-88150000D03*
X173550000Y-88650000D03*
X173550000Y-89150000D03*
X173550000Y-89650000D03*
X173550000Y-90150000D03*
X168050000Y-90650000D03*
X167800000Y-84650000D03*
X167550000Y-85400000D03*
X167550000Y-86400000D03*
X167550000Y-86900000D03*
X167550000Y-87400000D03*
X167550000Y-87900000D03*
X167550000Y-88400000D03*
X167550000Y-88900000D03*
X167550000Y-89400000D03*
X167550000Y-90650000D03*
X167050000Y-84650000D03*
X167050000Y-85150000D03*
X167050000Y-85650000D03*
X167050000Y-86150000D03*
X167050000Y-86650000D03*
X167050000Y-87150000D03*
X167050000Y-87650000D03*
X167050000Y-88150000D03*
X167050000Y-88650000D03*
X167050000Y-89150000D03*
X167050000Y-89650000D03*
X167050000Y-90150000D03*
X173050000Y-84150000D03*
X173050000Y-84900000D03*
X173050000Y-85400000D03*
X173050000Y-85900000D03*
X173050000Y-86400000D03*
X173050000Y-86900000D03*
X173050000Y-87400000D03*
X173050000Y-87900000D03*
X173050000Y-88400000D03*
X173050000Y-88900000D03*
X173050000Y-90650000D03*
X172550000Y-84150000D03*
X172300000Y-84650000D03*
X172300000Y-90150000D03*
X172050000Y-90650000D03*
D36*
X170300000Y-87400000D03*
D35*
X171800000Y-84650000D03*
X171800000Y-90150000D03*
X171550000Y-84150000D03*
X171300000Y-84650000D03*
X171300000Y-90150000D03*
X171050000Y-84150000D03*
X171050000Y-90650000D03*
X170800000Y-84650000D03*
X170550000Y-84150000D03*
X170550000Y-90650000D03*
X170300000Y-84650000D03*
X170050000Y-84150000D03*
X170050000Y-90650000D03*
X169800000Y-84650000D03*
X169800000Y-90150000D03*
X169550000Y-84150000D03*
X169550000Y-90650000D03*
X169300000Y-84650000D03*
X169300000Y-90150000D03*
X169050000Y-84150000D03*
X169050000Y-90650000D03*
X168800000Y-90150000D03*
X168550000Y-84150000D03*
X168550000Y-90650000D03*
X168300000Y-84650000D03*
X168300000Y-90150000D03*
D32*
X182150000Y-93650000D03*
D31*
X138075000Y-99450000D03*
X136525000Y-99450000D03*
D32*
X162850000Y-100200000D03*
X175950000Y-63200000D03*
X182150000Y-86650000D03*
X155850000Y-100200000D03*
D18*
X175980000Y-90400000D03*
X176620000Y-90400000D03*
D32*
X182150000Y-83150000D03*
X152350000Y-100200000D03*
D15*
X163600000Y-70050000D03*
X165150000Y-70050000D03*
D32*
X152350000Y-86700000D03*
X181200000Y-63200000D03*
X155850000Y-90200000D03*
X148850000Y-90200000D03*
D37*
X127740000Y-75047500D03*
X130280000Y-75047500D03*
X132820000Y-75047500D03*
X126470000Y-75047500D03*
X129010000Y-75047500D03*
X131550000Y-75047500D03*
D38*
X124225000Y-72877500D03*
X124225000Y-70877500D03*
X136765000Y-72877500D03*
X136765000Y-70877500D03*
D39*
X136600000Y-61317500D03*
X124390000Y-61317500D03*
D40*
X127955000Y-61897500D03*
X133035000Y-61897500D03*
D28*
X144550000Y-91135000D03*
X144550000Y-91775000D03*
D34*
X170950000Y-75960000D03*
X170950000Y-75000000D03*
D15*
X163600000Y-67050000D03*
X165150000Y-67050000D03*
D32*
X152350000Y-90200000D03*
D17*
X137620000Y-98250000D03*
X136980000Y-98250000D03*
X150082500Y-82250000D03*
X149442500Y-82250000D03*
D41*
X171635000Y-81610000D03*
X171635000Y-80790000D03*
X170965000Y-80790000D03*
X170965000Y-81610000D03*
D32*
X182150000Y-90150000D03*
D17*
X150082500Y-78750000D03*
X149442500Y-78750000D03*
D42*
X150000000Y-61700000D03*
D43*
X150000000Y-60750000D03*
D44*
X153200000Y-61150000D03*
D45*
X112950000Y-89385000D03*
X112950000Y-88415000D03*
D33*
X114930000Y-88100000D03*
X113970000Y-88100000D03*
D46*
X119700000Y-80400000D03*
D47*
X121175000Y-81925000D03*
D46*
X122650000Y-80400000D03*
D33*
X166030000Y-85000000D03*
X165070000Y-85000000D03*
D19*
X171140000Y-66250000D03*
X172100000Y-66250000D03*
D15*
X163600000Y-68550000D03*
X165150000Y-68550000D03*
D48*
X125900000Y-96450000D03*
X127100000Y-96450000D03*
X128300000Y-96450000D03*
X129500000Y-96450000D03*
X130700000Y-96450000D03*
X131900000Y-96450000D03*
X133100000Y-96450000D03*
X134300000Y-96450000D03*
X135500000Y-96450000D03*
X136700000Y-96450000D03*
X137900000Y-96450000D03*
X139100000Y-96450000D03*
X140300000Y-96450000D03*
X141500000Y-96450000D03*
D49*
X142900000Y-94650000D03*
X142900000Y-93450000D03*
X142900000Y-92250000D03*
X142900000Y-91050000D03*
X142900000Y-89850000D03*
X142900000Y-88650000D03*
X142900000Y-87450000D03*
X142900000Y-86250000D03*
X142900000Y-85050000D03*
X142900000Y-83850000D03*
X142900000Y-82650000D03*
X142900000Y-81450000D03*
X142900000Y-80250000D03*
D50*
X141500000Y-78450000D03*
X140300000Y-78450000D03*
X139100000Y-78450000D03*
X137900000Y-78450000D03*
X136700000Y-78450000D03*
X135500000Y-78450000D03*
X134300000Y-78450000D03*
X133100000Y-78450000D03*
X131900000Y-78450000D03*
X130700000Y-78450000D03*
X129500000Y-78450000D03*
X128300000Y-78450000D03*
X127100000Y-78450000D03*
X125900000Y-78450000D03*
D49*
X124500000Y-80250000D03*
X124500000Y-81450000D03*
X124500000Y-82650000D03*
X124500000Y-83850000D03*
X124500000Y-85050000D03*
X124500000Y-86250000D03*
X124500000Y-87450000D03*
X124500000Y-88650000D03*
X124500000Y-89850000D03*
X124500000Y-91050000D03*
X124500000Y-92250000D03*
X124500000Y-93450000D03*
X124500000Y-94650000D03*
D51*
X129000000Y-91650000D03*
D52*
X135600000Y-89350000D03*
D20*
X148600000Y-61740000D03*
X148600000Y-62700000D03*
D53*
X172050000Y-75520000D03*
X172700000Y-75520000D03*
X173350000Y-75520000D03*
X173350000Y-73480000D03*
X172700000Y-73480000D03*
X172050000Y-73480000D03*
D54*
X172700000Y-74500000D03*
D55*
X154200000Y-84387500D03*
X154200000Y-78387500D03*
X157900000Y-84387500D03*
X157900000Y-78387500D03*
D18*
X152135000Y-78000000D03*
X152775000Y-78000000D03*
D17*
X176620000Y-93900000D03*
X175980000Y-93900000D03*
D16*
X171150000Y-96415000D03*
X171150000Y-97385000D03*
D18*
X171130000Y-91600000D03*
X171770000Y-91600000D03*
D56*
X141675000Y-100700000D03*
X139625000Y-100700000D03*
D29*
X172500000Y-81520000D03*
X172500000Y-80880000D03*
D19*
X146740000Y-61770000D03*
X147700000Y-61770000D03*
D18*
X174530000Y-89650000D03*
X175170000Y-89650000D03*
D57*
X166500000Y-82887500D03*
X166500000Y-81312500D03*
D16*
X177600000Y-84015000D03*
X177600000Y-84985000D03*
D18*
X174530000Y-85400000D03*
X175170000Y-85400000D03*
D28*
X172500000Y-91630000D03*
X172500000Y-92270000D03*
D17*
X165970000Y-90150000D03*
X165330000Y-90150000D03*
D15*
X143225000Y-99450000D03*
X144775000Y-99450000D03*
D33*
X166030000Y-84050000D03*
X165070000Y-84050000D03*
D17*
X174275000Y-70950000D03*
X173635000Y-70950000D03*
D20*
X115950000Y-88420000D03*
X115950000Y-89380000D03*
D30*
X146775000Y-84000000D03*
X148350000Y-84000000D03*
D18*
X170980000Y-79900000D03*
X171620000Y-79900000D03*
D58*
X110000000Y-88100000D03*
D59*
X106000000Y-101500000D03*
X106000000Y-62500000D03*
D32*
X159350000Y-90200000D03*
D29*
X145250000Y-91775000D03*
X145250000Y-91135000D03*
D28*
X175100000Y-68630000D03*
X175100000Y-69270000D03*
D29*
X172500000Y-83170000D03*
X172500000Y-82530000D03*
X173200000Y-83170000D03*
X173200000Y-82530000D03*
D60*
X169600000Y-103050000D03*
X166400000Y-103050000D03*
D18*
X171130000Y-94200000D03*
X171770000Y-94200000D03*
D30*
X174812500Y-84300000D03*
X176387500Y-84300000D03*
D17*
X150082500Y-84000000D03*
X149442500Y-84000000D03*
D28*
X173200000Y-91630000D03*
X173200000Y-92270000D03*
D30*
X146775000Y-82250000D03*
X148350000Y-82250000D03*
D18*
X171130000Y-98350000D03*
X171770000Y-98350000D03*
D17*
X165670000Y-86550000D03*
X165030000Y-86550000D03*
D34*
X167700000Y-83130000D03*
X167700000Y-82170000D03*
D29*
X134550000Y-99770000D03*
X134550000Y-99130000D03*
D34*
X174050000Y-83130000D03*
X174050000Y-82170000D03*
D20*
X165300000Y-81620000D03*
X165300000Y-82580000D03*
D17*
X165970000Y-87650000D03*
X165330000Y-87650000D03*
D20*
X170950000Y-73090000D03*
X170950000Y-74050000D03*
D61*
X171115000Y-67600000D03*
X171115000Y-68550000D03*
X171115000Y-69500000D03*
X173985000Y-69500000D03*
X173985000Y-68550000D03*
X173985000Y-67600000D03*
D62*
X172550000Y-68550000D03*
D32*
X159350000Y-100200000D03*
D30*
X146775000Y-78750000D03*
X148350000Y-78750000D03*
D32*
X148850000Y-100200000D03*
%LPD*%
M02*
