M48
; DRILL file {KiCad 7.0.7} date 2025 April 01, Tuesday 01:43:02
; FORMAT={-:-/ absolute / metric / decimal}
; #@! TF.CreationDate,2025-04-01T01:43:02+03:00
; #@! TF.GenerationSoftware,Kicad,Pcbnew,7.0.7
; #@! TF.FileFunction,Plated,1,4,PTH
FMAT,2
METRIC
; #@! TA.AperFunction,Plated,PTH,ViaDrill
T1C0.200
; #@! TA.AperFunction,Plated,PTH,ComponentDrill
T2C0.500
; #@! TA.AperFunction,Plated,PTH,ComponentDrill
T3C0.700
; #@! TA.AperFunction,Plated,PTH,ComponentDrill
T4C0.800
; #@! TA.AperFunction,Plated,PTH,ComponentDrill
T5C1.000
%
G90
G05
T1
X115.45Y-60.95
X115.45Y-62.95
X115.45Y-64.95
X115.45Y-66.95
X115.45Y-68.95
X115.45Y-70.95
X115.45Y-72.95
X115.45Y-74.95
X115.45Y-76.95
X115.45Y-78.95
X115.45Y-80.95
X115.45Y-82.95
X115.45Y-84.95
X115.45Y-86.95
X115.45Y-90.0
X115.45Y-91.25
X115.45Y-93.25
X115.45Y-95.25
X115.45Y-97.25
X115.45Y-99.25
X115.45Y-101.25
X115.45Y-103.25
X116.55Y-72.15
X116.7Y-86.95
X116.7Y-89.25
X116.8Y-67.9
X117.4Y-65.95
X117.55Y-80.1
X117.7Y-86.95
X117.7Y-89.25
X117.9Y-94.6
X118.0Y-91.7
X118.0Y-97.35
X118.05Y-99.65
X118.1Y-102.95
X118.2Y-64.05
X118.55Y-61.45
X118.55Y-75.9
X118.75Y-86.75
X118.85Y-89.15
X119.05Y-85.85
X119.2Y-84.85
X119.65Y-70.95
X119.65Y-72.5
X119.65Y-84.0
X119.8Y-88.75
X119.85Y-78.05
X120.05Y-99.65
X120.35Y-83.3
X120.4Y-63.4
X120.6Y-88.05
X120.65Y-102.85
X120.95Y-65.95
X121.1Y-87.15
X121.25Y-82.85
X121.3Y-86.15
X121.55Y-85.25
X121.9Y-88.85
X121.95Y-61.35
X122.05Y-99.65
X122.25Y-77.5
X122.3Y-82.7
X122.3Y-85.0
X122.4Y-63.95
X122.65Y-102.85
X123.3Y-82.7
X123.3Y-85.0
X123.35Y-98.65
X124.3Y-65.6
X124.6Y-69.05
X124.65Y-74.9
X124.65Y-102.85
X125.6Y-83.1
X125.6Y-84.6
X125.8Y-80.25
X125.8Y-99.9
X125.9Y-83.85
X125.9Y-94.4
X126.35Y-61.2
X126.55Y-79.7
X126.65Y-102.85
X126.75Y-94.4
X126.85Y-67.55
X127.1Y-71.5
X127.6Y-64.6
X127.8Y-81.95
X127.8Y-86.65
X127.9Y-90.55
X127.9Y-91.65
X127.9Y-92.75
X128.65Y-100.0
X128.65Y-102.85
X129.0Y-90.55
X129.0Y-91.65
X129.0Y-92.75
X129.05Y-70.05
X129.35Y-76.9
X129.5Y-79.95
X129.6Y-88.7
X130.1Y-90.55
X130.1Y-91.65
X130.1Y-92.75
X130.15Y-76.05
X130.25Y-66.55
X130.3Y-61.65
X130.65Y-102.85
X130.7Y-79.95
X130.7Y-85.1
X130.75Y-82.5
X130.8Y-71.5
X130.85Y-100.2
X131.25Y-64.15
X131.65Y-92.2
X132.3Y-68.2
X132.65Y-102.85
X133.0Y-88.05
X133.65Y-84.9
X133.75Y-82.2
X133.8Y-66.0
X134.25Y-71.0
X134.55Y-100.35
X135.1Y-88.85
X135.1Y-89.85
X135.2Y-102.85
X135.25Y-64.15
X135.45Y-68.85
X135.45Y-74.85
X135.45Y-92.65
X135.6Y-89.35
X135.6Y-99.05
X135.6Y-99.85
X135.6Y-100.55
X135.6Y-101.35
X136.05Y-85.5
X136.1Y-88.85
X136.1Y-89.85
X136.4Y-98.25
X136.55Y-66.45
X136.7Y-95.2
X136.8Y-82.8
X137.2Y-102.85
X138.7Y-77.1
X139.2Y-77.1
X139.2Y-102.85
X139.5Y-64.2
X139.5Y-66.45
X139.5Y-68.7
X139.5Y-70.95
X139.5Y-73.2
X139.75Y-60.65
X140.5Y-86.5
X140.75Y-79.6
X140.75Y-80.3
X141.2Y-102.85
X141.25Y-98.2
X141.25Y-98.95
X141.25Y-99.7
X141.75Y-60.65
X141.75Y-64.2
X141.75Y-66.45
X141.75Y-68.7
X141.75Y-70.95
X142.0Y-98.2
X142.0Y-98.95
X142.0Y-99.7
X142.25Y-77.95
X142.25Y-79.3
X142.8Y-98.2
X143.0Y-76.95
X143.0Y-77.95
X143.0Y-79.3
X143.2Y-102.85
X143.5Y-76.1
X143.55Y-98.2
X143.75Y-60.65
X143.75Y-77.95
X143.75Y-79.3
X144.0Y-64.2
X144.0Y-66.45
X144.0Y-68.7
X144.0Y-70.95
X144.5Y-76.1
X144.5Y-79.3
X144.55Y-92.35
X144.55Y-95.95
X145.15Y-77.2
X145.2Y-84.05
X145.2Y-85.0
X145.2Y-86.0
X145.2Y-86.55
X145.2Y-102.85
X145.25Y-92.35
X145.25Y-95.95
X145.4Y-81.65
X145.4Y-82.6
X145.5Y-87.65
X145.5Y-90.15
X145.7Y-99.05
X145.7Y-99.85
X145.7Y-100.55
X145.7Y-101.35
X145.75Y-60.65
X145.85Y-77.2
X145.85Y-77.7
X145.85Y-78.2
X146.1Y-80.55
X146.1Y-81.0
X146.1Y-83.25
X146.25Y-64.2
X146.25Y-66.45
X146.25Y-68.65
X146.25Y-70.95
X146.7Y-88.1
X146.75Y-89.5
X146.85Y-87.1
X146.95Y-97.15
X146.95Y-98.05
X146.95Y-98.95
X146.95Y-99.85
X146.95Y-100.75
X146.95Y-101.65
X146.95Y-102.55
X146.95Y-103.45
X147.25Y-88.25
X147.278Y-89.13
X147.396Y-84.866
X147.4Y-90.6
X147.7Y-96.75
X147.75Y-60.65
X147.9Y-91.4
X148.32Y-77.85
X148.5Y-64.2
X148.5Y-66.45
X148.5Y-68.65
X148.5Y-70.95
X148.5Y-73.2
X148.5Y-81.5
X148.5Y-91.4
X148.701Y-83.797
X148.8Y-80.35
X149.1Y-85.4
X149.1Y-86.4
X149.1Y-87.4
X149.1Y-88.4
X149.1Y-89.4
X149.2Y-96.75
X149.3Y-80.35
X149.45Y-81.5
X149.75Y-60.65
X149.8Y-80.35
X150.0Y-83.05
X150.1Y-85.4
X150.1Y-86.4
X150.1Y-87.4
X150.1Y-88.4
X150.1Y-89.4
X150.1Y-96.75
X150.4Y-92.9
X150.95Y-93.35
X150.95Y-94.1
X151.0Y-96.75
X151.1Y-85.4
X151.1Y-86.4
X151.1Y-87.4
X151.1Y-88.4
X151.1Y-89.4
X151.75Y-60.65
X151.9Y-96.75
X152.1Y-85.4
X152.1Y-86.4
X152.1Y-87.4
X152.1Y-88.4
X152.1Y-89.4
X152.8Y-67.65
X152.8Y-69.45
X152.8Y-96.75
X152.95Y-93.35
X152.95Y-94.85
X152.95Y-95.6
X153.05Y-94.1
X153.1Y-85.4
X153.1Y-86.4
X153.1Y-87.4
X153.1Y-88.4
X153.1Y-89.4
X153.3Y-80.25
X153.3Y-91.2
X153.35Y-68.2
X153.35Y-68.9
X153.5Y-92.9
X153.7Y-96.75
X153.75Y-60.65
X153.9Y-67.65
X153.9Y-69.45
X154.0Y-80.9
X154.0Y-81.9
X154.05Y-94.55
X154.2Y-92.9
X154.6Y-96.75
X154.787Y-85.325
X154.85Y-81.5
X155.33Y-89.1
X155.45Y-83.05
X155.5Y-96.75
X155.65Y-70.95
X155.65Y-71.7
X155.69Y-88.74
X155.75Y-60.65
X155.8Y-83.4
X156.15Y-93.9
X156.4Y-74.0
X156.4Y-75.7
X156.4Y-96.75
X156.5Y-85.4
X157.25Y-88.25
X157.3Y-96.75
X157.45Y-86.5
X157.6Y-76.9
X157.75Y-60.65
X158.05Y-90.4
X158.2Y-96.75
X158.45Y-72.15
X158.65Y-70.9
X159.05Y-81.1
X159.1Y-85.9
X159.1Y-96.75
X159.45Y-77.95
X159.5Y-88.25
X159.6Y-76.9
X159.6Y-91.25
X159.6Y-93.25
X159.6Y-95.25
X159.75Y-60.65
X160.0Y-96.75
X160.6Y-81.1
X160.9Y-96.75
X161.6Y-76.9
X161.6Y-81.1
X161.75Y-60.65
X161.8Y-96.75
X163.75Y-60.65
X165.4Y-96.75
X165.75Y-60.65
X165.75Y-62.65
X165.75Y-64.65
X165.75Y-68.65
X165.75Y-70.65
X165.75Y-72.65
X165.75Y-74.65
X165.75Y-78.65
X165.75Y-80.65
X165.75Y-82.65
X165.75Y-92.65
X165.75Y-94.65
X166.3Y-96.75
T4
X162.15Y-88.915
X162.15Y-90.915
X162.15Y-92.915
X164.65Y-88.915
X164.65Y-90.915
X164.65Y-92.915
T5
X156.75Y-63.2
X162.0Y-63.2
T2
G00X159.3Y-67.285
M15
G01X159.9Y-67.285
M16
G05
G00X159.3Y-75.545
M15
G01X159.9Y-75.545
M16
G05
G00X165.25Y-66.925
M15
G01X165.85Y-66.925
M16
G05
G00X165.25Y-75.905
M15
G01X165.85Y-75.905
M16
G05
T3
G00X163.0Y-85.715
M15
G01X163.8Y-85.715
M16
G05
G00X163.0Y-96.115
M15
G01X163.8Y-96.115
M16
G05
T0
M30
