G04 #@! TF.GenerationSoftware,KiCad,Pcbnew,7.0.2*
G04 #@! TF.CreationDate,2023-10-17T11:35:56+03:00*
G04 #@! TF.ProjectId,telemetry_box_01,74656c65-6d65-4747-9279-5f626f785f30,rev?*
G04 #@! TF.SameCoordinates,Original*
G04 #@! TF.FileFunction,Paste,Top*
G04 #@! TF.FilePolarity,Positive*
%FSLAX46Y46*%
G04 Gerber Fmt 4.6, Leading zero omitted, Abs format (unit mm)*
G04 Created by KiCad (PCBNEW 7.0.2) date 2023-10-17 11:35:56*
%MOMM*%
%LPD*%
G01*
G04 APERTURE LIST*
G04 Aperture macros list*
%AMRoundRect*
0 Rectangle with rounded corners*
0 $1 Rounding radius*
0 $2 $3 $4 $5 $6 $7 $8 $9 X,Y pos of 4 corners*
0 Add a 4 corners polygon primitive as box body*
4,1,4,$2,$3,$4,$5,$6,$7,$8,$9,$2,$3,0*
0 Add four circle primitives for the rounded corners*
1,1,$1+$1,$2,$3*
1,1,$1+$1,$4,$5*
1,1,$1+$1,$6,$7*
1,1,$1+$1,$8,$9*
0 Add four rect primitives between the rounded corners*
20,1,$1+$1,$2,$3,$4,$5,0*
20,1,$1+$1,$4,$5,$6,$7,0*
20,1,$1+$1,$6,$7,$8,$9,0*
20,1,$1+$1,$8,$9,$2,$3,0*%
G04 Aperture macros list end*
%ADD10C,0.010000*%
%ADD11RoundRect,0.225000X-0.225000X-0.250000X0.225000X-0.250000X0.225000X0.250000X-0.225000X0.250000X0*%
%ADD12RoundRect,0.147500X-0.172500X0.147500X-0.172500X-0.147500X0.172500X-0.147500X0.172500X0.147500X0*%
%ADD13RoundRect,0.079500X0.079500X0.100500X-0.079500X0.100500X-0.079500X-0.100500X0.079500X-0.100500X0*%
%ADD14RoundRect,0.079500X-0.079500X-0.100500X0.079500X-0.100500X0.079500X0.100500X-0.079500X0.100500X0*%
%ADD15RoundRect,0.140000X-0.140000X-0.170000X0.140000X-0.170000X0.140000X0.170000X-0.140000X0.170000X0*%
%ADD16RoundRect,0.140000X-0.170000X0.140000X-0.170000X-0.140000X0.170000X-0.140000X0.170000X0.140000X0*%
%ADD17R,0.800000X0.900000*%
%ADD18R,0.700000X0.300000*%
%ADD19R,2.200000X1.050000*%
%ADD20R,1.050000X1.000000*%
%ADD21RoundRect,0.079500X-0.100500X0.079500X-0.100500X-0.079500X0.100500X-0.079500X0.100500X0.079500X0*%
%ADD22RoundRect,0.079500X0.100500X-0.079500X0.100500X0.079500X-0.100500X0.079500X-0.100500X-0.079500X0*%
%ADD23RoundRect,0.218750X-0.218750X-0.256250X0.218750X-0.256250X0.218750X0.256250X-0.218750X0.256250X0*%
%ADD24RoundRect,0.225000X0.225000X0.250000X-0.225000X0.250000X-0.225000X-0.250000X0.225000X-0.250000X0*%
%ADD25RoundRect,0.140000X0.140000X0.170000X-0.140000X0.170000X-0.140000X-0.170000X0.140000X-0.170000X0*%
%ADD26RoundRect,0.140000X0.170000X-0.140000X0.170000X0.140000X-0.170000X0.140000X-0.170000X-0.140000X0*%
%ADD27R,2.000000X2.000000*%
%ADD28C,0.250000*%
%ADD29R,0.650000X1.150000*%
%ADD30R,0.450000X1.300000*%
%ADD31R,1.400000X1.700000*%
%ADD32R,0.540000X0.800000*%
%ADD33R,0.470000X0.520000*%
%ADD34RoundRect,0.125000X-0.175000X-0.125000X0.175000X-0.125000X0.175000X0.125000X-0.175000X0.125000X0*%
%ADD35RoundRect,0.150000X-0.150000X-0.250000X0.150000X-0.250000X0.150000X0.250000X-0.150000X0.250000X0*%
%ADD36RoundRect,0.150000X-0.150000X-0.650000X0.150000X-0.650000X0.150000X0.650000X-0.150000X0.650000X0*%
%ADD37RoundRect,0.147500X0.172500X-0.147500X0.172500X0.147500X-0.172500X0.147500X-0.172500X-0.147500X0*%
%ADD38R,1.050000X2.200000*%
%ADD39R,1.000000X1.050000*%
%ADD40RoundRect,0.320000X-0.080000X-0.480000X0.080000X-0.480000X0.080000X0.480000X-0.080000X0.480000X0*%
%ADD41RoundRect,0.320000X0.480000X-0.080000X0.480000X0.080000X-0.480000X0.080000X-0.480000X-0.080000X0*%
%ADD42RoundRect,0.320000X0.080000X0.480000X-0.080000X0.480000X-0.080000X-0.480000X0.080000X-0.480000X0*%
%ADD43R,3.000000X3.000000*%
%ADD44R,1.500000X1.500000*%
%ADD45R,0.320000X0.690000*%
%ADD46R,0.700000X1.000000*%
%ADD47RoundRect,0.250000X0.325000X0.450000X-0.325000X0.450000X-0.325000X-0.450000X0.325000X-0.450000X0*%
%ADD48RoundRect,0.218750X0.256250X-0.218750X0.256250X0.218750X-0.256250X0.218750X-0.256250X-0.218750X0*%
%ADD49RoundRect,0.157480X0.842520X-0.442520X0.842520X0.442520X-0.842520X0.442520X-0.842520X-0.442520X0*%
%ADD50RoundRect,0.380577X4.569423X-1.069423X4.569423X1.069423X-4.569423X1.069423X-4.569423X-1.069423X0*%
%ADD51R,1.000000X1.200000*%
%ADD52RoundRect,0.020000X-0.410000X-0.180000X0.410000X-0.180000X0.410000X0.180000X-0.410000X0.180000X0*%
G04 APERTURE END LIST*
D10*
X173206000Y-74816000D02*
X172194000Y-74816000D01*
X172194000Y-74184000D01*
X173206000Y-74184000D01*
X173206000Y-74816000D01*
G36*
X173206000Y-74816000D02*
G01*
X172194000Y-74816000D01*
X172194000Y-74184000D01*
X173206000Y-74184000D01*
X173206000Y-74816000D01*
G37*
X173063800Y-69297900D02*
X172036200Y-69297900D01*
X172036200Y-67802100D01*
X173063800Y-67802100D01*
X173063800Y-69297900D01*
G36*
X173063800Y-69297900D02*
G01*
X172036200Y-69297900D01*
X172036200Y-67802100D01*
X173063800Y-67802100D01*
X173063800Y-69297900D01*
G37*
D11*
X143225000Y-100950000D03*
X144775000Y-100950000D03*
D12*
X171200000Y-92415000D03*
X171200000Y-93385000D03*
D13*
X174300000Y-71695000D03*
X173610000Y-71695000D03*
D14*
X152105000Y-78750000D03*
X152795000Y-78750000D03*
D15*
X176670000Y-85900000D03*
X177630000Y-85900000D03*
D16*
X145850000Y-61740000D03*
X145850000Y-62700000D03*
D15*
X154270000Y-60650000D03*
X155230000Y-60650000D03*
D13*
X150107500Y-80500000D03*
X149417500Y-80500000D03*
D17*
X176850000Y-92850000D03*
X176850000Y-91450000D03*
X175750000Y-91450000D03*
X175750000Y-92850000D03*
D18*
X176890000Y-74165000D03*
X176890000Y-73665000D03*
X176890000Y-73165000D03*
X176890000Y-72665000D03*
X176890000Y-72165000D03*
X176890000Y-71665000D03*
X176890000Y-71165000D03*
X176890000Y-70665000D03*
X176890000Y-70165000D03*
X176890000Y-69665000D03*
X176890000Y-69165000D03*
X176890000Y-68665000D03*
X178590000Y-68915000D03*
X178590000Y-69415000D03*
X178590000Y-69915000D03*
X178590000Y-70415000D03*
X178590000Y-70915000D03*
X178590000Y-71415000D03*
X178590000Y-71915000D03*
X178590000Y-72415000D03*
X178590000Y-72915000D03*
X178590000Y-73415000D03*
X178590000Y-73915000D03*
X178590000Y-74415000D03*
D13*
X127095000Y-76600000D03*
X126405000Y-76600000D03*
D19*
X145350000Y-69500000D03*
D20*
X143825000Y-70975000D03*
D19*
X145350000Y-72450000D03*
D21*
X144550000Y-94710000D03*
X144550000Y-95400000D03*
X170050000Y-91605000D03*
X170050000Y-92295000D03*
D22*
X145250000Y-95400000D03*
X145250000Y-94710000D03*
D14*
X165005000Y-85850000D03*
X165695000Y-85850000D03*
D23*
X146775000Y-80500000D03*
X148350000Y-80500000D03*
D13*
X173090000Y-76750000D03*
X172400000Y-76750000D03*
D24*
X138075000Y-100950000D03*
X136525000Y-100950000D03*
D15*
X153270000Y-63100000D03*
X154230000Y-63100000D03*
D25*
X173980000Y-66250000D03*
X173020000Y-66250000D03*
D26*
X168650000Y-83130000D03*
X168650000Y-82170000D03*
D27*
X171512500Y-86187500D03*
X169087500Y-86187500D03*
X171512500Y-88612500D03*
X169087500Y-88612500D03*
D28*
X173550000Y-86150000D03*
X173550000Y-86650000D03*
X173550000Y-87150000D03*
X173550000Y-87650000D03*
X173550000Y-88150000D03*
X173550000Y-88650000D03*
X173550000Y-89150000D03*
X173550000Y-89650000D03*
X173550000Y-90150000D03*
X168050000Y-90650000D03*
X167800000Y-84650000D03*
X167550000Y-85400000D03*
X167550000Y-86400000D03*
X167550000Y-86900000D03*
X167550000Y-87400000D03*
X167550000Y-87900000D03*
X167550000Y-88400000D03*
X167550000Y-88900000D03*
X167550000Y-89400000D03*
X167550000Y-90650000D03*
X167050000Y-84650000D03*
X167050000Y-85150000D03*
X167050000Y-85650000D03*
X167050000Y-86150000D03*
X167050000Y-86650000D03*
X167050000Y-87150000D03*
X167050000Y-87650000D03*
X167050000Y-88150000D03*
X167050000Y-88650000D03*
X167050000Y-89150000D03*
X167050000Y-89650000D03*
X167050000Y-90150000D03*
X173050000Y-84150000D03*
X173050000Y-84900000D03*
X173050000Y-85400000D03*
X173050000Y-85900000D03*
X173050000Y-86400000D03*
X173050000Y-86900000D03*
X173050000Y-87400000D03*
X173050000Y-87900000D03*
X173050000Y-88400000D03*
X173050000Y-88900000D03*
X173050000Y-90650000D03*
X172550000Y-84150000D03*
X172300000Y-84650000D03*
X172300000Y-90150000D03*
X172050000Y-90650000D03*
X171800000Y-84650000D03*
X171800000Y-90150000D03*
X171550000Y-84150000D03*
X171300000Y-84650000D03*
X171300000Y-90150000D03*
X171050000Y-84150000D03*
X171050000Y-90650000D03*
X170800000Y-84650000D03*
X170550000Y-84150000D03*
X170550000Y-90650000D03*
X170300000Y-84650000D03*
X170050000Y-84150000D03*
X170050000Y-90650000D03*
X169800000Y-84650000D03*
X169800000Y-90150000D03*
X169550000Y-84150000D03*
X169550000Y-90650000D03*
X169300000Y-84650000D03*
X169300000Y-90150000D03*
X169050000Y-84150000D03*
X169050000Y-90650000D03*
X168800000Y-90150000D03*
X168550000Y-84150000D03*
X168550000Y-90650000D03*
X168300000Y-84650000D03*
X168300000Y-90150000D03*
D24*
X138075000Y-99450000D03*
X136525000Y-99450000D03*
D14*
X175955000Y-90400000D03*
X176645000Y-90400000D03*
D11*
X163600000Y-70050000D03*
X165150000Y-70050000D03*
D29*
X127740000Y-75047500D03*
X130280000Y-75047500D03*
X132820000Y-75047500D03*
X126470000Y-75047500D03*
X129010000Y-75047500D03*
X131550000Y-75047500D03*
D30*
X124225000Y-72877500D03*
X124225000Y-70877500D03*
X136765000Y-72877500D03*
X136765000Y-70877500D03*
D31*
X136600000Y-61317500D03*
X124390000Y-61317500D03*
D32*
X127955000Y-61897500D03*
X133035000Y-61897500D03*
D21*
X144550000Y-91110000D03*
X144550000Y-91800000D03*
D26*
X170950000Y-75960000D03*
X170950000Y-75000000D03*
D11*
X163600000Y-67050000D03*
X165150000Y-67050000D03*
D13*
X137645000Y-98250000D03*
X136955000Y-98250000D03*
X150107500Y-82250000D03*
X149417500Y-82250000D03*
D33*
X171635000Y-81610000D03*
X171635000Y-80790000D03*
X170965000Y-80790000D03*
X170965000Y-81610000D03*
D13*
X150107500Y-78750000D03*
X149417500Y-78750000D03*
D34*
X150000000Y-61700000D03*
D35*
X150000000Y-60750000D03*
D36*
X153200000Y-61150000D03*
D37*
X112950000Y-89385000D03*
X112950000Y-88415000D03*
D25*
X114930000Y-88100000D03*
X113970000Y-88100000D03*
D38*
X119700000Y-80400000D03*
D39*
X121175000Y-81925000D03*
D38*
X122650000Y-80400000D03*
D25*
X166030000Y-85000000D03*
X165070000Y-85000000D03*
D15*
X171140000Y-66250000D03*
X172100000Y-66250000D03*
D11*
X163600000Y-68550000D03*
X165150000Y-68550000D03*
D40*
X125900000Y-96450000D03*
X127100000Y-96450000D03*
X128300000Y-96450000D03*
X129500000Y-96450000D03*
X130700000Y-96450000D03*
X131900000Y-96450000D03*
X133100000Y-96450000D03*
X134300000Y-96450000D03*
X135500000Y-96450000D03*
X136700000Y-96450000D03*
X137900000Y-96450000D03*
X139100000Y-96450000D03*
X140300000Y-96450000D03*
X141500000Y-96450000D03*
D41*
X142900000Y-94650000D03*
X142900000Y-93450000D03*
X142900000Y-92250000D03*
X142900000Y-91050000D03*
X142900000Y-89850000D03*
X142900000Y-88650000D03*
X142900000Y-87450000D03*
X142900000Y-86250000D03*
X142900000Y-85050000D03*
X142900000Y-83850000D03*
X142900000Y-82650000D03*
X142900000Y-81450000D03*
X142900000Y-80250000D03*
D42*
X141500000Y-78450000D03*
X140300000Y-78450000D03*
X139100000Y-78450000D03*
X137900000Y-78450000D03*
X136700000Y-78450000D03*
X135500000Y-78450000D03*
X134300000Y-78450000D03*
X133100000Y-78450000D03*
X131900000Y-78450000D03*
X130700000Y-78450000D03*
X129500000Y-78450000D03*
X128300000Y-78450000D03*
X127100000Y-78450000D03*
X125900000Y-78450000D03*
D41*
X124500000Y-80250000D03*
X124500000Y-81450000D03*
X124500000Y-82650000D03*
X124500000Y-83850000D03*
X124500000Y-85050000D03*
X124500000Y-86250000D03*
X124500000Y-87450000D03*
X124500000Y-88650000D03*
X124500000Y-89850000D03*
X124500000Y-91050000D03*
X124500000Y-92250000D03*
X124500000Y-93450000D03*
X124500000Y-94650000D03*
D43*
X129000000Y-91650000D03*
D44*
X135600000Y-89350000D03*
D16*
X148600000Y-61740000D03*
X148600000Y-62700000D03*
D45*
X172050000Y-75520000D03*
X172700000Y-75520000D03*
X173350000Y-75520000D03*
X173350000Y-73480000D03*
X172700000Y-73480000D03*
X172050000Y-73480000D03*
D46*
X154200000Y-84387500D03*
X154200000Y-78387500D03*
X157900000Y-84387500D03*
X157900000Y-78387500D03*
D14*
X152110000Y-78000000D03*
X152800000Y-78000000D03*
D13*
X176645000Y-93900000D03*
X175955000Y-93900000D03*
D12*
X171150000Y-96415000D03*
X171150000Y-97385000D03*
D14*
X171105000Y-91600000D03*
X171795000Y-91600000D03*
D47*
X141675000Y-100700000D03*
X139625000Y-100700000D03*
D22*
X172500000Y-81545000D03*
X172500000Y-80855000D03*
D15*
X146740000Y-61770000D03*
X147700000Y-61770000D03*
D14*
X174505000Y-89650000D03*
X175195000Y-89650000D03*
D48*
X166500000Y-82887500D03*
X166500000Y-81312500D03*
D12*
X177600000Y-84015000D03*
X177600000Y-84985000D03*
D14*
X174505000Y-85400000D03*
X175195000Y-85400000D03*
D21*
X172500000Y-91605000D03*
X172500000Y-92295000D03*
D13*
X165995000Y-90150000D03*
X165305000Y-90150000D03*
D11*
X143225000Y-99450000D03*
X144775000Y-99450000D03*
D25*
X166030000Y-84050000D03*
X165070000Y-84050000D03*
D13*
X174300000Y-70950000D03*
X173610000Y-70950000D03*
D16*
X115950000Y-88420000D03*
X115950000Y-89380000D03*
D23*
X146775000Y-84000000D03*
X148350000Y-84000000D03*
D14*
X170955000Y-79900000D03*
X171645000Y-79900000D03*
D49*
X110000000Y-88100000D03*
D50*
X106000000Y-101500000D03*
X106000000Y-62500000D03*
D22*
X145250000Y-91800000D03*
X145250000Y-91110000D03*
D21*
X175100000Y-68605000D03*
X175100000Y-69295000D03*
D22*
X172500000Y-83195000D03*
X172500000Y-82505000D03*
X173200000Y-83195000D03*
X173200000Y-82505000D03*
D51*
X169600000Y-103050000D03*
X166400000Y-103050000D03*
D14*
X171105000Y-94200000D03*
X171795000Y-94200000D03*
D23*
X174812500Y-84300000D03*
X176387500Y-84300000D03*
D13*
X150107500Y-84000000D03*
X149417500Y-84000000D03*
D21*
X173200000Y-91605000D03*
X173200000Y-92295000D03*
D23*
X146775000Y-82250000D03*
X148350000Y-82250000D03*
D14*
X171105000Y-98350000D03*
X171795000Y-98350000D03*
D13*
X165695000Y-86550000D03*
X165005000Y-86550000D03*
D26*
X167700000Y-83130000D03*
X167700000Y-82170000D03*
D22*
X134550000Y-99795000D03*
X134550000Y-99105000D03*
D26*
X174050000Y-83130000D03*
X174050000Y-82170000D03*
D16*
X165300000Y-81620000D03*
X165300000Y-82580000D03*
D13*
X165995000Y-87650000D03*
X165305000Y-87650000D03*
D16*
X170950000Y-73090000D03*
X170950000Y-74050000D03*
D52*
X171115000Y-67600000D03*
X171115000Y-68550000D03*
X171115000Y-69500000D03*
X173985000Y-69500000D03*
X173985000Y-68550000D03*
X173985000Y-67600000D03*
D23*
X146775000Y-78750000D03*
X148350000Y-78750000D03*
M02*
