G04 #@! TF.GenerationSoftware,KiCad,Pcbnew,7.0.7*
G04 #@! TF.CreationDate,2025-04-23T23:52:25+03:00*
G04 #@! TF.ProjectId,telemetry_box_01,74656c65-6d65-4747-9279-5f626f785f30,rev?*
G04 #@! TF.SameCoordinates,Original*
G04 #@! TF.FileFunction,Paste,Top*
G04 #@! TF.FilePolarity,Positive*
%FSLAX46Y46*%
G04 Gerber Fmt 4.6, Leading zero omitted, Abs format (unit mm)*
G04 Created by KiCad (PCBNEW 7.0.7) date 2025-04-23 23:52:25*
%MOMM*%
%LPD*%
G01*
G04 APERTURE LIST*
G04 Aperture macros list*
%AMRoundRect*
0 Rectangle with rounded corners*
0 $1 Rounding radius*
0 $2 $3 $4 $5 $6 $7 $8 $9 X,Y pos of 4 corners*
0 Add a 4 corners polygon primitive as box body*
4,1,4,$2,$3,$4,$5,$6,$7,$8,$9,$2,$3,0*
0 Add four circle primitives for the rounded corners*
1,1,$1+$1,$2,$3*
1,1,$1+$1,$4,$5*
1,1,$1+$1,$6,$7*
1,1,$1+$1,$8,$9*
0 Add four rect primitives between the rounded corners*
20,1,$1+$1,$2,$3,$4,$5,0*
20,1,$1+$1,$4,$5,$6,$7,0*
20,1,$1+$1,$6,$7,$8,$9,0*
20,1,$1+$1,$8,$9,$2,$3,0*%
G04 Aperture macros list end*
%ADD10C,0.010000*%
%ADD11RoundRect,0.225000X-0.225000X-0.250000X0.225000X-0.250000X0.225000X0.250000X-0.225000X0.250000X0*%
%ADD12RoundRect,0.147500X-0.172500X0.147500X-0.172500X-0.147500X0.172500X-0.147500X0.172500X0.147500X0*%
%ADD13RoundRect,0.079500X0.079500X0.100500X-0.079500X0.100500X-0.079500X-0.100500X0.079500X-0.100500X0*%
%ADD14RoundRect,0.140000X-0.140000X-0.170000X0.140000X-0.170000X0.140000X0.170000X-0.140000X0.170000X0*%
%ADD15R,0.800000X0.900000*%
%ADD16R,0.700000X0.300000*%
%ADD17RoundRect,0.079500X-0.100500X0.079500X-0.100500X-0.079500X0.100500X-0.079500X0.100500X0.079500X0*%
%ADD18RoundRect,0.079500X0.100500X-0.079500X0.100500X0.079500X-0.100500X0.079500X-0.100500X-0.079500X0*%
%ADD19RoundRect,0.079500X-0.079500X-0.100500X0.079500X-0.100500X0.079500X0.100500X-0.079500X0.100500X0*%
%ADD20RoundRect,0.225000X0.225000X0.250000X-0.225000X0.250000X-0.225000X-0.250000X0.225000X-0.250000X0*%
%ADD21RoundRect,0.140000X0.140000X0.170000X-0.140000X0.170000X-0.140000X-0.170000X0.140000X-0.170000X0*%
%ADD22RoundRect,0.140000X0.170000X-0.140000X0.170000X0.140000X-0.170000X0.140000X-0.170000X-0.140000X0*%
%ADD23R,2.000000X2.000000*%
%ADD24C,0.250000*%
%ADD25C,0.280000*%
%ADD26RoundRect,0.225000X0.250000X-0.225000X0.250000X0.225000X-0.250000X0.225000X-0.250000X-0.225000X0*%
%ADD27R,0.650000X1.150000*%
%ADD28R,0.450000X1.300000*%
%ADD29R,1.400000X1.700000*%
%ADD30R,0.540000X0.800000*%
%ADD31R,0.470000X0.520000*%
%ADD32RoundRect,0.147500X0.172500X-0.147500X0.172500X0.147500X-0.172500X0.147500X-0.172500X-0.147500X0*%
%ADD33RoundRect,0.320000X-0.080000X-0.480000X0.080000X-0.480000X0.080000X0.480000X-0.080000X0.480000X0*%
%ADD34RoundRect,0.320000X0.480000X-0.080000X0.480000X0.080000X-0.480000X0.080000X-0.480000X-0.080000X0*%
%ADD35RoundRect,0.320000X0.080000X0.480000X-0.080000X0.480000X-0.080000X-0.480000X0.080000X-0.480000X0*%
%ADD36R,3.000000X3.000000*%
%ADD37R,1.500000X1.500000*%
%ADD38R,0.690000X0.320000*%
%ADD39RoundRect,0.250000X0.325000X0.450000X-0.325000X0.450000X-0.325000X-0.450000X0.325000X-0.450000X0*%
%ADD40RoundRect,0.218750X0.256250X-0.218750X0.256250X0.218750X-0.256250X0.218750X-0.256250X-0.218750X0*%
%ADD41RoundRect,0.140000X-0.170000X0.140000X-0.170000X-0.140000X0.170000X-0.140000X0.170000X0.140000X0*%
%ADD42R,0.250000X0.250000*%
%ADD43RoundRect,0.157480X0.842520X-0.442520X0.842520X0.442520X-0.842520X0.442520X-0.842520X-0.442520X0*%
%ADD44RoundRect,0.380577X4.569423X-1.069423X4.569423X1.069423X-4.569423X1.069423X-4.569423X-1.069423X0*%
%ADD45RoundRect,0.218750X-0.218750X-0.256250X0.218750X-0.256250X0.218750X0.256250X-0.218750X0.256250X0*%
%ADD46RoundRect,0.020000X-0.410000X-0.180000X0.410000X-0.180000X0.410000X0.180000X-0.410000X0.180000X0*%
G04 APERTURE END LIST*
D10*
X148636000Y-78356000D02*
X148004000Y-78356000D01*
X148004000Y-77344000D01*
X148636000Y-77344000D01*
X148636000Y-78356000D01*
G36*
X148636000Y-78356000D02*
G01*
X148004000Y-78356000D01*
X148004000Y-77344000D01*
X148636000Y-77344000D01*
X148636000Y-78356000D01*
G37*
X153863800Y-69297900D02*
X152836200Y-69297900D01*
X152836200Y-67802100D01*
X153863800Y-67802100D01*
X153863800Y-69297900D01*
G36*
X153863800Y-69297900D02*
G01*
X152836200Y-69297900D01*
X152836200Y-67802100D01*
X153863800Y-67802100D01*
X153863800Y-69297900D01*
G37*
D11*
X143225000Y-100950000D03*
X144775000Y-100950000D03*
D12*
X152000000Y-92415000D03*
X152000000Y-93385000D03*
D13*
X155100000Y-71695000D03*
X154410000Y-71695000D03*
D14*
X157470000Y-85900000D03*
X158430000Y-85900000D03*
D15*
X157650000Y-92850000D03*
X157650000Y-91450000D03*
X156550000Y-91450000D03*
X156550000Y-92850000D03*
D16*
X157690000Y-74165000D03*
X157690000Y-73665000D03*
X157690000Y-73165000D03*
X157690000Y-72665000D03*
X157690000Y-72165000D03*
X157690000Y-71665000D03*
X157690000Y-71165000D03*
X157690000Y-70665000D03*
X157690000Y-70165000D03*
X157690000Y-69665000D03*
X157690000Y-69165000D03*
X157690000Y-68665000D03*
X159390000Y-68915000D03*
X159390000Y-69415000D03*
X159390000Y-69915000D03*
X159390000Y-70415000D03*
X159390000Y-70915000D03*
X159390000Y-71415000D03*
X159390000Y-71915000D03*
X159390000Y-72415000D03*
X159390000Y-72915000D03*
X159390000Y-73415000D03*
X159390000Y-73915000D03*
X159390000Y-74415000D03*
D13*
X127095000Y-76600000D03*
X126405000Y-76600000D03*
D17*
X144550000Y-94710000D03*
X144550000Y-95400000D03*
X150850000Y-91605000D03*
X150850000Y-92295000D03*
D18*
X145250000Y-95400000D03*
X145250000Y-94710000D03*
D19*
X145805000Y-85850000D03*
X146495000Y-85850000D03*
D17*
X150570000Y-77460000D03*
X150570000Y-78150000D03*
D20*
X138075000Y-100950000D03*
X136525000Y-100950000D03*
D21*
X154780000Y-66250000D03*
X153820000Y-66250000D03*
D22*
X149450000Y-83130000D03*
X149450000Y-82170000D03*
D23*
X152312500Y-86187500D03*
X149887500Y-86187500D03*
X152312500Y-88612500D03*
X149887500Y-88612500D03*
D24*
X154350000Y-86150000D03*
X154350000Y-86650000D03*
X154350000Y-87150000D03*
X154350000Y-87650000D03*
X154350000Y-88150000D03*
X154350000Y-88650000D03*
X154350000Y-89150000D03*
X154350000Y-89650000D03*
X154350000Y-90150000D03*
X148850000Y-90650000D03*
X148600000Y-84650000D03*
X148350000Y-85400000D03*
X148350000Y-86400000D03*
X148350000Y-86900000D03*
X148350000Y-87400000D03*
X148350000Y-87900000D03*
X148350000Y-88400000D03*
X148350000Y-88900000D03*
X148350000Y-89400000D03*
X148350000Y-90650000D03*
X147850000Y-84650000D03*
X147850000Y-85150000D03*
X147850000Y-85650000D03*
X147850000Y-86150000D03*
X147850000Y-86650000D03*
X147850000Y-87150000D03*
X147850000Y-87650000D03*
X147850000Y-88150000D03*
X147850000Y-88650000D03*
X147850000Y-89150000D03*
X147850000Y-89650000D03*
X147850000Y-90150000D03*
X153850000Y-84150000D03*
X153850000Y-84900000D03*
X153850000Y-85400000D03*
X153850000Y-85900000D03*
X153850000Y-86400000D03*
X153850000Y-86900000D03*
X153850000Y-87400000D03*
X153850000Y-87900000D03*
X153850000Y-88400000D03*
X153850000Y-88900000D03*
X153850000Y-90650000D03*
X153350000Y-84150000D03*
X153100000Y-84650000D03*
X153100000Y-90150000D03*
X152850000Y-90650000D03*
X152600000Y-84650000D03*
X152600000Y-90150000D03*
X152350000Y-84150000D03*
X152100000Y-84650000D03*
X152100000Y-90150000D03*
X151850000Y-84150000D03*
X151850000Y-90650000D03*
X151600000Y-84650000D03*
X151350000Y-84150000D03*
X151350000Y-90650000D03*
X151100000Y-84650000D03*
X150850000Y-84150000D03*
X150850000Y-90650000D03*
X150600000Y-84650000D03*
X150600000Y-90150000D03*
X150350000Y-84150000D03*
X150350000Y-90650000D03*
X150100000Y-84650000D03*
X150100000Y-90150000D03*
X149850000Y-84150000D03*
X149850000Y-90650000D03*
X149600000Y-90150000D03*
X149350000Y-84150000D03*
X149350000Y-90650000D03*
X149100000Y-84650000D03*
X149100000Y-90150000D03*
D25*
X140870000Y-76600000D03*
X141270000Y-76600000D03*
X140870000Y-77000000D03*
X141270000Y-77000000D03*
D20*
X138075000Y-99450000D03*
X136525000Y-99450000D03*
D19*
X156755000Y-90400000D03*
X157445000Y-90400000D03*
D18*
X142270000Y-77145000D03*
X142270000Y-76455000D03*
D26*
X163850000Y-83875000D03*
X163850000Y-82325000D03*
D27*
X127740000Y-75047500D03*
X130280000Y-75047500D03*
X132820000Y-75047500D03*
X126470000Y-75047500D03*
X129010000Y-75047500D03*
X131550000Y-75047500D03*
D28*
X124225000Y-72877500D03*
X124225000Y-70877500D03*
X136765000Y-72877500D03*
X136765000Y-70877500D03*
D29*
X136600000Y-61317500D03*
X124390000Y-61317500D03*
D30*
X127955000Y-61897500D03*
X133035000Y-61897500D03*
D17*
X144550000Y-91110000D03*
X144550000Y-91800000D03*
D21*
X149780000Y-79600000D03*
X148820000Y-79600000D03*
D26*
X160850000Y-83875000D03*
X160850000Y-82325000D03*
D13*
X137645000Y-98250000D03*
X136955000Y-98250000D03*
D31*
X152435000Y-81610000D03*
X152435000Y-80790000D03*
X151765000Y-80790000D03*
X151765000Y-81610000D03*
D32*
X112950000Y-89385000D03*
X112950000Y-88415000D03*
D21*
X114930000Y-88100000D03*
X113970000Y-88100000D03*
X146830000Y-85000000D03*
X145870000Y-85000000D03*
D14*
X151940000Y-66250000D03*
X152900000Y-66250000D03*
D26*
X162350000Y-83875000D03*
X162350000Y-82325000D03*
D33*
X125900000Y-96450000D03*
X127100000Y-96450000D03*
X128300000Y-96450000D03*
X129500000Y-96450000D03*
X130700000Y-96450000D03*
X131900000Y-96450000D03*
X133100000Y-96450000D03*
X134300000Y-96450000D03*
X135500000Y-96450000D03*
X136700000Y-96450000D03*
X137900000Y-96450000D03*
X139100000Y-96450000D03*
X140300000Y-96450000D03*
X141500000Y-96450000D03*
D34*
X142900000Y-94650000D03*
X142900000Y-93450000D03*
X142900000Y-92250000D03*
X142900000Y-91050000D03*
X142900000Y-89850000D03*
X142900000Y-88650000D03*
X142900000Y-87450000D03*
X142900000Y-86250000D03*
X142900000Y-85050000D03*
X142900000Y-83850000D03*
X142900000Y-82650000D03*
X142900000Y-81450000D03*
X142900000Y-80250000D03*
D35*
X141500000Y-78450000D03*
X140300000Y-78450000D03*
X139100000Y-78450000D03*
X137900000Y-78450000D03*
X136700000Y-78450000D03*
X135500000Y-78450000D03*
X134300000Y-78450000D03*
X133100000Y-78450000D03*
X131900000Y-78450000D03*
X130700000Y-78450000D03*
X129500000Y-78450000D03*
X128300000Y-78450000D03*
X127100000Y-78450000D03*
X125900000Y-78450000D03*
D34*
X124500000Y-80250000D03*
X124500000Y-81450000D03*
X124500000Y-82650000D03*
X124500000Y-83850000D03*
X124500000Y-85050000D03*
X124500000Y-86250000D03*
X124500000Y-87450000D03*
X124500000Y-88650000D03*
X124500000Y-89850000D03*
X124500000Y-91050000D03*
X124500000Y-92250000D03*
X124500000Y-93450000D03*
X124500000Y-94650000D03*
D36*
X129000000Y-91650000D03*
D37*
X135600000Y-89350000D03*
D38*
X149340000Y-78500000D03*
X149340000Y-77850000D03*
X149340000Y-77200000D03*
X147300000Y-77200000D03*
X147300000Y-77850000D03*
X147300000Y-78500000D03*
D18*
X139870000Y-77145000D03*
X139870000Y-76455000D03*
D13*
X157445000Y-93900000D03*
X156755000Y-93900000D03*
D19*
X151905000Y-91600000D03*
X152595000Y-91600000D03*
D39*
X141675000Y-100700000D03*
X139625000Y-100700000D03*
D18*
X153300000Y-81545000D03*
X153300000Y-80855000D03*
D19*
X155305000Y-89650000D03*
X155995000Y-89650000D03*
D40*
X147300000Y-82887500D03*
X147300000Y-81312500D03*
D12*
X158400000Y-84015000D03*
X158400000Y-84985000D03*
D19*
X155305000Y-85400000D03*
X155995000Y-85400000D03*
D17*
X153300000Y-91605000D03*
X153300000Y-92295000D03*
D13*
X146795000Y-90150000D03*
X146105000Y-90150000D03*
D11*
X143225000Y-99450000D03*
X144775000Y-99450000D03*
D21*
X146830000Y-84050000D03*
X145870000Y-84050000D03*
D13*
X155100000Y-70950000D03*
X154410000Y-70950000D03*
D41*
X115950000Y-88420000D03*
X115950000Y-89380000D03*
D42*
X143600000Y-77000000D03*
X144000000Y-77000000D03*
X144400000Y-77000000D03*
X144400000Y-76600000D03*
X144000000Y-76600000D03*
X143600000Y-76600000D03*
D19*
X151755000Y-79900000D03*
X152445000Y-79900000D03*
D43*
X110000000Y-88100000D03*
D44*
X106000000Y-101500000D03*
X106000000Y-62500000D03*
D18*
X145250000Y-91800000D03*
X145250000Y-91110000D03*
D17*
X155900000Y-68605000D03*
X155900000Y-69295000D03*
D18*
X153300000Y-83195000D03*
X153300000Y-82505000D03*
X154000000Y-83195000D03*
X154000000Y-82505000D03*
D19*
X151905000Y-94200000D03*
X152595000Y-94200000D03*
D45*
X155612500Y-84300000D03*
X157187500Y-84300000D03*
D17*
X154000000Y-91605000D03*
X154000000Y-92295000D03*
D13*
X146495000Y-86550000D03*
X145805000Y-86550000D03*
D22*
X148500000Y-83130000D03*
X148500000Y-82170000D03*
D18*
X134550000Y-99795000D03*
X134550000Y-99105000D03*
D22*
X154850000Y-83130000D03*
X154850000Y-82170000D03*
D41*
X146100000Y-81620000D03*
X146100000Y-82580000D03*
D13*
X146795000Y-87650000D03*
X146105000Y-87650000D03*
D14*
X146910000Y-79600000D03*
X147870000Y-79600000D03*
D46*
X151915000Y-67600000D03*
X151915000Y-68550000D03*
X151915000Y-69500000D03*
X154785000Y-69500000D03*
X154785000Y-68550000D03*
X154785000Y-67600000D03*
D36*
X139500000Y-64200000D03*
X144000000Y-64200000D03*
X148500000Y-64200000D03*
X139500000Y-68700000D03*
X144000000Y-68700000D03*
X148500000Y-68650000D03*
X139500000Y-73200000D03*
X148500000Y-73200000D03*
D23*
X144000000Y-74700000D03*
D17*
X144400000Y-77955000D03*
X144400000Y-78645000D03*
M02*
