M48
; DRILL file {KiCad 7.0.2} date Tue Oct 17 11:37:12 2023
; FORMAT={-:-/ absolute / metric / decimal}
; #@! TF.CreationDate,2023-10-17T11:37:12+03:00
; #@! TF.GenerationSoftware,Kicad,Pcbnew,7.0.2
; #@! TF.FileFunction,Plated,1,4,PTH
FMAT,2
METRIC
; #@! TA.AperFunction,Plated,PTH,ViaDrill
T1C0.200
; #@! TA.AperFunction,Plated,PTH,ComponentDrill
T2C0.500
; #@! TA.AperFunction,Plated,PTH,ComponentDrill
T3C1.000
%
G90
G05
T1
X115.45Y-60.95
X115.45Y-62.95
X115.45Y-64.95
X115.45Y-66.95
X115.45Y-68.95
X115.45Y-70.95
X115.45Y-72.95
X115.45Y-74.95
X115.45Y-76.95
X115.45Y-78.95
X115.45Y-80.95
X115.45Y-82.95
X115.45Y-84.95
X115.45Y-86.95
X115.45Y-90.0
X115.45Y-91.25
X115.45Y-93.25
X115.45Y-95.25
X115.45Y-97.25
X115.45Y-99.25
X115.45Y-101.25
X115.45Y-103.25
X116.7Y-86.95
X116.7Y-89.25
X117.4Y-65.95
X117.55Y-80.1
X117.7Y-86.95
X117.7Y-89.25
X117.9Y-94.6
X117.95Y-71.45
X118.0Y-97.35
X118.05Y-99.65
X118.1Y-102.95
X118.2Y-64.05
X118.35Y-67.95
X118.55Y-61.45
X118.55Y-75.9
X118.75Y-86.75
X118.85Y-89.15
X119.05Y-85.85
X119.2Y-84.85
X119.65Y-84.0
X119.8Y-88.75
X120.05Y-92.85
X120.05Y-99.65
X120.3Y-95.4
X120.35Y-73.1
X120.35Y-83.3
X120.4Y-63.4
X120.6Y-88.05
X120.65Y-102.85
X120.7Y-69.55
X120.95Y-65.95
X121.1Y-87.15
X121.25Y-82.85
X121.3Y-86.15
X121.55Y-85.25
X121.8Y-76.15
X121.9Y-88.85
X121.9Y-96.85
X121.95Y-61.35
X122.05Y-99.65
X122.1Y-93.4
X122.3Y-82.7
X122.3Y-85.0
X122.65Y-102.85
X123.3Y-82.7
X123.3Y-85.0
X124.3Y-65.6
X124.6Y-69.05
X124.65Y-74.9
X124.65Y-102.85
X125.6Y-83.1
X125.6Y-84.6
X125.8Y-80.25
X125.8Y-99.9
X125.9Y-83.85
X125.9Y-94.4
X126.35Y-61.2
X126.55Y-79.7
X126.65Y-102.85
X126.75Y-94.4
X126.85Y-67.55
X127.1Y-71.5
X127.6Y-64.6
X127.8Y-81.95
X127.8Y-86.65
X127.9Y-90.55
X127.9Y-91.65
X127.9Y-92.75
X128.65Y-100.0
X128.65Y-102.85
X129.0Y-90.55
X129.0Y-91.65
X129.0Y-92.75
X129.05Y-70.05
X129.35Y-76.9
X129.5Y-79.8
X129.6Y-88.7
X130.1Y-90.55
X130.1Y-91.65
X130.1Y-92.75
X130.15Y-76.05
X130.25Y-66.55
X130.3Y-61.65
X130.65Y-102.85
X130.7Y-79.8
X130.7Y-85.1
X130.75Y-82.5
X130.8Y-71.5
X130.85Y-100.2
X131.25Y-64.15
X131.65Y-92.2
X132.3Y-68.2
X132.65Y-102.85
X133.0Y-88.05
X133.65Y-84.9
X133.75Y-82.2
X133.8Y-66.0
X134.25Y-71.0
X134.55Y-100.35
X135.1Y-88.85
X135.1Y-89.85
X135.2Y-102.85
X135.25Y-64.15
X135.45Y-68.85
X135.45Y-74.85
X135.45Y-92.65
X135.6Y-89.35
X135.6Y-99.05
X135.6Y-99.85
X135.6Y-100.55
X135.6Y-101.35
X136.05Y-85.5
X136.1Y-88.85
X136.1Y-89.85
X136.4Y-98.25
X136.7Y-79.8
X136.7Y-95.2
X136.8Y-82.8
X137.2Y-102.85
X137.9Y-79.8
X138.15Y-89.15
X138.3Y-67.4
X138.6Y-75.5
X139.1Y-79.8
X139.2Y-102.85
X139.3Y-61.5
X140.5Y-63.6
X140.5Y-64.65
X140.5Y-65.7
X140.5Y-66.75
X140.5Y-67.8
X140.5Y-68.85
X140.5Y-69.9
X140.5Y-70.95
X140.5Y-72.0
X140.5Y-73.05
X140.5Y-74.1
X140.5Y-75.15
X140.5Y-76.2
X140.5Y-77.25
X140.5Y-86.5
X140.75Y-62.55
X140.75Y-79.45
X141.2Y-102.85
X141.25Y-98.2
X141.25Y-98.95
X141.25Y-99.7
X141.3Y-61.7
X141.5Y-79.8
X141.6Y-81.45
X141.6Y-82.65
X141.6Y-84.0
X142.0Y-61.15
X142.0Y-98.2
X142.0Y-98.95
X142.0Y-99.7
X142.35Y-79.3
X142.5Y-63.6
X142.5Y-64.65
X142.5Y-65.7
X142.5Y-66.75
X142.5Y-67.8
X142.5Y-68.85
X142.5Y-69.9
X142.5Y-70.95
X142.5Y-72.0
X142.5Y-73.05
X142.5Y-74.1
X142.5Y-75.15
X142.5Y-76.2
X142.5Y-77.25
X142.5Y-78.3
X142.8Y-98.2
X142.95Y-60.8
X143.0Y-62.85
X143.2Y-102.85
X143.55Y-98.2
X143.9Y-60.75
X143.9Y-62.7
X144.35Y-75.7
X144.45Y-78.3
X144.5Y-80.45
X144.55Y-92.35
X144.55Y-95.95
X144.9Y-60.75
X144.9Y-62.7
X145.0Y-65.55
X145.05Y-85.8
X145.1Y-87.55
X145.2Y-102.85
X145.25Y-92.35
X145.25Y-95.95
X145.7Y-99.05
X145.7Y-99.85
X145.7Y-100.55
X145.7Y-101.35
X145.8Y-78.75
X145.8Y-80.5
X145.8Y-82.25
X145.8Y-84.0
X145.85Y-60.95
X145.85Y-63.35
X146.75Y-60.95
X146.75Y-62.55
X147.2Y-102.85
X147.8Y-60.95
X147.8Y-62.55
X148.05Y-74.4
X148.15Y-70.05
X148.25Y-86.4
X148.45Y-87.5
X148.45Y-88.6
X148.85Y-60.65
X148.85Y-63.4
X148.85Y-64.45
X148.85Y-65.5
X148.85Y-98.5
X149.0Y-77.25
X149.3Y-93.4
X149.65Y-85.55
X149.7Y-102.85
X149.9Y-65.5
X150.05Y-74.4
X150.35Y-70.65
X150.55Y-67.85
X150.7Y-77.35
X150.95Y-65.5
X151.3Y-93.4
X151.7Y-102.85
X151.85Y-83.15
X152.0Y-65.5
X152.05Y-74.4
X152.35Y-85.0
X152.35Y-98.5
X153.05Y-65.5
X153.3Y-93.4
X153.7Y-102.85
X153.95Y-71.4
X154.05Y-74.4
X154.1Y-65.5
X154.2Y-77.4
X154.3Y-89.3
X155.0Y-68.55
X155.15Y-61.3
X155.15Y-62.35
X155.15Y-63.4
X155.15Y-64.45
X155.15Y-65.5
X155.3Y-93.4
X155.7Y-102.85
X155.85Y-88.35
X155.85Y-98.5
X155.9Y-60.65
X156.05Y-74.4
X156.95Y-60.65
X157.05Y-80.0
X157.1Y-71.55
X157.3Y-93.4
X157.7Y-102.85
X158.05Y-74.4
X158.55Y-64.7
X158.95Y-60.65
X159.3Y-93.4
X159.35Y-88.35
X159.35Y-98.5
X159.6Y-77.6
X159.7Y-102.85
X160.05Y-62.35
X160.05Y-64.35
X160.05Y-66.35
X160.05Y-68.35
X160.05Y-70.35
X160.05Y-72.35
X160.05Y-74.4
X160.95Y-60.65
X161.3Y-93.4
X161.45Y-66.3
X161.45Y-67.8
X161.45Y-69.25
X161.45Y-70.8
X161.7Y-102.85
X161.75Y-79.85
X161.75Y-81.85
X161.75Y-83.85
X161.75Y-85.85
X161.75Y-87.85
X161.75Y-89.85
X162.4Y-76.9
X162.7Y-65.55
X162.7Y-67.05
X162.7Y-68.55
X162.7Y-70.05
X162.7Y-71.55
X162.95Y-60.65
X163.3Y-91.9
X163.95Y-74.45
X164.15Y-66.3
X164.15Y-70.8
X164.4Y-84.05
X164.4Y-85.0
X164.4Y-86.0
X164.4Y-86.55
X164.6Y-82.6
X164.7Y-87.65
X164.7Y-90.15
X164.95Y-60.65
X165.3Y-80.55
X165.3Y-81.0
X165.3Y-83.25
X165.5Y-102.6
X165.5Y-103.45
X165.9Y-88.1
X165.95Y-89.5
X165.95Y-90.8
X166.05Y-87.1
X166.1Y-67.05
X166.1Y-68.55
X166.1Y-70.05
X166.15Y-98.6
X166.15Y-99.5
X166.15Y-100.8
X166.15Y-102.15
X166.45Y-88.25
X166.478Y-89.13
X166.596Y-84.866
X166.6Y-90.6
X166.95Y-60.65
X167.0Y-67.8
X167.0Y-69.3
X167.1Y-91.4
X167.55Y-98.6
X167.7Y-80.85
X167.7Y-81.5
X167.7Y-91.4
X167.901Y-83.797
X168.3Y-85.4
X168.3Y-86.4
X168.3Y-87.4
X168.3Y-88.4
X168.3Y-89.4
X168.65Y-80.85
X168.65Y-81.5
X168.85Y-98.6
X168.95Y-60.65
X169.2Y-83.05
X169.3Y-85.4
X169.3Y-86.4
X169.3Y-87.4
X169.3Y-88.4
X169.3Y-89.4
X169.6Y-92.9
X170.15Y-93.35
X170.15Y-94.1
X170.15Y-94.85
X170.15Y-95.6
X170.15Y-96.35
X170.15Y-97.1
X170.15Y-97.85
X170.15Y-98.6
X170.3Y-85.4
X170.3Y-86.4
X170.3Y-87.4
X170.3Y-88.4
X170.3Y-89.4
X170.95Y-60.65
X170.95Y-71.5
X170.95Y-72.0
X170.95Y-72.5
X170.95Y-76.8
X170.95Y-77.25
X170.95Y-77.7
X171.3Y-85.4
X171.3Y-86.4
X171.3Y-87.4
X171.3Y-88.4
X171.3Y-89.4
X172.0Y-67.65
X172.0Y-69.45
X172.15Y-93.35
X172.15Y-94.85
X172.15Y-95.6
X172.15Y-96.35
X172.15Y-97.1
X172.15Y-97.85
X172.25Y-94.1
X172.3Y-85.4
X172.3Y-86.4
X172.3Y-87.4
X172.3Y-88.4
X172.3Y-89.4
X172.5Y-77.95
X172.5Y-80.25
X172.5Y-91.2
X172.55Y-68.2
X172.55Y-68.9
X172.65Y-98.6
X172.65Y-99.55
X172.65Y-100.85
X172.65Y-102.15
X172.65Y-103.45
X172.7Y-74.5
X172.7Y-92.9
X172.95Y-60.65
X172.95Y-102.65
X173.1Y-67.65
X173.1Y-69.45
X173.2Y-80.9
X173.2Y-81.9
X173.25Y-94.55
X173.4Y-92.9
X173.55Y-98.65
X173.95Y-86.35
X173.95Y-86.95
X173.95Y-87.6
X173.95Y-88.2
X173.987Y-85.325
X174.0Y-97.85
X174.05Y-81.5
X174.5Y-77.95
X174.53Y-89.1
X174.65Y-83.05
X174.85Y-70.95
X174.85Y-71.7
X174.89Y-88.74
X174.95Y-60.65
X174.95Y-102.65
X175.0Y-83.4
X175.35Y-93.9
X175.5Y-100.25
X175.7Y-85.4
X175.8Y-89.65
X175.95Y-80.3
X176.5Y-77.95
X176.65Y-86.5
X176.95Y-60.65
X176.95Y-102.65
X177.25Y-90.4
X177.65Y-72.15
X177.85Y-70.9
X178.3Y-85.9
X178.5Y-77.95
X178.8Y-89.25
X178.8Y-91.25
X178.8Y-93.25
X178.8Y-95.25
X178.8Y-97.25
X178.8Y-99.25
X178.95Y-60.65
X178.95Y-102.65
X180.35Y-83.15
X180.35Y-86.65
X180.35Y-90.15
X180.35Y-93.65
X180.5Y-77.95
X180.95Y-60.65
X180.95Y-102.65
X182.5Y-77.95
X182.95Y-60.65
X182.95Y-102.65
X184.95Y-60.65
X184.95Y-62.65
X184.95Y-64.65
X184.95Y-68.65
X184.95Y-70.65
X184.95Y-72.65
X184.95Y-74.65
X184.95Y-78.65
X184.95Y-80.65
X184.95Y-82.65
X184.95Y-84.65
X184.95Y-86.65
X184.95Y-88.65
X184.95Y-90.65
X184.95Y-92.65
X184.95Y-94.65
X184.95Y-96.65
X184.95Y-98.65
X184.95Y-100.65
X184.95Y-102.65
T3
X162.8Y-63.2
X168.05Y-63.2
X175.95Y-63.2
X181.2Y-63.2
T2
G00X178.5Y-67.285
M15
G01X179.1Y-67.285
M16
G05
G00X178.5Y-75.545
M15
G01X179.1Y-75.545
M16
G05
G00X184.45Y-66.925
M15
G01X185.05Y-66.925
M16
G05
G00X184.45Y-75.905
M15
G01X185.05Y-75.905
M16
G05
T0
M30
