G04 #@! TF.GenerationSoftware,KiCad,Pcbnew,7.0.2*
G04 #@! TF.CreationDate,2023-10-17T11:35:56+03:00*
G04 #@! TF.ProjectId,telemetry_box_01,74656c65-6d65-4747-9279-5f626f785f30,rev?*
G04 #@! TF.SameCoordinates,Original*
G04 #@! TF.FileFunction,Copper,L3,Inr*
G04 #@! TF.FilePolarity,Positive*
%FSLAX46Y46*%
G04 Gerber Fmt 4.6, Leading zero omitted, Abs format (unit mm)*
G04 Created by KiCad (PCBNEW 7.0.2) date 2023-10-17 11:35:56*
%MOMM*%
%LPD*%
G01*
G04 APERTURE LIST*
G04 #@! TA.AperFunction,ComponentPad*
%ADD10O,1.600000X0.800000*%
G04 #@! TD*
G04 #@! TA.AperFunction,ComponentPad*
%ADD11C,2.000000*%
G04 #@! TD*
G04 #@! TA.AperFunction,ViaPad*
%ADD12C,0.400000*%
G04 #@! TD*
G04 #@! TA.AperFunction,ViaPad*
%ADD13C,0.420000*%
G04 #@! TD*
G04 #@! TA.AperFunction,Conductor*
%ADD14C,0.120000*%
G04 #@! TD*
G04 #@! TA.AperFunction,Conductor*
%ADD15C,0.140000*%
G04 #@! TD*
G04 #@! TA.AperFunction,Conductor*
%ADD16C,0.250000*%
G04 #@! TD*
G04 APERTURE END LIST*
D10*
X178800000Y-75545000D03*
X178800000Y-67285000D03*
X184750000Y-66925000D03*
X184750000Y-75905000D03*
D11*
X168050000Y-63200000D03*
X162800000Y-63200000D03*
X175950000Y-63200000D03*
X181200000Y-63200000D03*
D12*
X166600000Y-90600000D03*
X173950000Y-86350000D03*
D13*
X115450000Y-82950000D03*
X166100000Y-70050000D03*
X117700000Y-89250000D03*
X143000000Y-62850000D03*
X169600000Y-92900000D03*
X158550000Y-64700000D03*
X121900000Y-88850000D03*
X149300000Y-93400000D03*
X184950000Y-90650000D03*
X125900000Y-83850000D03*
X160050000Y-64350000D03*
X162400000Y-76900000D03*
X141300000Y-61700000D03*
X129000000Y-91650000D03*
X125800000Y-99900000D03*
X144350000Y-75700000D03*
X169300000Y-85400000D03*
X140500000Y-67800000D03*
X173100000Y-69450000D03*
X173550000Y-98650000D03*
X135450000Y-74850000D03*
X142350000Y-79300000D03*
X172500000Y-77950000D03*
X142500000Y-69900000D03*
X133800000Y-66000000D03*
X155150000Y-65500000D03*
X115450000Y-60950000D03*
X180950000Y-60650000D03*
X149000000Y-77250000D03*
X159600000Y-77600000D03*
X152050000Y-74400000D03*
X163300000Y-91900000D03*
X130300000Y-61650000D03*
X115450000Y-95250000D03*
X118000000Y-97350000D03*
X145050000Y-85800000D03*
X158950000Y-60650000D03*
X164400000Y-84050000D03*
X175800000Y-89650000D03*
X129600000Y-88700000D03*
X155900000Y-60650000D03*
X131250000Y-64150000D03*
X145700000Y-99050000D03*
X182950000Y-60650000D03*
X140500000Y-68850000D03*
X115450000Y-66950000D03*
X169300000Y-86400000D03*
X142500000Y-72000000D03*
X157100000Y-71550000D03*
X166100000Y-67050000D03*
X130700000Y-85100000D03*
X172550000Y-68200000D03*
X184950000Y-82650000D03*
X115450000Y-97250000D03*
X160050000Y-72350000D03*
X155150000Y-64450000D03*
X135450000Y-68850000D03*
X135600000Y-101350000D03*
X155000000Y-68550000D03*
X139200000Y-102850000D03*
X141200000Y-102850000D03*
X161750000Y-83850000D03*
X142950000Y-60800000D03*
X125600000Y-83100000D03*
X140500000Y-86500000D03*
X115450000Y-62950000D03*
X154100000Y-65500000D03*
X131650000Y-92200000D03*
X135600000Y-99850000D03*
X141500000Y-79800000D03*
X178500000Y-77950000D03*
X119050000Y-85850000D03*
X142500000Y-78300000D03*
X138600000Y-75500000D03*
X135600000Y-99050000D03*
X160050000Y-74400000D03*
X145850000Y-60950000D03*
X172650000Y-103450000D03*
X138300000Y-67400000D03*
X118550000Y-75900000D03*
X148150000Y-70050000D03*
X140500000Y-73050000D03*
X116700000Y-89250000D03*
X149700000Y-102850000D03*
X140500000Y-65700000D03*
X140500000Y-69900000D03*
X168300000Y-85400000D03*
X172950000Y-60650000D03*
X178800000Y-99250000D03*
X118200000Y-64050000D03*
X122050000Y-99650000D03*
X170300000Y-85400000D03*
X161750000Y-79850000D03*
X161700000Y-102850000D03*
X134250000Y-71000000D03*
X140750000Y-79450000D03*
X184950000Y-84650000D03*
X148850000Y-65500000D03*
X119800000Y-88750000D03*
X164400000Y-86550000D03*
X173400000Y-92900000D03*
X160050000Y-66350000D03*
X178300000Y-85900000D03*
X146750000Y-62550000D03*
X175350000Y-93900000D03*
X118750000Y-86750000D03*
X142000000Y-61150000D03*
X115450000Y-93250000D03*
X118100000Y-102950000D03*
X174050000Y-81500000D03*
X117900000Y-94600000D03*
X140500000Y-64650000D03*
X161750000Y-81850000D03*
X172150000Y-95600000D03*
X184950000Y-68650000D03*
X121900000Y-96850000D03*
X153300000Y-93400000D03*
X172650000Y-102150000D03*
X172150000Y-97100000D03*
X174950000Y-102650000D03*
X172150000Y-94850000D03*
X156050000Y-74400000D03*
X130250000Y-66550000D03*
X167700000Y-80850000D03*
X140500000Y-77250000D03*
X133650000Y-84900000D03*
X142500000Y-75150000D03*
X144900000Y-60750000D03*
X145200000Y-102850000D03*
X184950000Y-94650000D03*
X154050000Y-74400000D03*
X115450000Y-80950000D03*
X157700000Y-102850000D03*
X145700000Y-100550000D03*
X148850000Y-60650000D03*
X120400000Y-63400000D03*
X172000000Y-69450000D03*
X166950000Y-60650000D03*
X123300000Y-82700000D03*
X152000000Y-65500000D03*
X168650000Y-81500000D03*
X157050000Y-80000000D03*
X170150000Y-96350000D03*
X184950000Y-74650000D03*
X165300000Y-83250000D03*
X127600000Y-64600000D03*
X115450000Y-68950000D03*
X170150000Y-97100000D03*
X148850000Y-63400000D03*
X135100000Y-88850000D03*
X155300000Y-93400000D03*
X162950000Y-60650000D03*
X177250000Y-90400000D03*
X130800000Y-71500000D03*
X133000000Y-88050000D03*
X127900000Y-90550000D03*
X115450000Y-70950000D03*
X118350000Y-67950000D03*
X172150000Y-93350000D03*
X118550000Y-61450000D03*
X158050000Y-74400000D03*
X130750000Y-82500000D03*
X166100000Y-68550000D03*
X161750000Y-87850000D03*
X144500000Y-80450000D03*
X150950000Y-65500000D03*
X169300000Y-87400000D03*
X151300000Y-93400000D03*
X147200000Y-102850000D03*
X142500000Y-67800000D03*
X170150000Y-95600000D03*
X127800000Y-81950000D03*
X142500000Y-63600000D03*
X161750000Y-85850000D03*
X153950000Y-71400000D03*
X184950000Y-102650000D03*
X134550000Y-100350000D03*
X173200000Y-81900000D03*
X176950000Y-102650000D03*
X120600000Y-88050000D03*
X156950000Y-60650000D03*
X120350000Y-73100000D03*
X127900000Y-91650000D03*
X166150000Y-102150000D03*
X168950000Y-60650000D03*
X130100000Y-92750000D03*
X115450000Y-86950000D03*
X168300000Y-87400000D03*
X122650000Y-102850000D03*
X143900000Y-62700000D03*
X155150000Y-63400000D03*
X130100000Y-90550000D03*
X125600000Y-84600000D03*
X174950000Y-60650000D03*
X184950000Y-88650000D03*
X126850000Y-67550000D03*
X115450000Y-99250000D03*
X121250000Y-82850000D03*
X170300000Y-89400000D03*
X115450000Y-90000000D03*
X121950000Y-61350000D03*
X124650000Y-102850000D03*
X145700000Y-101350000D03*
X142500000Y-68850000D03*
X115450000Y-74950000D03*
X145100000Y-87550000D03*
X121100000Y-87150000D03*
X148450000Y-87500000D03*
X127100000Y-71500000D03*
X170150000Y-98600000D03*
X130850000Y-100200000D03*
X168300000Y-86400000D03*
X160050000Y-70350000D03*
X180950000Y-102650000D03*
X170300000Y-87400000D03*
X135600000Y-100550000D03*
X120050000Y-92850000D03*
X117400000Y-65950000D03*
X120700000Y-69550000D03*
X155700000Y-102850000D03*
X126650000Y-102850000D03*
X120650000Y-102850000D03*
X117950000Y-71450000D03*
X136400000Y-98250000D03*
X171300000Y-87400000D03*
X178800000Y-93250000D03*
X139300000Y-61500000D03*
X136700000Y-95200000D03*
X119650000Y-84000000D03*
X115450000Y-91250000D03*
X150700000Y-77350000D03*
X120350000Y-83300000D03*
X142500000Y-65700000D03*
X120300000Y-95400000D03*
X160050000Y-62350000D03*
X165500000Y-103450000D03*
X182500000Y-77950000D03*
X175500000Y-100250000D03*
X178800000Y-91250000D03*
X128650000Y-100000000D03*
X172650000Y-100850000D03*
X184950000Y-86650000D03*
X124650000Y-74900000D03*
X120950000Y-65950000D03*
X140500000Y-76200000D03*
X172300000Y-85400000D03*
X137200000Y-102850000D03*
X155150000Y-62350000D03*
X143900000Y-60750000D03*
X172300000Y-87400000D03*
X121300000Y-86150000D03*
X178800000Y-95250000D03*
X145850000Y-63350000D03*
X122100000Y-93400000D03*
X123300000Y-85000000D03*
X173250000Y-94550000D03*
X175700000Y-85400000D03*
X140500000Y-74100000D03*
X153050000Y-65500000D03*
X172650000Y-98600000D03*
X135100000Y-89850000D03*
X126350000Y-61200000D03*
X127900000Y-92750000D03*
X148050000Y-74400000D03*
X115450000Y-78950000D03*
X132300000Y-68200000D03*
X174500000Y-77950000D03*
X172150000Y-96350000D03*
X117550000Y-80100000D03*
X172500000Y-80250000D03*
X172700000Y-92900000D03*
X163950000Y-74450000D03*
X143200000Y-102850000D03*
X122300000Y-85000000D03*
X145700000Y-99850000D03*
X144900000Y-62700000D03*
X121550000Y-85250000D03*
X172300000Y-88400000D03*
X182950000Y-102650000D03*
X140500000Y-63600000D03*
X172000000Y-67650000D03*
X164950000Y-60650000D03*
X130100000Y-91650000D03*
X142500000Y-66750000D03*
X120050000Y-99650000D03*
X124600000Y-69050000D03*
X160950000Y-60650000D03*
X172300000Y-86400000D03*
X171300000Y-88400000D03*
X178950000Y-60650000D03*
X140500000Y-70950000D03*
X142500000Y-77250000D03*
X149900000Y-65500000D03*
X118850000Y-89150000D03*
X184950000Y-92650000D03*
X167550000Y-98600000D03*
X118050000Y-99650000D03*
X135200000Y-102850000D03*
X167000000Y-69300000D03*
X170150000Y-94100000D03*
X148250000Y-86400000D03*
X166150000Y-100800000D03*
X166150000Y-98600000D03*
X150550000Y-67850000D03*
X122300000Y-82700000D03*
X169300000Y-89400000D03*
X140750000Y-62550000D03*
X166150000Y-99500000D03*
X153700000Y-102850000D03*
X136100000Y-88850000D03*
X160050000Y-68350000D03*
X142500000Y-74100000D03*
X146750000Y-60950000D03*
X180500000Y-77950000D03*
X184950000Y-72650000D03*
X129000000Y-92750000D03*
X115450000Y-76950000D03*
X184950000Y-98650000D03*
X172650000Y-99550000D03*
X170150000Y-93350000D03*
X176500000Y-77950000D03*
X119200000Y-84850000D03*
X164600000Y-82600000D03*
X184950000Y-78650000D03*
X170150000Y-97850000D03*
X176950000Y-60650000D03*
X127800000Y-86650000D03*
X157300000Y-93400000D03*
X184950000Y-62650000D03*
X140500000Y-66750000D03*
X144550000Y-95950000D03*
X159300000Y-93400000D03*
X172550000Y-68900000D03*
X164700000Y-90150000D03*
X155150000Y-61300000D03*
X171300000Y-86400000D03*
X184950000Y-64650000D03*
X165500000Y-102600000D03*
X115450000Y-72950000D03*
X147800000Y-62550000D03*
X168300000Y-89400000D03*
X172150000Y-97850000D03*
X136100000Y-89850000D03*
X138150000Y-89150000D03*
X164400000Y-85000000D03*
X136800000Y-82800000D03*
X115450000Y-64950000D03*
X142500000Y-76200000D03*
X151850000Y-83150000D03*
X178800000Y-89250000D03*
X161300000Y-93400000D03*
X148850000Y-64450000D03*
X171300000Y-89400000D03*
X184950000Y-100650000D03*
X142500000Y-70950000D03*
X178950000Y-102650000D03*
X129050000Y-70050000D03*
X136050000Y-85500000D03*
X151700000Y-102850000D03*
X159700000Y-102850000D03*
X172700000Y-74500000D03*
X168650000Y-80850000D03*
X172250000Y-94100000D03*
X142500000Y-73050000D03*
X115450000Y-101250000D03*
X167000000Y-67800000D03*
X115450000Y-103250000D03*
X145000000Y-65550000D03*
X174000000Y-97850000D03*
X170300000Y-86400000D03*
X132650000Y-102850000D03*
X140500000Y-75150000D03*
X135250000Y-64150000D03*
X150350000Y-70650000D03*
X184950000Y-60650000D03*
X184950000Y-80650000D03*
X173100000Y-67650000D03*
X135450000Y-92650000D03*
X175950000Y-80300000D03*
X142500000Y-64650000D03*
X130650000Y-102850000D03*
X121800000Y-76150000D03*
X144550000Y-92350000D03*
X184950000Y-70650000D03*
X129000000Y-90550000D03*
X140500000Y-72000000D03*
X173200000Y-80900000D03*
X164700000Y-87650000D03*
X170950000Y-60650000D03*
X161750000Y-89850000D03*
X117700000Y-86950000D03*
X116700000Y-86950000D03*
X115450000Y-84950000D03*
X167700000Y-81500000D03*
X168850000Y-98600000D03*
X170150000Y-94850000D03*
X147800000Y-60950000D03*
X144450000Y-78300000D03*
X172950000Y-102650000D03*
X184950000Y-96650000D03*
X172300000Y-89400000D03*
X150050000Y-74400000D03*
X169300000Y-88400000D03*
X124300000Y-65600000D03*
X170300000Y-88400000D03*
X133750000Y-82200000D03*
X178800000Y-97250000D03*
X171300000Y-85400000D03*
X135600000Y-89350000D03*
X128650000Y-102850000D03*
X168300000Y-88400000D03*
D12*
X136700000Y-79800000D03*
X145800000Y-78750000D03*
X145800000Y-80500000D03*
X141600000Y-82650000D03*
X141600000Y-81450000D03*
X145800000Y-82250000D03*
X139100000Y-79800000D03*
X145800000Y-84000000D03*
X130150000Y-76050000D03*
X125800000Y-80250000D03*
X129350000Y-76900000D03*
X126550000Y-79700000D03*
X137900000Y-79800000D03*
X154200000Y-77400000D03*
X166477996Y-89130403D03*
X154300000Y-89300000D03*
X126750000Y-94400000D03*
X166450000Y-88250000D03*
X148450000Y-88600000D03*
X125900000Y-94400000D03*
X155850000Y-88350000D03*
X129500000Y-79800000D03*
X130700000Y-79800000D03*
X159350000Y-88350000D03*
X166050000Y-87100000D03*
X152350000Y-98500000D03*
X174530000Y-89100000D03*
X166596397Y-84865881D03*
X148850000Y-98500000D03*
X170950000Y-76800000D03*
X165950000Y-90800000D03*
X174890000Y-88740000D03*
X165300000Y-81000000D03*
X175000000Y-83400000D03*
X165300000Y-80550000D03*
X165900000Y-88100000D03*
X167900940Y-83796740D03*
X170950000Y-77700000D03*
X164400000Y-86000000D03*
X174650000Y-83050000D03*
X169200000Y-83050000D03*
X170950000Y-77250000D03*
X165950000Y-89500000D03*
X155850000Y-98500000D03*
X167100000Y-91400000D03*
X173987371Y-85325500D03*
D13*
X176650000Y-86500000D03*
D12*
X172500000Y-91200000D03*
X159350000Y-98500000D03*
X167700000Y-91400000D03*
X173950000Y-86950000D03*
X180350000Y-83150000D03*
X180350000Y-86650000D03*
X180350000Y-90150000D03*
X173950000Y-88200000D03*
X173950000Y-87600000D03*
X180350000Y-93650000D03*
X141600000Y-84000000D03*
X152350000Y-85000000D03*
X174850000Y-70950000D03*
X177850000Y-70900000D03*
X177650000Y-72150000D03*
X174850000Y-71700000D03*
X164150000Y-70800000D03*
X161450000Y-69250000D03*
X162700000Y-67050000D03*
X142800000Y-98200000D03*
X145250000Y-95950000D03*
X162700000Y-71550000D03*
X142000000Y-99700000D03*
X170950000Y-72500000D03*
X142000000Y-98950000D03*
X142000000Y-98200000D03*
X161450000Y-66300000D03*
X170950000Y-72000000D03*
X145250000Y-92350000D03*
X162700000Y-68550000D03*
X141250000Y-99700000D03*
X170950000Y-71500000D03*
X161450000Y-67800000D03*
X162700000Y-65550000D03*
X149650000Y-85550000D03*
X141250000Y-98200000D03*
X141250000Y-98950000D03*
X164150000Y-66300000D03*
X161450000Y-70800000D03*
X162700000Y-70050000D03*
X143550000Y-98200000D03*
D14*
X166400000Y-87100000D02*
X166050000Y-87100000D01*
X166900000Y-89400000D02*
X166900000Y-87600000D01*
X166600000Y-89700000D02*
X166900000Y-89400000D01*
X166600000Y-90600000D02*
X166600000Y-89700000D01*
X166900000Y-87600000D02*
X166400000Y-87100000D01*
X166600000Y-90600000D02*
X166600000Y-91200000D01*
X166600000Y-91200000D02*
X166200000Y-91600000D01*
D15*
X146450000Y-82519240D02*
X146059240Y-82910000D01*
X145800000Y-78750000D02*
X146450000Y-79400000D01*
X139750000Y-80177696D02*
X139750000Y-79482304D01*
X146059240Y-82910000D02*
X141891544Y-82910000D01*
X137350001Y-79149999D02*
X136700000Y-79800000D01*
X139620000Y-82384608D02*
X139620000Y-80307696D01*
X140285392Y-83050000D02*
X139620000Y-82384608D01*
X139417695Y-79149999D02*
X137350001Y-79149999D01*
X146450000Y-79400000D02*
X146450000Y-82519240D01*
X139620000Y-80307696D02*
X139750000Y-80177696D01*
X141751544Y-83050000D02*
X140285392Y-83050000D01*
X141891544Y-82910000D02*
X141751544Y-83050000D01*
X139750000Y-79482304D02*
X139417695Y-79149999D01*
X146190000Y-80890000D02*
X146190000Y-82411544D01*
X145800000Y-80500000D02*
X146190000Y-80890000D01*
X146190000Y-82411544D02*
X145951544Y-82650000D01*
X145951544Y-82650000D02*
X141600000Y-82650000D01*
X145660000Y-82390000D02*
X145800000Y-82250000D01*
X141600000Y-81450000D02*
X141600000Y-81850000D01*
X142140000Y-82390000D02*
X145660000Y-82390000D01*
X141600000Y-81850000D02*
X142140000Y-82390000D01*
X145630000Y-83430000D02*
X142106936Y-83430000D01*
X141966936Y-83570000D02*
X140070000Y-83570000D01*
X140070000Y-83570000D02*
X139099999Y-82599999D01*
X139099999Y-82599999D02*
X139100000Y-79800000D01*
X145800000Y-83600000D02*
X145630000Y-83430000D01*
X145800000Y-84000000D02*
X145800000Y-83600000D01*
X142106936Y-83430000D02*
X141966936Y-83570000D01*
X130150000Y-76050000D02*
X130150000Y-78050000D01*
X130150000Y-78050000D02*
X127950000Y-80250000D01*
X127950000Y-80250000D02*
X125800000Y-80250000D01*
X129350000Y-76900000D02*
X129350000Y-78300000D01*
X127950000Y-79700000D02*
X126550000Y-79700000D01*
X129350000Y-78300000D02*
X127950000Y-79700000D01*
X141999240Y-83170000D02*
X146166936Y-83170000D01*
X137900000Y-79800000D02*
X138290000Y-79410000D01*
X139360000Y-82492304D02*
X140177696Y-83310000D01*
X141859240Y-83310000D02*
X141999240Y-83170000D01*
X146710000Y-78790000D02*
X147100000Y-78400000D01*
X138290000Y-79410000D02*
X139310000Y-79410000D01*
X139310000Y-79410000D02*
X139490000Y-79590000D01*
X140177696Y-83310000D02*
X141859240Y-83310000D01*
X139490000Y-79590000D02*
X139490000Y-80070000D01*
X146710001Y-82626935D02*
X146710000Y-78790000D01*
X139360000Y-80200000D02*
X139360000Y-82492304D01*
X146166936Y-83170000D02*
X146710001Y-82626935D01*
X147100000Y-78400000D02*
X153200000Y-78400000D01*
X139490000Y-80070000D02*
X139360000Y-80200000D01*
X153200000Y-78400000D02*
X154200000Y-77400000D01*
X126940000Y-94210000D02*
X126750000Y-94400000D01*
X164450000Y-89050000D02*
X155300000Y-89050000D01*
X140567696Y-89050000D02*
X139910000Y-89707696D01*
X155300000Y-89050000D02*
X155250000Y-89050000D01*
X139910000Y-92057696D02*
X137757696Y-94210000D01*
X155250000Y-89050000D02*
X154550000Y-89050000D01*
X165400000Y-89050000D02*
X164450000Y-89050000D01*
X139910000Y-89707696D02*
X139910000Y-92057696D01*
X166397593Y-89050000D02*
X165400000Y-89050000D01*
X154550000Y-89050000D02*
X154300000Y-89300000D01*
X128700000Y-94210000D02*
X126940000Y-94210000D01*
X154300000Y-89300000D02*
X154050000Y-89050000D01*
X154050000Y-89050000D02*
X140567696Y-89050000D01*
X166477996Y-89130403D02*
X166397593Y-89050000D01*
X137757696Y-94210000D02*
X128700000Y-94210000D01*
X148640000Y-88790000D02*
X148450000Y-88600000D01*
X126350000Y-93950000D02*
X137650000Y-93950000D01*
X139650000Y-89600000D02*
X140460000Y-88790000D01*
X137650000Y-93950000D02*
X139650000Y-91950000D01*
X125900000Y-94400000D02*
X126350000Y-93950000D01*
X165910000Y-88790000D02*
X148640000Y-88790000D01*
X148260000Y-88790000D02*
X148450000Y-88600000D01*
X140460000Y-88790000D02*
X148260000Y-88790000D01*
X139650000Y-91950000D02*
X139650000Y-89600000D01*
X166450000Y-88250000D02*
X165910000Y-88790000D01*
D14*
X150811177Y-85790000D02*
X155340000Y-85790000D01*
X155850000Y-86300000D02*
X155850000Y-88350000D01*
X138610000Y-81299412D02*
X138610000Y-82810000D01*
X130040000Y-80790000D02*
X138100588Y-80790000D01*
X149881176Y-84860000D02*
X150811177Y-85790000D01*
X138100588Y-80790000D02*
X138610000Y-81299412D01*
X140660000Y-84860000D02*
X149881176Y-84860000D01*
X129500000Y-80250000D02*
X130040000Y-80790000D01*
X129500000Y-79800000D02*
X129500000Y-80250000D01*
X138610000Y-82810000D02*
X140660000Y-84860000D01*
X155340000Y-85790000D02*
X155850000Y-86300000D01*
X158500000Y-85550000D02*
X159350000Y-86400000D01*
X138849999Y-82703553D02*
X140766446Y-84620000D01*
X138200000Y-80550000D02*
X138850000Y-81200000D01*
X140766446Y-84620000D02*
X149980588Y-84620000D01*
X131100000Y-80550000D02*
X138200000Y-80550000D01*
X138850000Y-81200000D02*
X138849999Y-82703553D01*
X130700000Y-79800000D02*
X130700000Y-80150000D01*
X159350000Y-86400000D02*
X159350000Y-88350000D01*
X130700000Y-80150000D02*
X131100000Y-80550000D01*
X149980588Y-84620000D02*
X150910588Y-85550000D01*
X150910588Y-85550000D02*
X158500000Y-85550000D01*
X153250000Y-96600000D02*
X152450000Y-97400000D01*
X152350000Y-97500000D02*
X152350000Y-98500000D01*
X166200000Y-91600000D02*
X161200000Y-96600000D01*
X158700000Y-96600000D02*
X153250000Y-96600000D01*
X161200000Y-96600000D02*
X158700000Y-96600000D01*
X152450000Y-97400000D02*
X152350000Y-97500000D01*
D16*
X148850000Y-97250000D02*
X148850000Y-98500000D01*
X165950000Y-91418664D02*
X165509332Y-91859332D01*
X159450000Y-96295000D02*
X149805000Y-96295000D01*
X161073664Y-96295000D02*
X159450000Y-96295000D01*
X165950000Y-90800000D02*
X165950000Y-91418664D01*
X165509332Y-91859332D02*
X161073664Y-96295000D01*
X149805000Y-96295000D02*
X148850000Y-97250000D01*
D15*
X155850000Y-97550000D02*
X155850000Y-98500000D01*
X166176777Y-91976777D02*
X161303553Y-96850000D01*
X156550000Y-96850000D02*
X155850000Y-97550000D01*
X166753554Y-91400000D02*
X166176777Y-91976777D01*
X161303553Y-96850000D02*
X161096446Y-96850000D01*
X161096446Y-96850000D02*
X157150000Y-96850000D01*
X157150000Y-96850000D02*
X156550000Y-96850000D01*
X167100000Y-91400000D02*
X166753554Y-91400000D01*
X159890000Y-97110000D02*
X159350000Y-97650000D01*
X166510625Y-92010625D02*
X161411249Y-97110000D01*
X166731250Y-91790000D02*
X166510625Y-92010625D01*
X167050000Y-91790000D02*
X166731250Y-91790000D01*
X167310000Y-91790000D02*
X167050000Y-91790000D01*
X161411249Y-97110000D02*
X160800000Y-97110000D01*
X159350000Y-97650000D02*
X159350000Y-98500000D01*
X167700000Y-91400000D02*
X167310000Y-91790000D01*
X160800000Y-97110000D02*
X159890000Y-97110000D01*
D14*
X180730000Y-86480000D02*
X180350000Y-86100000D01*
X180350000Y-86100000D02*
X180350000Y-83150000D01*
X180730000Y-86807402D02*
X180730000Y-86480000D01*
X174250000Y-87250000D02*
X180287402Y-87250000D01*
X173950000Y-86950000D02*
X174250000Y-87250000D01*
X180287402Y-87250000D02*
X180730000Y-86807402D01*
X174610000Y-87010000D02*
X175100000Y-87010000D01*
X177900000Y-87010000D02*
X179990000Y-87010000D01*
X179990000Y-87010000D02*
X180350000Y-86650000D01*
X175100000Y-87010000D02*
X177900000Y-87010000D01*
X173950000Y-86350000D02*
X174610000Y-87010000D01*
X176920000Y-87730000D02*
X177150000Y-87730000D01*
X177150000Y-87730000D02*
X179540588Y-87730000D01*
X179905294Y-89705294D02*
X180350000Y-90150000D01*
X179540588Y-87730000D02*
X179905294Y-88094706D01*
X174949411Y-87730000D02*
X176920000Y-87730000D01*
X173950000Y-88200000D02*
X174420000Y-87730000D01*
X174420000Y-87730000D02*
X174949411Y-87730000D01*
X179905294Y-88094706D02*
X179905294Y-89705294D01*
X180750000Y-90400000D02*
X180350000Y-90800000D01*
X180750000Y-89900000D02*
X180750000Y-90400000D01*
X180145294Y-89295294D02*
X180750000Y-89900000D01*
X174060000Y-87490000D02*
X179640000Y-87490000D01*
X173950000Y-87600000D02*
X174060000Y-87490000D01*
X180350000Y-90800000D02*
X180350000Y-93650000D01*
X180145294Y-87995295D02*
X180145294Y-89295294D01*
X179640000Y-87490000D02*
X180145294Y-87995295D01*
X141890490Y-84000000D02*
X141600000Y-84000000D01*
X145530000Y-84380000D02*
X144830000Y-83680000D01*
X150080000Y-84380000D02*
X145530000Y-84380000D01*
X142210490Y-83680000D02*
X141890490Y-84000000D01*
X150700000Y-85000000D02*
X150080000Y-84380000D01*
X144830000Y-83680000D02*
X142210490Y-83680000D01*
X152350000Y-85000000D02*
X150700000Y-85000000D01*
D15*
X177850000Y-70900000D02*
X175100000Y-70900000D01*
X174900000Y-70900000D02*
X174850000Y-70950000D01*
X175100000Y-70900000D02*
X174900000Y-70900000D01*
X177200000Y-71700000D02*
X177650000Y-72150000D01*
X174850000Y-71700000D02*
X177200000Y-71700000D01*
G04 #@! TA.AperFunction,Conductor*
G36*
X149079790Y-60120710D02*
G01*
X149100000Y-60169500D01*
X149100000Y-61131000D01*
X149079790Y-61179790D01*
X149031000Y-61200000D01*
X145341973Y-61200000D01*
X145297621Y-61183857D01*
X145212638Y-61112548D01*
X145212637Y-61112547D01*
X145057020Y-61034394D01*
X145057019Y-61034393D01*
X145057018Y-61034393D01*
X144887573Y-60994233D01*
X144801524Y-60989222D01*
X144801512Y-60989221D01*
X144800505Y-60989163D01*
X143371329Y-60989163D01*
X143369362Y-60989392D01*
X143369342Y-60989394D01*
X143348581Y-60991820D01*
X143338826Y-60989052D01*
X143001540Y-61031595D01*
X143001533Y-61031596D01*
X142999569Y-61031844D01*
X142997637Y-61032318D01*
X142997631Y-61032320D01*
X142692578Y-61107304D01*
X142692563Y-61107308D01*
X142690633Y-61107783D01*
X142688776Y-61108474D01*
X142688762Y-61108479D01*
X142394378Y-61218139D01*
X142394373Y-61218140D01*
X142392513Y-61218834D01*
X142390746Y-61219736D01*
X142390733Y-61219742D01*
X142110975Y-61362602D01*
X142110962Y-61362609D01*
X142109185Y-61363517D01*
X142107526Y-61364621D01*
X142107511Y-61364631D01*
X141846088Y-61538796D01*
X141846075Y-61538805D01*
X141844428Y-61539903D01*
X141842915Y-61541185D01*
X141842912Y-61541188D01*
X141603292Y-61744349D01*
X141603281Y-61744359D01*
X141601773Y-61745638D01*
X141600411Y-61747093D01*
X141600409Y-61747096D01*
X141385816Y-61976524D01*
X141385808Y-61976533D01*
X141384457Y-61977978D01*
X141383285Y-61979563D01*
X141383274Y-61979577D01*
X141196563Y-62232221D01*
X141196552Y-62232237D01*
X141195379Y-62233825D01*
X141194391Y-62235545D01*
X141194387Y-62235553D01*
X141038052Y-62508035D01*
X141038044Y-62508050D01*
X141037060Y-62509766D01*
X141036276Y-62511592D01*
X141036274Y-62511597D01*
X140936786Y-62743452D01*
X140911612Y-62802120D01*
X140911045Y-62804020D01*
X140911039Y-62804038D01*
X140821281Y-63105066D01*
X140821276Y-63105083D01*
X140820709Y-63106988D01*
X140765562Y-63420304D01*
X140765444Y-63422301D01*
X140765444Y-63422307D01*
X140748326Y-63713721D01*
X140745173Y-63721260D01*
X140749702Y-63764732D01*
X140750040Y-63773732D01*
X140750000Y-63774423D01*
X140750000Y-63775428D01*
X140750000Y-77446301D01*
X140749883Y-77450313D01*
X140748955Y-77466254D01*
X140748564Y-77472962D01*
X140748564Y-78822962D01*
X140748796Y-78824950D01*
X140748797Y-78824961D01*
X140768779Y-78995920D01*
X140768779Y-78995922D01*
X140768780Y-78995924D01*
X140828340Y-79159561D01*
X140924031Y-79305053D01*
X141050695Y-79424554D01*
X141201504Y-79511624D01*
X141368328Y-79561568D01*
X141542173Y-79571693D01*
X141713666Y-79541454D01*
X141804592Y-79502232D01*
X141873565Y-79472481D01*
X141937942Y-79424553D01*
X142013245Y-79368492D01*
X142125180Y-79235094D01*
X142203333Y-79079477D01*
X142243493Y-78910032D01*
X142248564Y-78822962D01*
X142248564Y-78511082D01*
X142248681Y-78507070D01*
X142250000Y-78484423D01*
X142250000Y-74981898D01*
X177108292Y-74981898D01*
X177118158Y-75113566D01*
X177166395Y-75236472D01*
X177248720Y-75339703D01*
X177357812Y-75414081D01*
X177483980Y-75453000D01*
X177483982Y-75453000D01*
X177582823Y-75453000D01*
X177631690Y-75445633D01*
X177680561Y-75438268D01*
X177764967Y-75397619D01*
X177817692Y-75394659D01*
X177857070Y-75429849D01*
X177863742Y-75464495D01*
X177855690Y-75582230D01*
X177855690Y-75582232D01*
X177885919Y-75727704D01*
X177954276Y-75859626D01*
X178055690Y-75968214D01*
X178182640Y-76045414D01*
X178182642Y-76045415D01*
X178325709Y-76085500D01*
X178325710Y-76085500D01*
X179234616Y-76085500D01*
X179236974Y-76085500D01*
X179347196Y-76070350D01*
X179483476Y-76011156D01*
X179568195Y-75942232D01*
X183805690Y-75942232D01*
X183835919Y-76087704D01*
X183904276Y-76219626D01*
X184005690Y-76328214D01*
X184132640Y-76405414D01*
X184132642Y-76405415D01*
X184275709Y-76445500D01*
X184275710Y-76445500D01*
X185184616Y-76445500D01*
X185186974Y-76445500D01*
X185297196Y-76430350D01*
X185433476Y-76371156D01*
X185548731Y-76277389D01*
X185634414Y-76156003D01*
X185684171Y-76016002D01*
X185694310Y-75867768D01*
X185664081Y-75722296D01*
X185595724Y-75590374D01*
X185494310Y-75481786D01*
X185367360Y-75404586D01*
X185367357Y-75404584D01*
X185224291Y-75364500D01*
X185224290Y-75364500D01*
X184313026Y-75364500D01*
X184310694Y-75364820D01*
X184310687Y-75364821D01*
X184202806Y-75379649D01*
X184066522Y-75438845D01*
X183951269Y-75532610D01*
X183865586Y-75653996D01*
X183815828Y-75793999D01*
X183811340Y-75859625D01*
X183805690Y-75942232D01*
X179568195Y-75942232D01*
X179598731Y-75917389D01*
X179684414Y-75796003D01*
X179734171Y-75656002D01*
X179744310Y-75507768D01*
X179714081Y-75362296D01*
X179645724Y-75230374D01*
X179544310Y-75121786D01*
X179417360Y-75044586D01*
X179417357Y-75044584D01*
X179274291Y-75004500D01*
X179274290Y-75004500D01*
X178363026Y-75004500D01*
X178360694Y-75004820D01*
X178360687Y-75004821D01*
X178252806Y-75019649D01*
X178116522Y-75078845D01*
X178103530Y-75089415D01*
X178052928Y-75104528D01*
X178006461Y-75079434D01*
X177991179Y-75041046D01*
X177988464Y-75004821D01*
X177981841Y-74916435D01*
X177981841Y-74916433D01*
X177933604Y-74793527D01*
X177851279Y-74690296D01*
X177742187Y-74615918D01*
X177616020Y-74577000D01*
X177616018Y-74577000D01*
X177517179Y-74577000D01*
X177517177Y-74577000D01*
X177419440Y-74591731D01*
X177300479Y-74649020D01*
X177203689Y-74738827D01*
X177137671Y-74853174D01*
X177108292Y-74981898D01*
X142250000Y-74981898D01*
X142250000Y-72500000D01*
X170604247Y-72500000D01*
X170625098Y-72618254D01*
X170685138Y-72722246D01*
X170777123Y-72799431D01*
X170889961Y-72840500D01*
X171010039Y-72840500D01*
X171122877Y-72799431D01*
X171214862Y-72722246D01*
X171274902Y-72618254D01*
X171295753Y-72500000D01*
X171274902Y-72381746D01*
X171218755Y-72284498D01*
X171211863Y-72232140D01*
X171218752Y-72215507D01*
X171274902Y-72118254D01*
X171295753Y-72000000D01*
X171274902Y-71881746D01*
X171218755Y-71784498D01*
X171211863Y-71732142D01*
X171218753Y-71715505D01*
X171227705Y-71700000D01*
X174504247Y-71700000D01*
X174525098Y-71818254D01*
X174585138Y-71922246D01*
X174677123Y-71999431D01*
X174789961Y-72040500D01*
X174910039Y-72040500D01*
X175022877Y-71999431D01*
X175109622Y-71926642D01*
X175153974Y-71910500D01*
X177084228Y-71910500D01*
X177133018Y-71930710D01*
X177286052Y-72083744D01*
X177306262Y-72132534D01*
X177305214Y-72144513D01*
X177304247Y-72149997D01*
X177304247Y-72149998D01*
X177304247Y-72150000D01*
X177325098Y-72268254D01*
X177385138Y-72372246D01*
X177477123Y-72449431D01*
X177589961Y-72490500D01*
X177710039Y-72490500D01*
X177822877Y-72449431D01*
X177914862Y-72372246D01*
X177974902Y-72268254D01*
X177995753Y-72150000D01*
X177974902Y-72031746D01*
X177914862Y-71927754D01*
X177822877Y-71850569D01*
X177822876Y-71850568D01*
X177710039Y-71809500D01*
X177635772Y-71809500D01*
X177586982Y-71789290D01*
X177382426Y-71584734D01*
X177369048Y-71565879D01*
X177368807Y-71565378D01*
X177343509Y-71545204D01*
X177337746Y-71540054D01*
X177332076Y-71534384D01*
X177332075Y-71534383D01*
X177332072Y-71534380D01*
X177325281Y-71530113D01*
X177318975Y-71525639D01*
X177293679Y-71505467D01*
X177293133Y-71505343D01*
X177271785Y-71496500D01*
X177271311Y-71496202D01*
X177239161Y-71492579D01*
X177231541Y-71491285D01*
X177223717Y-71489500D01*
X177223716Y-71489500D01*
X177215697Y-71489500D01*
X177207970Y-71489066D01*
X177175825Y-71485443D01*
X177175299Y-71485628D01*
X177152509Y-71489500D01*
X175153974Y-71489500D01*
X175109622Y-71473357D01*
X175022877Y-71400569D01*
X175022876Y-71400568D01*
X174993396Y-71389839D01*
X174954460Y-71354161D01*
X174952156Y-71301401D01*
X174987834Y-71262465D01*
X174993396Y-71260161D01*
X175022877Y-71249431D01*
X175114862Y-71172246D01*
X175130591Y-71145001D01*
X175172489Y-71112851D01*
X175190348Y-71110500D01*
X177546026Y-71110500D01*
X177590377Y-71126642D01*
X177677123Y-71199431D01*
X177789961Y-71240500D01*
X177910039Y-71240500D01*
X178022877Y-71199431D01*
X178114862Y-71122246D01*
X178174902Y-71018254D01*
X178195753Y-70900000D01*
X178174902Y-70781746D01*
X178114862Y-70677754D01*
X178037676Y-70612986D01*
X178022876Y-70600568D01*
X177910039Y-70559500D01*
X177789961Y-70559500D01*
X177739814Y-70577752D01*
X177677123Y-70600569D01*
X177590378Y-70673357D01*
X177546026Y-70689500D01*
X175094387Y-70689500D01*
X175050035Y-70673357D01*
X175022877Y-70650569D01*
X175022875Y-70650568D01*
X174910039Y-70609500D01*
X174789961Y-70609500D01*
X174733542Y-70630034D01*
X174677123Y-70650569D01*
X174585139Y-70727752D01*
X174585137Y-70727754D01*
X174585138Y-70727754D01*
X174525098Y-70831746D01*
X174504247Y-70950000D01*
X174525098Y-71068254D01*
X174585138Y-71172246D01*
X174666480Y-71240500D01*
X174677123Y-71249431D01*
X174706604Y-71260161D01*
X174745540Y-71295839D01*
X174747844Y-71348599D01*
X174712166Y-71387535D01*
X174706604Y-71389839D01*
X174677123Y-71400569D01*
X174585139Y-71477752D01*
X174549174Y-71540046D01*
X174525098Y-71581746D01*
X174504247Y-71700000D01*
X171227705Y-71700000D01*
X171274902Y-71618254D01*
X171295753Y-71500000D01*
X171274902Y-71381746D01*
X171214862Y-71277754D01*
X171137676Y-71212986D01*
X171122876Y-71200568D01*
X171010039Y-71159500D01*
X170889961Y-71159500D01*
X170833542Y-71180034D01*
X170777123Y-71200569D01*
X170685139Y-71277752D01*
X170656270Y-71327754D01*
X170625098Y-71381746D01*
X170604247Y-71500000D01*
X170625098Y-71618254D01*
X170653965Y-71668253D01*
X170681243Y-71715500D01*
X170688136Y-71767859D01*
X170681243Y-71784500D01*
X170666809Y-71809500D01*
X170625098Y-71881746D01*
X170604247Y-72000000D01*
X170625098Y-72118254D01*
X170633343Y-72132534D01*
X170681243Y-72215500D01*
X170688136Y-72267859D01*
X170681243Y-72284500D01*
X170625098Y-72381746D01*
X170613164Y-72449431D01*
X170604247Y-72500000D01*
X142250000Y-72500000D01*
X142250000Y-71550000D01*
X162354247Y-71550000D01*
X162375098Y-71668254D01*
X162435138Y-71772246D01*
X162527123Y-71849431D01*
X162639961Y-71890500D01*
X162760039Y-71890500D01*
X162872877Y-71849431D01*
X162964862Y-71772246D01*
X163024902Y-71668254D01*
X163045753Y-71550000D01*
X163024902Y-71431746D01*
X162964862Y-71327754D01*
X162872877Y-71250569D01*
X162872876Y-71250568D01*
X162760039Y-71209500D01*
X162639961Y-71209500D01*
X162583542Y-71230034D01*
X162527123Y-71250569D01*
X162435139Y-71327752D01*
X162435137Y-71327754D01*
X162435138Y-71327754D01*
X162375098Y-71431746D01*
X162354247Y-71550000D01*
X142250000Y-71550000D01*
X142250000Y-70800000D01*
X161104247Y-70800000D01*
X161125098Y-70918254D01*
X161185138Y-71022246D01*
X161277123Y-71099431D01*
X161389961Y-71140500D01*
X161510039Y-71140500D01*
X161622877Y-71099431D01*
X161714862Y-71022246D01*
X161774902Y-70918254D01*
X161795753Y-70800000D01*
X163804247Y-70800000D01*
X163825098Y-70918254D01*
X163885138Y-71022246D01*
X163977123Y-71099431D01*
X164089961Y-71140500D01*
X164210039Y-71140500D01*
X164322877Y-71099431D01*
X164414862Y-71022246D01*
X164474902Y-70918254D01*
X164495753Y-70800000D01*
X164474902Y-70681746D01*
X164414862Y-70577754D01*
X164322877Y-70500569D01*
X164322876Y-70500568D01*
X164210039Y-70459500D01*
X164089961Y-70459500D01*
X164033542Y-70480034D01*
X163977123Y-70500569D01*
X163885139Y-70577752D01*
X163885137Y-70577754D01*
X163885138Y-70577754D01*
X163825098Y-70681746D01*
X163804247Y-70800000D01*
X161795753Y-70800000D01*
X161774902Y-70681746D01*
X161714862Y-70577754D01*
X161622877Y-70500569D01*
X161622876Y-70500568D01*
X161510039Y-70459500D01*
X161389961Y-70459500D01*
X161333542Y-70480034D01*
X161277123Y-70500569D01*
X161185139Y-70577752D01*
X161185137Y-70577754D01*
X161185138Y-70577754D01*
X161125098Y-70681746D01*
X161104247Y-70800000D01*
X142250000Y-70800000D01*
X142250000Y-70050000D01*
X162354247Y-70050000D01*
X162375098Y-70168254D01*
X162435138Y-70272246D01*
X162527123Y-70349431D01*
X162639961Y-70390500D01*
X162760039Y-70390500D01*
X162872877Y-70349431D01*
X162964862Y-70272246D01*
X163024902Y-70168254D01*
X163045753Y-70050000D01*
X163024902Y-69931746D01*
X162964862Y-69827754D01*
X162872877Y-69750569D01*
X162872876Y-69750568D01*
X162760039Y-69709500D01*
X162639961Y-69709500D01*
X162583542Y-69730034D01*
X162527123Y-69750569D01*
X162435139Y-69827752D01*
X162435137Y-69827754D01*
X162435138Y-69827754D01*
X162375098Y-69931746D01*
X162354247Y-70050000D01*
X142250000Y-70050000D01*
X142250000Y-69250000D01*
X161104247Y-69250000D01*
X161125098Y-69368254D01*
X161185138Y-69472246D01*
X161277123Y-69549431D01*
X161389961Y-69590500D01*
X161510039Y-69590500D01*
X161622877Y-69549431D01*
X161714862Y-69472246D01*
X161774902Y-69368254D01*
X161795753Y-69250000D01*
X161774902Y-69131746D01*
X161714862Y-69027754D01*
X161622877Y-68950569D01*
X161622876Y-68950568D01*
X161510039Y-68909500D01*
X161389961Y-68909500D01*
X161333542Y-68930034D01*
X161277123Y-68950569D01*
X161185139Y-69027752D01*
X161185137Y-69027754D01*
X161185138Y-69027754D01*
X161125098Y-69131746D01*
X161104247Y-69250000D01*
X142250000Y-69250000D01*
X142250000Y-68550000D01*
X162354247Y-68550000D01*
X162375098Y-68668254D01*
X162435138Y-68772246D01*
X162527123Y-68849431D01*
X162639961Y-68890500D01*
X162760039Y-68890500D01*
X162872877Y-68849431D01*
X162964862Y-68772246D01*
X163024902Y-68668254D01*
X163045753Y-68550000D01*
X163024902Y-68431746D01*
X162964862Y-68327754D01*
X162872877Y-68250569D01*
X162872876Y-68250568D01*
X162760039Y-68209500D01*
X162639961Y-68209500D01*
X162583542Y-68230034D01*
X162527123Y-68250569D01*
X162435139Y-68327752D01*
X162435137Y-68327754D01*
X162435138Y-68327754D01*
X162375098Y-68431746D01*
X162354247Y-68550000D01*
X142250000Y-68550000D01*
X142250000Y-67800000D01*
X161104247Y-67800000D01*
X161125098Y-67918254D01*
X161185138Y-68022246D01*
X161277123Y-68099431D01*
X161389961Y-68140500D01*
X161510039Y-68140500D01*
X161622877Y-68099431D01*
X161714862Y-68022246D01*
X161774902Y-67918254D01*
X161793108Y-67814999D01*
X177119195Y-67814999D01*
X177123650Y-67843120D01*
X177124500Y-67853915D01*
X177124500Y-68026178D01*
X177158067Y-68140500D01*
X177158971Y-68143577D01*
X177225121Y-68246509D01*
X177317591Y-68326635D01*
X177428890Y-68377463D01*
X177536475Y-68392931D01*
X177549999Y-68394876D01*
X177549999Y-68394875D01*
X177550000Y-68394876D01*
X177671110Y-68377463D01*
X177782409Y-68326635D01*
X177874879Y-68246509D01*
X177941029Y-68143577D01*
X177975500Y-68026178D01*
X177975500Y-67965000D01*
X177975500Y-67938071D01*
X177975500Y-67938070D01*
X177975500Y-67853914D01*
X177976350Y-67843120D01*
X177980804Y-67814999D01*
X177977416Y-67793608D01*
X177989744Y-67742257D01*
X178034772Y-67714664D01*
X178081417Y-67723859D01*
X178182640Y-67785414D01*
X178325709Y-67825500D01*
X178325710Y-67825500D01*
X179234616Y-67825500D01*
X179236974Y-67825500D01*
X179347196Y-67810350D01*
X179483476Y-67751156D01*
X179598731Y-67657389D01*
X179684414Y-67536003D01*
X179734171Y-67396002D01*
X179744310Y-67247768D01*
X179714081Y-67102296D01*
X179645724Y-66970374D01*
X179638120Y-66962232D01*
X183805690Y-66962232D01*
X183835919Y-67107704D01*
X183904276Y-67239626D01*
X184005690Y-67348214D01*
X184132640Y-67425414D01*
X184132642Y-67425415D01*
X184275709Y-67465500D01*
X184275710Y-67465500D01*
X185184616Y-67465500D01*
X185186974Y-67465500D01*
X185297196Y-67450350D01*
X185433476Y-67391156D01*
X185548731Y-67297389D01*
X185634414Y-67176003D01*
X185684171Y-67036002D01*
X185694310Y-66887768D01*
X185664081Y-66742296D01*
X185595724Y-66610374D01*
X185494310Y-66501786D01*
X185367360Y-66424586D01*
X185367357Y-66424584D01*
X185224291Y-66384500D01*
X185224290Y-66384500D01*
X184313026Y-66384500D01*
X184310694Y-66384820D01*
X184310687Y-66384821D01*
X184202806Y-66399649D01*
X184066522Y-66458845D01*
X183951269Y-66552610D01*
X183865586Y-66673996D01*
X183815828Y-66813999D01*
X183812560Y-66861786D01*
X183805690Y-66962232D01*
X179638120Y-66962232D01*
X179544310Y-66861786D01*
X179417360Y-66784586D01*
X179417357Y-66784584D01*
X179274291Y-66744500D01*
X179274290Y-66744500D01*
X178363026Y-66744500D01*
X178360694Y-66744820D01*
X178360687Y-66744821D01*
X178252806Y-66759649D01*
X178252803Y-66759650D01*
X178252804Y-66759650D01*
X178127679Y-66813999D01*
X178116522Y-66818845D01*
X178001269Y-66912610D01*
X177915586Y-67033996D01*
X177865828Y-67173999D01*
X177861525Y-67236912D01*
X177838033Y-67284209D01*
X177787977Y-67301042D01*
X177764023Y-67294968D01*
X177671110Y-67252537D01*
X177550000Y-67235123D01*
X177444114Y-67250347D01*
X177428890Y-67252537D01*
X177335978Y-67294968D01*
X177317589Y-67303366D01*
X177225121Y-67383490D01*
X177158970Y-67486424D01*
X177124499Y-67603821D01*
X177124498Y-67677652D01*
X177124500Y-67677665D01*
X177124499Y-67776078D01*
X177123650Y-67786868D01*
X177119195Y-67814999D01*
X161793108Y-67814999D01*
X161795753Y-67800000D01*
X161774902Y-67681746D01*
X161714862Y-67577754D01*
X161622877Y-67500569D01*
X161622876Y-67500568D01*
X161510039Y-67459500D01*
X161389961Y-67459500D01*
X161333542Y-67480034D01*
X161277123Y-67500569D01*
X161185139Y-67577752D01*
X161159390Y-67622351D01*
X161125098Y-67681746D01*
X161104247Y-67800000D01*
X142250000Y-67800000D01*
X142250000Y-67050000D01*
X162354247Y-67050000D01*
X162375098Y-67168254D01*
X162435138Y-67272246D01*
X162527123Y-67349431D01*
X162639961Y-67390500D01*
X162760039Y-67390500D01*
X162872877Y-67349431D01*
X162964862Y-67272246D01*
X163024902Y-67168254D01*
X163045753Y-67050000D01*
X163024902Y-66931746D01*
X162964862Y-66827754D01*
X162872877Y-66750569D01*
X162872876Y-66750568D01*
X162760039Y-66709500D01*
X162639961Y-66709500D01*
X162583542Y-66730034D01*
X162527123Y-66750569D01*
X162435139Y-66827752D01*
X162375098Y-66931746D01*
X162356716Y-67036000D01*
X162354247Y-67050000D01*
X142250000Y-67050000D01*
X142250000Y-66300000D01*
X161104247Y-66300000D01*
X161125098Y-66418254D01*
X161185138Y-66522246D01*
X161277123Y-66599431D01*
X161389961Y-66640500D01*
X161510039Y-66640500D01*
X161622877Y-66599431D01*
X161714862Y-66522246D01*
X161774902Y-66418254D01*
X161795753Y-66300000D01*
X163804247Y-66300000D01*
X163825098Y-66418254D01*
X163885138Y-66522246D01*
X163977123Y-66599431D01*
X164089961Y-66640500D01*
X164210039Y-66640500D01*
X164322877Y-66599431D01*
X164414862Y-66522246D01*
X164474902Y-66418254D01*
X164495753Y-66300000D01*
X164474902Y-66181746D01*
X164414862Y-66077754D01*
X164322877Y-66000569D01*
X164322876Y-66000568D01*
X164210039Y-65959500D01*
X164089961Y-65959500D01*
X164033542Y-65980034D01*
X163977123Y-66000569D01*
X163885139Y-66077752D01*
X163885137Y-66077754D01*
X163885138Y-66077754D01*
X163825098Y-66181746D01*
X163804247Y-66300000D01*
X161795753Y-66300000D01*
X161774902Y-66181746D01*
X161714862Y-66077754D01*
X161622877Y-66000569D01*
X161622876Y-66000568D01*
X161510039Y-65959500D01*
X161389961Y-65959500D01*
X161333542Y-65980034D01*
X161277123Y-66000569D01*
X161185139Y-66077752D01*
X161185137Y-66077754D01*
X161185138Y-66077754D01*
X161125098Y-66181746D01*
X161104247Y-66300000D01*
X142250000Y-66300000D01*
X142250000Y-65550000D01*
X162354247Y-65550000D01*
X162375098Y-65668254D01*
X162435138Y-65772246D01*
X162527123Y-65849431D01*
X162639961Y-65890500D01*
X162760039Y-65890500D01*
X162872877Y-65849431D01*
X162964862Y-65772246D01*
X163024902Y-65668254D01*
X163045753Y-65550000D01*
X163024902Y-65431746D01*
X162964862Y-65327754D01*
X162872877Y-65250569D01*
X162872876Y-65250568D01*
X162760039Y-65209500D01*
X162639961Y-65209500D01*
X162583542Y-65230034D01*
X162527123Y-65250569D01*
X162435139Y-65327752D01*
X162435137Y-65327754D01*
X162435138Y-65327754D01*
X162375098Y-65431746D01*
X162354247Y-65550000D01*
X142250000Y-65550000D01*
X142250000Y-63774423D01*
X142247365Y-63751886D01*
X142246899Y-63743763D01*
X142246950Y-63713721D01*
X142247072Y-63640027D01*
X142248041Y-63628624D01*
X142250559Y-63613761D01*
X142281174Y-63433031D01*
X142284029Y-63421907D01*
X142349190Y-63234557D01*
X142353862Y-63224047D01*
X142367050Y-63200000D01*
X142449239Y-63050133D01*
X142455580Y-63040561D01*
X142578532Y-62884904D01*
X142586385Y-62876508D01*
X142733483Y-62743445D01*
X142742611Y-62736478D01*
X142909787Y-62629693D01*
X142919947Y-62624340D01*
X143102522Y-62546822D01*
X143113438Y-62543227D01*
X143306396Y-62497108D01*
X143317697Y-62495383D01*
X143396461Y-62489981D01*
X143406039Y-62489325D01*
X143410759Y-62489163D01*
X144798496Y-62489163D01*
X144800505Y-62489163D01*
X144973467Y-62468947D01*
X145137104Y-62409387D01*
X145282596Y-62313696D01*
X145282595Y-62313696D01*
X145286162Y-62311351D01*
X145324078Y-62300000D01*
X149031000Y-62300000D01*
X149079790Y-62320210D01*
X149100000Y-62369000D01*
X149100000Y-65250000D01*
X154900000Y-65250000D01*
X154900000Y-63200000D01*
X161654613Y-63200000D01*
X161674116Y-63410464D01*
X161731959Y-63613762D01*
X161781733Y-63713721D01*
X161826173Y-63802968D01*
X161953550Y-63971642D01*
X162109751Y-64114038D01*
X162289458Y-64225308D01*
X162486550Y-64301662D01*
X162625061Y-64327553D01*
X162694316Y-64340500D01*
X162694317Y-64340500D01*
X162905684Y-64340500D01*
X162957624Y-64330790D01*
X163113450Y-64301662D01*
X163310542Y-64225308D01*
X163490249Y-64114038D01*
X163646450Y-63971642D01*
X163773827Y-63802968D01*
X163868041Y-63613761D01*
X163925884Y-63410464D01*
X163945386Y-63200000D01*
X166904613Y-63200000D01*
X166924116Y-63410464D01*
X166981959Y-63613762D01*
X167031733Y-63713721D01*
X167076173Y-63802968D01*
X167203550Y-63971642D01*
X167359751Y-64114038D01*
X167539458Y-64225308D01*
X167736550Y-64301662D01*
X167875061Y-64327553D01*
X167944316Y-64340500D01*
X167944317Y-64340500D01*
X168155684Y-64340500D01*
X168207624Y-64330790D01*
X168363450Y-64301662D01*
X168560542Y-64225308D01*
X168740249Y-64114038D01*
X168896450Y-63971642D01*
X169023827Y-63802968D01*
X169118041Y-63613761D01*
X169175884Y-63410464D01*
X169195386Y-63200000D01*
X174804613Y-63200000D01*
X174824116Y-63410464D01*
X174881959Y-63613762D01*
X174931733Y-63713721D01*
X174976173Y-63802968D01*
X175103550Y-63971642D01*
X175259751Y-64114038D01*
X175439458Y-64225308D01*
X175636550Y-64301662D01*
X175775061Y-64327553D01*
X175844316Y-64340500D01*
X175844317Y-64340500D01*
X176055684Y-64340500D01*
X176107624Y-64330790D01*
X176263450Y-64301662D01*
X176460542Y-64225308D01*
X176640249Y-64114038D01*
X176796450Y-63971642D01*
X176923827Y-63802968D01*
X177018041Y-63613761D01*
X177075884Y-63410464D01*
X177095386Y-63200000D01*
X177075884Y-62989536D01*
X177018041Y-62786239D01*
X176923827Y-62597032D01*
X176796450Y-62428358D01*
X176640249Y-62285962D01*
X176640248Y-62285961D01*
X176460544Y-62174693D01*
X176460542Y-62174692D01*
X176263450Y-62098338D01*
X176263449Y-62098337D01*
X176263447Y-62098337D01*
X176055684Y-62059500D01*
X176055683Y-62059500D01*
X175844317Y-62059500D01*
X175844316Y-62059500D01*
X175636552Y-62098337D01*
X175439455Y-62174693D01*
X175259751Y-62285961D01*
X175103549Y-62428359D01*
X174976172Y-62597033D01*
X174881959Y-62786237D01*
X174824116Y-62989535D01*
X174804613Y-63200000D01*
X169195386Y-63200000D01*
X169175884Y-62989536D01*
X169118041Y-62786239D01*
X169023827Y-62597032D01*
X168896450Y-62428358D01*
X168740249Y-62285962D01*
X168740248Y-62285961D01*
X168560544Y-62174693D01*
X168560542Y-62174692D01*
X168363450Y-62098338D01*
X168363449Y-62098337D01*
X168363447Y-62098337D01*
X168155684Y-62059500D01*
X168155683Y-62059500D01*
X167944317Y-62059500D01*
X167944316Y-62059500D01*
X167736552Y-62098337D01*
X167539455Y-62174693D01*
X167359751Y-62285961D01*
X167203549Y-62428359D01*
X167076172Y-62597033D01*
X166981959Y-62786237D01*
X166924116Y-62989535D01*
X166904613Y-63200000D01*
X163945386Y-63200000D01*
X163925884Y-62989536D01*
X163868041Y-62786239D01*
X163773827Y-62597032D01*
X163646450Y-62428358D01*
X163490249Y-62285962D01*
X163490248Y-62285961D01*
X163310544Y-62174693D01*
X163310542Y-62174692D01*
X163113450Y-62098338D01*
X163113449Y-62098337D01*
X163113447Y-62098337D01*
X162905684Y-62059500D01*
X162905683Y-62059500D01*
X162694317Y-62059500D01*
X162694316Y-62059500D01*
X162486552Y-62098337D01*
X162289455Y-62174693D01*
X162109751Y-62285961D01*
X161953549Y-62428359D01*
X161826172Y-62597033D01*
X161731959Y-62786237D01*
X161674116Y-62989535D01*
X161654613Y-63200000D01*
X154900000Y-63200000D01*
X154900000Y-60169500D01*
X154920210Y-60120710D01*
X154969000Y-60100500D01*
X185830500Y-60100500D01*
X185879290Y-60120710D01*
X185899500Y-60169500D01*
X185899500Y-103830500D01*
X185879290Y-103879290D01*
X185830500Y-103899500D01*
X172469000Y-103899500D01*
X172420210Y-103879290D01*
X172400000Y-103830500D01*
X172400000Y-98850000D01*
X171969000Y-98850000D01*
X171920210Y-98829790D01*
X171900000Y-98781000D01*
X171900000Y-92969000D01*
X171920210Y-92920210D01*
X171969000Y-92900000D01*
X172150000Y-92900000D01*
X172150000Y-91498777D01*
X172170210Y-91449987D01*
X172219000Y-91429777D01*
X172263350Y-91445918D01*
X172327123Y-91499431D01*
X172439961Y-91540500D01*
X172560039Y-91540500D01*
X172672877Y-91499431D01*
X172764862Y-91422246D01*
X172824902Y-91318254D01*
X172845753Y-91200000D01*
X172824902Y-91081746D01*
X172764862Y-90977754D01*
X172672877Y-90900569D01*
X172672876Y-90900568D01*
X172560039Y-90859500D01*
X172439961Y-90859500D01*
X172393935Y-90876252D01*
X172327123Y-90900569D01*
X172263352Y-90954079D01*
X172212986Y-90969959D01*
X172166143Y-90945574D01*
X172150000Y-90901222D01*
X172150000Y-90900000D01*
X170400000Y-90900000D01*
X170400000Y-98781000D01*
X170379790Y-98829790D01*
X170331000Y-98850000D01*
X166400000Y-98850000D01*
X166400000Y-103830500D01*
X166379790Y-103879290D01*
X166331000Y-103899500D01*
X115269000Y-103899500D01*
X115220210Y-103879290D01*
X115200000Y-103830500D01*
X115200000Y-99700000D01*
X140904247Y-99700000D01*
X140925098Y-99818254D01*
X140985138Y-99922246D01*
X141077123Y-99999431D01*
X141189961Y-100040500D01*
X141310039Y-100040500D01*
X141422877Y-99999431D01*
X141514862Y-99922246D01*
X141565245Y-99834980D01*
X141607141Y-99802832D01*
X141659500Y-99809725D01*
X141684754Y-99834979D01*
X141735138Y-99922246D01*
X141827123Y-99999431D01*
X141939961Y-100040500D01*
X142060039Y-100040500D01*
X142172877Y-99999431D01*
X142264862Y-99922246D01*
X142324902Y-99818254D01*
X142345753Y-99700000D01*
X142324902Y-99581746D01*
X142264862Y-99477754D01*
X142172877Y-99400569D01*
X142172876Y-99400568D01*
X142143395Y-99389838D01*
X142104459Y-99354159D01*
X142102156Y-99301399D01*
X142137835Y-99262463D01*
X142143372Y-99260169D01*
X142172877Y-99249431D01*
X142264862Y-99172246D01*
X142324902Y-99068254D01*
X142345753Y-98950000D01*
X142324902Y-98831746D01*
X142264862Y-98727754D01*
X142172877Y-98650569D01*
X142172876Y-98650568D01*
X142143396Y-98639839D01*
X142104460Y-98604161D01*
X142102156Y-98551401D01*
X142137834Y-98512465D01*
X142143396Y-98510161D01*
X142172877Y-98499431D01*
X142264862Y-98422246D01*
X142324902Y-98318254D01*
X142332048Y-98277723D01*
X142360423Y-98233184D01*
X142411981Y-98221753D01*
X142456521Y-98250128D01*
X142467951Y-98277722D01*
X142475098Y-98318254D01*
X142535138Y-98422246D01*
X142627123Y-98499431D01*
X142739961Y-98540500D01*
X142860039Y-98540500D01*
X142972877Y-98499431D01*
X143064862Y-98422246D01*
X143115245Y-98334978D01*
X143157140Y-98302832D01*
X143209499Y-98309725D01*
X143234754Y-98334981D01*
X143285136Y-98422244D01*
X143285137Y-98422245D01*
X143285138Y-98422246D01*
X143377123Y-98499431D01*
X143489961Y-98540500D01*
X143610039Y-98540500D01*
X143722877Y-98499431D01*
X143814862Y-98422246D01*
X143874902Y-98318254D01*
X143895753Y-98200000D01*
X143874902Y-98081746D01*
X143814862Y-97977754D01*
X143722877Y-97900569D01*
X143722876Y-97900568D01*
X143610039Y-97859500D01*
X143489961Y-97859500D01*
X143433542Y-97880034D01*
X143377123Y-97900569D01*
X143285139Y-97977752D01*
X143234756Y-98065018D01*
X143192858Y-98097167D01*
X143140500Y-98090274D01*
X143115244Y-98065018D01*
X143064862Y-97977754D01*
X142972877Y-97900569D01*
X142972876Y-97900568D01*
X142860039Y-97859500D01*
X142739961Y-97859500D01*
X142683542Y-97880034D01*
X142627123Y-97900569D01*
X142535139Y-97977752D01*
X142475098Y-98081746D01*
X142467952Y-98122276D01*
X142439577Y-98166815D01*
X142388018Y-98178246D01*
X142343479Y-98149871D01*
X142332048Y-98122276D01*
X142324902Y-98081746D01*
X142264862Y-97977754D01*
X142172877Y-97900569D01*
X142172876Y-97900568D01*
X142060039Y-97859500D01*
X141939961Y-97859500D01*
X141883542Y-97880034D01*
X141827123Y-97900569D01*
X141735139Y-97977752D01*
X141684756Y-98065018D01*
X141642858Y-98097167D01*
X141590500Y-98090274D01*
X141565244Y-98065018D01*
X141514862Y-97977754D01*
X141422877Y-97900569D01*
X141422876Y-97900568D01*
X141310039Y-97859500D01*
X141189961Y-97859500D01*
X141133542Y-97880034D01*
X141077123Y-97900569D01*
X140985139Y-97977752D01*
X140985137Y-97977754D01*
X140985138Y-97977754D01*
X140925098Y-98081746D01*
X140904247Y-98200000D01*
X140925098Y-98318254D01*
X140985138Y-98422246D01*
X141077123Y-98499430D01*
X141077123Y-98499431D01*
X141106604Y-98510161D01*
X141145540Y-98545839D01*
X141147844Y-98598599D01*
X141112166Y-98637535D01*
X141106604Y-98639839D01*
X141077123Y-98650569D01*
X140985139Y-98727752D01*
X140985137Y-98727754D01*
X140985138Y-98727754D01*
X140925098Y-98831746D01*
X140904247Y-98950000D01*
X140925098Y-99068254D01*
X140985138Y-99172246D01*
X141077123Y-99249431D01*
X141106598Y-99260159D01*
X141106604Y-99260161D01*
X141145540Y-99295839D01*
X141147844Y-99348599D01*
X141112166Y-99387535D01*
X141106604Y-99389839D01*
X141077123Y-99400569D01*
X140985139Y-99477752D01*
X140985137Y-99477754D01*
X140985138Y-99477754D01*
X140925098Y-99581746D01*
X140904247Y-99700000D01*
X115200000Y-99700000D01*
X115200000Y-95950000D01*
X144904247Y-95950000D01*
X144925098Y-96068254D01*
X144985138Y-96172246D01*
X145077123Y-96249431D01*
X145189961Y-96290500D01*
X145310039Y-96290500D01*
X145422877Y-96249431D01*
X145514862Y-96172246D01*
X145574902Y-96068254D01*
X145595753Y-95950000D01*
X145574902Y-95831746D01*
X145514862Y-95727754D01*
X145422877Y-95650569D01*
X145422876Y-95650568D01*
X145310039Y-95609500D01*
X145189961Y-95609500D01*
X145133542Y-95630034D01*
X145077123Y-95650569D01*
X144985139Y-95727752D01*
X144985137Y-95727754D01*
X144985138Y-95727754D01*
X144925098Y-95831746D01*
X144904247Y-95950000D01*
X115200000Y-95950000D01*
X115200000Y-94400000D01*
X125554247Y-94400000D01*
X125575098Y-94518254D01*
X125635138Y-94622246D01*
X125727123Y-94699431D01*
X125839961Y-94740500D01*
X125960039Y-94740500D01*
X126072877Y-94699431D01*
X126164862Y-94622246D01*
X126224902Y-94518254D01*
X126245753Y-94400000D01*
X126244786Y-94394518D01*
X126256213Y-94342960D01*
X126263941Y-94333750D01*
X126293724Y-94303967D01*
X126342512Y-94283758D01*
X126391302Y-94303968D01*
X126411512Y-94352758D01*
X126410464Y-94364738D01*
X126407005Y-94384358D01*
X126404247Y-94400000D01*
X126425098Y-94518254D01*
X126485138Y-94622246D01*
X126577123Y-94699431D01*
X126689961Y-94740500D01*
X126810039Y-94740500D01*
X126922877Y-94699431D01*
X127014862Y-94622246D01*
X127074902Y-94518254D01*
X127082084Y-94477518D01*
X127110459Y-94432979D01*
X127150036Y-94420500D01*
X128676284Y-94420500D01*
X137710205Y-94420500D01*
X137732995Y-94424372D01*
X137733521Y-94424556D01*
X137765666Y-94420933D01*
X137773393Y-94420500D01*
X137781410Y-94420500D01*
X137781412Y-94420500D01*
X137789234Y-94418714D01*
X137796859Y-94417419D01*
X137829008Y-94413797D01*
X137829480Y-94413500D01*
X137850837Y-94404654D01*
X137851377Y-94404531D01*
X137876674Y-94384356D01*
X137882973Y-94379887D01*
X137889772Y-94375616D01*
X137895447Y-94369939D01*
X137901211Y-94364789D01*
X137901275Y-94364738D01*
X137926504Y-94344620D01*
X137926746Y-94344116D01*
X137940121Y-94325265D01*
X139915386Y-92350000D01*
X144904247Y-92350000D01*
X144925098Y-92468254D01*
X144985138Y-92572246D01*
X145077123Y-92649431D01*
X145189961Y-92690500D01*
X145310039Y-92690500D01*
X145422877Y-92649431D01*
X145514862Y-92572246D01*
X145574902Y-92468254D01*
X145595753Y-92350000D01*
X145574902Y-92231746D01*
X145514862Y-92127754D01*
X145422877Y-92050569D01*
X145422876Y-92050568D01*
X145310039Y-92009500D01*
X145189961Y-92009500D01*
X145133542Y-92030034D01*
X145077123Y-92050569D01*
X144985139Y-92127752D01*
X144984146Y-92129472D01*
X144925098Y-92231746D01*
X144904247Y-92350000D01*
X139915386Y-92350000D01*
X140025265Y-92240121D01*
X140044116Y-92226746D01*
X140044620Y-92226504D01*
X140064792Y-92201207D01*
X140069939Y-92195447D01*
X140075616Y-92189772D01*
X140079887Y-92182972D01*
X140084347Y-92176686D01*
X140104531Y-92151377D01*
X140104654Y-92150834D01*
X140113499Y-92129480D01*
X140113797Y-92129007D01*
X140117419Y-92096857D01*
X140118715Y-92089233D01*
X140120500Y-92081413D01*
X140120500Y-92073391D01*
X140120934Y-92065665D01*
X140122635Y-92050568D01*
X140124556Y-92033521D01*
X140124370Y-92032990D01*
X140120500Y-92010207D01*
X140120500Y-89823467D01*
X140140709Y-89774678D01*
X140634678Y-89280710D01*
X140683468Y-89260500D01*
X153889385Y-89260500D01*
X153938175Y-89280710D01*
X153957335Y-89317516D01*
X153975098Y-89418254D01*
X154035138Y-89522246D01*
X154127123Y-89599431D01*
X154239961Y-89640500D01*
X154360039Y-89640500D01*
X154472877Y-89599431D01*
X154564862Y-89522246D01*
X154624902Y-89418254D01*
X154642664Y-89317516D01*
X154671038Y-89272979D01*
X154710615Y-89260500D01*
X155226284Y-89260500D01*
X155276284Y-89260500D01*
X164426284Y-89260500D01*
X165376284Y-89260500D01*
X165575588Y-89260500D01*
X165624378Y-89280710D01*
X165644588Y-89329500D01*
X165635344Y-89363998D01*
X165625098Y-89381746D01*
X165604247Y-89500000D01*
X165625098Y-89618254D01*
X165685138Y-89722246D01*
X165777123Y-89799431D01*
X165889961Y-89840500D01*
X166010039Y-89840500D01*
X166122877Y-89799431D01*
X166214862Y-89722246D01*
X166274233Y-89619412D01*
X166316127Y-89587266D01*
X166368486Y-89594159D01*
X166400635Y-89636056D01*
X166402552Y-89661639D01*
X166402454Y-89662509D01*
X166401160Y-89670131D01*
X166399500Y-89677407D01*
X166399500Y-89684872D01*
X166399066Y-89692596D01*
X166395635Y-89723043D01*
X166399500Y-89745786D01*
X166399500Y-90291572D01*
X166379290Y-90340362D01*
X166374853Y-90344429D01*
X166335138Y-90377753D01*
X166275096Y-90481748D01*
X166273339Y-90491716D01*
X166244962Y-90536254D01*
X166193403Y-90547682D01*
X166161036Y-90532588D01*
X166122877Y-90500569D01*
X166122875Y-90500568D01*
X166010039Y-90459500D01*
X165889961Y-90459500D01*
X165866756Y-90467946D01*
X165777123Y-90500569D01*
X165685139Y-90577752D01*
X165625098Y-90681746D01*
X165604247Y-90800000D01*
X165625098Y-90918254D01*
X165675256Y-91005129D01*
X165684500Y-91039629D01*
X165684500Y-91280108D01*
X165664290Y-91328898D01*
X165319875Y-91673311D01*
X165319873Y-91673317D01*
X160983900Y-96009290D01*
X160935110Y-96029500D01*
X149837947Y-96029500D01*
X149824485Y-96028174D01*
X149804999Y-96024297D01*
X149706766Y-96043839D01*
X149701407Y-96044904D01*
X149613583Y-96103586D01*
X149602545Y-96120105D01*
X149593965Y-96130559D01*
X148685559Y-97038965D01*
X148675105Y-97047545D01*
X148658585Y-97058583D01*
X148608078Y-97134175D01*
X148599905Y-97146406D01*
X148579297Y-97249999D01*
X148583174Y-97269484D01*
X148584500Y-97282946D01*
X148584500Y-98260370D01*
X148575255Y-98294870D01*
X148525098Y-98381746D01*
X148504247Y-98500000D01*
X148525098Y-98618254D01*
X148585138Y-98722246D01*
X148677123Y-98799431D01*
X148789961Y-98840500D01*
X148910039Y-98840500D01*
X149022877Y-98799431D01*
X149114862Y-98722246D01*
X149174902Y-98618254D01*
X149195753Y-98500000D01*
X149174902Y-98381746D01*
X149124744Y-98294870D01*
X149115500Y-98260370D01*
X149115500Y-97388553D01*
X149135710Y-97339763D01*
X149894764Y-96580710D01*
X149943554Y-96560500D01*
X152839370Y-96560500D01*
X152888160Y-96580710D01*
X152908370Y-96629500D01*
X152888160Y-96678290D01*
X152240602Y-97325848D01*
X152221785Y-97339199D01*
X152202674Y-97363162D01*
X152197525Y-97368925D01*
X152192249Y-97374201D01*
X152188279Y-97380518D01*
X152183810Y-97386815D01*
X152164700Y-97410779D01*
X152155885Y-97432063D01*
X152152454Y-97462512D01*
X152151160Y-97470131D01*
X152149500Y-97477407D01*
X152149500Y-97484872D01*
X152149066Y-97492596D01*
X152145635Y-97523043D01*
X152149500Y-97545786D01*
X152149500Y-98191572D01*
X152129290Y-98240362D01*
X152124853Y-98244429D01*
X152085138Y-98277753D01*
X152061755Y-98318254D01*
X152025098Y-98381746D01*
X152004247Y-98500000D01*
X152025098Y-98618254D01*
X152085138Y-98722246D01*
X152177123Y-98799431D01*
X152289961Y-98840500D01*
X152410039Y-98840500D01*
X152522877Y-98799431D01*
X152614862Y-98722246D01*
X152674902Y-98618254D01*
X152695753Y-98500000D01*
X152674902Y-98381746D01*
X152614862Y-98277754D01*
X152614861Y-98277752D01*
X152575147Y-98244427D01*
X152550762Y-98197583D01*
X152550500Y-98191571D01*
X152550500Y-97611630D01*
X152570710Y-97562840D01*
X152570710Y-97562839D01*
X152577230Y-97556319D01*
X152607748Y-97525802D01*
X152607748Y-97525800D01*
X152613425Y-97520124D01*
X152613428Y-97520119D01*
X153312839Y-96820710D01*
X153361630Y-96800500D01*
X156135228Y-96800500D01*
X156184018Y-96820710D01*
X156204228Y-96869500D01*
X156184018Y-96918290D01*
X155734733Y-97367573D01*
X155715888Y-97380946D01*
X155715380Y-97381190D01*
X155695208Y-97406485D01*
X155690056Y-97412251D01*
X155684383Y-97417923D01*
X155680115Y-97424717D01*
X155675640Y-97431024D01*
X155655467Y-97456320D01*
X155655343Y-97456867D01*
X155646504Y-97478208D01*
X155646202Y-97478687D01*
X155642579Y-97510841D01*
X155641285Y-97518460D01*
X155639500Y-97526284D01*
X155639500Y-97534303D01*
X155639066Y-97542028D01*
X155635444Y-97574175D01*
X155635628Y-97574701D01*
X155639500Y-97597490D01*
X155639500Y-98199963D01*
X155619290Y-98248753D01*
X155614853Y-98252820D01*
X155585138Y-98277753D01*
X155561755Y-98318254D01*
X155525098Y-98381746D01*
X155504247Y-98500000D01*
X155525098Y-98618254D01*
X155585138Y-98722246D01*
X155677123Y-98799431D01*
X155789961Y-98840500D01*
X155910039Y-98840500D01*
X156022877Y-98799431D01*
X156114862Y-98722246D01*
X156174902Y-98618254D01*
X156195753Y-98500000D01*
X156174902Y-98381746D01*
X156114862Y-98277754D01*
X156114826Y-98277724D01*
X156085146Y-98252818D01*
X156060762Y-98205974D01*
X156060500Y-98199962D01*
X156060500Y-97665771D01*
X156080709Y-97616982D01*
X156616982Y-97080710D01*
X156665772Y-97060500D01*
X157126284Y-97060500D01*
X159475228Y-97060500D01*
X159524018Y-97080710D01*
X159544228Y-97129500D01*
X159524017Y-97178290D01*
X159295822Y-97406485D01*
X159234733Y-97467574D01*
X159215888Y-97480946D01*
X159215380Y-97481190D01*
X159195208Y-97506485D01*
X159190056Y-97512251D01*
X159184383Y-97517923D01*
X159180115Y-97524717D01*
X159175640Y-97531024D01*
X159155467Y-97556320D01*
X159155343Y-97556867D01*
X159146504Y-97578208D01*
X159146202Y-97578687D01*
X159142579Y-97610841D01*
X159141285Y-97618460D01*
X159139500Y-97626284D01*
X159139500Y-97634303D01*
X159139066Y-97642028D01*
X159135444Y-97674175D01*
X159135628Y-97674701D01*
X159139500Y-97697490D01*
X159139500Y-98199963D01*
X159119290Y-98248753D01*
X159114853Y-98252820D01*
X159085138Y-98277753D01*
X159061755Y-98318254D01*
X159025098Y-98381746D01*
X159004247Y-98500000D01*
X159025098Y-98618254D01*
X159085138Y-98722246D01*
X159177123Y-98799431D01*
X159289961Y-98840500D01*
X159410039Y-98840500D01*
X159522877Y-98799431D01*
X159614862Y-98722246D01*
X159674902Y-98618254D01*
X159695753Y-98500000D01*
X159674902Y-98381746D01*
X159614862Y-98277754D01*
X159614826Y-98277724D01*
X159585146Y-98252818D01*
X159560762Y-98205974D01*
X159560500Y-98199962D01*
X159560500Y-97765771D01*
X159580710Y-97716981D01*
X159956981Y-97340710D01*
X160005771Y-97320500D01*
X160776284Y-97320500D01*
X161363758Y-97320500D01*
X161386548Y-97324372D01*
X161387074Y-97324556D01*
X161419219Y-97320933D01*
X161426946Y-97320500D01*
X161434963Y-97320500D01*
X161434965Y-97320500D01*
X161442787Y-97318714D01*
X161450412Y-97317419D01*
X161482561Y-97313797D01*
X161483033Y-97313500D01*
X161504390Y-97304654D01*
X161504930Y-97304531D01*
X161530227Y-97284356D01*
X161536526Y-97279887D01*
X161543325Y-97275616D01*
X161549000Y-97269939D01*
X161554764Y-97264789D01*
X161580057Y-97244620D01*
X161580299Y-97244116D01*
X161593674Y-97225265D01*
X166676241Y-92142701D01*
X166708839Y-92110103D01*
X166708841Y-92110100D01*
X166798232Y-92020709D01*
X166847023Y-92000500D01*
X167026284Y-92000500D01*
X167262509Y-92000500D01*
X167285299Y-92004372D01*
X167285825Y-92004556D01*
X167317970Y-92000933D01*
X167325697Y-92000500D01*
X167333714Y-92000500D01*
X167333716Y-92000500D01*
X167341538Y-91998714D01*
X167349163Y-91997419D01*
X167381312Y-91993797D01*
X167381784Y-91993500D01*
X167403141Y-91984654D01*
X167403681Y-91984531D01*
X167428978Y-91964356D01*
X167435277Y-91959887D01*
X167442076Y-91955616D01*
X167447751Y-91949939D01*
X167453515Y-91944789D01*
X167478808Y-91924620D01*
X167479049Y-91924118D01*
X167492424Y-91905266D01*
X167636982Y-91760709D01*
X167685773Y-91740500D01*
X167760039Y-91740500D01*
X167872877Y-91699431D01*
X167964862Y-91622246D01*
X168024902Y-91518254D01*
X168045753Y-91400000D01*
X168024902Y-91281746D01*
X167964862Y-91177754D01*
X167872877Y-91100569D01*
X167872876Y-91100568D01*
X167760039Y-91059500D01*
X167639961Y-91059500D01*
X167583542Y-91080034D01*
X167527123Y-91100569D01*
X167444352Y-91170022D01*
X167393986Y-91185902D01*
X167355647Y-91170022D01*
X167272876Y-91100568D01*
X167160039Y-91059500D01*
X167039961Y-91059500D01*
X167002348Y-91073189D01*
X166927122Y-91100569D01*
X166913851Y-91111705D01*
X166863485Y-91127584D01*
X166816642Y-91103198D01*
X166800500Y-91058847D01*
X166800500Y-90908427D01*
X166820710Y-90859637D01*
X166825148Y-90855570D01*
X166850779Y-90834063D01*
X166864862Y-90822246D01*
X166924902Y-90718254D01*
X166945753Y-90600000D01*
X166924902Y-90481746D01*
X166864862Y-90377754D01*
X166864861Y-90377752D01*
X166825147Y-90344427D01*
X166800762Y-90297583D01*
X166800500Y-90291571D01*
X166800500Y-89811628D01*
X166820709Y-89762839D01*
X167009396Y-89574151D01*
X167028211Y-89560802D01*
X167028221Y-89560789D01*
X167028224Y-89560788D01*
X167047334Y-89536823D01*
X167052474Y-89531073D01*
X167057748Y-89525801D01*
X167061709Y-89519496D01*
X167066190Y-89513181D01*
X167076702Y-89500000D01*
X167085290Y-89489231D01*
X167085290Y-89489230D01*
X167085301Y-89489217D01*
X167094112Y-89467943D01*
X167094113Y-89467927D01*
X167094116Y-89467924D01*
X167097546Y-89437463D01*
X167098837Y-89429873D01*
X167100500Y-89422590D01*
X167100500Y-89415126D01*
X167100934Y-89407401D01*
X167103824Y-89381746D01*
X167104362Y-89376974D01*
X167104361Y-89376972D01*
X167104363Y-89376957D01*
X167100500Y-89354213D01*
X167100500Y-89100000D01*
X174184247Y-89100000D01*
X174205098Y-89218254D01*
X174265138Y-89322246D01*
X174357123Y-89399431D01*
X174469961Y-89440500D01*
X174590039Y-89440500D01*
X174702877Y-89399431D01*
X174794862Y-89322246D01*
X174854902Y-89218254D01*
X174869137Y-89137517D01*
X174897512Y-89092979D01*
X174937089Y-89080500D01*
X174950039Y-89080500D01*
X175062877Y-89039431D01*
X175154862Y-88962246D01*
X175214902Y-88858254D01*
X175235753Y-88740000D01*
X175214902Y-88621746D01*
X175154862Y-88517754D01*
X175062877Y-88440569D01*
X175062876Y-88440568D01*
X174950039Y-88399500D01*
X174829961Y-88399500D01*
X174773542Y-88420034D01*
X174717123Y-88440569D01*
X174625139Y-88517752D01*
X174591724Y-88575628D01*
X174565098Y-88621746D01*
X174550862Y-88702482D01*
X174522488Y-88747021D01*
X174482911Y-88759500D01*
X174469961Y-88759500D01*
X174413542Y-88780034D01*
X174357123Y-88800569D01*
X174265139Y-88877752D01*
X174216357Y-88962245D01*
X174205098Y-88981746D01*
X174184247Y-89100000D01*
X167100500Y-89100000D01*
X167100500Y-88200000D01*
X173604247Y-88200000D01*
X173625098Y-88318254D01*
X173685138Y-88422246D01*
X173777123Y-88499431D01*
X173889961Y-88540500D01*
X174010039Y-88540500D01*
X174122877Y-88499431D01*
X174214862Y-88422246D01*
X174274902Y-88318254D01*
X174295753Y-88200000D01*
X174292665Y-88182490D01*
X174304095Y-88130935D01*
X174311815Y-88121733D01*
X174482841Y-87950708D01*
X174531630Y-87930500D01*
X174926821Y-87930500D01*
X176897410Y-87930500D01*
X177127410Y-87930500D01*
X179428959Y-87930500D01*
X179477749Y-87950710D01*
X179684584Y-88157544D01*
X179704794Y-88206334D01*
X179704794Y-89659507D01*
X179700930Y-89682251D01*
X179704360Y-89712695D01*
X179704794Y-89720420D01*
X179704794Y-89727885D01*
X179706454Y-89735161D01*
X179707749Y-89742785D01*
X179711179Y-89773233D01*
X179719994Y-89794514D01*
X179739109Y-89818484D01*
X179743582Y-89824788D01*
X179747546Y-89831095D01*
X179752820Y-89836369D01*
X179757970Y-89842132D01*
X179777080Y-89866095D01*
X179795898Y-89879447D01*
X179988171Y-90071721D01*
X180008381Y-90120511D01*
X180007333Y-90132489D01*
X180004246Y-90149997D01*
X180004247Y-90150000D01*
X180025098Y-90268254D01*
X180085138Y-90372246D01*
X180177123Y-90449431D01*
X180251227Y-90476402D01*
X180290163Y-90512080D01*
X180292467Y-90564840D01*
X180276418Y-90590032D01*
X180240600Y-90625849D01*
X180221785Y-90639198D01*
X180202674Y-90663162D01*
X180197525Y-90668925D01*
X180192249Y-90674201D01*
X180188279Y-90680518D01*
X180183810Y-90686815D01*
X180164700Y-90710779D01*
X180155885Y-90732063D01*
X180152454Y-90762512D01*
X180151160Y-90770131D01*
X180149500Y-90777407D01*
X180149500Y-90784872D01*
X180149066Y-90792596D01*
X180145635Y-90823043D01*
X180149500Y-90845786D01*
X180149500Y-93341572D01*
X180129290Y-93390362D01*
X180124853Y-93394429D01*
X180085138Y-93427753D01*
X180025097Y-93531745D01*
X180025098Y-93531746D01*
X180004247Y-93650000D01*
X180025098Y-93768254D01*
X180085138Y-93872246D01*
X180177123Y-93949431D01*
X180289961Y-93990500D01*
X180410039Y-93990500D01*
X180522877Y-93949431D01*
X180614862Y-93872246D01*
X180674902Y-93768254D01*
X180695753Y-93650000D01*
X180674902Y-93531746D01*
X180614862Y-93427754D01*
X180614861Y-93427752D01*
X180575147Y-93394427D01*
X180550762Y-93347583D01*
X180550500Y-93341571D01*
X180550500Y-90911629D01*
X180570710Y-90862839D01*
X180711378Y-90722171D01*
X180859398Y-90574150D01*
X180878212Y-90560801D01*
X180878221Y-90560789D01*
X180878224Y-90560788D01*
X180897329Y-90536829D01*
X180902460Y-90531089D01*
X180907748Y-90525802D01*
X180911719Y-90519480D01*
X180916178Y-90513193D01*
X180935290Y-90489231D01*
X180935290Y-90489228D01*
X180935303Y-90489213D01*
X180944111Y-90467946D01*
X180944113Y-90467926D01*
X180944115Y-90467924D01*
X180947546Y-90437467D01*
X180948836Y-90429875D01*
X180950500Y-90422590D01*
X180950500Y-90415124D01*
X180950934Y-90407399D01*
X180954362Y-90376974D01*
X180954361Y-90376971D01*
X180954363Y-90376956D01*
X180950500Y-90354213D01*
X180950500Y-89945785D01*
X180954363Y-89923043D01*
X180954361Y-89923027D01*
X180954362Y-89923026D01*
X180950934Y-89892599D01*
X180950500Y-89884874D01*
X180950500Y-89877412D01*
X180949072Y-89871156D01*
X180948835Y-89870120D01*
X180947542Y-89862499D01*
X180944113Y-89832057D01*
X180935301Y-89810783D01*
X180934278Y-89809500D01*
X180916194Y-89786825D01*
X180911715Y-89780513D01*
X180907748Y-89774198D01*
X180902474Y-89768924D01*
X180897318Y-89763155D01*
X180897065Y-89762838D01*
X180878224Y-89739212D01*
X180878222Y-89739211D01*
X180878213Y-89739199D01*
X180859398Y-89725848D01*
X180366004Y-89232453D01*
X180345794Y-89183663D01*
X180345794Y-88041080D01*
X180349657Y-88018338D01*
X180349655Y-88018322D01*
X180349656Y-88018321D01*
X180346228Y-87987894D01*
X180345794Y-87980169D01*
X180345794Y-87972707D01*
X180345794Y-87972705D01*
X180344129Y-87965415D01*
X180342836Y-87957795D01*
X180342170Y-87951887D01*
X180339409Y-87927371D01*
X180339408Y-87927370D01*
X180339407Y-87927355D01*
X180330592Y-87906074D01*
X180311482Y-87882111D01*
X180307005Y-87875801D01*
X180303041Y-87869493D01*
X180297772Y-87864224D01*
X180292616Y-87858455D01*
X180273508Y-87834495D01*
X180254690Y-87821142D01*
X180193048Y-87759500D01*
X180001838Y-87568289D01*
X179981629Y-87519500D01*
X180001839Y-87470710D01*
X180050629Y-87450500D01*
X180241616Y-87450500D01*
X180264358Y-87454364D01*
X180294806Y-87450934D01*
X180302530Y-87450500D01*
X180309989Y-87450500D01*
X180309992Y-87450500D01*
X180317275Y-87448837D01*
X180324865Y-87447546D01*
X180355326Y-87444116D01*
X180355329Y-87444113D01*
X180355345Y-87444112D01*
X180376619Y-87435301D01*
X180400583Y-87416190D01*
X180406899Y-87411709D01*
X180413201Y-87407749D01*
X180413200Y-87407749D01*
X180413203Y-87407748D01*
X180418475Y-87402474D01*
X180424225Y-87397334D01*
X180448190Y-87378224D01*
X180448191Y-87378221D01*
X180448204Y-87378211D01*
X180461553Y-87359396D01*
X180839396Y-86981553D01*
X180858211Y-86968204D01*
X180858221Y-86968191D01*
X180858224Y-86968190D01*
X180877334Y-86944225D01*
X180882474Y-86938475D01*
X180887748Y-86933203D01*
X180891709Y-86926898D01*
X180896190Y-86920583D01*
X180905743Y-86908603D01*
X180915290Y-86896633D01*
X180915290Y-86896632D01*
X180915301Y-86896619D01*
X180924112Y-86875345D01*
X180924113Y-86875329D01*
X180924116Y-86875326D01*
X180927546Y-86844865D01*
X180928837Y-86837275D01*
X180930500Y-86829992D01*
X180930500Y-86822528D01*
X180930934Y-86814803D01*
X180934362Y-86784376D01*
X180934361Y-86784374D01*
X180934363Y-86784359D01*
X180930500Y-86761615D01*
X180930500Y-86525786D01*
X180934364Y-86503043D01*
X180930934Y-86472596D01*
X180930500Y-86464872D01*
X180930500Y-86457409D01*
X180928839Y-86450133D01*
X180927543Y-86442501D01*
X180925351Y-86423043D01*
X180924116Y-86412076D01*
X180924115Y-86412075D01*
X180924114Y-86412060D01*
X180915301Y-86390783D01*
X180913671Y-86388739D01*
X180896185Y-86366812D01*
X180891717Y-86360515D01*
X180887748Y-86354199D01*
X180887747Y-86354198D01*
X180887746Y-86354196D01*
X180882478Y-86348928D01*
X180877323Y-86343160D01*
X180862491Y-86324562D01*
X180858224Y-86319212D01*
X180858223Y-86319211D01*
X180858215Y-86319201D01*
X180839396Y-86305847D01*
X180570710Y-86037161D01*
X180550500Y-85988371D01*
X180550500Y-83458427D01*
X180570710Y-83409637D01*
X180575148Y-83405570D01*
X180581790Y-83399997D01*
X180614862Y-83372246D01*
X180674902Y-83268254D01*
X180695753Y-83150000D01*
X180674902Y-83031746D01*
X180614862Y-82927754D01*
X180522877Y-82850569D01*
X180522876Y-82850568D01*
X180410039Y-82809500D01*
X180289961Y-82809500D01*
X180247029Y-82825126D01*
X180177123Y-82850569D01*
X180085139Y-82927752D01*
X180063788Y-82964733D01*
X180025098Y-83031746D01*
X180004247Y-83150000D01*
X180025098Y-83268254D01*
X180082261Y-83367263D01*
X180085139Y-83372247D01*
X180124852Y-83405570D01*
X180149237Y-83452413D01*
X180149500Y-83458427D01*
X180149500Y-86054212D01*
X180145635Y-86076959D01*
X180149065Y-86107405D01*
X180149499Y-86115119D01*
X180149499Y-86122591D01*
X180151160Y-86129868D01*
X180152455Y-86137491D01*
X180155885Y-86167939D01*
X180164700Y-86189220D01*
X180183815Y-86213190D01*
X180188288Y-86219494D01*
X180190017Y-86222245D01*
X180192252Y-86225801D01*
X180197526Y-86231075D01*
X180202669Y-86236829D01*
X180207382Y-86242739D01*
X180222003Y-86293484D01*
X180196460Y-86339706D01*
X180177186Y-86350515D01*
X180085139Y-86427752D01*
X180063708Y-86464872D01*
X180025098Y-86531746D01*
X180004348Y-86649431D01*
X180004247Y-86650001D01*
X180007333Y-86667507D01*
X179995901Y-86719065D01*
X179988173Y-86728275D01*
X179927162Y-86789289D01*
X179878372Y-86809500D01*
X176998275Y-86809500D01*
X176949485Y-86789290D01*
X176929275Y-86740500D01*
X176936796Y-86709175D01*
X176987500Y-86609661D01*
X177004869Y-86500000D01*
X177002184Y-86483049D01*
X176987500Y-86390339D01*
X176937095Y-86291413D01*
X176937094Y-86291412D01*
X176937093Y-86291410D01*
X176858589Y-86212906D01*
X176828141Y-86197392D01*
X176759661Y-86162500D01*
X176759659Y-86162499D01*
X176759658Y-86162499D01*
X176650000Y-86145130D01*
X176540341Y-86162499D01*
X176540339Y-86162499D01*
X176540339Y-86162500D01*
X176536900Y-86164252D01*
X176441410Y-86212906D01*
X176362906Y-86291410D01*
X176312499Y-86390341D01*
X176295130Y-86500000D01*
X176312499Y-86609661D01*
X176363204Y-86709175D01*
X176367348Y-86761822D01*
X176333050Y-86801979D01*
X176301725Y-86809500D01*
X174721629Y-86809500D01*
X174672839Y-86789290D01*
X174311827Y-86428278D01*
X174291617Y-86379488D01*
X174292666Y-86367503D01*
X174295013Y-86354199D01*
X174295753Y-86350000D01*
X174274902Y-86231746D01*
X174214862Y-86127754D01*
X174122877Y-86050569D01*
X174122876Y-86050568D01*
X174010039Y-86009500D01*
X173889961Y-86009500D01*
X173833542Y-86030034D01*
X173777123Y-86050569D01*
X173685139Y-86127752D01*
X173625098Y-86231746D01*
X173609000Y-86323046D01*
X173604247Y-86350000D01*
X173625098Y-86468254D01*
X173625381Y-86468744D01*
X173685138Y-86572246D01*
X173714809Y-86597143D01*
X173739193Y-86643987D01*
X173723313Y-86694353D01*
X173714809Y-86702857D01*
X173685138Y-86727753D01*
X173649610Y-86789290D01*
X173625098Y-86831746D01*
X173604247Y-86950000D01*
X173625098Y-87068254D01*
X173685138Y-87172246D01*
X173739967Y-87218253D01*
X173744603Y-87222143D01*
X173768987Y-87268986D01*
X173753107Y-87319353D01*
X173744603Y-87327857D01*
X173717044Y-87350982D01*
X173685138Y-87377754D01*
X173625098Y-87481746D01*
X173604247Y-87600000D01*
X173625098Y-87718254D01*
X173672622Y-87800568D01*
X173685138Y-87822246D01*
X173714809Y-87847143D01*
X173739193Y-87893987D01*
X173723313Y-87944353D01*
X173714809Y-87952857D01*
X173685138Y-87977753D01*
X173629716Y-88073747D01*
X173625098Y-88081746D01*
X173604247Y-88200000D01*
X167100500Y-88200000D01*
X167100500Y-87645786D01*
X167104364Y-87623043D01*
X167100934Y-87592596D01*
X167100500Y-87584872D01*
X167100500Y-87577409D01*
X167098839Y-87570133D01*
X167097543Y-87562501D01*
X167094114Y-87532060D01*
X167085300Y-87510782D01*
X167066196Y-87486826D01*
X167061719Y-87480516D01*
X167057748Y-87474197D01*
X167052474Y-87468923D01*
X167047318Y-87463155D01*
X167028224Y-87439212D01*
X167028222Y-87439211D01*
X167028212Y-87439198D01*
X167009398Y-87425848D01*
X166574153Y-86990604D01*
X166560801Y-86971786D01*
X166536838Y-86952676D01*
X166531075Y-86947526D01*
X166525801Y-86942252D01*
X166519772Y-86938463D01*
X166519494Y-86938288D01*
X166513190Y-86933815D01*
X166489220Y-86914700D01*
X166467939Y-86905885D01*
X166437491Y-86902455D01*
X166429867Y-86901160D01*
X166422592Y-86899500D01*
X166422590Y-86899500D01*
X166415128Y-86899500D01*
X166407404Y-86899066D01*
X166361325Y-86893875D01*
X166361601Y-86891416D01*
X166332514Y-86889781D01*
X166318103Y-86880473D01*
X166222877Y-86800569D01*
X166110039Y-86759500D01*
X165989961Y-86759500D01*
X165951941Y-86773338D01*
X165877123Y-86800569D01*
X165785139Y-86877752D01*
X165730854Y-86971776D01*
X165725098Y-86981746D01*
X165704247Y-87100000D01*
X165725098Y-87218254D01*
X165785138Y-87322246D01*
X165877123Y-87399431D01*
X165989961Y-87440500D01*
X166110039Y-87440500D01*
X166222877Y-87399431D01*
X166279389Y-87352011D01*
X166329753Y-87336131D01*
X166372530Y-87356079D01*
X166679290Y-87662839D01*
X166699500Y-87711628D01*
X166699500Y-87879915D01*
X166679290Y-87928705D01*
X166630500Y-87948915D01*
X166606901Y-87944754D01*
X166510039Y-87909500D01*
X166389961Y-87909500D01*
X166273501Y-87951887D01*
X166220741Y-87949583D01*
X166190147Y-87921549D01*
X166164862Y-87877754D01*
X166141863Y-87858455D01*
X166072876Y-87800568D01*
X165960039Y-87759500D01*
X165839961Y-87759500D01*
X165783542Y-87780034D01*
X165727123Y-87800569D01*
X165635139Y-87877752D01*
X165605721Y-87928705D01*
X165575098Y-87981746D01*
X165554247Y-88100000D01*
X165575098Y-88218254D01*
X165635138Y-88322246D01*
X165727123Y-88399431D01*
X165827516Y-88435970D01*
X165866452Y-88471648D01*
X165868756Y-88524408D01*
X165852710Y-88549597D01*
X165843020Y-88559288D01*
X165794231Y-88579500D01*
X159730185Y-88579500D01*
X159681395Y-88559290D01*
X159661185Y-88510500D01*
X159670430Y-88475999D01*
X159672942Y-88471648D01*
X159674902Y-88468254D01*
X159695753Y-88350000D01*
X159674902Y-88231746D01*
X159614862Y-88127754D01*
X159575145Y-88094427D01*
X159550762Y-88047584D01*
X159550499Y-88041593D01*
X159550499Y-86445792D01*
X159554365Y-86423043D01*
X159550934Y-86392591D01*
X159550500Y-86384865D01*
X159550500Y-86377411D01*
X159549800Y-86374345D01*
X159548838Y-86370131D01*
X159547546Y-86362522D01*
X159544116Y-86332076D01*
X159544115Y-86332075D01*
X159544114Y-86332059D01*
X159535300Y-86310782D01*
X159516196Y-86286826D01*
X159511719Y-86280516D01*
X159507748Y-86274197D01*
X159502474Y-86268923D01*
X159497318Y-86263155D01*
X159478224Y-86239212D01*
X159478222Y-86239211D01*
X159478212Y-86239198D01*
X159459398Y-86225848D01*
X159233550Y-86000000D01*
X164054247Y-86000000D01*
X164075098Y-86118254D01*
X164135138Y-86222246D01*
X164227123Y-86299431D01*
X164339961Y-86340500D01*
X164460039Y-86340500D01*
X164572877Y-86299431D01*
X164664862Y-86222246D01*
X164724902Y-86118254D01*
X164745753Y-86000000D01*
X164724902Y-85881746D01*
X164664862Y-85777754D01*
X164572877Y-85700569D01*
X164572876Y-85700568D01*
X164460039Y-85659500D01*
X164339961Y-85659500D01*
X164283542Y-85680034D01*
X164227123Y-85700569D01*
X164135139Y-85777752D01*
X164135137Y-85777754D01*
X164135138Y-85777754D01*
X164075098Y-85881746D01*
X164054247Y-86000000D01*
X159233550Y-86000000D01*
X158674153Y-85440604D01*
X158660801Y-85421786D01*
X158636838Y-85402676D01*
X158631075Y-85397526D01*
X158625801Y-85392252D01*
X158625798Y-85392250D01*
X158619494Y-85388288D01*
X158613190Y-85383815D01*
X158589220Y-85364700D01*
X158567939Y-85355885D01*
X158537491Y-85352455D01*
X158529867Y-85351160D01*
X158522592Y-85349500D01*
X158522590Y-85349500D01*
X158515128Y-85349500D01*
X158507404Y-85349066D01*
X158476956Y-85345635D01*
X158454214Y-85349500D01*
X152652783Y-85349500D01*
X152603993Y-85329290D01*
X152602423Y-85325500D01*
X173641618Y-85325500D01*
X173662469Y-85443754D01*
X173722509Y-85547746D01*
X173814494Y-85624931D01*
X173927332Y-85666000D01*
X174047410Y-85666000D01*
X174160248Y-85624931D01*
X174252233Y-85547746D01*
X174312273Y-85443754D01*
X174333124Y-85325500D01*
X174312273Y-85207246D01*
X174252233Y-85103254D01*
X174175047Y-85038486D01*
X174160247Y-85026068D01*
X174047410Y-84985000D01*
X173927332Y-84985000D01*
X173886120Y-85000000D01*
X173814494Y-85026069D01*
X173722510Y-85103252D01*
X173722508Y-85103254D01*
X173722509Y-85103254D01*
X173662469Y-85207246D01*
X173641618Y-85325500D01*
X152602423Y-85325500D01*
X152583783Y-85280500D01*
X152603993Y-85231710D01*
X152608430Y-85227643D01*
X152614862Y-85222246D01*
X152674902Y-85118254D01*
X152695753Y-85000000D01*
X152674902Y-84881746D01*
X152665742Y-84865881D01*
X166250644Y-84865881D01*
X166271495Y-84984135D01*
X166331535Y-85088127D01*
X166423520Y-85165312D01*
X166536358Y-85206381D01*
X166656436Y-85206381D01*
X166769274Y-85165312D01*
X166861259Y-85088127D01*
X166921299Y-84984135D01*
X166942150Y-84865881D01*
X166921299Y-84747627D01*
X166861259Y-84643635D01*
X166769274Y-84566450D01*
X166769273Y-84566449D01*
X166656436Y-84525381D01*
X166536358Y-84525381D01*
X166479939Y-84545915D01*
X166423520Y-84566450D01*
X166331536Y-84643633D01*
X166271495Y-84747627D01*
X166254615Y-84843362D01*
X166250644Y-84865881D01*
X152665742Y-84865881D01*
X152614862Y-84777754D01*
X152522877Y-84700569D01*
X152522876Y-84700568D01*
X152410039Y-84659500D01*
X152289961Y-84659500D01*
X152255093Y-84672191D01*
X152177123Y-84700569D01*
X152078460Y-84783357D01*
X152034108Y-84799500D01*
X150811630Y-84799500D01*
X150762840Y-84779290D01*
X150254153Y-84270604D01*
X150240801Y-84251786D01*
X150216838Y-84232676D01*
X150211075Y-84227526D01*
X150205801Y-84222252D01*
X150205793Y-84222247D01*
X150199494Y-84218288D01*
X150193190Y-84213815D01*
X150169220Y-84194700D01*
X150147939Y-84185885D01*
X150117491Y-84182455D01*
X150109867Y-84181160D01*
X150102592Y-84179500D01*
X150102590Y-84179500D01*
X150095128Y-84179500D01*
X150087404Y-84179066D01*
X150056956Y-84175635D01*
X150034214Y-84179500D01*
X146196334Y-84179500D01*
X146147544Y-84159290D01*
X146127334Y-84110500D01*
X146128382Y-84098519D01*
X146138765Y-84039629D01*
X146145753Y-84000000D01*
X146124902Y-83881746D01*
X146075824Y-83796740D01*
X167555187Y-83796740D01*
X167576038Y-83914994D01*
X167636078Y-84018986D01*
X167728063Y-84096171D01*
X167840901Y-84137240D01*
X167960979Y-84137240D01*
X168073817Y-84096171D01*
X168165802Y-84018986D01*
X168225842Y-83914994D01*
X168246693Y-83796740D01*
X168225842Y-83678486D01*
X168165802Y-83574494D01*
X168084555Y-83506319D01*
X168073816Y-83497308D01*
X167960979Y-83456240D01*
X167840901Y-83456240D01*
X167784482Y-83476774D01*
X167728063Y-83497309D01*
X167636079Y-83574492D01*
X167576038Y-83678486D01*
X167561250Y-83762357D01*
X167555187Y-83796740D01*
X146075824Y-83796740D01*
X146064862Y-83777754D01*
X146064860Y-83777752D01*
X146035146Y-83752818D01*
X146010762Y-83705974D01*
X146010500Y-83699962D01*
X146010500Y-83647489D01*
X146014373Y-83624698D01*
X146014556Y-83624174D01*
X146010934Y-83592032D01*
X146010500Y-83584305D01*
X146010500Y-83576284D01*
X146009496Y-83571885D01*
X146008712Y-83568452D01*
X146007418Y-83560838D01*
X146003796Y-83528688D01*
X146003796Y-83528687D01*
X146003502Y-83528219D01*
X145994654Y-83506857D01*
X145994531Y-83506318D01*
X145983528Y-83492521D01*
X145968908Y-83441775D01*
X145994453Y-83395554D01*
X146037474Y-83380500D01*
X146119445Y-83380500D01*
X146142235Y-83384372D01*
X146142761Y-83384556D01*
X146174906Y-83380933D01*
X146182633Y-83380500D01*
X146190650Y-83380500D01*
X146190652Y-83380500D01*
X146198474Y-83378714D01*
X146206099Y-83377419D01*
X146238248Y-83373797D01*
X146238720Y-83373500D01*
X146260077Y-83364654D01*
X146260617Y-83364531D01*
X146285914Y-83344356D01*
X146292213Y-83339887D01*
X146299012Y-83335616D01*
X146304687Y-83329939D01*
X146310451Y-83324789D01*
X146335744Y-83304620D01*
X146335986Y-83304116D01*
X146349361Y-83285265D01*
X146584626Y-83050000D01*
X168854247Y-83050000D01*
X168875098Y-83168254D01*
X168935138Y-83272246D01*
X169027123Y-83349431D01*
X169139961Y-83390500D01*
X169260039Y-83390500D01*
X169372877Y-83349431D01*
X169464862Y-83272246D01*
X169524902Y-83168254D01*
X169545753Y-83050000D01*
X174304247Y-83050000D01*
X174325098Y-83168254D01*
X174385138Y-83272246D01*
X174477123Y-83349431D01*
X174589961Y-83390500D01*
X174594674Y-83390500D01*
X174643464Y-83410710D01*
X174662625Y-83447516D01*
X174675098Y-83518254D01*
X174735138Y-83622246D01*
X174827123Y-83699431D01*
X174939961Y-83740500D01*
X175060039Y-83740500D01*
X175172877Y-83699431D01*
X175264862Y-83622246D01*
X175324902Y-83518254D01*
X175345753Y-83400000D01*
X175324902Y-83281746D01*
X175264862Y-83177754D01*
X175172877Y-83100569D01*
X175172876Y-83100568D01*
X175060039Y-83059500D01*
X175055326Y-83059500D01*
X175006536Y-83039290D01*
X174987374Y-83002482D01*
X174974902Y-82931746D01*
X174914862Y-82827754D01*
X174822877Y-82750569D01*
X174822876Y-82750568D01*
X174710039Y-82709500D01*
X174589961Y-82709500D01*
X174533542Y-82730034D01*
X174477123Y-82750569D01*
X174385139Y-82827752D01*
X174325098Y-82931746D01*
X174307466Y-83031746D01*
X174304247Y-83050000D01*
X169545753Y-83050000D01*
X169524902Y-82931746D01*
X169464862Y-82827754D01*
X169372877Y-82750569D01*
X169372876Y-82750568D01*
X169260039Y-82709500D01*
X169139961Y-82709500D01*
X169083542Y-82730034D01*
X169027123Y-82750569D01*
X168935139Y-82827752D01*
X168875098Y-82931746D01*
X168857466Y-83031746D01*
X168854247Y-83050000D01*
X146584626Y-83050000D01*
X146825266Y-82809360D01*
X146844117Y-82795985D01*
X146844621Y-82795743D01*
X146864793Y-82770446D01*
X146869940Y-82764686D01*
X146875617Y-82759011D01*
X146879888Y-82752212D01*
X146884359Y-82745911D01*
X146904531Y-82720617D01*
X146904530Y-82720617D01*
X146904532Y-82720616D01*
X146904655Y-82720076D01*
X146913501Y-82698719D01*
X146913798Y-82698247D01*
X146917420Y-82666099D01*
X146918717Y-82658464D01*
X146920501Y-82650650D01*
X146920500Y-82642639D01*
X146920934Y-82634902D01*
X146924557Y-82602760D01*
X146924556Y-82602757D01*
X146924373Y-82602232D01*
X146920500Y-82579441D01*
X146920500Y-81000000D01*
X164954247Y-81000000D01*
X164975098Y-81118254D01*
X165035138Y-81222246D01*
X165127123Y-81299431D01*
X165239961Y-81340500D01*
X165360039Y-81340500D01*
X165472877Y-81299431D01*
X165564862Y-81222246D01*
X165624902Y-81118254D01*
X165645753Y-81000000D01*
X165624902Y-80881746D01*
X165583189Y-80809498D01*
X165576297Y-80757142D01*
X165583188Y-80740503D01*
X165624902Y-80668254D01*
X165645753Y-80550000D01*
X165624902Y-80431746D01*
X165564862Y-80327754D01*
X165485612Y-80261255D01*
X165472876Y-80250568D01*
X165360039Y-80209500D01*
X165239961Y-80209500D01*
X165216775Y-80217939D01*
X165127123Y-80250569D01*
X165035139Y-80327752D01*
X165018123Y-80357224D01*
X164975098Y-80431746D01*
X164954247Y-80550000D01*
X164975098Y-80668254D01*
X165016809Y-80740499D01*
X165023702Y-80792858D01*
X165016809Y-80809498D01*
X164975098Y-80881744D01*
X164961832Y-80956982D01*
X164954247Y-81000000D01*
X146920500Y-81000000D01*
X146920500Y-78905771D01*
X146940710Y-78856981D01*
X147166982Y-78630710D01*
X147215772Y-78610500D01*
X153152509Y-78610500D01*
X153175299Y-78614372D01*
X153175825Y-78614556D01*
X153207970Y-78610933D01*
X153215697Y-78610500D01*
X153223714Y-78610500D01*
X153223716Y-78610500D01*
X153231538Y-78608714D01*
X153239163Y-78607419D01*
X153271312Y-78603797D01*
X153271784Y-78603500D01*
X153293141Y-78594654D01*
X153293681Y-78594531D01*
X153318978Y-78574356D01*
X153325277Y-78569887D01*
X153332076Y-78565616D01*
X153337751Y-78559939D01*
X153343515Y-78554789D01*
X153368808Y-78534620D01*
X153369050Y-78534116D01*
X153382425Y-78515265D01*
X154136981Y-77760710D01*
X154185772Y-77740500D01*
X154260039Y-77740500D01*
X154371314Y-77700000D01*
X170604247Y-77700000D01*
X170625098Y-77818254D01*
X170685138Y-77922246D01*
X170777123Y-77999431D01*
X170889961Y-78040500D01*
X171010039Y-78040500D01*
X171122877Y-77999431D01*
X171214862Y-77922246D01*
X171274902Y-77818254D01*
X171295753Y-77700000D01*
X171274902Y-77581746D01*
X171233189Y-77509498D01*
X171226297Y-77457142D01*
X171233188Y-77440503D01*
X171274902Y-77368254D01*
X171295753Y-77250000D01*
X171274902Y-77131746D01*
X171233189Y-77059498D01*
X171226297Y-77007142D01*
X171233188Y-76990503D01*
X171274902Y-76918254D01*
X171295753Y-76800000D01*
X171274902Y-76681746D01*
X171214862Y-76577754D01*
X171122877Y-76500569D01*
X171122876Y-76500568D01*
X171010039Y-76459500D01*
X170889961Y-76459500D01*
X170833542Y-76480034D01*
X170777123Y-76500569D01*
X170685139Y-76577752D01*
X170685137Y-76577754D01*
X170685138Y-76577754D01*
X170625098Y-76681746D01*
X170604247Y-76800000D01*
X170625098Y-76918254D01*
X170650249Y-76961818D01*
X170666809Y-76990500D01*
X170673702Y-77042859D01*
X170666809Y-77059500D01*
X170625098Y-77131746D01*
X170604247Y-77250000D01*
X170625098Y-77368254D01*
X170646593Y-77405484D01*
X170666809Y-77440499D01*
X170673702Y-77492858D01*
X170666809Y-77509498D01*
X170625098Y-77581744D01*
X170625097Y-77581746D01*
X170625098Y-77581746D01*
X170604247Y-77700000D01*
X154371314Y-77700000D01*
X154372877Y-77699431D01*
X154464862Y-77622246D01*
X154524902Y-77518254D01*
X154545753Y-77400000D01*
X154524902Y-77281746D01*
X154464862Y-77177754D01*
X154372877Y-77100569D01*
X154372876Y-77100568D01*
X154260039Y-77059500D01*
X154139961Y-77059500D01*
X154083542Y-77080034D01*
X154027123Y-77100569D01*
X153935139Y-77177752D01*
X153875098Y-77281746D01*
X153854247Y-77400001D01*
X153855214Y-77405484D01*
X153843783Y-77457042D01*
X153836052Y-77466254D01*
X153133018Y-78169290D01*
X153084228Y-78189500D01*
X147147490Y-78189500D01*
X147124700Y-78185628D01*
X147124173Y-78185443D01*
X147093789Y-78188867D01*
X147092030Y-78189066D01*
X147084305Y-78189500D01*
X147076284Y-78189500D01*
X147071958Y-78190487D01*
X147068456Y-78191286D01*
X147060839Y-78192580D01*
X147028687Y-78196204D01*
X147028212Y-78196503D01*
X147006864Y-78205344D01*
X147006320Y-78205468D01*
X146981024Y-78225640D01*
X146974719Y-78230114D01*
X146967923Y-78234384D01*
X146962250Y-78240057D01*
X146956486Y-78245207D01*
X146931190Y-78265380D01*
X146930946Y-78265888D01*
X146917573Y-78284733D01*
X146594733Y-78607573D01*
X146575888Y-78620946D01*
X146575380Y-78621190D01*
X146555208Y-78646485D01*
X146550056Y-78652251D01*
X146544383Y-78657923D01*
X146540115Y-78664717D01*
X146535640Y-78671024D01*
X146515467Y-78696320D01*
X146515343Y-78696867D01*
X146506504Y-78718208D01*
X146506202Y-78718687D01*
X146502579Y-78750841D01*
X146501285Y-78758460D01*
X146499500Y-78766284D01*
X146499500Y-78774303D01*
X146499066Y-78782028D01*
X146495444Y-78814175D01*
X146495628Y-78814701D01*
X146499500Y-78837490D01*
X146499500Y-78985227D01*
X146479290Y-79034017D01*
X146430500Y-79054227D01*
X146381710Y-79034017D01*
X146163947Y-78816255D01*
X146143737Y-78767465D01*
X146144784Y-78755489D01*
X146145753Y-78750000D01*
X146124902Y-78631746D01*
X146064862Y-78527754D01*
X145972877Y-78450569D01*
X145972876Y-78450568D01*
X145860039Y-78409500D01*
X145739961Y-78409500D01*
X145683542Y-78430034D01*
X145627123Y-78450569D01*
X145535139Y-78527752D01*
X145475098Y-78631746D01*
X145454248Y-78749997D01*
X145454247Y-78750000D01*
X145475098Y-78868254D01*
X145535138Y-78972246D01*
X145627123Y-79049431D01*
X145739961Y-79090500D01*
X145814228Y-79090500D01*
X145863018Y-79110710D01*
X146219290Y-79466982D01*
X146239500Y-79515772D01*
X146239500Y-80322724D01*
X146219290Y-80371514D01*
X146170500Y-80391724D01*
X146121710Y-80371514D01*
X146110744Y-80357224D01*
X146109971Y-80355885D01*
X146064862Y-80277754D01*
X145987675Y-80212986D01*
X145972876Y-80200568D01*
X145860039Y-80159500D01*
X145739961Y-80159500D01*
X145703994Y-80172591D01*
X145627123Y-80200569D01*
X145535139Y-80277752D01*
X145506270Y-80327754D01*
X145475098Y-80381746D01*
X145454247Y-80500000D01*
X145475098Y-80618254D01*
X145535138Y-80722246D01*
X145627123Y-80799431D01*
X145739961Y-80840500D01*
X145814228Y-80840500D01*
X145863018Y-80860710D01*
X145959290Y-80956982D01*
X145979500Y-81005772D01*
X145979500Y-81854437D01*
X145959290Y-81903227D01*
X145910500Y-81923437D01*
X145886902Y-81919276D01*
X145860040Y-81909500D01*
X145860039Y-81909500D01*
X145739961Y-81909500D01*
X145707508Y-81921312D01*
X145627123Y-81950569D01*
X145535139Y-82027752D01*
X145469015Y-82142283D01*
X145465433Y-82140215D01*
X145448358Y-82167020D01*
X145408780Y-82179500D01*
X142255771Y-82179500D01*
X142206981Y-82159290D01*
X141839305Y-81791613D01*
X141819095Y-81742823D01*
X141839305Y-81694033D01*
X141843730Y-81689977D01*
X141864862Y-81672246D01*
X141924902Y-81568254D01*
X141945753Y-81450000D01*
X141924902Y-81331746D01*
X141864862Y-81227754D01*
X141772877Y-81150569D01*
X141772876Y-81150568D01*
X141660039Y-81109500D01*
X141539961Y-81109500D01*
X141483542Y-81130034D01*
X141427123Y-81150569D01*
X141335139Y-81227752D01*
X141335137Y-81227754D01*
X141335138Y-81227754D01*
X141275098Y-81331746D01*
X141254247Y-81450000D01*
X141275098Y-81568254D01*
X141335138Y-81672246D01*
X141335139Y-81672247D01*
X141364852Y-81697179D01*
X141389237Y-81744022D01*
X141389500Y-81750036D01*
X141389500Y-81802510D01*
X141385629Y-81825297D01*
X141385444Y-81825825D01*
X141389066Y-81857970D01*
X141389500Y-81865695D01*
X141389500Y-81873716D01*
X141391285Y-81881541D01*
X141392579Y-81889161D01*
X141396202Y-81921311D01*
X141396500Y-81921785D01*
X141405343Y-81943133D01*
X141405467Y-81943679D01*
X141425639Y-81968975D01*
X141430113Y-81975281D01*
X141434380Y-81982072D01*
X141434383Y-81982075D01*
X141434384Y-81982076D01*
X141440054Y-81987746D01*
X141445204Y-81993509D01*
X141465378Y-82018807D01*
X141465379Y-82018807D01*
X141465380Y-82018808D01*
X141465880Y-82019048D01*
X141484734Y-82032426D01*
X141644018Y-82191710D01*
X141664228Y-82240500D01*
X141644018Y-82289290D01*
X141595228Y-82309500D01*
X141539961Y-82309500D01*
X141517635Y-82317626D01*
X141427123Y-82350569D01*
X141335139Y-82427752D01*
X141275098Y-82531746D01*
X141262577Y-82602760D01*
X141254247Y-82650000D01*
X141273381Y-82758519D01*
X141261951Y-82810077D01*
X141217412Y-82838452D01*
X141205430Y-82839500D01*
X140401164Y-82839500D01*
X140352374Y-82819290D01*
X139850710Y-82317626D01*
X139830500Y-82268836D01*
X139830500Y-80423468D01*
X139850707Y-80374679D01*
X139865267Y-80360120D01*
X139884119Y-80346745D01*
X139884620Y-80346504D01*
X139904792Y-80321207D01*
X139909939Y-80315447D01*
X139915616Y-80309772D01*
X139919887Y-80302973D01*
X139924358Y-80296672D01*
X139934754Y-80283637D01*
X139944531Y-80271377D01*
X139944654Y-80270837D01*
X139953500Y-80249480D01*
X139953797Y-80249008D01*
X139957419Y-80216858D01*
X139958714Y-80209234D01*
X139960500Y-80201412D01*
X139960500Y-80193391D01*
X139960934Y-80185666D01*
X139962407Y-80172590D01*
X139964556Y-80153521D01*
X139964370Y-80152991D01*
X139960500Y-80130206D01*
X139960500Y-79529793D01*
X139964373Y-79507002D01*
X139964556Y-79506478D01*
X139962383Y-79487192D01*
X139960933Y-79474334D01*
X139960500Y-79466609D01*
X139960500Y-79458588D01*
X139958712Y-79450756D01*
X139957418Y-79443142D01*
X139953796Y-79410992D01*
X139953796Y-79410991D01*
X139953502Y-79410523D01*
X139944654Y-79389161D01*
X139944531Y-79388623D01*
X139938219Y-79380708D01*
X139924355Y-79363324D01*
X139919882Y-79357018D01*
X139915617Y-79350229D01*
X139915616Y-79350228D01*
X139909939Y-79344551D01*
X139904789Y-79338788D01*
X139884620Y-79313496D01*
X139884113Y-79313252D01*
X139865264Y-79299876D01*
X139600121Y-79034733D01*
X139586743Y-79015878D01*
X139586502Y-79015377D01*
X139561204Y-78995203D01*
X139555441Y-78990053D01*
X139549771Y-78984383D01*
X139549770Y-78984382D01*
X139549767Y-78984379D01*
X139542976Y-78980112D01*
X139536670Y-78975638D01*
X139511374Y-78955466D01*
X139510828Y-78955342D01*
X139489480Y-78946499D01*
X139489006Y-78946201D01*
X139456856Y-78942578D01*
X139449236Y-78941284D01*
X139441412Y-78939499D01*
X139441411Y-78939499D01*
X139433392Y-78939499D01*
X139425665Y-78939065D01*
X139393520Y-78935442D01*
X139392994Y-78935627D01*
X139370204Y-78939499D01*
X137397491Y-78939499D01*
X137374701Y-78935627D01*
X137374174Y-78935442D01*
X137343790Y-78938866D01*
X137342031Y-78939065D01*
X137334306Y-78939499D01*
X137326285Y-78939499D01*
X137321075Y-78940687D01*
X137318457Y-78941285D01*
X137310840Y-78942579D01*
X137278688Y-78946203D01*
X137278213Y-78946502D01*
X137256865Y-78955343D01*
X137256321Y-78955467D01*
X137231025Y-78975639D01*
X137224720Y-78980113D01*
X137217924Y-78984383D01*
X137212251Y-78990056D01*
X137206487Y-78995206D01*
X137181191Y-79015379D01*
X137180947Y-79015887D01*
X137167574Y-79034732D01*
X136763018Y-79439290D01*
X136714228Y-79459500D01*
X136639961Y-79459500D01*
X136604296Y-79472481D01*
X136527123Y-79500569D01*
X136435139Y-79577752D01*
X136398791Y-79640709D01*
X136375098Y-79681746D01*
X136354247Y-79800000D01*
X136375098Y-79918254D01*
X136435138Y-80022246D01*
X136527123Y-80099431D01*
X136639961Y-80140500D01*
X136760039Y-80140500D01*
X136872877Y-80099431D01*
X136964862Y-80022246D01*
X137024902Y-79918254D01*
X137045753Y-79800000D01*
X137044786Y-79794518D01*
X137056213Y-79742960D01*
X137063936Y-79733754D01*
X137416984Y-79380707D01*
X137465773Y-79360499D01*
X137720644Y-79360499D01*
X137769434Y-79380709D01*
X137789644Y-79429499D01*
X137769434Y-79478289D01*
X137744243Y-79494338D01*
X137727123Y-79500569D01*
X137635139Y-79577752D01*
X137598791Y-79640709D01*
X137575098Y-79681746D01*
X137554247Y-79800000D01*
X137575098Y-79918254D01*
X137635138Y-80022246D01*
X137727123Y-80099431D01*
X137839961Y-80140500D01*
X137960039Y-80140500D01*
X138072877Y-80099431D01*
X138164862Y-80022246D01*
X138224902Y-79918254D01*
X138245753Y-79800000D01*
X138245752Y-79799998D01*
X138245753Y-79799997D01*
X138244787Y-79794517D01*
X138256216Y-79742959D01*
X138263948Y-79733743D01*
X138308192Y-79689500D01*
X138356982Y-79640709D01*
X138405773Y-79620500D01*
X138703666Y-79620500D01*
X138752456Y-79640710D01*
X138772666Y-79689500D01*
X138771618Y-79701481D01*
X138754247Y-79799999D01*
X138754247Y-79800000D01*
X138775098Y-79918254D01*
X138835138Y-80022246D01*
X138855700Y-80039500D01*
X138864852Y-80047179D01*
X138889236Y-80094023D01*
X138889499Y-80100036D01*
X138889499Y-80789369D01*
X138869289Y-80838159D01*
X138820499Y-80858369D01*
X138771709Y-80838159D01*
X138374153Y-80440604D01*
X138360801Y-80421786D01*
X138336838Y-80402676D01*
X138331075Y-80397526D01*
X138325801Y-80392252D01*
X138324961Y-80391724D01*
X138319494Y-80388288D01*
X138313190Y-80383815D01*
X138289220Y-80364700D01*
X138267939Y-80355885D01*
X138237491Y-80352455D01*
X138229867Y-80351160D01*
X138222592Y-80349500D01*
X138222590Y-80349500D01*
X138215128Y-80349500D01*
X138207404Y-80349066D01*
X138176956Y-80345635D01*
X138154214Y-80349500D01*
X131211630Y-80349500D01*
X131162840Y-80329290D01*
X131061378Y-80227828D01*
X130958801Y-80125252D01*
X130938592Y-80076463D01*
X130958802Y-80027673D01*
X130963235Y-80023610D01*
X130964862Y-80022246D01*
X131024902Y-79918254D01*
X131045753Y-79800000D01*
X131024902Y-79681746D01*
X130964862Y-79577754D01*
X130872877Y-79500569D01*
X130872876Y-79500568D01*
X130760039Y-79459500D01*
X130639961Y-79459500D01*
X130604296Y-79472481D01*
X130527123Y-79500569D01*
X130435139Y-79577752D01*
X130398791Y-79640709D01*
X130375098Y-79681746D01*
X130354247Y-79800000D01*
X130375098Y-79918254D01*
X130435138Y-80022246D01*
X130473713Y-80054614D01*
X130498097Y-80101456D01*
X130495288Y-80123875D01*
X130499066Y-80157401D01*
X130499500Y-80165126D01*
X130499500Y-80172591D01*
X130501160Y-80179867D01*
X130502455Y-80187491D01*
X130505885Y-80217939D01*
X130514700Y-80239220D01*
X130533815Y-80263190D01*
X130538288Y-80269494D01*
X130542250Y-80275798D01*
X130542252Y-80275801D01*
X130547526Y-80281075D01*
X130552676Y-80286838D01*
X130571786Y-80310801D01*
X130590601Y-80324150D01*
X130738161Y-80471710D01*
X130758370Y-80520500D01*
X130738160Y-80569291D01*
X130689370Y-80589500D01*
X130151630Y-80589500D01*
X130102840Y-80569290D01*
X129720710Y-80187160D01*
X129700500Y-80138370D01*
X129700500Y-80108427D01*
X129720710Y-80059637D01*
X129725148Y-80055570D01*
X129744613Y-80039237D01*
X129764862Y-80022246D01*
X129824902Y-79918254D01*
X129845753Y-79800000D01*
X129824902Y-79681746D01*
X129764862Y-79577754D01*
X129672877Y-79500569D01*
X129672876Y-79500568D01*
X129560039Y-79459500D01*
X129439961Y-79459500D01*
X129404296Y-79472481D01*
X129327123Y-79500569D01*
X129235139Y-79577752D01*
X129198791Y-79640709D01*
X129175098Y-79681746D01*
X129154247Y-79800000D01*
X129175098Y-79918254D01*
X129235138Y-80022246D01*
X129235139Y-80022247D01*
X129274852Y-80055570D01*
X129299237Y-80102413D01*
X129299500Y-80108427D01*
X129299500Y-80204213D01*
X129295636Y-80226957D01*
X129299066Y-80257401D01*
X129299500Y-80265126D01*
X129299500Y-80272591D01*
X129301160Y-80279867D01*
X129302455Y-80287491D01*
X129305885Y-80317939D01*
X129314700Y-80339220D01*
X129333815Y-80363190D01*
X129338288Y-80369494D01*
X129341547Y-80374679D01*
X129342252Y-80375801D01*
X129347526Y-80381075D01*
X129352676Y-80386838D01*
X129371786Y-80410801D01*
X129390604Y-80424153D01*
X129865848Y-80899398D01*
X129879199Y-80918213D01*
X129879211Y-80918222D01*
X129879212Y-80918224D01*
X129903155Y-80937318D01*
X129908924Y-80942474D01*
X129914198Y-80947748D01*
X129920517Y-80951718D01*
X129926829Y-80956197D01*
X129950783Y-80975301D01*
X129972057Y-80984113D01*
X129980456Y-80985059D01*
X130002505Y-80987543D01*
X130010120Y-80988835D01*
X130017410Y-80990500D01*
X130024875Y-80990500D01*
X130032600Y-80990934D01*
X130063044Y-80994364D01*
X130085786Y-80990500D01*
X137988959Y-80990500D01*
X138037749Y-81010710D01*
X138389290Y-81362251D01*
X138409500Y-81411041D01*
X138409500Y-82764213D01*
X138405636Y-82786957D01*
X138409066Y-82817401D01*
X138409500Y-82825126D01*
X138409500Y-82832591D01*
X138411160Y-82839867D01*
X138412455Y-82847491D01*
X138415885Y-82877939D01*
X138424700Y-82899220D01*
X138443815Y-82923190D01*
X138448288Y-82929494D01*
X138452250Y-82935798D01*
X138452252Y-82935801D01*
X138457526Y-82941075D01*
X138462676Y-82946838D01*
X138481786Y-82970801D01*
X138500604Y-82984153D01*
X140485846Y-84969395D01*
X140499198Y-84988213D01*
X140523155Y-85007318D01*
X140528917Y-85012467D01*
X140534199Y-85017749D01*
X140534201Y-85017751D01*
X140540516Y-85021719D01*
X140546826Y-85026196D01*
X140570782Y-85045300D01*
X140592060Y-85054114D01*
X140592075Y-85054115D01*
X140592076Y-85054116D01*
X140622502Y-85057543D01*
X140630133Y-85058839D01*
X140637410Y-85060500D01*
X140644872Y-85060500D01*
X140652596Y-85060934D01*
X140683043Y-85064364D01*
X140705786Y-85060500D01*
X149769547Y-85060500D01*
X149818337Y-85080710D01*
X149862722Y-85125095D01*
X149882932Y-85173885D01*
X149862722Y-85222675D01*
X149813932Y-85242885D01*
X149790333Y-85238724D01*
X149710039Y-85209500D01*
X149589961Y-85209500D01*
X149553763Y-85222675D01*
X149477123Y-85250569D01*
X149385139Y-85327752D01*
X149325098Y-85431746D01*
X149304645Y-85547745D01*
X149304247Y-85550000D01*
X149325098Y-85668254D01*
X149385138Y-85772246D01*
X149477123Y-85849431D01*
X149589961Y-85890500D01*
X149710039Y-85890500D01*
X149822877Y-85849431D01*
X149914862Y-85772246D01*
X149974902Y-85668254D01*
X149995753Y-85550000D01*
X149974902Y-85431746D01*
X149971300Y-85425508D01*
X149964408Y-85373152D01*
X149996557Y-85331254D01*
X150048915Y-85324361D01*
X150079847Y-85342220D01*
X150637023Y-85899396D01*
X150650376Y-85918214D01*
X150674333Y-85937319D01*
X150680102Y-85942475D01*
X150685375Y-85947748D01*
X150691694Y-85951718D01*
X150698006Y-85956197D01*
X150721960Y-85975301D01*
X150743234Y-85984113D01*
X150751633Y-85985059D01*
X150773682Y-85987543D01*
X150781297Y-85988835D01*
X150788587Y-85990500D01*
X150796052Y-85990500D01*
X150803777Y-85990934D01*
X150834221Y-85994364D01*
X150856963Y-85990500D01*
X155228371Y-85990500D01*
X155277160Y-86010710D01*
X155629290Y-86362839D01*
X155649500Y-86411628D01*
X155649500Y-88041572D01*
X155629290Y-88090362D01*
X155624853Y-88094429D01*
X155585138Y-88127753D01*
X155525098Y-88231746D01*
X155504247Y-88350000D01*
X155525098Y-88468254D01*
X155529570Y-88475999D01*
X155536464Y-88528358D01*
X155504316Y-88570255D01*
X155469815Y-88579500D01*
X148850036Y-88579500D01*
X148801246Y-88559290D01*
X148782084Y-88522481D01*
X148774902Y-88481746D01*
X148714862Y-88377754D01*
X148622877Y-88300569D01*
X148622876Y-88300568D01*
X148510039Y-88259500D01*
X148389961Y-88259500D01*
X148333542Y-88280034D01*
X148277123Y-88300569D01*
X148185139Y-88377752D01*
X148185137Y-88377754D01*
X148185138Y-88377754D01*
X148125098Y-88481746D01*
X148118750Y-88517752D01*
X148117916Y-88522481D01*
X148089541Y-88567021D01*
X148049964Y-88579500D01*
X140507491Y-88579500D01*
X140484701Y-88575628D01*
X140484174Y-88575443D01*
X140452030Y-88579066D01*
X140444303Y-88579500D01*
X140436284Y-88579500D01*
X140428460Y-88581285D01*
X140420841Y-88582579D01*
X140388687Y-88586202D01*
X140388208Y-88586504D01*
X140366867Y-88595343D01*
X140366320Y-88595467D01*
X140341024Y-88615640D01*
X140334717Y-88620115D01*
X140327923Y-88624383D01*
X140322251Y-88630056D01*
X140316485Y-88635208D01*
X140291190Y-88655380D01*
X140290946Y-88655888D01*
X140277573Y-88674733D01*
X139534733Y-89417573D01*
X139515888Y-89430946D01*
X139515380Y-89431190D01*
X139495208Y-89456485D01*
X139490056Y-89462251D01*
X139484383Y-89467923D01*
X139480115Y-89474717D01*
X139475640Y-89481024D01*
X139455467Y-89506320D01*
X139455343Y-89506867D01*
X139446504Y-89528208D01*
X139446202Y-89528687D01*
X139442579Y-89560841D01*
X139441285Y-89568460D01*
X139439500Y-89576284D01*
X139439500Y-89584303D01*
X139439066Y-89592028D01*
X139435444Y-89624175D01*
X139435628Y-89624701D01*
X139439500Y-89647490D01*
X139439500Y-91834227D01*
X139419290Y-91883017D01*
X137583018Y-93719290D01*
X137534228Y-93739500D01*
X126397490Y-93739500D01*
X126374700Y-93735628D01*
X126374173Y-93735443D01*
X126342029Y-93739066D01*
X126334302Y-93739500D01*
X126326284Y-93739500D01*
X126318460Y-93741285D01*
X126310841Y-93742579D01*
X126278687Y-93746202D01*
X126278208Y-93746504D01*
X126256867Y-93755343D01*
X126256320Y-93755467D01*
X126231024Y-93775640D01*
X126224717Y-93780115D01*
X126217923Y-93784383D01*
X126212251Y-93790056D01*
X126206485Y-93795208D01*
X126181190Y-93815380D01*
X126180946Y-93815888D01*
X126167573Y-93834733D01*
X125963017Y-94039290D01*
X125914228Y-94059500D01*
X125839961Y-94059500D01*
X125783542Y-94080034D01*
X125727123Y-94100569D01*
X125635139Y-94177752D01*
X125575098Y-94281746D01*
X125557431Y-94381945D01*
X125554247Y-94400000D01*
X115200000Y-94400000D01*
X115200000Y-90700000D01*
X115200000Y-89884874D01*
X115199999Y-89065851D01*
X115220209Y-89017062D01*
X115268940Y-88996852D01*
X118162738Y-88994500D01*
X118487435Y-88976265D01*
X118808049Y-88921791D01*
X119120547Y-88831762D01*
X119421001Y-88707310D01*
X119705631Y-88550000D01*
X119970858Y-88361811D01*
X120213348Y-88145110D01*
X120430049Y-87902620D01*
X120618238Y-87637393D01*
X120775548Y-87352763D01*
X120900000Y-87052309D01*
X120990029Y-86739811D01*
X121044503Y-86419197D01*
X121062738Y-86094500D01*
X121051655Y-85981980D01*
X121051324Y-85975218D01*
X121051324Y-85924366D01*
X121051656Y-85917603D01*
X121058691Y-85846175D01*
X121058691Y-85755975D01*
X121059739Y-85743993D01*
X121074638Y-85659500D01*
X121091066Y-85566328D01*
X121094179Y-85554712D01*
X121095894Y-85550000D01*
X121155883Y-85385180D01*
X121160955Y-85374303D01*
X121251171Y-85218045D01*
X121258055Y-85208214D01*
X121374027Y-85070003D01*
X121382519Y-85061511D01*
X121520730Y-84945539D01*
X121530561Y-84938655D01*
X121686819Y-84848439D01*
X121697696Y-84843367D01*
X121867229Y-84781662D01*
X121878845Y-84778550D01*
X121883360Y-84777754D01*
X122034816Y-84751048D01*
X122046799Y-84750000D01*
X124748201Y-84750000D01*
X124750000Y-84750000D01*
X124937121Y-84730333D01*
X125116063Y-84672191D01*
X125279007Y-84578115D01*
X125418830Y-84452218D01*
X125529423Y-84300000D01*
X125605951Y-84128115D01*
X125645070Y-83944076D01*
X125645070Y-83755924D01*
X125605951Y-83571885D01*
X125529423Y-83400000D01*
X125418830Y-83247782D01*
X125310231Y-83149999D01*
X125279008Y-83121885D01*
X125116061Y-83027808D01*
X124937120Y-82969666D01*
X124751789Y-82950188D01*
X124751788Y-82950187D01*
X124750000Y-82950000D01*
X124748201Y-82950000D01*
X122200919Y-82950000D01*
X122194157Y-82949668D01*
X122186231Y-82948887D01*
X122158691Y-82946175D01*
X122158689Y-82946175D01*
X122158688Y-82946175D01*
X122092523Y-82949891D01*
X122088654Y-82950000D01*
X122000000Y-82950000D01*
X121998213Y-82950187D01*
X121998209Y-82950188D01*
X121897720Y-82960749D01*
X121894378Y-82961018D01*
X121835925Y-82964301D01*
X121835915Y-82964302D01*
X121833994Y-82964410D01*
X121832100Y-82964731D01*
X121832089Y-82964733D01*
X121515294Y-83018558D01*
X121515280Y-83018561D01*
X121513380Y-83018884D01*
X121511527Y-83019417D01*
X121511513Y-83019421D01*
X121202741Y-83108377D01*
X121202734Y-83108379D01*
X121200882Y-83108913D01*
X121199102Y-83109649D01*
X121199097Y-83109652D01*
X120902208Y-83232627D01*
X120902197Y-83232632D01*
X120900428Y-83233365D01*
X120898745Y-83234295D01*
X120898737Y-83234299D01*
X120617497Y-83389735D01*
X120617483Y-83389743D01*
X120615798Y-83390675D01*
X120614222Y-83391793D01*
X120614216Y-83391797D01*
X120352145Y-83577746D01*
X120352131Y-83577756D01*
X120350571Y-83578864D01*
X120349146Y-83580137D01*
X120349129Y-83580151D01*
X120109519Y-83794279D01*
X120109510Y-83794287D01*
X120108081Y-83795565D01*
X120106803Y-83796994D01*
X120106795Y-83797003D01*
X119892667Y-84036613D01*
X119892653Y-84036630D01*
X119891380Y-84038055D01*
X119890272Y-84039615D01*
X119890262Y-84039629D01*
X119705518Y-84300002D01*
X119703191Y-84303282D01*
X119702259Y-84304967D01*
X119702251Y-84304981D01*
X119546815Y-84586221D01*
X119546811Y-84586229D01*
X119545881Y-84587912D01*
X119545148Y-84589681D01*
X119545143Y-84589692D01*
X119424171Y-84881746D01*
X119421429Y-84888366D01*
X119420895Y-84890218D01*
X119420893Y-84890225D01*
X119331937Y-85198997D01*
X119331933Y-85199011D01*
X119331400Y-85200864D01*
X119331077Y-85202764D01*
X119331074Y-85202778D01*
X119277249Y-85519573D01*
X119277247Y-85519584D01*
X119276926Y-85521478D01*
X119276818Y-85523397D01*
X119276817Y-85523408D01*
X119269865Y-85647188D01*
X119269596Y-85650530D01*
X119256225Y-85777754D01*
X119251324Y-85824390D01*
X119251324Y-86074390D01*
X119251511Y-86076177D01*
X119251512Y-86076180D01*
X119262234Y-86178198D01*
X119261564Y-86197392D01*
X119230362Y-86374345D01*
X119227249Y-86385962D01*
X119165550Y-86555482D01*
X119160467Y-86566383D01*
X119070264Y-86722618D01*
X119063365Y-86732470D01*
X118947407Y-86870664D01*
X118938902Y-86879169D01*
X118800708Y-86995127D01*
X118790856Y-87002026D01*
X118634621Y-87092229D01*
X118623720Y-87097312D01*
X118454200Y-87159011D01*
X118442583Y-87162124D01*
X118264919Y-87193452D01*
X118252937Y-87194500D01*
X118162738Y-87194500D01*
X115269055Y-87196852D01*
X115220248Y-87176682D01*
X115199999Y-87127908D01*
X115199999Y-87127852D01*
X115200000Y-85868290D01*
X115200000Y-84550000D01*
X115200000Y-80250000D01*
X125454247Y-80250000D01*
X125475098Y-80368254D01*
X125535138Y-80472246D01*
X125627123Y-80549431D01*
X125739961Y-80590500D01*
X125860039Y-80590500D01*
X125972877Y-80549431D01*
X126059622Y-80476642D01*
X126103974Y-80460500D01*
X127902509Y-80460500D01*
X127925299Y-80464372D01*
X127925825Y-80464556D01*
X127957970Y-80460933D01*
X127965697Y-80460500D01*
X127973714Y-80460500D01*
X127973716Y-80460500D01*
X127981538Y-80458714D01*
X127989163Y-80457419D01*
X128021312Y-80453797D01*
X128021784Y-80453500D01*
X128043141Y-80444654D01*
X128043681Y-80444531D01*
X128068978Y-80424356D01*
X128075277Y-80419887D01*
X128082076Y-80415616D01*
X128087751Y-80409939D01*
X128093515Y-80404789D01*
X128099192Y-80400262D01*
X128118808Y-80384620D01*
X128119050Y-80384116D01*
X128132425Y-80365265D01*
X130265265Y-78232425D01*
X130284116Y-78219050D01*
X130284620Y-78218808D01*
X130304792Y-78193511D01*
X130309939Y-78187751D01*
X130315616Y-78182076D01*
X130319887Y-78175277D01*
X130324358Y-78168976D01*
X130344530Y-78143682D01*
X130344529Y-78143682D01*
X130344531Y-78143681D01*
X130344654Y-78143141D01*
X130353500Y-78121784D01*
X130353797Y-78121312D01*
X130357419Y-78089162D01*
X130358714Y-78081538D01*
X130360500Y-78073716D01*
X130360500Y-78065695D01*
X130360934Y-78057970D01*
X130362902Y-78040500D01*
X130364556Y-78025825D01*
X130364370Y-78025295D01*
X130360500Y-78002510D01*
X130360500Y-76350036D01*
X130380710Y-76301246D01*
X130385148Y-76297179D01*
X130387815Y-76294940D01*
X130414862Y-76272246D01*
X130474902Y-76168254D01*
X130495753Y-76050000D01*
X130474902Y-75931746D01*
X130414862Y-75827754D01*
X130322877Y-75750569D01*
X130322876Y-75750568D01*
X130210039Y-75709500D01*
X130089961Y-75709500D01*
X130054804Y-75722296D01*
X129977123Y-75750569D01*
X129885139Y-75827752D01*
X129825098Y-75931746D01*
X129805056Y-76045414D01*
X129804247Y-76050000D01*
X129825098Y-76168254D01*
X129854758Y-76219626D01*
X129885139Y-76272247D01*
X129914852Y-76297179D01*
X129939237Y-76344022D01*
X129939500Y-76350036D01*
X129939500Y-77934227D01*
X129919290Y-77983017D01*
X129678290Y-78224017D01*
X129629500Y-78244227D01*
X129580710Y-78224017D01*
X129560500Y-78175227D01*
X129560500Y-77200036D01*
X129580710Y-77151246D01*
X129585148Y-77147179D01*
X129603540Y-77131746D01*
X129614862Y-77122246D01*
X129674902Y-77018254D01*
X129695753Y-76900000D01*
X129674902Y-76781746D01*
X129614862Y-76677754D01*
X129522877Y-76600569D01*
X129522876Y-76600568D01*
X129410039Y-76559500D01*
X129289961Y-76559500D01*
X129239814Y-76577752D01*
X129177123Y-76600569D01*
X129085139Y-76677752D01*
X129085137Y-76677754D01*
X129085138Y-76677754D01*
X129025098Y-76781746D01*
X129004247Y-76900000D01*
X129025098Y-77018254D01*
X129072623Y-77100569D01*
X129085139Y-77122247D01*
X129114852Y-77147179D01*
X129139237Y-77194022D01*
X129139500Y-77200036D01*
X129139499Y-78184228D01*
X129119289Y-78233018D01*
X127883018Y-79469290D01*
X127834228Y-79489500D01*
X126853974Y-79489500D01*
X126809622Y-79473357D01*
X126722877Y-79400569D01*
X126722875Y-79400568D01*
X126610039Y-79359500D01*
X126489961Y-79359500D01*
X126465253Y-79368493D01*
X126377123Y-79400569D01*
X126285139Y-79477752D01*
X126265583Y-79511624D01*
X126225098Y-79581746D01*
X126204247Y-79700000D01*
X126225098Y-79818254D01*
X126285138Y-79922246D01*
X126291222Y-79932783D01*
X126288385Y-79934420D01*
X126304037Y-79964485D01*
X126288158Y-80014851D01*
X126241315Y-80039237D01*
X126235300Y-80039500D01*
X126103974Y-80039500D01*
X126059622Y-80023357D01*
X125972877Y-79950569D01*
X125972875Y-79950568D01*
X125860039Y-79909500D01*
X125739961Y-79909500D01*
X125683542Y-79930034D01*
X125627123Y-79950569D01*
X125535139Y-80027752D01*
X125507016Y-80076463D01*
X125475098Y-80131746D01*
X125454247Y-80250000D01*
X115200000Y-80250000D01*
X115200000Y-60169499D01*
X115220210Y-60120710D01*
X115269000Y-60100500D01*
X149031000Y-60100500D01*
X149079790Y-60120710D01*
G37*
G04 #@! TD.AperFunction*
M02*
