G04 #@! TF.GenerationSoftware,KiCad,Pcbnew,7.0.7*
G04 #@! TF.CreationDate,2024-08-26T03:28:25+03:00*
G04 #@! TF.ProjectId,telemetry_box_01,74656c65-6d65-4747-9279-5f626f785f30,rev?*
G04 #@! TF.SameCoordinates,Original*
G04 #@! TF.FileFunction,Copper,L2,Inr*
G04 #@! TF.FilePolarity,Positive*
%FSLAX46Y46*%
G04 Gerber Fmt 4.6, Leading zero omitted, Abs format (unit mm)*
G04 Created by KiCad (PCBNEW 7.0.7) date 2024-08-26 03:28:25*
%MOMM*%
%LPD*%
G01*
G04 APERTURE LIST*
G04 #@! TA.AperFunction,ComponentPad*
%ADD10O,1.600000X0.800000*%
G04 #@! TD*
G04 #@! TA.AperFunction,ComponentPad*
%ADD11C,2.000000*%
G04 #@! TD*
G04 #@! TA.AperFunction,ViaPad*
%ADD12C,0.400000*%
G04 #@! TD*
G04 #@! TA.AperFunction,ViaPad*
%ADD13C,0.420000*%
G04 #@! TD*
G04 #@! TA.AperFunction,Conductor*
%ADD14C,0.200000*%
G04 #@! TD*
G04 #@! TA.AperFunction,Conductor*
%ADD15C,0.650000*%
G04 #@! TD*
G04 #@! TA.AperFunction,Conductor*
%ADD16C,0.140000*%
G04 #@! TD*
G04 #@! TA.AperFunction,Conductor*
%ADD17C,1.200000*%
G04 #@! TD*
G04 #@! TA.AperFunction,Conductor*
%ADD18C,0.250000*%
G04 #@! TD*
G04 #@! TA.AperFunction,Conductor*
%ADD19C,0.160000*%
G04 #@! TD*
G04 #@! TA.AperFunction,Conductor*
%ADD20C,0.400000*%
G04 #@! TD*
G04 #@! TA.AperFunction,Conductor*
%ADD21C,0.600000*%
G04 #@! TD*
G04 APERTURE END LIST*
D10*
X165550000Y-75905000D03*
X165550000Y-66925000D03*
X159600000Y-67285000D03*
X159600000Y-75545000D03*
D11*
X148850000Y-63200000D03*
X143600000Y-63200000D03*
X156750000Y-63200000D03*
X162000000Y-63200000D03*
D12*
X142450000Y-75950000D03*
X122750000Y-70650000D03*
X122750000Y-74150000D03*
X130700000Y-79950000D03*
X129500000Y-79950000D03*
D13*
X146950000Y-98050000D03*
X146950000Y-97150000D03*
X146950000Y-102550000D03*
X146950000Y-103450000D03*
X146950000Y-101650000D03*
X146950000Y-98950000D03*
X146950000Y-100750000D03*
X146950000Y-99850000D03*
X162700000Y-96750000D03*
X163600000Y-96750000D03*
X166300000Y-96750000D03*
X164500000Y-96750000D03*
X165400000Y-96750000D03*
X158200000Y-96750000D03*
X159100000Y-96750000D03*
X161800000Y-96750000D03*
X160000000Y-96750000D03*
X160900000Y-96750000D03*
X157300000Y-96750000D03*
X155500000Y-96750000D03*
X156400000Y-96750000D03*
X154600000Y-96750000D03*
X152800000Y-96750000D03*
X153700000Y-96750000D03*
X151900000Y-96750000D03*
X151000000Y-96750000D03*
X150100000Y-96750000D03*
X149200000Y-96750000D03*
X147700000Y-96750000D03*
X115450000Y-82950000D03*
X146900000Y-70050000D03*
X117700000Y-89250000D03*
X150400000Y-92900000D03*
X121900000Y-88850000D03*
X165750000Y-90650000D03*
X125900000Y-83850000D03*
X140850000Y-64350000D03*
X129000000Y-91650000D03*
X125800000Y-99900000D03*
X144350000Y-75700000D03*
X150100000Y-85400000D03*
X153900000Y-69450000D03*
X135450000Y-74850000D03*
X142350000Y-79300000D03*
X153300000Y-77950000D03*
X133800000Y-66000000D03*
X115450000Y-60950000D03*
X161750000Y-60650000D03*
X130300000Y-61650000D03*
X115450000Y-95250000D03*
X118000000Y-97350000D03*
X145200000Y-84050000D03*
X157250000Y-88250000D03*
X129600000Y-88700000D03*
X131250000Y-64150000D03*
X145700000Y-99050000D03*
X163750000Y-60650000D03*
X115450000Y-66950000D03*
X150100000Y-86400000D03*
X146900000Y-67050000D03*
X130700000Y-85100000D03*
X153350000Y-68200000D03*
X165750000Y-82650000D03*
X115450000Y-97250000D03*
X135450000Y-68850000D03*
X135600000Y-101350000D03*
X139200000Y-102850000D03*
X141200000Y-102850000D03*
X125600000Y-83100000D03*
X140500000Y-86500000D03*
X115450000Y-62950000D03*
X131650000Y-92200000D03*
X135600000Y-99850000D03*
X141500000Y-79800000D03*
X159300000Y-77950000D03*
X119050000Y-85850000D03*
X142500000Y-78300000D03*
X135600000Y-99050000D03*
X138300000Y-67400000D03*
X118550000Y-75900000D03*
X116700000Y-89250000D03*
X149100000Y-85400000D03*
X153750000Y-60650000D03*
X118200000Y-64050000D03*
X122050000Y-99650000D03*
X151100000Y-85400000D03*
X134250000Y-71000000D03*
X140750000Y-79450000D03*
X165750000Y-84650000D03*
X119800000Y-88750000D03*
X145200000Y-86550000D03*
X154200000Y-92900000D03*
X140850000Y-66350000D03*
X159100000Y-85900000D03*
X156150000Y-93900000D03*
X118750000Y-86750000D03*
X115450000Y-93250000D03*
X118100000Y-102950000D03*
X154850000Y-81500000D03*
X117900000Y-94600000D03*
X152950000Y-95600000D03*
X165750000Y-68650000D03*
X123350000Y-98650000D03*
X152950000Y-94850000D03*
X130250000Y-66550000D03*
X148500000Y-80850000D03*
X140500000Y-77250000D03*
X133650000Y-84900000D03*
X145200000Y-102850000D03*
X165750000Y-94650000D03*
X115450000Y-80950000D03*
X145700000Y-100550000D03*
X120400000Y-63400000D03*
X152800000Y-69450000D03*
X147750000Y-60650000D03*
X123300000Y-82700000D03*
X149450000Y-81500000D03*
X165750000Y-74650000D03*
X146100000Y-83250000D03*
X127600000Y-64600000D03*
X115450000Y-68950000D03*
X135100000Y-88850000D03*
X143750000Y-60650000D03*
X158050000Y-90400000D03*
X130800000Y-71500000D03*
X133000000Y-88050000D03*
X127900000Y-90550000D03*
X115450000Y-70950000D03*
X116800000Y-67900000D03*
X152950000Y-93350000D03*
X118550000Y-61450000D03*
X130750000Y-82500000D03*
X146900000Y-68550000D03*
X144500000Y-80450000D03*
X150100000Y-87400000D03*
X127800000Y-81950000D03*
X134550000Y-100350000D03*
X154000000Y-81900000D03*
X120600000Y-88050000D03*
X119850000Y-78050000D03*
X127900000Y-91650000D03*
X149750000Y-60650000D03*
X130100000Y-92750000D03*
X115450000Y-86950000D03*
X149100000Y-87400000D03*
X122650000Y-102850000D03*
X130100000Y-90550000D03*
X125600000Y-84600000D03*
X155750000Y-60650000D03*
X165750000Y-88650000D03*
X126850000Y-67550000D03*
X115450000Y-99250000D03*
X121250000Y-82850000D03*
X151100000Y-89400000D03*
X115450000Y-90000000D03*
X121950000Y-61350000D03*
X124650000Y-102850000D03*
X145700000Y-101350000D03*
X115450000Y-74950000D03*
X121100000Y-87150000D03*
X127100000Y-71500000D03*
X130850000Y-100200000D03*
X149100000Y-86400000D03*
X140850000Y-70350000D03*
X151100000Y-87400000D03*
X135600000Y-100550000D03*
X117400000Y-65950000D03*
X122400000Y-63950000D03*
X126650000Y-102850000D03*
X120650000Y-102850000D03*
X116550000Y-72150000D03*
X136400000Y-98250000D03*
X152100000Y-87400000D03*
X159600000Y-93250000D03*
X136700000Y-95200000D03*
X119650000Y-84000000D03*
X115450000Y-91250000D03*
X120350000Y-83300000D03*
X140850000Y-62350000D03*
X163300000Y-77950000D03*
X159600000Y-91250000D03*
X128650000Y-100000000D03*
X165750000Y-86650000D03*
X124650000Y-74900000D03*
X120950000Y-65950000D03*
X140500000Y-76200000D03*
X153100000Y-85400000D03*
X137200000Y-102850000D03*
X153100000Y-87400000D03*
X121300000Y-86150000D03*
X159600000Y-95250000D03*
X118000000Y-91700000D03*
X123300000Y-85000000D03*
X154050000Y-94550000D03*
X156500000Y-85400000D03*
X135100000Y-89850000D03*
X126350000Y-61200000D03*
X127900000Y-92750000D03*
X115450000Y-78950000D03*
X132300000Y-68200000D03*
X155300000Y-77950000D03*
X117550000Y-80100000D03*
X153300000Y-80250000D03*
X153500000Y-92900000D03*
X143200000Y-102850000D03*
X122300000Y-85000000D03*
X145700000Y-99850000D03*
X121550000Y-85250000D03*
X153100000Y-88400000D03*
X152800000Y-67650000D03*
X145750000Y-60650000D03*
X130100000Y-91650000D03*
X120050000Y-99650000D03*
X124600000Y-69050000D03*
X141750000Y-60650000D03*
X153100000Y-86400000D03*
X152100000Y-88400000D03*
X159750000Y-60650000D03*
X142500000Y-77250000D03*
X118850000Y-89150000D03*
X165750000Y-92650000D03*
X118050000Y-99650000D03*
X135200000Y-102850000D03*
X147800000Y-69300000D03*
X150950000Y-94100000D03*
X122300000Y-82700000D03*
X150100000Y-89400000D03*
X136100000Y-88850000D03*
X140850000Y-68350000D03*
X161300000Y-77950000D03*
X165750000Y-72650000D03*
X129000000Y-92750000D03*
X115450000Y-76950000D03*
X150950000Y-93350000D03*
X157300000Y-77950000D03*
X119200000Y-84850000D03*
X145400000Y-82600000D03*
X165750000Y-78650000D03*
X157750000Y-60650000D03*
X127800000Y-86650000D03*
X165750000Y-62650000D03*
X144550000Y-95950000D03*
X153350000Y-68900000D03*
X145500000Y-90150000D03*
X152100000Y-86400000D03*
X165750000Y-64650000D03*
X115450000Y-72950000D03*
X149100000Y-89400000D03*
X136100000Y-89850000D03*
X145200000Y-85000000D03*
X136800000Y-82800000D03*
X115450000Y-64950000D03*
X159500000Y-88250000D03*
X152100000Y-89400000D03*
X129050000Y-70050000D03*
X136050000Y-85500000D03*
X153500000Y-74500000D03*
X149450000Y-80850000D03*
X153050000Y-94100000D03*
X115450000Y-101250000D03*
X147800000Y-67800000D03*
X115450000Y-103250000D03*
X151100000Y-86400000D03*
X132650000Y-102850000D03*
X135250000Y-64150000D03*
X165750000Y-60650000D03*
X165750000Y-80650000D03*
X153900000Y-67650000D03*
X135450000Y-92650000D03*
X156750000Y-80300000D03*
X130650000Y-102850000D03*
X122250000Y-77500000D03*
X144550000Y-92350000D03*
X165750000Y-70650000D03*
X129000000Y-90550000D03*
X154000000Y-80900000D03*
X145500000Y-87650000D03*
X151750000Y-60650000D03*
X117700000Y-86950000D03*
X116700000Y-86950000D03*
X115450000Y-84950000D03*
X148500000Y-81500000D03*
X144450000Y-78300000D03*
X153100000Y-89400000D03*
X150100000Y-88400000D03*
X124300000Y-65600000D03*
X151100000Y-88400000D03*
X133750000Y-82200000D03*
X152100000Y-85400000D03*
X135600000Y-89350000D03*
X128650000Y-102850000D03*
X149100000Y-88400000D03*
D12*
X130150000Y-76050000D03*
X125800000Y-80250000D03*
X129350000Y-76900000D03*
X126550000Y-79700000D03*
X147277996Y-89130403D03*
X126750000Y-94400000D03*
X147250000Y-88250000D03*
X125900000Y-94400000D03*
X147400000Y-90600000D03*
X146850000Y-87100000D03*
X161600000Y-90900000D03*
X155330000Y-89100000D03*
X147396397Y-84865881D03*
X161600000Y-94400000D03*
X151750000Y-76800000D03*
X155690000Y-88740000D03*
X146100000Y-81000000D03*
X155800000Y-83400000D03*
X146100000Y-80550000D03*
X146700000Y-88100000D03*
X148700940Y-83796740D03*
X151750000Y-77700000D03*
X145200000Y-86000000D03*
X155450000Y-83050000D03*
X150000000Y-83050000D03*
X151750000Y-77250000D03*
X146750000Y-89500000D03*
X161600000Y-87400000D03*
X147900000Y-91400000D03*
X154787371Y-85325500D03*
D13*
X157450000Y-86500000D03*
D12*
X153300000Y-91200000D03*
X161600000Y-83900000D03*
X148500000Y-91400000D03*
X155650000Y-70950000D03*
X158650000Y-70900000D03*
X158450000Y-72150000D03*
X155650000Y-71700000D03*
X144950000Y-70800000D03*
X142250000Y-69250000D03*
X143500000Y-67050000D03*
X142800000Y-98200000D03*
X145250000Y-95950000D03*
X143500000Y-71550000D03*
X142000000Y-99700000D03*
X151750000Y-72500000D03*
X142000000Y-98950000D03*
X142000000Y-98200000D03*
X142250000Y-66300000D03*
X151750000Y-72000000D03*
X145250000Y-92350000D03*
X143500000Y-68550000D03*
X141250000Y-99700000D03*
X151750000Y-71500000D03*
X142250000Y-67800000D03*
X143500000Y-65550000D03*
X141250000Y-98200000D03*
X141250000Y-98950000D03*
X144950000Y-66300000D03*
X142250000Y-70800000D03*
X143500000Y-70050000D03*
X143550000Y-98200000D03*
D14*
X142450000Y-75950000D02*
X142450000Y-74450000D01*
X142450000Y-74450000D02*
X143500000Y-73400000D01*
X143500000Y-73400000D02*
X143500000Y-71550000D01*
D15*
X155800000Y-88630000D02*
X155800000Y-85850000D01*
X155800000Y-85850000D02*
X155800000Y-83400000D01*
D14*
X161600000Y-94400000D02*
X161150000Y-94400000D01*
X161150000Y-94400000D02*
X160850000Y-94100000D01*
X160850000Y-94100000D02*
X160850000Y-88650000D01*
X158050000Y-85850000D02*
X155800000Y-85850000D01*
X160850000Y-88650000D02*
X158050000Y-85850000D01*
D16*
X145250000Y-95950000D02*
X145250000Y-97300000D01*
X145250000Y-97300000D02*
X144350000Y-98200000D01*
X144350000Y-98200000D02*
X143550000Y-98200000D01*
X145250000Y-92350000D02*
X145250000Y-95950000D01*
D17*
X143250000Y-98450000D02*
X140300000Y-98450000D01*
X140300000Y-98450000D02*
X138700000Y-96850000D01*
X139450000Y-71350000D02*
X143300000Y-71350000D01*
X138700000Y-72100000D02*
X139450000Y-71350000D01*
X138700000Y-96850000D02*
X138700000Y-72100000D01*
D15*
X146900000Y-84850000D02*
X146900000Y-85350000D01*
D16*
X145295000Y-86095000D02*
X146155000Y-86095000D01*
D18*
X148700940Y-83796740D02*
X148700940Y-83050940D01*
X146100000Y-80550000D02*
X147450000Y-80550000D01*
D15*
X146155000Y-88905000D02*
X146750000Y-89500000D01*
D19*
X146205000Y-88100000D02*
X146155000Y-88150000D01*
D16*
X145200000Y-86000000D02*
X145295000Y-86095000D01*
D15*
X147500000Y-83050000D02*
X147500000Y-80600000D01*
X148700000Y-83050000D02*
X147500000Y-83050000D01*
D20*
X146915881Y-84865881D02*
X146900000Y-84850000D01*
D15*
X155690000Y-88740000D02*
X155800000Y-88630000D01*
D21*
X147900000Y-78100000D02*
X151450000Y-78100000D01*
D15*
X155330000Y-89100000D02*
X155690000Y-88740000D01*
D21*
X147500000Y-78500000D02*
X147900000Y-78100000D01*
X147500000Y-79150000D02*
X147500000Y-78500000D01*
D15*
X146155000Y-88150000D02*
X146155000Y-88905000D01*
D19*
X146700000Y-88100000D02*
X146205000Y-88100000D01*
D18*
X147450000Y-80550000D02*
X147500000Y-80600000D01*
X148700940Y-83050940D02*
X148700000Y-83050000D01*
D15*
X146900000Y-83650000D02*
X146900000Y-84850000D01*
X146900000Y-85350000D02*
X146350000Y-85900000D01*
X147500000Y-83050000D02*
X146900000Y-83650000D01*
X146155000Y-86095000D02*
X146155000Y-88150000D01*
X155800000Y-83400000D02*
X155450000Y-83050000D01*
D18*
X146100000Y-81000000D02*
X146100000Y-80550000D01*
D15*
X147500000Y-80600000D02*
X147500000Y-79150000D01*
D21*
X151450000Y-78100000D02*
X151750000Y-77800000D01*
X151750000Y-77800000D02*
X151750000Y-76800000D01*
D15*
X146350000Y-85900000D02*
X146155000Y-86095000D01*
X150000000Y-83050000D02*
X148700000Y-83050000D01*
D20*
X147396397Y-84865881D02*
X146915881Y-84865881D01*
D15*
X155450000Y-83050000D02*
X150000000Y-83050000D01*
D18*
X154787371Y-85325500D02*
X155230000Y-85768129D01*
X156700000Y-86500000D02*
X156400000Y-86800000D01*
X155560000Y-89740000D02*
X154760000Y-89740000D01*
X156400000Y-88900000D02*
X155560000Y-89740000D01*
X155230000Y-85768129D02*
X155230000Y-88393898D01*
X154760000Y-88863898D02*
X154760000Y-89740000D01*
X156400000Y-86800000D02*
X156400000Y-88900000D01*
X157450000Y-86500000D02*
X156700000Y-86500000D01*
X155230000Y-88393898D02*
X154760000Y-88863898D01*
X154760000Y-89740000D02*
X153300000Y-91200000D01*
D21*
X151750000Y-71500000D02*
X151750000Y-72550000D01*
X151500000Y-71250000D02*
X144650000Y-71250000D01*
X151750000Y-71500000D02*
X151500000Y-71250000D01*
G04 #@! TA.AperFunction,Conductor*
G36*
X144805359Y-65250849D02*
G01*
X144831038Y-65254915D01*
X144912819Y-65267868D01*
X144933340Y-65274536D01*
X145025380Y-65321433D01*
X145042841Y-65334120D01*
X145115879Y-65407158D01*
X145128567Y-65424620D01*
X145175461Y-65516655D01*
X145182132Y-65537183D01*
X145199151Y-65644639D01*
X145200000Y-65655433D01*
X145200000Y-71644566D01*
X145199151Y-71655360D01*
X145182132Y-71762816D01*
X145175460Y-71783348D01*
X145128568Y-71875377D01*
X145115879Y-71892841D01*
X145042841Y-71965879D01*
X145025377Y-71978568D01*
X144982299Y-72000517D01*
X144933346Y-72025460D01*
X144912816Y-72032132D01*
X144805360Y-72049151D01*
X144794566Y-72050000D01*
X142405434Y-72050000D01*
X142394640Y-72049151D01*
X142287183Y-72032132D01*
X142266655Y-72025461D01*
X142174620Y-71978567D01*
X142157158Y-71965879D01*
X142084120Y-71892841D01*
X142071433Y-71875380D01*
X142024536Y-71783340D01*
X142017868Y-71762819D01*
X142000849Y-71655359D01*
X142000000Y-71644566D01*
X142000000Y-65655433D01*
X142000849Y-65644640D01*
X142002189Y-65636177D01*
X142017868Y-65537178D01*
X142024535Y-65516660D01*
X142071435Y-65424616D01*
X142084117Y-65407161D01*
X142157161Y-65334117D01*
X142174616Y-65321435D01*
X142266660Y-65274535D01*
X142287178Y-65267868D01*
X142372507Y-65254354D01*
X142394641Y-65250849D01*
X142405434Y-65250000D01*
X144794566Y-65250000D01*
X144805359Y-65250849D01*
G37*
G04 #@! TD.AperFunction*
G04 #@! TA.AperFunction,Conductor*
G36*
X143455359Y-97800849D02*
G01*
X143481038Y-97804915D01*
X143562819Y-97817868D01*
X143583340Y-97824536D01*
X143675380Y-97871433D01*
X143692841Y-97884120D01*
X143765879Y-97957158D01*
X143778567Y-97974620D01*
X143825461Y-98066655D01*
X143832132Y-98087183D01*
X143849151Y-98194639D01*
X143850000Y-98205433D01*
X143850000Y-99644566D01*
X143849151Y-99655360D01*
X143832132Y-99762816D01*
X143825460Y-99783348D01*
X143778568Y-99875377D01*
X143765879Y-99892841D01*
X143692841Y-99965879D01*
X143675377Y-99978568D01*
X143632299Y-100000517D01*
X143583346Y-100025460D01*
X143562816Y-100032132D01*
X143455360Y-100049151D01*
X143444566Y-100050000D01*
X141355434Y-100050000D01*
X141344640Y-100049151D01*
X141237183Y-100032132D01*
X141216655Y-100025461D01*
X141124620Y-99978567D01*
X141107158Y-99965879D01*
X141034120Y-99892841D01*
X141021433Y-99875380D01*
X140974536Y-99783340D01*
X140967868Y-99762819D01*
X140950849Y-99655359D01*
X140950000Y-99644566D01*
X140950000Y-98205433D01*
X140950849Y-98194640D01*
X140952189Y-98186177D01*
X140967868Y-98087178D01*
X140974535Y-98066660D01*
X141021435Y-97974616D01*
X141034117Y-97957161D01*
X141107161Y-97884117D01*
X141124616Y-97871435D01*
X141216660Y-97824535D01*
X141237178Y-97817868D01*
X141322507Y-97804354D01*
X141344641Y-97800849D01*
X141355434Y-97800000D01*
X143444566Y-97800000D01*
X143455359Y-97800849D01*
G37*
G04 #@! TD.AperFunction*
G04 #@! TA.AperFunction,Conductor*
G36*
X166679290Y-60120710D02*
G01*
X166699500Y-60169500D01*
X166699500Y-96931000D01*
X166679290Y-96979790D01*
X166630500Y-97000000D01*
X148869000Y-97000000D01*
X148820210Y-96979790D01*
X148800000Y-96931000D01*
X148800000Y-96220890D01*
X148811586Y-96182619D01*
X148985204Y-95922193D01*
X149025876Y-95893530D01*
X149391760Y-95802060D01*
X149408495Y-95800000D01*
X151249995Y-95800000D01*
X151250000Y-95800000D01*
X151600000Y-95750000D01*
X152150000Y-95400000D01*
X152250000Y-95000000D01*
X152250002Y-94999978D01*
X152291538Y-94709242D01*
X152318444Y-94663800D01*
X152359844Y-94650000D01*
X152700000Y-94650000D01*
X152700000Y-92969000D01*
X152720210Y-92920210D01*
X152769000Y-92900000D01*
X152950000Y-92900000D01*
X152950000Y-91498778D01*
X152970210Y-91449988D01*
X153019000Y-91429778D01*
X153063352Y-91445921D01*
X153068199Y-91449988D01*
X153127123Y-91499431D01*
X153239961Y-91540500D01*
X153360038Y-91540500D01*
X153360039Y-91540500D01*
X153472877Y-91499431D01*
X153564862Y-91422246D01*
X153624902Y-91318254D01*
X153635612Y-91257506D01*
X153654772Y-91220700D01*
X154849763Y-90025710D01*
X154898554Y-90005500D01*
X155527053Y-90005500D01*
X155540514Y-90006825D01*
X155560000Y-90010702D01*
X155663593Y-89990095D01*
X155711874Y-89957834D01*
X155745628Y-89935282D01*
X155748253Y-89933527D01*
X155751415Y-89931415D01*
X155762460Y-89914882D01*
X155771028Y-89904444D01*
X156564440Y-89111031D01*
X156574892Y-89102454D01*
X156591415Y-89091415D01*
X156650095Y-89003593D01*
X156665500Y-88926147D01*
X156670701Y-88900000D01*
X156670073Y-88896844D01*
X156666826Y-88880518D01*
X156665500Y-88867057D01*
X156665500Y-86938554D01*
X156685710Y-86889764D01*
X156789764Y-86785710D01*
X156838554Y-86765500D01*
X157191238Y-86765500D01*
X157236710Y-86784335D01*
X157237023Y-86783905D01*
X157238816Y-86785208D01*
X157240028Y-86785710D01*
X157241412Y-86787094D01*
X157241416Y-86787097D01*
X157340334Y-86837498D01*
X157340341Y-86837501D01*
X157449996Y-86854869D01*
X157450000Y-86854869D01*
X157450004Y-86854869D01*
X157559658Y-86837501D01*
X157559659Y-86837500D01*
X157559661Y-86837500D01*
X157658587Y-86787095D01*
X157737095Y-86708587D01*
X157787500Y-86609661D01*
X157787500Y-86609659D01*
X157787501Y-86609658D01*
X157804869Y-86500003D01*
X157804869Y-86499996D01*
X157787501Y-86390341D01*
X157787498Y-86390334D01*
X157737097Y-86291416D01*
X157737094Y-86291412D01*
X157654747Y-86209065D01*
X157656813Y-86206998D01*
X157634321Y-86170303D01*
X157646642Y-86118950D01*
X157691667Y-86091351D01*
X157702470Y-86090500D01*
X157921802Y-86090500D01*
X157970592Y-86110710D01*
X160589290Y-88729408D01*
X160609500Y-88778198D01*
X160609500Y-94092803D01*
X160609453Y-94094581D01*
X160609140Y-94100569D01*
X160607153Y-94138460D01*
X160616744Y-94163445D01*
X160619818Y-94173823D01*
X160625384Y-94200007D01*
X160625385Y-94200010D01*
X160631484Y-94208404D01*
X160640077Y-94224229D01*
X160643794Y-94233912D01*
X160662714Y-94252832D01*
X160669747Y-94261066D01*
X160684773Y-94281748D01*
X160685479Y-94282719D01*
X160694464Y-94287906D01*
X160708753Y-94298871D01*
X160974857Y-94564975D01*
X160976081Y-94566265D01*
X161005479Y-94598915D01*
X161029930Y-94609801D01*
X161039443Y-94614967D01*
X161050652Y-94622246D01*
X161061887Y-94629542D01*
X161069251Y-94630708D01*
X161072129Y-94631164D01*
X161089404Y-94636281D01*
X161092834Y-94637808D01*
X161098880Y-94640500D01*
X161125644Y-94640500D01*
X161136439Y-94641350D01*
X161162867Y-94645536D01*
X161162867Y-94645535D01*
X161162868Y-94645536D01*
X161172888Y-94642850D01*
X161190747Y-94640500D01*
X161331778Y-94640500D01*
X161376130Y-94656643D01*
X161392299Y-94670210D01*
X161427123Y-94699431D01*
X161539961Y-94740500D01*
X161660038Y-94740500D01*
X161660039Y-94740500D01*
X161772877Y-94699431D01*
X161864862Y-94622246D01*
X161924902Y-94518254D01*
X161945753Y-94400000D01*
X161924902Y-94281746D01*
X161864862Y-94177754D01*
X161864859Y-94177751D01*
X161864860Y-94177751D01*
X161772877Y-94100569D01*
X161660040Y-94059500D01*
X161660039Y-94059500D01*
X161539961Y-94059500D01*
X161448461Y-94092803D01*
X161427124Y-94100569D01*
X161427119Y-94100572D01*
X161376130Y-94143357D01*
X161331778Y-94159500D01*
X161278198Y-94159500D01*
X161229408Y-94139290D01*
X161110710Y-94020592D01*
X161090500Y-93971802D01*
X161090500Y-90900000D01*
X161254247Y-90900000D01*
X161275098Y-91018254D01*
X161335138Y-91122246D01*
X161335140Y-91122248D01*
X161335139Y-91122248D01*
X161392075Y-91170022D01*
X161427123Y-91199431D01*
X161539961Y-91240500D01*
X161660038Y-91240500D01*
X161660039Y-91240500D01*
X161772877Y-91199431D01*
X161864862Y-91122246D01*
X161924902Y-91018254D01*
X161945753Y-90900000D01*
X161924902Y-90781746D01*
X161864862Y-90677754D01*
X161864859Y-90677751D01*
X161864860Y-90677751D01*
X161772877Y-90600569D01*
X161660040Y-90559500D01*
X161660039Y-90559500D01*
X161539961Y-90559500D01*
X161483542Y-90580034D01*
X161427123Y-90600569D01*
X161335140Y-90677751D01*
X161275097Y-90781748D01*
X161262045Y-90855776D01*
X161254247Y-90900000D01*
X161090500Y-90900000D01*
X161090500Y-88657195D01*
X161090546Y-88655418D01*
X161092846Y-88611538D01*
X161083253Y-88586549D01*
X161080180Y-88576174D01*
X161074616Y-88549994D01*
X161068515Y-88541597D01*
X161059923Y-88525772D01*
X161056206Y-88516088D01*
X161056204Y-88516086D01*
X161056204Y-88516085D01*
X161037284Y-88497165D01*
X161030252Y-88488932D01*
X161014521Y-88467281D01*
X161005534Y-88462092D01*
X160991244Y-88451126D01*
X159940118Y-87400000D01*
X161254247Y-87400000D01*
X161275098Y-87518254D01*
X161335138Y-87622246D01*
X161335140Y-87622248D01*
X161335139Y-87622248D01*
X161415925Y-87690034D01*
X161427123Y-87699431D01*
X161539961Y-87740500D01*
X161660038Y-87740500D01*
X161660039Y-87740500D01*
X161772877Y-87699431D01*
X161864862Y-87622246D01*
X161924902Y-87518254D01*
X161945753Y-87400000D01*
X161924902Y-87281746D01*
X161864862Y-87177754D01*
X161864859Y-87177751D01*
X161864860Y-87177751D01*
X161772877Y-87100569D01*
X161660040Y-87059500D01*
X161660039Y-87059500D01*
X161539961Y-87059500D01*
X161483542Y-87080034D01*
X161427123Y-87100569D01*
X161335140Y-87177751D01*
X161275097Y-87281748D01*
X161262725Y-87351918D01*
X161254247Y-87400000D01*
X159940118Y-87400000D01*
X159632347Y-87092229D01*
X158225140Y-85685022D01*
X158223915Y-85683731D01*
X158194522Y-85651085D01*
X158194518Y-85651082D01*
X158170069Y-85640197D01*
X158160554Y-85635031D01*
X158138114Y-85620458D01*
X158135915Y-85620109D01*
X158127864Y-85618834D01*
X158110600Y-85613721D01*
X158101120Y-85609500D01*
X158101119Y-85609500D01*
X158074356Y-85609500D01*
X158063561Y-85608650D01*
X158037132Y-85604463D01*
X158027112Y-85607149D01*
X158009253Y-85609500D01*
X156334500Y-85609500D01*
X156285710Y-85589290D01*
X156265500Y-85540500D01*
X156265500Y-83900000D01*
X161254247Y-83900000D01*
X161262018Y-83944076D01*
X161275098Y-84018254D01*
X161335138Y-84122246D01*
X161335140Y-84122248D01*
X161335139Y-84122248D01*
X161415925Y-84190034D01*
X161427123Y-84199431D01*
X161539961Y-84240500D01*
X161660038Y-84240500D01*
X161660039Y-84240500D01*
X161772877Y-84199431D01*
X161864862Y-84122246D01*
X161924902Y-84018254D01*
X161945753Y-83900000D01*
X161924902Y-83781746D01*
X161864862Y-83677754D01*
X161864859Y-83677751D01*
X161864860Y-83677751D01*
X161772877Y-83600569D01*
X161660040Y-83559500D01*
X161660039Y-83559500D01*
X161539961Y-83559500D01*
X161486756Y-83578865D01*
X161427123Y-83600569D01*
X161335140Y-83677751D01*
X161335138Y-83677753D01*
X161335138Y-83677754D01*
X161275098Y-83781746D01*
X161275097Y-83781748D01*
X161254247Y-83900000D01*
X156265500Y-83900000D01*
X156265500Y-83428080D01*
X156265717Y-83424214D01*
X156270429Y-83382398D01*
X156259005Y-83322023D01*
X156249844Y-83261242D01*
X156249842Y-83261239D01*
X156249418Y-83259861D01*
X156244849Y-83245976D01*
X156244340Y-83244521D01*
X156244340Y-83244519D01*
X156215632Y-83190201D01*
X156188959Y-83134813D01*
X156188958Y-83134812D01*
X156188958Y-83134811D01*
X156188145Y-83133619D01*
X156179658Y-83121656D01*
X156178769Y-83120452D01*
X156135317Y-83077001D01*
X156093515Y-83031949D01*
X156093514Y-83031948D01*
X156093513Y-83031947D01*
X156093511Y-83031945D01*
X156092394Y-83031055D01*
X156079398Y-83021082D01*
X155799019Y-82740702D01*
X155796439Y-82737816D01*
X155770200Y-82704913D01*
X155770198Y-82704911D01*
X155770197Y-82704910D01*
X155719427Y-82670296D01*
X155669975Y-82633798D01*
X155668719Y-82633134D01*
X155655520Y-82626471D01*
X155654254Y-82625862D01*
X155595532Y-82607748D01*
X155537520Y-82587449D01*
X155536149Y-82587189D01*
X155521506Y-82584701D01*
X155520165Y-82584500D01*
X155520163Y-82584500D01*
X155458707Y-82584500D01*
X155397292Y-82582202D01*
X155397291Y-82582202D01*
X155397290Y-82582202D01*
X155395863Y-82582363D01*
X155379632Y-82584500D01*
X148034500Y-82584500D01*
X147985710Y-82564290D01*
X147965500Y-82515500D01*
X147965500Y-79115116D01*
X147965499Y-79115110D01*
X147949844Y-79011242D01*
X147947332Y-79006027D01*
X147940500Y-78976090D01*
X147940500Y-78711041D01*
X147960710Y-78662251D01*
X148062251Y-78560710D01*
X148111041Y-78540500D01*
X151423317Y-78540500D01*
X151427178Y-78540716D01*
X151466657Y-78545165D01*
X151523810Y-78534350D01*
X151581306Y-78525685D01*
X151581307Y-78525684D01*
X151581309Y-78525684D01*
X151585901Y-78524267D01*
X151592609Y-78522060D01*
X151597127Y-78520479D01*
X151597127Y-78520478D01*
X151597131Y-78520478D01*
X151648541Y-78493306D01*
X151700946Y-78468070D01*
X151700948Y-78468067D01*
X151704891Y-78465380D01*
X151710612Y-78461320D01*
X151714527Y-78458431D01*
X151714532Y-78458429D01*
X151755640Y-78417320D01*
X151798287Y-78377750D01*
X151798289Y-78377745D01*
X151801271Y-78374006D01*
X151808910Y-78364049D01*
X152042626Y-78130333D01*
X152045480Y-78127782D01*
X152076557Y-78103001D01*
X152109320Y-78054945D01*
X152143852Y-78008157D01*
X152143853Y-78008153D01*
X152146108Y-78003888D01*
X152149274Y-77997615D01*
X152151358Y-77993288D01*
X152151358Y-77993287D01*
X152151360Y-77993285D01*
X152168500Y-77937715D01*
X152187710Y-77882819D01*
X152188601Y-77878107D01*
X152189776Y-77871192D01*
X152190500Y-77866394D01*
X152190500Y-77808252D01*
X152192675Y-77750123D01*
X152192673Y-77750117D01*
X152192142Y-77745402D01*
X152190500Y-77732922D01*
X152190500Y-76766987D01*
X152190499Y-76766981D01*
X152175686Y-76668698D01*
X152175685Y-76668697D01*
X152175685Y-76668694D01*
X152118070Y-76549054D01*
X152118067Y-76549051D01*
X152118067Y-76549050D01*
X152027752Y-76451715D01*
X152027751Y-76451714D01*
X152027750Y-76451713D01*
X151912751Y-76385318D01*
X151912750Y-76385318D01*
X151783292Y-76355770D01*
X151783290Y-76355770D01*
X151761838Y-76357377D01*
X151650875Y-76365692D01*
X151650870Y-76365693D01*
X151527264Y-76414204D01*
X151527262Y-76414205D01*
X151423444Y-76496997D01*
X151348640Y-76606715D01*
X151348638Y-76606718D01*
X151309501Y-76733598D01*
X151309500Y-76733606D01*
X151309500Y-77588957D01*
X151289306Y-77637732D01*
X151287764Y-77639275D01*
X151238980Y-77659500D01*
X147926676Y-77659500D01*
X147922815Y-77659283D01*
X147905944Y-77657382D01*
X147883347Y-77654836D01*
X147883340Y-77654836D01*
X147826213Y-77665645D01*
X147768695Y-77674314D01*
X147764235Y-77675690D01*
X147757276Y-77677980D01*
X147752867Y-77679522D01*
X147701464Y-77706690D01*
X147649055Y-77731929D01*
X147645247Y-77734524D01*
X147639190Y-77738822D01*
X147635468Y-77741570D01*
X147594359Y-77782679D01*
X147551710Y-77822252D01*
X147548769Y-77825940D01*
X147541086Y-77835951D01*
X147207393Y-78169645D01*
X147204507Y-78172224D01*
X147173443Y-78196998D01*
X147140678Y-78245054D01*
X147106146Y-78291844D01*
X147103965Y-78295972D01*
X147100663Y-78302513D01*
X147098640Y-78306713D01*
X147081499Y-78362284D01*
X147062289Y-78417181D01*
X147061422Y-78421765D01*
X147060195Y-78428987D01*
X147059500Y-78433603D01*
X147059500Y-78491747D01*
X147057325Y-78549878D01*
X147057857Y-78554602D01*
X147059500Y-78567078D01*
X147059500Y-78988387D01*
X147056435Y-79008725D01*
X147034500Y-79079836D01*
X147034500Y-80215500D01*
X147014290Y-80264290D01*
X146965500Y-80284500D01*
X146338428Y-80284500D01*
X146294076Y-80268357D01*
X146272877Y-80250569D01*
X146160040Y-80209500D01*
X146160039Y-80209500D01*
X146039961Y-80209500D01*
X145983542Y-80230034D01*
X145927123Y-80250569D01*
X145835140Y-80327751D01*
X145775097Y-80431748D01*
X145754247Y-80549999D01*
X145775098Y-80668254D01*
X145816809Y-80740499D01*
X145823702Y-80792858D01*
X145816809Y-80809498D01*
X145775097Y-80881746D01*
X145754246Y-80999999D01*
X145754247Y-81000000D01*
X145775098Y-81118254D01*
X145835138Y-81222246D01*
X145835140Y-81222248D01*
X145835139Y-81222248D01*
X145915925Y-81290034D01*
X145927123Y-81299431D01*
X146039961Y-81340500D01*
X146160038Y-81340500D01*
X146160039Y-81340500D01*
X146272877Y-81299431D01*
X146364862Y-81222246D01*
X146424902Y-81118254D01*
X146445753Y-81000000D01*
X146427500Y-80896481D01*
X146438931Y-80844923D01*
X146483470Y-80816548D01*
X146495452Y-80815500D01*
X146965500Y-80815500D01*
X147014290Y-80835710D01*
X147034500Y-80884500D01*
X147034500Y-82828602D01*
X147014290Y-82877392D01*
X146590701Y-83300981D01*
X146587815Y-83303560D01*
X146554908Y-83329804D01*
X146520296Y-83380572D01*
X146483794Y-83430031D01*
X146483180Y-83431193D01*
X146476440Y-83444544D01*
X146475862Y-83445744D01*
X146457748Y-83504467D01*
X146437449Y-83562478D01*
X146437191Y-83563840D01*
X146434701Y-83578497D01*
X146434500Y-83579837D01*
X146434500Y-83641293D01*
X146432202Y-83702709D01*
X146432363Y-83704136D01*
X146434500Y-83720368D01*
X146434500Y-85128602D01*
X146414290Y-85177392D01*
X145998011Y-85593672D01*
X145997989Y-85593692D01*
X145845693Y-85745988D01*
X145842807Y-85748567D01*
X145816680Y-85769403D01*
X145809910Y-85774803D01*
X145809909Y-85774803D01*
X145809908Y-85774805D01*
X145776110Y-85824378D01*
X145775296Y-85825572D01*
X145760092Y-85846174D01*
X145752491Y-85856473D01*
X145707258Y-85883729D01*
X145696973Y-85884500D01*
X145566329Y-85884500D01*
X145517539Y-85864290D01*
X145506573Y-85850000D01*
X145504364Y-85846174D01*
X145464862Y-85777754D01*
X145464859Y-85777751D01*
X145464860Y-85777751D01*
X145372877Y-85700569D01*
X145260040Y-85659500D01*
X145260039Y-85659500D01*
X145139961Y-85659500D01*
X145110571Y-85670197D01*
X145027123Y-85700569D01*
X144935140Y-85777751D01*
X144935138Y-85777753D01*
X144935138Y-85777754D01*
X144888870Y-85857893D01*
X144875097Y-85881748D01*
X144854247Y-86000000D01*
X144873767Y-86110710D01*
X144875098Y-86118254D01*
X144935138Y-86222246D01*
X144935140Y-86222248D01*
X144935139Y-86222248D01*
X145013281Y-86287816D01*
X145027123Y-86299431D01*
X145139961Y-86340500D01*
X145260041Y-86340500D01*
X145344770Y-86309661D01*
X145368369Y-86305500D01*
X145620500Y-86305500D01*
X145669290Y-86325710D01*
X145689500Y-86374500D01*
X145689500Y-88876918D01*
X145689283Y-88880784D01*
X145684571Y-88922598D01*
X145684571Y-88922604D01*
X145695994Y-88982976D01*
X145705156Y-89043760D01*
X145705571Y-89045106D01*
X145710173Y-89059091D01*
X145710659Y-89060478D01*
X145710660Y-89060481D01*
X145713499Y-89065852D01*
X145739367Y-89114798D01*
X145766041Y-89170187D01*
X145766828Y-89171341D01*
X145775364Y-89183372D01*
X145776230Y-89184546D01*
X145819681Y-89227998D01*
X145861487Y-89273053D01*
X145862610Y-89273948D01*
X145875601Y-89283917D01*
X146445499Y-89853817D01*
X146445516Y-89853832D01*
X146530024Y-89916201D01*
X146530026Y-89916202D01*
X146530029Y-89916204D01*
X146662477Y-89962550D01*
X146662480Y-89962551D01*
X146802708Y-89967798D01*
X146924059Y-89935282D01*
X146938249Y-89931480D01*
X146938249Y-89931479D01*
X146938252Y-89931479D01*
X147057070Y-89856822D01*
X147148602Y-89750458D01*
X147204717Y-89621841D01*
X147214820Y-89532176D01*
X147240365Y-89485956D01*
X147283386Y-89470903D01*
X147338034Y-89470903D01*
X147338035Y-89470903D01*
X147450873Y-89429834D01*
X147542858Y-89352649D01*
X147602898Y-89248657D01*
X147623749Y-89130403D01*
X147602898Y-89012149D01*
X147542858Y-88908157D01*
X147542855Y-88908154D01*
X147542856Y-88908154D01*
X147450873Y-88830972D01*
X147338036Y-88789903D01*
X147338035Y-88789903D01*
X147217957Y-88789903D01*
X147161538Y-88810437D01*
X147105119Y-88830972D01*
X147013135Y-88908154D01*
X147013134Y-88908156D01*
X146986111Y-88954960D01*
X146944213Y-88987108D01*
X146891855Y-88980214D01*
X146877566Y-88969249D01*
X146640710Y-88732393D01*
X146620500Y-88683603D01*
X146620500Y-88509500D01*
X146640710Y-88460710D01*
X146689500Y-88440500D01*
X146760038Y-88440500D01*
X146760039Y-88440500D01*
X146872877Y-88399431D01*
X146872879Y-88399428D01*
X146876497Y-88398112D01*
X146929257Y-88400416D01*
X146959852Y-88428450D01*
X146985138Y-88472246D01*
X146985139Y-88472248D01*
X147059032Y-88534251D01*
X147077123Y-88549431D01*
X147189961Y-88590500D01*
X147310038Y-88590500D01*
X147310039Y-88590500D01*
X147422877Y-88549431D01*
X147514862Y-88472246D01*
X147574902Y-88368254D01*
X147595753Y-88250000D01*
X147574902Y-88131746D01*
X147514862Y-88027754D01*
X147514859Y-88027751D01*
X147514860Y-88027751D01*
X147422877Y-87950569D01*
X147310040Y-87909500D01*
X147310039Y-87909500D01*
X147189961Y-87909500D01*
X147156859Y-87921548D01*
X147073501Y-87951887D01*
X147020741Y-87949583D01*
X146990147Y-87921549D01*
X146964862Y-87877754D01*
X146964859Y-87877751D01*
X146964860Y-87877751D01*
X146872877Y-87800569D01*
X146760040Y-87759500D01*
X146760039Y-87759500D01*
X146689500Y-87759500D01*
X146640710Y-87739290D01*
X146620500Y-87690500D01*
X146620500Y-87477363D01*
X146640710Y-87428573D01*
X146689500Y-87408363D01*
X146713092Y-87412522D01*
X146789961Y-87440500D01*
X146789962Y-87440500D01*
X146910038Y-87440500D01*
X146910039Y-87440500D01*
X147022877Y-87399431D01*
X147114862Y-87322246D01*
X147174902Y-87218254D01*
X147195753Y-87100000D01*
X147174902Y-86981746D01*
X147114862Y-86877754D01*
X147114859Y-86877751D01*
X147114860Y-86877751D01*
X147022877Y-86800569D01*
X146910040Y-86759500D01*
X146910039Y-86759500D01*
X146789961Y-86759500D01*
X146745795Y-86775574D01*
X146713099Y-86787475D01*
X146660339Y-86785171D01*
X146624661Y-86746235D01*
X146620500Y-86722636D01*
X146620500Y-86316397D01*
X146640710Y-86267607D01*
X146640710Y-86267606D01*
X146658412Y-86249904D01*
X146703826Y-86204491D01*
X146703827Y-86204489D01*
X146707753Y-86200563D01*
X146707759Y-86200555D01*
X147209313Y-85699001D01*
X147212167Y-85696450D01*
X147245090Y-85670197D01*
X147279710Y-85619417D01*
X147316204Y-85569971D01*
X147316205Y-85569965D01*
X147316913Y-85568627D01*
X147323491Y-85555597D01*
X147324134Y-85554258D01*
X147324138Y-85554254D01*
X147342251Y-85495532D01*
X147362551Y-85437520D01*
X147362551Y-85437516D01*
X147362552Y-85437514D01*
X147362837Y-85436004D01*
X147365271Y-85421683D01*
X147365500Y-85420166D01*
X147365500Y-85358692D01*
X147367797Y-85297293D01*
X147367795Y-85297287D01*
X147367635Y-85295864D01*
X147365500Y-85279637D01*
X147365500Y-85275381D01*
X147385710Y-85226591D01*
X147434500Y-85206381D01*
X147456434Y-85206381D01*
X147456436Y-85206381D01*
X147479193Y-85198097D01*
X147490803Y-85194987D01*
X147514651Y-85190783D01*
X147535620Y-85178675D01*
X147546520Y-85173592D01*
X147569274Y-85165312D01*
X147587832Y-85149739D01*
X147597663Y-85142855D01*
X147618643Y-85130743D01*
X147634213Y-85112185D01*
X147642701Y-85103697D01*
X147661259Y-85088127D01*
X147673371Y-85067147D01*
X147680255Y-85057316D01*
X147695828Y-85038758D01*
X147704108Y-85016004D01*
X147709189Y-85005108D01*
X147721299Y-84984135D01*
X147725504Y-84960282D01*
X147728617Y-84948669D01*
X147736897Y-84925921D01*
X147736897Y-84901710D01*
X147737945Y-84889729D01*
X147738257Y-84887958D01*
X147742150Y-84865881D01*
X147737945Y-84842032D01*
X147736897Y-84830051D01*
X147736897Y-84805840D01*
X147728617Y-84783093D01*
X147725503Y-84771471D01*
X147721299Y-84747628D01*
X147721299Y-84747627D01*
X147709189Y-84726652D01*
X147704107Y-84715753D01*
X147695828Y-84693005D01*
X147692584Y-84689139D01*
X147680262Y-84674453D01*
X147673365Y-84664603D01*
X147661259Y-84643635D01*
X147642704Y-84628065D01*
X147634208Y-84619568D01*
X147618643Y-84601018D01*
X147597676Y-84588913D01*
X147587826Y-84582016D01*
X147569275Y-84566451D01*
X147569274Y-84566450D01*
X147546518Y-84558167D01*
X147535621Y-84553086D01*
X147514649Y-84540978D01*
X147514651Y-84540978D01*
X147490803Y-84536773D01*
X147479188Y-84533661D01*
X147456438Y-84525381D01*
X147456436Y-84525381D01*
X147434500Y-84525381D01*
X147385710Y-84505171D01*
X147365500Y-84456381D01*
X147365500Y-83871396D01*
X147385710Y-83822606D01*
X147672607Y-83535710D01*
X147721397Y-83515500D01*
X148350627Y-83515500D01*
X148399417Y-83535710D01*
X148419627Y-83584500D01*
X148410383Y-83618997D01*
X148376461Y-83677754D01*
X148376037Y-83678488D01*
X148355187Y-83796740D01*
X148368350Y-83871396D01*
X148376038Y-83914994D01*
X148436078Y-84018986D01*
X148436080Y-84018988D01*
X148436079Y-84018988D01*
X148516865Y-84086774D01*
X148528063Y-84096171D01*
X148640901Y-84137240D01*
X148760978Y-84137240D01*
X148760979Y-84137240D01*
X148873817Y-84096171D01*
X148965802Y-84018986D01*
X149025842Y-83914994D01*
X149046693Y-83796740D01*
X149025842Y-83678486D01*
X148991496Y-83618998D01*
X148984604Y-83566642D01*
X149016753Y-83524744D01*
X149051253Y-83515500D01*
X149929837Y-83515500D01*
X155228604Y-83515500D01*
X155277394Y-83535710D01*
X155314290Y-83572606D01*
X155334500Y-83621396D01*
X155334500Y-85330575D01*
X155314290Y-85379365D01*
X155265500Y-85399575D01*
X155216710Y-85379365D01*
X155142145Y-85304800D01*
X155122983Y-85267990D01*
X155112273Y-85207247D01*
X155112273Y-85207246D01*
X155052233Y-85103254D01*
X155052230Y-85103251D01*
X155052231Y-85103251D01*
X154960248Y-85026069D01*
X154847411Y-84985000D01*
X154847410Y-84985000D01*
X154727332Y-84985000D01*
X154672107Y-85005100D01*
X154614494Y-85026069D01*
X154522511Y-85103251D01*
X154522509Y-85103253D01*
X154522509Y-85103254D01*
X154462469Y-85207246D01*
X154462468Y-85207248D01*
X154441618Y-85325499D01*
X154461369Y-85437520D01*
X154462469Y-85443754D01*
X154522509Y-85547746D01*
X154522511Y-85547748D01*
X154522510Y-85547748D01*
X154593302Y-85607149D01*
X154614494Y-85624931D01*
X154727332Y-85666000D01*
X154733275Y-85667048D01*
X154732803Y-85669722D01*
X154772607Y-85686210D01*
X154944290Y-85857893D01*
X154964500Y-85906683D01*
X154964500Y-88255343D01*
X154944290Y-88304133D01*
X154595559Y-88652863D01*
X154585106Y-88661443D01*
X154568584Y-88672483D01*
X154530797Y-88729035D01*
X154530797Y-88729036D01*
X154509905Y-88760303D01*
X154489298Y-88863897D01*
X154489298Y-88863898D01*
X154491278Y-88873853D01*
X154493174Y-88883381D01*
X154494500Y-88896844D01*
X154494500Y-89601446D01*
X154474290Y-89650236D01*
X153285236Y-90839290D01*
X153245436Y-90855776D01*
X153245908Y-90858451D01*
X153239963Y-90859499D01*
X153127123Y-90900569D01*
X153063352Y-90954079D01*
X153012986Y-90969959D01*
X152966143Y-90945574D01*
X152950000Y-90901222D01*
X152950000Y-90900000D01*
X151200000Y-90900000D01*
X151200000Y-92900000D01*
X151200000Y-94650000D01*
X151421073Y-94650000D01*
X151469863Y-94670210D01*
X151490073Y-94719000D01*
X151478484Y-94757274D01*
X151270484Y-95069274D01*
X151226605Y-95098660D01*
X151213073Y-95100000D01*
X149149998Y-95100000D01*
X148599999Y-95250000D01*
X148099999Y-95849999D01*
X148099999Y-95850000D01*
X148068979Y-96563485D01*
X148053249Y-96925291D01*
X148052870Y-96933997D01*
X148030560Y-96981864D01*
X147983935Y-97000000D01*
X147200000Y-97000000D01*
X147200000Y-103830500D01*
X147179790Y-103879290D01*
X147131000Y-103899500D01*
X115269000Y-103899500D01*
X115220210Y-103879290D01*
X115200000Y-103830500D01*
X115200000Y-96828320D01*
X137954774Y-96828320D01*
X137957599Y-96860600D01*
X137959369Y-96880835D01*
X137959500Y-96883825D01*
X137959500Y-96893142D01*
X137963259Y-96925290D01*
X137969861Y-97000761D01*
X137971073Y-97004417D01*
X137974107Y-97018107D01*
X137974553Y-97021927D01*
X137974554Y-97021932D01*
X138000482Y-97093169D01*
X138024310Y-97165078D01*
X138024313Y-97165083D01*
X138026331Y-97168355D01*
X138032438Y-97180969D01*
X138033757Y-97184592D01*
X138033758Y-97184594D01*
X138033760Y-97184598D01*
X138052314Y-97212808D01*
X138075414Y-97247930D01*
X138115184Y-97312409D01*
X138115185Y-97312410D01*
X138115186Y-97312411D01*
X138117904Y-97315129D01*
X138126764Y-97326005D01*
X138128878Y-97329220D01*
X138128879Y-97329221D01*
X138128882Y-97329225D01*
X138173489Y-97371309D01*
X138184013Y-97381238D01*
X139734689Y-98931915D01*
X139741246Y-98939502D01*
X139757709Y-98961618D01*
X139757713Y-98961621D01*
X139798093Y-98995504D01*
X139800297Y-98997523D01*
X139806884Y-99004110D01*
X139832292Y-99024200D01*
X139890315Y-99072887D01*
X139890314Y-99072887D01*
X139890317Y-99072888D01*
X139890319Y-99072890D01*
X139893754Y-99074615D01*
X139905583Y-99082151D01*
X139908605Y-99084541D01*
X139908612Y-99084545D01*
X139977317Y-99116582D01*
X140045007Y-99150578D01*
X140045008Y-99150578D01*
X140045010Y-99150579D01*
X140048752Y-99151465D01*
X140062003Y-99156072D01*
X140065492Y-99157699D01*
X140065494Y-99157700D01*
X140139740Y-99173030D01*
X140213443Y-99190499D01*
X140213444Y-99190499D01*
X140213448Y-99190500D01*
X140217293Y-99190500D01*
X140231243Y-99191925D01*
X140232248Y-99192132D01*
X140235022Y-99192705D01*
X140310798Y-99190500D01*
X140735500Y-99190500D01*
X140784290Y-99210710D01*
X140804500Y-99259500D01*
X140804500Y-99647423D01*
X140804724Y-99653129D01*
X140806021Y-99669617D01*
X140806693Y-99675296D01*
X140824158Y-99785578D01*
X140827532Y-99799630D01*
X140829490Y-99807783D01*
X140836158Y-99828303D01*
X140836157Y-99828302D01*
X140844891Y-99849387D01*
X140844895Y-99849396D01*
X140891792Y-99941436D01*
X140903724Y-99960906D01*
X140908209Y-99967079D01*
X140916410Y-99978367D01*
X140916409Y-99978365D01*
X140916411Y-99978367D01*
X140931236Y-99995725D01*
X141004274Y-100068763D01*
X141021630Y-100083587D01*
X141039092Y-100096275D01*
X141039097Y-100096278D01*
X141039096Y-100096278D01*
X141050509Y-100103272D01*
X141058565Y-100108209D01*
X141150600Y-100155103D01*
X141150606Y-100155105D01*
X141150609Y-100155107D01*
X141150610Y-100155107D01*
X141171677Y-100163834D01*
X141171678Y-100163835D01*
X141192217Y-100170510D01*
X141192216Y-100170510D01*
X141214423Y-100175842D01*
X141324700Y-100193307D01*
X141330379Y-100193979D01*
X141346872Y-100195276D01*
X141352577Y-100195500D01*
X141352578Y-100195500D01*
X143447423Y-100195500D01*
X143453128Y-100195276D01*
X143469621Y-100193979D01*
X143475299Y-100193307D01*
X143585577Y-100175841D01*
X143607783Y-100170508D01*
X143607783Y-100170509D01*
X143628323Y-100163834D01*
X143628322Y-100163834D01*
X143649402Y-100155102D01*
X143695416Y-100131656D01*
X143741432Y-100108210D01*
X143760903Y-100096278D01*
X143766724Y-100092048D01*
X143778365Y-100083591D01*
X143778364Y-100083592D01*
X143787046Y-100076176D01*
X143795725Y-100068763D01*
X143868763Y-99995725D01*
X143883589Y-99978367D01*
X143883591Y-99978365D01*
X143896281Y-99960899D01*
X143908206Y-99941439D01*
X143908211Y-99941431D01*
X143955101Y-99849405D01*
X143955109Y-99849387D01*
X143963839Y-99828309D01*
X143963842Y-99828302D01*
X143970510Y-99807779D01*
X143970511Y-99807777D01*
X143971943Y-99801807D01*
X143975841Y-99785577D01*
X143993307Y-99675297D01*
X143993979Y-99669619D01*
X143995276Y-99653128D01*
X143995500Y-99647422D01*
X143995500Y-98479500D01*
X144015710Y-98430710D01*
X144064500Y-98410500D01*
X144302509Y-98410500D01*
X144325300Y-98414373D01*
X144325667Y-98414501D01*
X144325825Y-98414556D01*
X144359897Y-98410716D01*
X144363761Y-98410500D01*
X144373715Y-98410500D01*
X144373716Y-98410500D01*
X144383423Y-98408283D01*
X144387238Y-98407636D01*
X144395174Y-98406741D01*
X144421312Y-98403797D01*
X144421779Y-98403502D01*
X144443143Y-98394653D01*
X144443681Y-98394531D01*
X144470502Y-98373140D01*
X144473640Y-98370915D01*
X144482076Y-98365616D01*
X144489119Y-98358571D01*
X144492000Y-98355998D01*
X144504383Y-98346122D01*
X144518808Y-98334620D01*
X144519049Y-98334118D01*
X144532425Y-98315265D01*
X145365265Y-97482425D01*
X145384118Y-97469049D01*
X145384620Y-97468808D01*
X145396122Y-97454383D01*
X145405998Y-97442000D01*
X145408571Y-97439119D01*
X145415616Y-97432076D01*
X145420915Y-97423640D01*
X145423140Y-97420502D01*
X145444531Y-97393681D01*
X145444653Y-97393143D01*
X145453502Y-97371779D01*
X145453797Y-97371312D01*
X145457636Y-97337238D01*
X145458285Y-97333417D01*
X145459244Y-97329220D01*
X145460500Y-97323716D01*
X145460500Y-97313760D01*
X145460717Y-97309893D01*
X145464556Y-97275826D01*
X145464372Y-97275300D01*
X145460500Y-97252511D01*
X145460500Y-96250036D01*
X145480710Y-96201246D01*
X145485135Y-96197189D01*
X145514862Y-96172246D01*
X145574902Y-96068254D01*
X145595753Y-95950000D01*
X145574902Y-95831746D01*
X145514862Y-95727754D01*
X145514860Y-95727752D01*
X145485147Y-95702819D01*
X145460762Y-95655975D01*
X145460500Y-95649963D01*
X145460500Y-92650036D01*
X145480710Y-92601246D01*
X145485135Y-92597189D01*
X145514862Y-92572246D01*
X145574902Y-92468254D01*
X145595753Y-92350000D01*
X145574902Y-92231746D01*
X145514862Y-92127754D01*
X145514859Y-92127751D01*
X145514860Y-92127751D01*
X145422877Y-92050569D01*
X145310040Y-92009500D01*
X145310039Y-92009500D01*
X145189961Y-92009500D01*
X145133542Y-92030034D01*
X145077123Y-92050569D01*
X144985140Y-92127751D01*
X144925097Y-92231748D01*
X144904247Y-92349999D01*
X144904247Y-92350000D01*
X144925098Y-92468254D01*
X144985138Y-92572246D01*
X145014852Y-92597179D01*
X145039237Y-92644021D01*
X145039500Y-92650036D01*
X145039500Y-95649963D01*
X145019290Y-95698753D01*
X145014852Y-95702820D01*
X144985140Y-95727751D01*
X144925097Y-95831748D01*
X144904247Y-95949999D01*
X144904247Y-95950000D01*
X144925098Y-96068254D01*
X144985138Y-96172246D01*
X145014852Y-96197179D01*
X145039237Y-96244021D01*
X145039500Y-96250036D01*
X145039500Y-97184228D01*
X145019290Y-97233018D01*
X144283018Y-97969290D01*
X144234228Y-97989500D01*
X143991731Y-97989500D01*
X143942941Y-97969290D01*
X143930252Y-97951826D01*
X143908209Y-97908565D01*
X143908208Y-97908564D01*
X143896278Y-97889096D01*
X143896278Y-97889097D01*
X143896275Y-97889092D01*
X143883587Y-97871630D01*
X143868763Y-97854274D01*
X143795725Y-97781236D01*
X143778367Y-97766411D01*
X143778366Y-97766410D01*
X143778365Y-97766409D01*
X143778367Y-97766410D01*
X143767079Y-97758209D01*
X143760906Y-97753724D01*
X143741436Y-97741792D01*
X143649396Y-97694895D01*
X143649386Y-97694891D01*
X143649387Y-97694891D01*
X143628302Y-97686157D01*
X143607783Y-97679490D01*
X143599630Y-97677532D01*
X143585578Y-97674158D01*
X143475296Y-97656693D01*
X143469619Y-97656021D01*
X143453129Y-97654724D01*
X143447423Y-97654500D01*
X143447422Y-97654500D01*
X141352578Y-97654500D01*
X141352577Y-97654500D01*
X141346871Y-97654724D01*
X141330382Y-97656021D01*
X141324705Y-97656693D01*
X141299143Y-97660741D01*
X141214422Y-97674158D01*
X141214423Y-97674158D01*
X141214418Y-97674159D01*
X141214419Y-97674159D01*
X141192214Y-97679490D01*
X141171696Y-97686157D01*
X141150603Y-97694894D01*
X141140294Y-97700146D01*
X141136698Y-97701979D01*
X141105372Y-97709500D01*
X140635305Y-97709500D01*
X140586515Y-97689290D01*
X139460710Y-96563485D01*
X139440500Y-96514695D01*
X139440500Y-91400000D01*
X147554247Y-91400000D01*
X147571778Y-91499430D01*
X147575098Y-91518254D01*
X147635138Y-91622246D01*
X147635140Y-91622248D01*
X147635139Y-91622248D01*
X147715925Y-91690034D01*
X147727123Y-91699431D01*
X147839961Y-91740500D01*
X147960038Y-91740500D01*
X147960039Y-91740500D01*
X148072877Y-91699431D01*
X148128283Y-91652939D01*
X148155648Y-91629978D01*
X148206014Y-91614098D01*
X148244352Y-91629978D01*
X148306783Y-91682363D01*
X148327123Y-91699431D01*
X148439961Y-91740500D01*
X148560038Y-91740500D01*
X148560039Y-91740500D01*
X148672877Y-91699431D01*
X148764862Y-91622246D01*
X148824902Y-91518254D01*
X148845753Y-91400000D01*
X148824902Y-91281746D01*
X148764862Y-91177754D01*
X148764859Y-91177751D01*
X148764860Y-91177751D01*
X148672877Y-91100569D01*
X148560040Y-91059500D01*
X148560039Y-91059500D01*
X148439961Y-91059500D01*
X148398893Y-91074447D01*
X148327125Y-91100568D01*
X148244352Y-91170022D01*
X148193985Y-91185901D01*
X148155648Y-91170021D01*
X148072877Y-91100569D01*
X147960040Y-91059500D01*
X147960039Y-91059500D01*
X147839961Y-91059500D01*
X147783542Y-91080034D01*
X147727123Y-91100569D01*
X147635140Y-91177751D01*
X147635138Y-91177753D01*
X147635138Y-91177754D01*
X147589092Y-91257508D01*
X147575097Y-91281748D01*
X147554247Y-91400000D01*
X139440500Y-91400000D01*
X139440500Y-90600000D01*
X147054247Y-90600000D01*
X147075098Y-90718254D01*
X147135138Y-90822246D01*
X147135140Y-90822248D01*
X147135139Y-90822248D01*
X147175097Y-90855776D01*
X147227123Y-90899431D01*
X147339961Y-90940500D01*
X147460038Y-90940500D01*
X147460039Y-90940500D01*
X147572877Y-90899431D01*
X147664862Y-90822246D01*
X147724902Y-90718254D01*
X147745753Y-90600000D01*
X147724902Y-90481746D01*
X147664862Y-90377754D01*
X147664859Y-90377751D01*
X147664860Y-90377751D01*
X147572877Y-90300569D01*
X147460040Y-90259500D01*
X147460039Y-90259500D01*
X147339961Y-90259500D01*
X147283542Y-90280034D01*
X147227123Y-90300569D01*
X147135140Y-90377751D01*
X147075097Y-90481748D01*
X147061388Y-90559500D01*
X147054247Y-90600000D01*
X139440500Y-90600000D01*
X139440500Y-72435305D01*
X139460710Y-72386515D01*
X139736515Y-72110710D01*
X139785305Y-72090500D01*
X142060207Y-72090500D01*
X142096260Y-72100668D01*
X142108565Y-72108209D01*
X142200600Y-72155103D01*
X142200606Y-72155105D01*
X142200609Y-72155107D01*
X142200610Y-72155107D01*
X142221677Y-72163834D01*
X142221678Y-72163835D01*
X142242217Y-72170510D01*
X142242216Y-72170510D01*
X142264423Y-72175842D01*
X142374700Y-72193307D01*
X142380379Y-72193979D01*
X142396872Y-72195276D01*
X142402577Y-72195500D01*
X142402578Y-72195500D01*
X143190500Y-72195500D01*
X143239290Y-72215710D01*
X143259500Y-72264500D01*
X143259500Y-73271801D01*
X143239290Y-73320591D01*
X142285050Y-74274831D01*
X142283741Y-74276073D01*
X142251086Y-74305477D01*
X142251083Y-74305481D01*
X142240197Y-74329930D01*
X142235034Y-74339439D01*
X142220457Y-74361887D01*
X142218835Y-74372131D01*
X142213720Y-74389399D01*
X142209500Y-74398875D01*
X142209500Y-74425644D01*
X142208650Y-74436439D01*
X142204463Y-74462867D01*
X142207149Y-74472888D01*
X142209500Y-74490747D01*
X142209500Y-74731000D01*
X142189290Y-74779790D01*
X142140500Y-74800000D01*
X140850000Y-74800000D01*
X140848564Y-78822962D01*
X140850000Y-79400000D01*
X142150000Y-79400000D01*
X142150000Y-76290732D01*
X142170210Y-76241942D01*
X142219000Y-76221732D01*
X142263351Y-76237874D01*
X142277123Y-76249431D01*
X142389961Y-76290500D01*
X142510038Y-76290500D01*
X142510039Y-76290500D01*
X142622877Y-76249431D01*
X142714862Y-76172246D01*
X142774902Y-76068254D01*
X142795753Y-75950000D01*
X142774902Y-75831746D01*
X142714862Y-75727754D01*
X142710985Y-75723134D01*
X142712121Y-75722180D01*
X142690762Y-75681149D01*
X142690500Y-75675137D01*
X142690500Y-74981896D01*
X157908292Y-74981896D01*
X157918158Y-75113561D01*
X157918159Y-75113566D01*
X157966395Y-75236470D01*
X157966396Y-75236472D01*
X157966397Y-75236473D01*
X158048720Y-75339703D01*
X158157812Y-75414081D01*
X158208930Y-75429849D01*
X158283977Y-75452999D01*
X158283980Y-75452999D01*
X158283982Y-75453000D01*
X158283983Y-75453000D01*
X158382819Y-75453000D01*
X158382821Y-75453000D01*
X158443136Y-75443908D01*
X158480556Y-75438269D01*
X158480557Y-75438269D01*
X158480558Y-75438268D01*
X158480561Y-75438268D01*
X158564967Y-75397619D01*
X158617692Y-75394659D01*
X158657070Y-75429849D01*
X158663742Y-75464495D01*
X158655690Y-75582231D01*
X158685918Y-75727703D01*
X158754274Y-75859624D01*
X158754276Y-75859626D01*
X158855690Y-75968214D01*
X158855693Y-75968216D01*
X158855692Y-75968216D01*
X158926300Y-76011153D01*
X158982640Y-76045414D01*
X159125710Y-76085500D01*
X159125712Y-76085500D01*
X160036970Y-76085500D01*
X160036974Y-76085500D01*
X160082157Y-76079289D01*
X160147192Y-76070351D01*
X160147193Y-76070350D01*
X160147196Y-76070350D01*
X160283476Y-76011156D01*
X160368196Y-75942231D01*
X164605690Y-75942231D01*
X164635918Y-76087703D01*
X164704274Y-76219624D01*
X164704276Y-76219626D01*
X164805690Y-76328214D01*
X164805693Y-76328216D01*
X164805692Y-76328216D01*
X164908115Y-76390500D01*
X164932640Y-76405414D01*
X165075710Y-76445500D01*
X165075712Y-76445500D01*
X165986970Y-76445500D01*
X165986974Y-76445500D01*
X166032157Y-76439289D01*
X166097192Y-76430351D01*
X166097193Y-76430350D01*
X166097196Y-76430350D01*
X166233476Y-76371156D01*
X166348731Y-76277389D01*
X166434414Y-76156003D01*
X166484171Y-76016002D01*
X166494310Y-75867768D01*
X166464081Y-75722296D01*
X166395724Y-75590374D01*
X166294310Y-75481786D01*
X166294307Y-75481784D01*
X166294306Y-75481783D01*
X166294307Y-75481783D01*
X166167362Y-75404587D01*
X166167361Y-75404586D01*
X166167360Y-75404586D01*
X166167357Y-75404585D01*
X166167354Y-75404584D01*
X166024295Y-75364501D01*
X166024292Y-75364500D01*
X166024290Y-75364500D01*
X165113026Y-75364500D01*
X165113020Y-75364500D01*
X165002807Y-75379648D01*
X164866519Y-75438846D01*
X164751268Y-75532611D01*
X164665587Y-75653995D01*
X164665586Y-75653997D01*
X164664873Y-75656004D01*
X164615829Y-75793995D01*
X164615828Y-75793997D01*
X164605690Y-75942231D01*
X160368196Y-75942231D01*
X160398731Y-75917389D01*
X160484414Y-75796003D01*
X160534171Y-75656002D01*
X160544310Y-75507768D01*
X160514081Y-75362296D01*
X160477228Y-75291173D01*
X160445725Y-75230375D01*
X160440425Y-75224700D01*
X160344310Y-75121786D01*
X160344307Y-75121784D01*
X160344306Y-75121783D01*
X160344307Y-75121783D01*
X160217362Y-75044587D01*
X160217361Y-75044586D01*
X160217360Y-75044586D01*
X160217357Y-75044585D01*
X160217354Y-75044584D01*
X160074295Y-75004501D01*
X160074292Y-75004500D01*
X160074290Y-75004500D01*
X159163026Y-75004500D01*
X159163020Y-75004500D01*
X159052807Y-75019648D01*
X158916519Y-75078846D01*
X158903531Y-75089414D01*
X158852930Y-75104528D01*
X158806462Y-75079435D01*
X158791179Y-75041046D01*
X158789575Y-75019648D01*
X158781841Y-74916435D01*
X158757012Y-74853173D01*
X158733604Y-74793529D01*
X158733603Y-74793527D01*
X158689981Y-74738827D01*
X158651280Y-74690297D01*
X158651277Y-74690295D01*
X158651278Y-74690295D01*
X158590738Y-74649020D01*
X158542188Y-74615919D01*
X158542185Y-74615918D01*
X158416022Y-74577000D01*
X158416018Y-74577000D01*
X158317179Y-74577000D01*
X158317174Y-74577000D01*
X158219443Y-74591730D01*
X158219442Y-74591730D01*
X158100479Y-74649020D01*
X158003690Y-74738826D01*
X157937670Y-74853175D01*
X157937670Y-74853176D01*
X157908292Y-74981896D01*
X142690500Y-74981896D01*
X142690500Y-74578197D01*
X142710710Y-74529407D01*
X143090117Y-74150000D01*
X143664974Y-73575142D01*
X143666244Y-73573936D01*
X143698915Y-73544521D01*
X143709805Y-73520058D01*
X143714962Y-73510562D01*
X143729542Y-73488113D01*
X143731163Y-73477870D01*
X143736283Y-73460590D01*
X143740500Y-73451120D01*
X143740500Y-73424354D01*
X143741350Y-73413559D01*
X143745536Y-73387132D01*
X143742851Y-73377111D01*
X143740500Y-73359253D01*
X143740500Y-72264500D01*
X143760710Y-72215710D01*
X143809500Y-72195500D01*
X144797423Y-72195500D01*
X144803128Y-72195276D01*
X144819621Y-72193979D01*
X144825299Y-72193307D01*
X144935577Y-72175841D01*
X144957783Y-72170508D01*
X144957783Y-72170509D01*
X144978323Y-72163834D01*
X144978322Y-72163834D01*
X144999402Y-72155102D01*
X145045416Y-72131656D01*
X145091432Y-72108210D01*
X145110903Y-72096278D01*
X145118855Y-72090500D01*
X145128365Y-72083591D01*
X145128364Y-72083592D01*
X145137046Y-72076176D01*
X145145725Y-72068763D01*
X145218763Y-71995725D01*
X145233589Y-71978367D01*
X145233591Y-71978365D01*
X145246281Y-71960899D01*
X145258206Y-71941439D01*
X145259082Y-71939721D01*
X145305101Y-71849405D01*
X145305370Y-71848757D01*
X145313839Y-71828309D01*
X145320509Y-71807783D01*
X145325841Y-71785577D01*
X145325841Y-71785575D01*
X145325843Y-71785568D01*
X145325843Y-71785566D01*
X145331680Y-71748707D01*
X145359273Y-71703679D01*
X145399831Y-71690500D01*
X151240500Y-71690500D01*
X151289290Y-71710710D01*
X151309500Y-71759500D01*
X151309500Y-72583018D01*
X151324313Y-72681301D01*
X151324314Y-72681302D01*
X151324315Y-72681306D01*
X151381930Y-72800946D01*
X151381931Y-72800947D01*
X151381932Y-72800949D01*
X151430230Y-72853001D01*
X151472250Y-72898287D01*
X151587249Y-72964682D01*
X151716710Y-72994230D01*
X151849128Y-72984307D01*
X151972738Y-72935794D01*
X152076557Y-72853001D01*
X152151360Y-72743285D01*
X152190500Y-72616395D01*
X152190500Y-72150000D01*
X158104247Y-72150000D01*
X158112001Y-72193979D01*
X158125098Y-72268254D01*
X158185138Y-72372246D01*
X158185140Y-72372248D01*
X158185139Y-72372248D01*
X158226228Y-72406725D01*
X158277123Y-72449431D01*
X158389961Y-72490500D01*
X158510038Y-72490500D01*
X158510039Y-72490500D01*
X158622877Y-72449431D01*
X158714862Y-72372246D01*
X158774902Y-72268254D01*
X158795753Y-72150000D01*
X158774902Y-72031746D01*
X158714862Y-71927754D01*
X158714859Y-71927751D01*
X158714860Y-71927751D01*
X158622877Y-71850569D01*
X158510040Y-71809500D01*
X158510039Y-71809500D01*
X158389961Y-71809500D01*
X158338283Y-71828309D01*
X158277123Y-71850569D01*
X158185140Y-71927751D01*
X158185138Y-71927753D01*
X158185138Y-71927754D01*
X158125098Y-72031746D01*
X158125097Y-72031748D01*
X158104247Y-72150000D01*
X152190500Y-72150000D01*
X152190500Y-71700000D01*
X155304247Y-71700000D01*
X155323251Y-71807783D01*
X155325098Y-71818254D01*
X155385138Y-71922246D01*
X155385140Y-71922248D01*
X155385139Y-71922248D01*
X155452020Y-71978367D01*
X155477123Y-71999431D01*
X155589961Y-72040500D01*
X155710038Y-72040500D01*
X155710039Y-72040500D01*
X155822877Y-71999431D01*
X155914862Y-71922246D01*
X155974902Y-71818254D01*
X155995753Y-71700000D01*
X155974902Y-71581746D01*
X155914862Y-71477754D01*
X155914859Y-71477751D01*
X155914860Y-71477751D01*
X155822877Y-71400569D01*
X155793394Y-71389838D01*
X155754459Y-71354161D01*
X155752155Y-71301401D01*
X155787833Y-71262465D01*
X155793387Y-71260164D01*
X155822877Y-71249431D01*
X155914862Y-71172246D01*
X155974902Y-71068254D01*
X155995753Y-70950000D01*
X155986937Y-70900000D01*
X158304247Y-70900000D01*
X158312962Y-70949430D01*
X158325098Y-71018254D01*
X158385138Y-71122246D01*
X158385140Y-71122248D01*
X158385139Y-71122248D01*
X158465925Y-71190034D01*
X158477123Y-71199431D01*
X158589961Y-71240500D01*
X158710038Y-71240500D01*
X158710039Y-71240500D01*
X158822877Y-71199431D01*
X158914862Y-71122246D01*
X158974902Y-71018254D01*
X158995753Y-70900000D01*
X158974902Y-70781746D01*
X158914862Y-70677754D01*
X158914859Y-70677751D01*
X158914860Y-70677751D01*
X158822877Y-70600569D01*
X158710040Y-70559500D01*
X158710039Y-70559500D01*
X158589961Y-70559500D01*
X158533542Y-70580034D01*
X158477123Y-70600569D01*
X158385140Y-70677751D01*
X158385138Y-70677753D01*
X158385138Y-70677754D01*
X158332888Y-70768254D01*
X158325097Y-70781748D01*
X158304247Y-70900000D01*
X155986937Y-70900000D01*
X155974902Y-70831746D01*
X155914862Y-70727754D01*
X155914859Y-70727751D01*
X155914860Y-70727751D01*
X155822877Y-70650569D01*
X155710040Y-70609500D01*
X155710039Y-70609500D01*
X155589961Y-70609500D01*
X155533542Y-70630034D01*
X155477123Y-70650569D01*
X155385140Y-70727751D01*
X155385138Y-70727753D01*
X155385138Y-70727754D01*
X155337942Y-70809500D01*
X155325097Y-70831748D01*
X155304348Y-70949430D01*
X155304247Y-70950000D01*
X155325098Y-71068254D01*
X155385138Y-71172246D01*
X155385140Y-71172248D01*
X155385139Y-71172248D01*
X155460483Y-71235468D01*
X155477123Y-71249431D01*
X155506604Y-71260161D01*
X155545540Y-71295839D01*
X155547844Y-71348599D01*
X155512166Y-71387535D01*
X155506605Y-71389839D01*
X155477122Y-71400569D01*
X155385140Y-71477751D01*
X155385138Y-71477753D01*
X155385138Y-71477754D01*
X155338976Y-71557709D01*
X155325097Y-71581748D01*
X155304247Y-71700000D01*
X152190500Y-71700000D01*
X152190500Y-71526676D01*
X152190717Y-71522810D01*
X152195164Y-71483343D01*
X152184354Y-71426213D01*
X152175685Y-71368694D01*
X152175684Y-71368692D01*
X152174267Y-71364101D01*
X152172073Y-71357431D01*
X152170476Y-71352866D01*
X152143309Y-71301464D01*
X152118069Y-71249052D01*
X152115416Y-71245161D01*
X152111258Y-71239300D01*
X152108432Y-71235472D01*
X152108430Y-71235470D01*
X152108429Y-71235468D01*
X152067320Y-71194359D01*
X152027750Y-71151713D01*
X152027742Y-71151708D01*
X152024032Y-71148749D01*
X152014047Y-71141086D01*
X151941212Y-71068251D01*
X151830341Y-70957380D01*
X151827770Y-70954503D01*
X151824179Y-70950000D01*
X151803001Y-70923443D01*
X151802997Y-70923440D01*
X151802995Y-70923438D01*
X151754945Y-70890679D01*
X151708158Y-70856148D01*
X151703961Y-70853930D01*
X151697616Y-70850726D01*
X151693281Y-70848638D01*
X151637715Y-70831499D01*
X151582818Y-70812289D01*
X151578223Y-70811420D01*
X151571073Y-70810205D01*
X151566395Y-70809500D01*
X151508253Y-70809500D01*
X151450123Y-70807325D01*
X151450122Y-70807325D01*
X151450121Y-70807325D01*
X151445397Y-70807857D01*
X151432922Y-70809500D01*
X145414500Y-70809500D01*
X145365710Y-70789290D01*
X145345500Y-70740500D01*
X145345500Y-67815002D01*
X157919196Y-67815002D01*
X157923650Y-67843120D01*
X157924500Y-67853915D01*
X157924500Y-67938071D01*
X157924500Y-67965000D01*
X157924500Y-68026178D01*
X157958971Y-68143577D01*
X158025121Y-68246509D01*
X158117591Y-68326635D01*
X158228890Y-68377463D01*
X158350000Y-68394876D01*
X158471110Y-68377463D01*
X158582409Y-68326635D01*
X158674879Y-68246509D01*
X158741029Y-68143577D01*
X158775500Y-68026178D01*
X158775500Y-67965000D01*
X158775500Y-67938071D01*
X158775500Y-67938070D01*
X158775500Y-67853914D01*
X158776350Y-67843120D01*
X158780804Y-67815002D01*
X158780804Y-67814998D01*
X158777416Y-67793609D01*
X158789743Y-67742257D01*
X158834771Y-67714664D01*
X158881417Y-67723859D01*
X158982640Y-67785414D01*
X159125710Y-67825500D01*
X159125712Y-67825500D01*
X160036970Y-67825500D01*
X160036974Y-67825500D01*
X160082157Y-67819289D01*
X160147192Y-67810351D01*
X160147193Y-67810350D01*
X160147196Y-67810350D01*
X160283476Y-67751156D01*
X160398731Y-67657389D01*
X160484414Y-67536003D01*
X160534171Y-67396002D01*
X160544310Y-67247768D01*
X160514081Y-67102296D01*
X160445724Y-66970374D01*
X160438119Y-66962231D01*
X164605690Y-66962231D01*
X164635918Y-67107703D01*
X164704274Y-67239624D01*
X164704276Y-67239626D01*
X164805690Y-67348214D01*
X164805693Y-67348216D01*
X164805692Y-67348216D01*
X164876300Y-67391153D01*
X164932640Y-67425414D01*
X165075710Y-67465500D01*
X165075712Y-67465500D01*
X165986970Y-67465500D01*
X165986974Y-67465500D01*
X166032157Y-67459289D01*
X166097192Y-67450351D01*
X166097193Y-67450350D01*
X166097196Y-67450350D01*
X166233476Y-67391156D01*
X166348731Y-67297389D01*
X166434414Y-67176003D01*
X166484171Y-67036002D01*
X166494310Y-66887768D01*
X166464081Y-66742296D01*
X166395724Y-66610374D01*
X166294310Y-66501786D01*
X166294307Y-66501784D01*
X166294306Y-66501783D01*
X166294307Y-66501783D01*
X166167362Y-66424587D01*
X166167361Y-66424586D01*
X166167360Y-66424586D01*
X166167357Y-66424585D01*
X166167354Y-66424584D01*
X166024295Y-66384501D01*
X166024292Y-66384500D01*
X166024290Y-66384500D01*
X165113026Y-66384500D01*
X165113020Y-66384500D01*
X165002807Y-66399648D01*
X164866519Y-66458846D01*
X164751268Y-66552611D01*
X164665587Y-66673995D01*
X164615829Y-66813995D01*
X164615828Y-66813997D01*
X164605690Y-66962231D01*
X160438119Y-66962231D01*
X160344310Y-66861786D01*
X160344307Y-66861784D01*
X160344306Y-66861783D01*
X160344307Y-66861783D01*
X160217362Y-66784587D01*
X160217361Y-66784586D01*
X160217360Y-66784586D01*
X160217357Y-66784585D01*
X160217354Y-66784584D01*
X160074295Y-66744501D01*
X160074292Y-66744500D01*
X160074290Y-66744500D01*
X159163026Y-66744500D01*
X159163020Y-66744500D01*
X159052807Y-66759648D01*
X158916519Y-66818846D01*
X158801268Y-66912611D01*
X158715587Y-67033995D01*
X158715586Y-67033997D01*
X158714873Y-67036004D01*
X158665829Y-67173995D01*
X158665828Y-67173997D01*
X158661525Y-67236912D01*
X158638033Y-67284210D01*
X158587977Y-67301042D01*
X158564023Y-67294968D01*
X158471112Y-67252538D01*
X158471110Y-67252537D01*
X158350000Y-67235124D01*
X158228890Y-67252537D01*
X158228888Y-67252537D01*
X158228887Y-67252538D01*
X158117591Y-67303364D01*
X158025120Y-67383491D01*
X157958970Y-67486424D01*
X157924499Y-67603822D01*
X157924498Y-67677651D01*
X157924500Y-67677664D01*
X157924500Y-67776077D01*
X157923651Y-67786869D01*
X157919196Y-67815000D01*
X157919196Y-67815002D01*
X145345500Y-67815002D01*
X145345500Y-65652576D01*
X145345276Y-65646871D01*
X145343979Y-65630378D01*
X145343307Y-65624699D01*
X145325842Y-65514423D01*
X145320510Y-65492216D01*
X145320510Y-65492217D01*
X145313835Y-65471678D01*
X145313834Y-65471677D01*
X145305107Y-65450610D01*
X145305107Y-65450609D01*
X145305104Y-65450603D01*
X145305103Y-65450600D01*
X145258209Y-65358565D01*
X145253272Y-65350509D01*
X145246278Y-65339096D01*
X145246278Y-65339097D01*
X145246275Y-65339092D01*
X145233587Y-65321630D01*
X145218763Y-65304274D01*
X145145725Y-65231236D01*
X145128367Y-65216411D01*
X145128366Y-65216410D01*
X145128365Y-65216409D01*
X145128367Y-65216410D01*
X145117079Y-65208209D01*
X145110906Y-65203724D01*
X145091436Y-65191792D01*
X144999396Y-65144895D01*
X144999386Y-65144891D01*
X144999387Y-65144891D01*
X144978302Y-65136157D01*
X144957783Y-65129490D01*
X144949630Y-65127532D01*
X144935578Y-65124158D01*
X144825296Y-65106693D01*
X144819619Y-65106021D01*
X144803129Y-65104724D01*
X144797423Y-65104500D01*
X144797422Y-65104500D01*
X142402578Y-65104500D01*
X142402577Y-65104500D01*
X142396871Y-65104724D01*
X142380382Y-65106021D01*
X142374705Y-65106693D01*
X142349143Y-65110741D01*
X142264422Y-65124158D01*
X142264423Y-65124158D01*
X142264418Y-65124159D01*
X142264419Y-65124159D01*
X142242214Y-65129490D01*
X142221696Y-65136157D01*
X142221692Y-65136158D01*
X142221694Y-65136158D01*
X142200603Y-65144894D01*
X142200602Y-65144894D01*
X142108564Y-65191791D01*
X142108559Y-65191794D01*
X142090194Y-65203048D01*
X142089087Y-65203727D01*
X142089088Y-65203727D01*
X142071637Y-65216406D01*
X142071632Y-65216410D01*
X142071633Y-65216409D01*
X142054281Y-65231230D01*
X142054280Y-65231230D01*
X142054276Y-65231232D01*
X142054277Y-65231233D01*
X141981233Y-65304277D01*
X141966406Y-65321637D01*
X141953727Y-65339088D01*
X141953727Y-65339087D01*
X141953721Y-65339097D01*
X141941794Y-65358559D01*
X141941791Y-65358564D01*
X141894894Y-65450602D01*
X141894894Y-65450603D01*
X141886157Y-65471696D01*
X141879490Y-65492214D01*
X141879489Y-65492219D01*
X141879489Y-65492220D01*
X141874158Y-65514419D01*
X141856693Y-65624705D01*
X141856021Y-65630382D01*
X141854724Y-65646870D01*
X141854500Y-65652576D01*
X141854500Y-70540500D01*
X141834290Y-70589290D01*
X141785500Y-70609500D01*
X139508972Y-70609500D01*
X139498973Y-70608772D01*
X139489167Y-70607335D01*
X139471684Y-70604775D01*
X139471682Y-70604775D01*
X139471679Y-70604774D01*
X139438624Y-70607667D01*
X139419164Y-70609369D01*
X139416175Y-70609500D01*
X139406857Y-70609500D01*
X139376852Y-70613008D01*
X139374708Y-70613259D01*
X139366705Y-70613959D01*
X139299241Y-70619861D01*
X139299239Y-70619861D01*
X139296719Y-70620696D01*
X139295581Y-70621073D01*
X139281893Y-70624107D01*
X139278073Y-70624553D01*
X139278066Y-70624554D01*
X139208154Y-70650000D01*
X139206830Y-70650482D01*
X139134921Y-70674311D01*
X139134919Y-70674311D01*
X139134919Y-70674312D01*
X139131640Y-70676334D01*
X139119036Y-70682436D01*
X139115411Y-70683755D01*
X139115402Y-70683760D01*
X139052069Y-70725414D01*
X138987591Y-70765183D01*
X138984860Y-70767914D01*
X138974002Y-70776759D01*
X138970775Y-70778881D01*
X138918761Y-70834013D01*
X138218089Y-71534684D01*
X138210506Y-71541238D01*
X138188383Y-71557709D01*
X138188376Y-71557716D01*
X138154494Y-71598093D01*
X138152464Y-71600309D01*
X138145901Y-71606872D01*
X138145885Y-71606890D01*
X138125812Y-71632276D01*
X138077111Y-71690317D01*
X138075380Y-71693763D01*
X138067856Y-71705573D01*
X138065459Y-71708605D01*
X138065455Y-71708610D01*
X138033423Y-71777305D01*
X137999420Y-71845010D01*
X137998533Y-71848757D01*
X137993930Y-71861999D01*
X137992302Y-71865490D01*
X137992299Y-71865498D01*
X137976973Y-71939721D01*
X137959500Y-72013443D01*
X137959500Y-72017293D01*
X137958075Y-72031243D01*
X137957294Y-72035021D01*
X137959500Y-72110783D01*
X137959500Y-96791028D01*
X137958772Y-96801027D01*
X137954775Y-96828317D01*
X137954774Y-96828320D01*
X115200000Y-96828320D01*
X115200000Y-94400000D01*
X125554247Y-94400000D01*
X125575098Y-94518254D01*
X125635138Y-94622246D01*
X125635140Y-94622248D01*
X125635139Y-94622248D01*
X125692299Y-94670210D01*
X125727123Y-94699431D01*
X125839961Y-94740500D01*
X125960038Y-94740500D01*
X125960039Y-94740500D01*
X126072877Y-94699431D01*
X126164862Y-94622246D01*
X126224902Y-94518254D01*
X126245753Y-94400000D01*
X126404247Y-94400000D01*
X126425098Y-94518254D01*
X126485138Y-94622246D01*
X126485140Y-94622248D01*
X126485139Y-94622248D01*
X126542299Y-94670210D01*
X126577123Y-94699431D01*
X126689961Y-94740500D01*
X126810038Y-94740500D01*
X126810039Y-94740500D01*
X126922877Y-94699431D01*
X127014862Y-94622246D01*
X127074902Y-94518254D01*
X127095753Y-94400000D01*
X127074902Y-94281746D01*
X127014862Y-94177754D01*
X127014859Y-94177751D01*
X127014860Y-94177751D01*
X126922877Y-94100569D01*
X126810040Y-94059500D01*
X126810039Y-94059500D01*
X126689961Y-94059500D01*
X126633542Y-94080034D01*
X126577123Y-94100569D01*
X126485140Y-94177751D01*
X126485138Y-94177753D01*
X126485138Y-94177754D01*
X126437038Y-94261066D01*
X126425097Y-94281748D01*
X126424926Y-94282719D01*
X126404247Y-94400000D01*
X126245753Y-94400000D01*
X126224902Y-94281746D01*
X126164862Y-94177754D01*
X126164859Y-94177751D01*
X126164860Y-94177751D01*
X126072877Y-94100569D01*
X125960040Y-94059500D01*
X125960039Y-94059500D01*
X125839961Y-94059500D01*
X125783542Y-94080034D01*
X125727123Y-94100569D01*
X125635140Y-94177751D01*
X125635138Y-94177753D01*
X125635138Y-94177754D01*
X125587038Y-94261066D01*
X125575097Y-94281748D01*
X125574926Y-94282719D01*
X125554247Y-94400000D01*
X115200000Y-94400000D01*
X115200000Y-90700000D01*
X115200000Y-89904439D01*
X115199999Y-89065851D01*
X115220209Y-89017062D01*
X115268940Y-88996852D01*
X118150303Y-88994510D01*
X118162743Y-88994500D01*
X118487423Y-88976266D01*
X118487426Y-88976265D01*
X118487435Y-88976265D01*
X118808049Y-88921791D01*
X119120547Y-88831762D01*
X119421001Y-88707310D01*
X119705631Y-88550000D01*
X119970858Y-88361811D01*
X120213348Y-88145110D01*
X120430049Y-87902620D01*
X120618238Y-87637393D01*
X120775548Y-87352763D01*
X120900000Y-87052309D01*
X120990029Y-86739811D01*
X121044503Y-86419197D01*
X121044504Y-86419185D01*
X121062738Y-86094509D01*
X121062737Y-86094505D01*
X121062738Y-86094500D01*
X121051490Y-85980294D01*
X121051324Y-85976911D01*
X121051324Y-85922672D01*
X121051490Y-85919289D01*
X121058691Y-85846174D01*
X121058691Y-85755975D01*
X121059739Y-85743993D01*
X121067912Y-85697645D01*
X121091066Y-85566328D01*
X121094179Y-85554712D01*
X121096714Y-85547748D01*
X121155883Y-85385180D01*
X121160955Y-85374303D01*
X121251171Y-85218045D01*
X121258055Y-85208214D01*
X121374027Y-85070003D01*
X121382519Y-85061511D01*
X121520730Y-84945539D01*
X121530561Y-84938655D01*
X121686819Y-84848439D01*
X121697696Y-84843367D01*
X121867229Y-84781662D01*
X121878845Y-84778550D01*
X121885260Y-84777419D01*
X122034816Y-84751048D01*
X122046799Y-84750000D01*
X124749991Y-84750000D01*
X124750000Y-84750000D01*
X124937121Y-84730333D01*
X125116063Y-84672191D01*
X125279007Y-84578115D01*
X125418830Y-84452218D01*
X125529423Y-84300000D01*
X125605951Y-84128115D01*
X125645070Y-83944076D01*
X125645070Y-83755924D01*
X125605951Y-83571885D01*
X125529423Y-83400000D01*
X125529421Y-83399997D01*
X125529420Y-83399995D01*
X125418833Y-83247785D01*
X125279008Y-83121885D01*
X125184932Y-83067570D01*
X125116063Y-83027809D01*
X124937121Y-82969667D01*
X124937118Y-82969666D01*
X124750010Y-82950001D01*
X124750009Y-82950000D01*
X124750000Y-82950000D01*
X124749991Y-82950000D01*
X122199225Y-82950000D01*
X122195842Y-82949834D01*
X122158691Y-82946175D01*
X122158683Y-82946174D01*
X122114568Y-82948652D01*
X122091530Y-82949946D01*
X122089622Y-82950000D01*
X122000000Y-82950000D01*
X121999992Y-82950000D01*
X121999988Y-82950001D01*
X121896886Y-82960837D01*
X121895214Y-82960971D01*
X121834005Y-82964408D01*
X121833998Y-82964409D01*
X121513391Y-83018881D01*
X121513374Y-83018885D01*
X121200877Y-83108914D01*
X120900427Y-83233365D01*
X120900426Y-83233365D01*
X120615808Y-83390669D01*
X120615796Y-83390676D01*
X120350569Y-83578865D01*
X120108081Y-83795565D01*
X119891381Y-84038053D01*
X119703192Y-84303280D01*
X119703185Y-84303292D01*
X119545881Y-84587910D01*
X119545881Y-84587911D01*
X119421430Y-84888361D01*
X119331401Y-85200858D01*
X119331397Y-85200875D01*
X119276925Y-85521482D01*
X119276924Y-85521489D01*
X119269818Y-85648024D01*
X119269684Y-85649696D01*
X119251325Y-85824378D01*
X119251324Y-85824398D01*
X119251324Y-86074381D01*
X119251325Y-86074401D01*
X119262234Y-86178198D01*
X119261564Y-86197392D01*
X119230362Y-86374345D01*
X119227249Y-86385962D01*
X119165550Y-86555482D01*
X119160467Y-86566383D01*
X119070264Y-86722618D01*
X119063365Y-86732470D01*
X118947407Y-86870664D01*
X118938902Y-86879169D01*
X118800708Y-86995127D01*
X118790856Y-87002026D01*
X118634621Y-87092229D01*
X118623720Y-87097312D01*
X118454200Y-87159011D01*
X118442583Y-87162124D01*
X118264919Y-87193452D01*
X118252937Y-87194500D01*
X118162738Y-87194500D01*
X115269055Y-87196852D01*
X115220248Y-87176682D01*
X115199999Y-87127908D01*
X115199999Y-87127852D01*
X115200000Y-85864290D01*
X115200000Y-84550000D01*
X115200000Y-80250000D01*
X125454247Y-80250000D01*
X125475098Y-80368254D01*
X125535138Y-80472246D01*
X125535140Y-80472248D01*
X125535139Y-80472248D01*
X125615925Y-80540034D01*
X125627123Y-80549431D01*
X125739961Y-80590500D01*
X125860038Y-80590500D01*
X125860039Y-80590500D01*
X125972877Y-80549431D01*
X126064862Y-80472246D01*
X126124902Y-80368254D01*
X126145753Y-80250000D01*
X126124902Y-80131746D01*
X126064862Y-80027754D01*
X126064859Y-80027751D01*
X126064860Y-80027751D01*
X125972877Y-79950569D01*
X125860040Y-79909500D01*
X125860039Y-79909500D01*
X125739961Y-79909500D01*
X125704936Y-79922248D01*
X125627123Y-79950569D01*
X125535140Y-80027751D01*
X125475097Y-80131748D01*
X125454347Y-80249431D01*
X125454247Y-80250000D01*
X115200000Y-80250000D01*
X115200000Y-79700000D01*
X126204247Y-79700000D01*
X126225098Y-79818254D01*
X126285138Y-79922246D01*
X126285140Y-79922248D01*
X126285139Y-79922248D01*
X126365925Y-79990034D01*
X126377123Y-79999431D01*
X126489961Y-80040500D01*
X126610038Y-80040500D01*
X126610039Y-80040500D01*
X126722877Y-79999431D01*
X126781786Y-79950000D01*
X129154247Y-79950000D01*
X129175098Y-80068254D01*
X129235138Y-80172246D01*
X129235140Y-80172248D01*
X129235139Y-80172248D01*
X129315925Y-80240034D01*
X129327123Y-80249431D01*
X129439961Y-80290500D01*
X129560038Y-80290500D01*
X129560039Y-80290500D01*
X129672877Y-80249431D01*
X129764862Y-80172246D01*
X129824902Y-80068254D01*
X129845753Y-79950000D01*
X130354247Y-79950000D01*
X130375098Y-80068254D01*
X130435138Y-80172246D01*
X130435140Y-80172248D01*
X130435139Y-80172248D01*
X130515925Y-80240034D01*
X130527123Y-80249431D01*
X130639961Y-80290500D01*
X130760038Y-80290500D01*
X130760039Y-80290500D01*
X130872877Y-80249431D01*
X130964862Y-80172246D01*
X131024902Y-80068254D01*
X131045753Y-79950000D01*
X131024902Y-79831746D01*
X130964862Y-79727754D01*
X130964859Y-79727751D01*
X130964860Y-79727751D01*
X130872877Y-79650569D01*
X130760040Y-79609500D01*
X130760039Y-79609500D01*
X130639961Y-79609500D01*
X130583542Y-79630034D01*
X130527123Y-79650569D01*
X130435140Y-79727751D01*
X130435138Y-79727753D01*
X130435138Y-79727754D01*
X130382888Y-79818254D01*
X130375097Y-79831748D01*
X130359140Y-79922248D01*
X130354247Y-79950000D01*
X129845753Y-79950000D01*
X129824902Y-79831746D01*
X129764862Y-79727754D01*
X129764859Y-79727751D01*
X129764860Y-79727751D01*
X129672877Y-79650569D01*
X129560040Y-79609500D01*
X129560039Y-79609500D01*
X129439961Y-79609500D01*
X129383542Y-79630034D01*
X129327123Y-79650569D01*
X129235140Y-79727751D01*
X129235138Y-79727753D01*
X129235138Y-79727754D01*
X129182888Y-79818254D01*
X129175097Y-79831748D01*
X129159140Y-79922248D01*
X129154247Y-79950000D01*
X126781786Y-79950000D01*
X126814862Y-79922246D01*
X126874902Y-79818254D01*
X126895753Y-79700000D01*
X126874902Y-79581746D01*
X126814862Y-79477754D01*
X126814859Y-79477751D01*
X126814860Y-79477751D01*
X126722877Y-79400569D01*
X126610040Y-79359500D01*
X126610039Y-79359500D01*
X126489961Y-79359500D01*
X126433542Y-79380034D01*
X126377123Y-79400569D01*
X126285140Y-79477751D01*
X126225097Y-79581748D01*
X126220204Y-79609500D01*
X126204247Y-79700000D01*
X115200000Y-79700000D01*
X115200000Y-76900000D01*
X129004247Y-76900000D01*
X129025098Y-77018254D01*
X129085138Y-77122246D01*
X129085140Y-77122248D01*
X129085139Y-77122248D01*
X129165925Y-77190034D01*
X129177123Y-77199431D01*
X129289961Y-77240500D01*
X129410038Y-77240500D01*
X129410039Y-77240500D01*
X129522877Y-77199431D01*
X129614862Y-77122246D01*
X129674902Y-77018254D01*
X129695753Y-76900000D01*
X129674902Y-76781746D01*
X129614862Y-76677754D01*
X129614859Y-76677751D01*
X129614860Y-76677751D01*
X129522877Y-76600569D01*
X129410040Y-76559500D01*
X129410039Y-76559500D01*
X129289961Y-76559500D01*
X129233542Y-76580034D01*
X129177123Y-76600569D01*
X129085140Y-76677751D01*
X129085138Y-76677753D01*
X129085138Y-76677754D01*
X129052892Y-76733606D01*
X129025097Y-76781748D01*
X129004247Y-76899999D01*
X129004247Y-76900000D01*
X115200000Y-76900000D01*
X115200000Y-76049999D01*
X129804247Y-76049999D01*
X129822937Y-76156003D01*
X129825098Y-76168254D01*
X129885138Y-76272246D01*
X129885140Y-76272248D01*
X129885139Y-76272248D01*
X129951840Y-76328216D01*
X129977123Y-76349431D01*
X130089961Y-76390500D01*
X130210038Y-76390500D01*
X130210039Y-76390500D01*
X130322877Y-76349431D01*
X130414862Y-76272246D01*
X130474902Y-76168254D01*
X130495753Y-76050000D01*
X130474902Y-75931746D01*
X130414862Y-75827754D01*
X130414859Y-75827751D01*
X130414860Y-75827751D01*
X130322877Y-75750569D01*
X130210040Y-75709500D01*
X130210039Y-75709500D01*
X130089961Y-75709500D01*
X130055123Y-75722180D01*
X129977123Y-75750569D01*
X129885140Y-75827751D01*
X129825097Y-75931748D01*
X129804247Y-76049999D01*
X115200000Y-76049999D01*
X115200000Y-74150000D01*
X122404247Y-74150000D01*
X122425098Y-74268254D01*
X122485138Y-74372246D01*
X122485140Y-74372248D01*
X122485139Y-74372248D01*
X122548775Y-74425644D01*
X122577123Y-74449431D01*
X122689961Y-74490500D01*
X122810038Y-74490500D01*
X122810039Y-74490500D01*
X122922877Y-74449431D01*
X123014862Y-74372246D01*
X123074902Y-74268254D01*
X123095753Y-74150000D01*
X123074902Y-74031746D01*
X123014862Y-73927754D01*
X123014859Y-73927751D01*
X123014860Y-73927751D01*
X122922877Y-73850569D01*
X122810040Y-73809500D01*
X122810039Y-73809500D01*
X122689961Y-73809500D01*
X122633542Y-73830034D01*
X122577123Y-73850569D01*
X122485140Y-73927751D01*
X122425097Y-74031748D01*
X122404247Y-74149999D01*
X122404247Y-74150000D01*
X115200000Y-74150000D01*
X115200000Y-70650000D01*
X122404247Y-70650000D01*
X122424556Y-70765183D01*
X122425098Y-70768254D01*
X122485138Y-70872246D01*
X122485140Y-70872248D01*
X122485139Y-70872248D01*
X122546146Y-70923438D01*
X122577123Y-70949431D01*
X122689961Y-70990500D01*
X122810038Y-70990500D01*
X122810039Y-70990500D01*
X122922877Y-70949431D01*
X123014862Y-70872246D01*
X123074902Y-70768254D01*
X123095753Y-70650000D01*
X123074902Y-70531746D01*
X123014862Y-70427754D01*
X123014859Y-70427751D01*
X123014860Y-70427751D01*
X122922877Y-70350569D01*
X122810040Y-70309500D01*
X122810039Y-70309500D01*
X122689961Y-70309500D01*
X122633542Y-70330034D01*
X122577123Y-70350569D01*
X122485140Y-70427751D01*
X122425097Y-70531748D01*
X122404247Y-70650000D01*
X115200000Y-70650000D01*
X115200000Y-63200000D01*
X142454614Y-63200000D01*
X142474116Y-63410464D01*
X142474117Y-63410467D01*
X142531959Y-63613760D01*
X142626171Y-63802965D01*
X142626175Y-63802971D01*
X142753547Y-63971639D01*
X142909749Y-64114036D01*
X142909752Y-64114039D01*
X143040528Y-64195011D01*
X143089458Y-64225308D01*
X143286550Y-64301662D01*
X143494317Y-64340500D01*
X143494318Y-64340500D01*
X143705682Y-64340500D01*
X143705683Y-64340500D01*
X143913450Y-64301662D01*
X144110542Y-64225308D01*
X144290249Y-64114038D01*
X144446450Y-63971642D01*
X144573827Y-63802968D01*
X144668041Y-63613761D01*
X144725884Y-63410464D01*
X144745386Y-63200000D01*
X144745386Y-63199999D01*
X147704614Y-63199999D01*
X147724116Y-63410464D01*
X147724117Y-63410467D01*
X147781959Y-63613760D01*
X147876171Y-63802965D01*
X147876175Y-63802971D01*
X148003547Y-63971639D01*
X148159749Y-64114036D01*
X148159752Y-64114039D01*
X148290528Y-64195011D01*
X148339458Y-64225308D01*
X148536550Y-64301662D01*
X148744317Y-64340500D01*
X148744318Y-64340500D01*
X148955682Y-64340500D01*
X148955683Y-64340500D01*
X149163450Y-64301662D01*
X149360542Y-64225308D01*
X149540249Y-64114038D01*
X149696450Y-63971642D01*
X149823827Y-63802968D01*
X149918041Y-63613761D01*
X149975884Y-63410464D01*
X149995386Y-63200000D01*
X149995386Y-63199999D01*
X155604614Y-63199999D01*
X155624116Y-63410464D01*
X155624117Y-63410467D01*
X155681959Y-63613760D01*
X155776171Y-63802965D01*
X155776175Y-63802971D01*
X155903547Y-63971639D01*
X156059749Y-64114036D01*
X156059752Y-64114039D01*
X156190528Y-64195011D01*
X156239458Y-64225308D01*
X156436550Y-64301662D01*
X156644317Y-64340500D01*
X156644318Y-64340500D01*
X156855682Y-64340500D01*
X156855683Y-64340500D01*
X157063450Y-64301662D01*
X157260542Y-64225308D01*
X157440249Y-64114038D01*
X157596450Y-63971642D01*
X157723827Y-63802968D01*
X157818041Y-63613761D01*
X157875884Y-63410464D01*
X157895386Y-63200000D01*
X157875884Y-62989536D01*
X157818041Y-62786239D01*
X157723827Y-62597032D01*
X157596450Y-62428358D01*
X157440249Y-62285962D01*
X157440247Y-62285960D01*
X157260544Y-62174693D01*
X157260542Y-62174692D01*
X157063450Y-62098338D01*
X157063449Y-62098337D01*
X157063447Y-62098337D01*
X156917709Y-62071094D01*
X156855683Y-62059500D01*
X156644317Y-62059500D01*
X156596551Y-62068428D01*
X156436552Y-62098337D01*
X156239455Y-62174693D01*
X156059752Y-62285960D01*
X156059749Y-62285963D01*
X155903547Y-62428360D01*
X155776175Y-62597028D01*
X155776171Y-62597034D01*
X155681959Y-62786239D01*
X155624117Y-62989532D01*
X155624116Y-62989535D01*
X155604614Y-63199999D01*
X149995386Y-63199999D01*
X149975884Y-62989536D01*
X149918041Y-62786239D01*
X149823827Y-62597032D01*
X149696450Y-62428358D01*
X149540249Y-62285962D01*
X149540247Y-62285960D01*
X149360544Y-62174693D01*
X149360542Y-62174692D01*
X149163450Y-62098338D01*
X149163449Y-62098337D01*
X149163447Y-62098337D01*
X149017709Y-62071094D01*
X148955683Y-62059500D01*
X148744317Y-62059500D01*
X148696551Y-62068428D01*
X148536552Y-62098337D01*
X148339455Y-62174693D01*
X148159752Y-62285960D01*
X148159749Y-62285963D01*
X148003547Y-62428360D01*
X147876175Y-62597028D01*
X147876171Y-62597034D01*
X147781959Y-62786239D01*
X147724117Y-62989532D01*
X147724116Y-62989535D01*
X147704614Y-63199999D01*
X144745386Y-63199999D01*
X144725884Y-62989536D01*
X144668041Y-62786239D01*
X144573827Y-62597032D01*
X144446450Y-62428358D01*
X144290249Y-62285962D01*
X144290247Y-62285960D01*
X144110544Y-62174693D01*
X144110542Y-62174692D01*
X143913450Y-62098338D01*
X143913449Y-62098337D01*
X143913447Y-62098337D01*
X143767709Y-62071094D01*
X143705683Y-62059500D01*
X143494317Y-62059500D01*
X143446551Y-62068428D01*
X143286552Y-62098337D01*
X143089455Y-62174693D01*
X142909752Y-62285960D01*
X142909749Y-62285963D01*
X142753547Y-62428360D01*
X142626175Y-62597028D01*
X142626171Y-62597034D01*
X142531959Y-62786239D01*
X142474117Y-62989532D01*
X142474116Y-62989535D01*
X142454614Y-63200000D01*
X115200000Y-63200000D01*
X115200000Y-60169499D01*
X115220210Y-60120710D01*
X115269000Y-60100500D01*
X166630500Y-60100500D01*
X166679290Y-60120710D01*
G37*
G04 #@! TD.AperFunction*
M02*
