G04 #@! TF.GenerationSoftware,KiCad,Pcbnew,7.0.7*
G04 #@! TF.CreationDate,2024-08-26T03:28:25+03:00*
G04 #@! TF.ProjectId,telemetry_box_01,74656c65-6d65-4747-9279-5f626f785f30,rev?*
G04 #@! TF.SameCoordinates,Original*
G04 #@! TF.FileFunction,Legend,Top*
G04 #@! TF.FilePolarity,Positive*
%FSLAX46Y46*%
G04 Gerber Fmt 4.6, Leading zero omitted, Abs format (unit mm)*
G04 Created by KiCad (PCBNEW 7.0.7) date 2024-08-26 03:28:25*
%MOMM*%
%LPD*%
G01*
G04 APERTURE LIST*
G04 Aperture macros list*
%AMRoundRect*
0 Rectangle with rounded corners*
0 $1 Rounding radius*
0 $2 $3 $4 $5 $6 $7 $8 $9 X,Y pos of 4 corners*
0 Add a 4 corners polygon primitive as box body*
4,1,4,$2,$3,$4,$5,$6,$7,$8,$9,$2,$3,0*
0 Add four circle primitives for the rounded corners*
1,1,$1+$1,$2,$3*
1,1,$1+$1,$4,$5*
1,1,$1+$1,$6,$7*
1,1,$1+$1,$8,$9*
0 Add four rect primitives between the rounded corners*
20,1,$1+$1,$2,$3,$4,$5,0*
20,1,$1+$1,$4,$5,$6,$7,0*
20,1,$1+$1,$6,$7,$8,$9,0*
20,1,$1+$1,$8,$9,$2,$3,0*%
G04 Aperture macros list end*
%ADD10C,0.150000*%
%ADD11C,0.120000*%
%ADD12C,0.200000*%
%ADD13C,0.127000*%
%ADD14RoundRect,0.225000X-0.225000X-0.250000X0.225000X-0.250000X0.225000X0.250000X-0.225000X0.250000X0*%
%ADD15RoundRect,0.147500X-0.172500X0.147500X-0.172500X-0.147500X0.172500X-0.147500X0.172500X0.147500X0*%
%ADD16RoundRect,0.100000X0.130000X0.100000X-0.130000X0.100000X-0.130000X-0.100000X0.130000X-0.100000X0*%
%ADD17RoundRect,0.140000X-0.140000X-0.170000X0.140000X-0.170000X0.140000X0.170000X-0.140000X0.170000X0*%
%ADD18R,0.800000X0.900000*%
%ADD19O,1.600000X0.800000*%
%ADD20R,0.700000X0.300000*%
%ADD21C,0.650000*%
%ADD22C,0.675000*%
%ADD23RoundRect,0.102000X-0.525000X-1.100000X0.525000X-1.100000X0.525000X1.100000X-0.525000X1.100000X0*%
%ADD24RoundRect,0.102000X-0.500000X-0.525000X0.500000X-0.525000X0.500000X0.525000X-0.500000X0.525000X0*%
%ADD25RoundRect,0.100000X-0.100000X0.130000X-0.100000X-0.130000X0.100000X-0.130000X0.100000X0.130000X0*%
%ADD26RoundRect,0.100000X0.100000X-0.130000X0.100000X0.130000X-0.100000X0.130000X-0.100000X-0.130000X0*%
%ADD27RoundRect,0.100000X-0.130000X-0.100000X0.130000X-0.100000X0.130000X0.100000X-0.130000X0.100000X0*%
%ADD28RoundRect,0.225000X0.225000X0.250000X-0.225000X0.250000X-0.225000X-0.250000X0.225000X-0.250000X0*%
%ADD29C,2.000000*%
%ADD30RoundRect,0.140000X0.140000X0.170000X-0.140000X0.170000X-0.140000X-0.170000X0.140000X-0.170000X0*%
%ADD31RoundRect,0.140000X0.170000X-0.140000X0.170000X0.140000X-0.170000X0.140000X-0.170000X-0.140000X0*%
%ADD32C,0.250000*%
%ADD33R,4.850000X4.850000*%
%ADD34R,0.540000X0.800000*%
%ADD35R,1.400000X1.700000*%
%ADD36R,0.450000X1.300000*%
%ADD37R,0.650000X1.150000*%
%ADD38R,0.470000X0.520000*%
%ADD39RoundRect,0.147500X0.172500X-0.147500X0.172500X0.147500X-0.172500X0.147500X-0.172500X-0.147500X0*%
%ADD40RoundRect,0.320000X-0.080000X-0.480000X0.080000X-0.480000X0.080000X0.480000X-0.080000X0.480000X0*%
%ADD41RoundRect,0.320000X0.480000X-0.080000X0.480000X0.080000X-0.480000X0.080000X-0.480000X-0.080000X0*%
%ADD42RoundRect,0.320000X0.080000X0.480000X-0.080000X0.480000X-0.080000X-0.480000X0.080000X-0.480000X0*%
%ADD43R,3.000000X3.000000*%
%ADD44R,1.500000X1.500000*%
%ADD45R,1.600000X1.000000*%
%ADD46R,0.320000X0.690000*%
%ADD47RoundRect,0.250000X0.325000X0.450000X-0.325000X0.450000X-0.325000X-0.450000X0.325000X-0.450000X0*%
%ADD48RoundRect,0.218750X0.256250X-0.218750X0.256250X0.218750X-0.256250X0.218750X-0.256250X-0.218750X0*%
%ADD49RoundRect,0.140000X-0.170000X0.140000X-0.170000X-0.140000X0.170000X-0.140000X0.170000X0.140000X0*%
%ADD50RoundRect,0.157480X0.842520X-0.442520X0.842520X0.442520X-0.842520X0.442520X-0.842520X-0.442520X0*%
%ADD51RoundRect,0.380577X4.569423X-1.069423X4.569423X1.069423X-4.569423X1.069423X-4.569423X-1.069423X0*%
%ADD52RoundRect,0.218750X-0.218750X-0.256250X0.218750X-0.256250X0.218750X0.256250X-0.218750X0.256250X0*%
%ADD53RoundRect,0.020000X-0.410000X-0.180000X0.410000X-0.180000X0.410000X0.180000X-0.410000X0.180000X0*%
%ADD54R,1.625000X2.365000*%
G04 APERTURE END LIST*
D10*
X124293922Y-98659819D02*
X124865350Y-98659819D01*
X124579636Y-99659819D02*
X124579636Y-98659819D01*
X125579636Y-99612200D02*
X125484398Y-99659819D01*
X125484398Y-99659819D02*
X125293922Y-99659819D01*
X125293922Y-99659819D02*
X125198684Y-99612200D01*
X125198684Y-99612200D02*
X125151065Y-99516961D01*
X125151065Y-99516961D02*
X125151065Y-99136009D01*
X125151065Y-99136009D02*
X125198684Y-99040771D01*
X125198684Y-99040771D02*
X125293922Y-98993152D01*
X125293922Y-98993152D02*
X125484398Y-98993152D01*
X125484398Y-98993152D02*
X125579636Y-99040771D01*
X125579636Y-99040771D02*
X125627255Y-99136009D01*
X125627255Y-99136009D02*
X125627255Y-99231247D01*
X125627255Y-99231247D02*
X125151065Y-99326485D01*
X126198684Y-99659819D02*
X126103446Y-99612200D01*
X126103446Y-99612200D02*
X126055827Y-99516961D01*
X126055827Y-99516961D02*
X126055827Y-98659819D01*
X126960589Y-99612200D02*
X126865351Y-99659819D01*
X126865351Y-99659819D02*
X126674875Y-99659819D01*
X126674875Y-99659819D02*
X126579637Y-99612200D01*
X126579637Y-99612200D02*
X126532018Y-99516961D01*
X126532018Y-99516961D02*
X126532018Y-99136009D01*
X126532018Y-99136009D02*
X126579637Y-99040771D01*
X126579637Y-99040771D02*
X126674875Y-98993152D01*
X126674875Y-98993152D02*
X126865351Y-98993152D01*
X126865351Y-98993152D02*
X126960589Y-99040771D01*
X126960589Y-99040771D02*
X127008208Y-99136009D01*
X127008208Y-99136009D02*
X127008208Y-99231247D01*
X127008208Y-99231247D02*
X126532018Y-99326485D01*
X128008208Y-99659819D02*
X127674875Y-99183628D01*
X127436780Y-99659819D02*
X127436780Y-98659819D01*
X127436780Y-98659819D02*
X127817732Y-98659819D01*
X127817732Y-98659819D02*
X127912970Y-98707438D01*
X127912970Y-98707438D02*
X127960589Y-98755057D01*
X127960589Y-98755057D02*
X128008208Y-98850295D01*
X128008208Y-98850295D02*
X128008208Y-98993152D01*
X128008208Y-98993152D02*
X127960589Y-99088390D01*
X127960589Y-99088390D02*
X127912970Y-99136009D01*
X127912970Y-99136009D02*
X127817732Y-99183628D01*
X127817732Y-99183628D02*
X127436780Y-99183628D01*
X128865351Y-99659819D02*
X128865351Y-99136009D01*
X128865351Y-99136009D02*
X128817732Y-99040771D01*
X128817732Y-99040771D02*
X128722494Y-98993152D01*
X128722494Y-98993152D02*
X128532018Y-98993152D01*
X128532018Y-98993152D02*
X128436780Y-99040771D01*
X128865351Y-99612200D02*
X128770113Y-99659819D01*
X128770113Y-99659819D02*
X128532018Y-99659819D01*
X128532018Y-99659819D02*
X128436780Y-99612200D01*
X128436780Y-99612200D02*
X128389161Y-99516961D01*
X128389161Y-99516961D02*
X128389161Y-99421723D01*
X128389161Y-99421723D02*
X128436780Y-99326485D01*
X128436780Y-99326485D02*
X128532018Y-99278866D01*
X128532018Y-99278866D02*
X128770113Y-99278866D01*
X128770113Y-99278866D02*
X128865351Y-99231247D01*
X129770113Y-99612200D02*
X129674875Y-99659819D01*
X129674875Y-99659819D02*
X129484399Y-99659819D01*
X129484399Y-99659819D02*
X129389161Y-99612200D01*
X129389161Y-99612200D02*
X129341542Y-99564580D01*
X129341542Y-99564580D02*
X129293923Y-99469342D01*
X129293923Y-99469342D02*
X129293923Y-99183628D01*
X129293923Y-99183628D02*
X129341542Y-99088390D01*
X129341542Y-99088390D02*
X129389161Y-99040771D01*
X129389161Y-99040771D02*
X129484399Y-98993152D01*
X129484399Y-98993152D02*
X129674875Y-98993152D01*
X129674875Y-98993152D02*
X129770113Y-99040771D01*
X130579637Y-99612200D02*
X130484399Y-99659819D01*
X130484399Y-99659819D02*
X130293923Y-99659819D01*
X130293923Y-99659819D02*
X130198685Y-99612200D01*
X130198685Y-99612200D02*
X130151066Y-99516961D01*
X130151066Y-99516961D02*
X130151066Y-99136009D01*
X130151066Y-99136009D02*
X130198685Y-99040771D01*
X130198685Y-99040771D02*
X130293923Y-98993152D01*
X130293923Y-98993152D02*
X130484399Y-98993152D01*
X130484399Y-98993152D02*
X130579637Y-99040771D01*
X130579637Y-99040771D02*
X130627256Y-99136009D01*
X130627256Y-99136009D02*
X130627256Y-99231247D01*
X130627256Y-99231247D02*
X130151066Y-99326485D01*
X130817733Y-99755057D02*
X131579637Y-99755057D01*
X132008209Y-98659819D02*
X132103447Y-98659819D01*
X132103447Y-98659819D02*
X132198685Y-98707438D01*
X132198685Y-98707438D02*
X132246304Y-98755057D01*
X132246304Y-98755057D02*
X132293923Y-98850295D01*
X132293923Y-98850295D02*
X132341542Y-99040771D01*
X132341542Y-99040771D02*
X132341542Y-99278866D01*
X132341542Y-99278866D02*
X132293923Y-99469342D01*
X132293923Y-99469342D02*
X132246304Y-99564580D01*
X132246304Y-99564580D02*
X132198685Y-99612200D01*
X132198685Y-99612200D02*
X132103447Y-99659819D01*
X132103447Y-99659819D02*
X132008209Y-99659819D01*
X132008209Y-99659819D02*
X131912971Y-99612200D01*
X131912971Y-99612200D02*
X131865352Y-99564580D01*
X131865352Y-99564580D02*
X131817733Y-99469342D01*
X131817733Y-99469342D02*
X131770114Y-99278866D01*
X131770114Y-99278866D02*
X131770114Y-99040771D01*
X131770114Y-99040771D02*
X131817733Y-98850295D01*
X131817733Y-98850295D02*
X131865352Y-98755057D01*
X131865352Y-98755057D02*
X131912971Y-98707438D01*
X131912971Y-98707438D02*
X132008209Y-98659819D01*
X133293923Y-99659819D02*
X132722495Y-99659819D01*
X133008209Y-99659819D02*
X133008209Y-98659819D01*
X133008209Y-98659819D02*
X132912971Y-98802676D01*
X132912971Y-98802676D02*
X132817733Y-98897914D01*
X132817733Y-98897914D02*
X132722495Y-98945533D01*
X124389160Y-100365057D02*
X124436779Y-100317438D01*
X124436779Y-100317438D02*
X124532017Y-100269819D01*
X124532017Y-100269819D02*
X124770112Y-100269819D01*
X124770112Y-100269819D02*
X124865350Y-100317438D01*
X124865350Y-100317438D02*
X124912969Y-100365057D01*
X124912969Y-100365057D02*
X124960588Y-100460295D01*
X124960588Y-100460295D02*
X124960588Y-100555533D01*
X124960588Y-100555533D02*
X124912969Y-100698390D01*
X124912969Y-100698390D02*
X124341541Y-101269819D01*
X124341541Y-101269819D02*
X124960588Y-101269819D01*
X125579636Y-100269819D02*
X125674874Y-100269819D01*
X125674874Y-100269819D02*
X125770112Y-100317438D01*
X125770112Y-100317438D02*
X125817731Y-100365057D01*
X125817731Y-100365057D02*
X125865350Y-100460295D01*
X125865350Y-100460295D02*
X125912969Y-100650771D01*
X125912969Y-100650771D02*
X125912969Y-100888866D01*
X125912969Y-100888866D02*
X125865350Y-101079342D01*
X125865350Y-101079342D02*
X125817731Y-101174580D01*
X125817731Y-101174580D02*
X125770112Y-101222200D01*
X125770112Y-101222200D02*
X125674874Y-101269819D01*
X125674874Y-101269819D02*
X125579636Y-101269819D01*
X125579636Y-101269819D02*
X125484398Y-101222200D01*
X125484398Y-101222200D02*
X125436779Y-101174580D01*
X125436779Y-101174580D02*
X125389160Y-101079342D01*
X125389160Y-101079342D02*
X125341541Y-100888866D01*
X125341541Y-100888866D02*
X125341541Y-100650771D01*
X125341541Y-100650771D02*
X125389160Y-100460295D01*
X125389160Y-100460295D02*
X125436779Y-100365057D01*
X125436779Y-100365057D02*
X125484398Y-100317438D01*
X125484398Y-100317438D02*
X125579636Y-100269819D01*
X126293922Y-100365057D02*
X126341541Y-100317438D01*
X126341541Y-100317438D02*
X126436779Y-100269819D01*
X126436779Y-100269819D02*
X126674874Y-100269819D01*
X126674874Y-100269819D02*
X126770112Y-100317438D01*
X126770112Y-100317438D02*
X126817731Y-100365057D01*
X126817731Y-100365057D02*
X126865350Y-100460295D01*
X126865350Y-100460295D02*
X126865350Y-100555533D01*
X126865350Y-100555533D02*
X126817731Y-100698390D01*
X126817731Y-100698390D02*
X126246303Y-101269819D01*
X126246303Y-101269819D02*
X126865350Y-101269819D01*
X127722493Y-100603152D02*
X127722493Y-101269819D01*
X127484398Y-100222200D02*
X127246303Y-100936485D01*
X127246303Y-100936485D02*
X127865350Y-100936485D01*
X128246303Y-101174580D02*
X128293922Y-101222200D01*
X128293922Y-101222200D02*
X128246303Y-101269819D01*
X128246303Y-101269819D02*
X128198684Y-101222200D01*
X128198684Y-101222200D02*
X128246303Y-101174580D01*
X128246303Y-101174580D02*
X128246303Y-101269819D01*
X128912969Y-100269819D02*
X129008207Y-100269819D01*
X129008207Y-100269819D02*
X129103445Y-100317438D01*
X129103445Y-100317438D02*
X129151064Y-100365057D01*
X129151064Y-100365057D02*
X129198683Y-100460295D01*
X129198683Y-100460295D02*
X129246302Y-100650771D01*
X129246302Y-100650771D02*
X129246302Y-100888866D01*
X129246302Y-100888866D02*
X129198683Y-101079342D01*
X129198683Y-101079342D02*
X129151064Y-101174580D01*
X129151064Y-101174580D02*
X129103445Y-101222200D01*
X129103445Y-101222200D02*
X129008207Y-101269819D01*
X129008207Y-101269819D02*
X128912969Y-101269819D01*
X128912969Y-101269819D02*
X128817731Y-101222200D01*
X128817731Y-101222200D02*
X128770112Y-101174580D01*
X128770112Y-101174580D02*
X128722493Y-101079342D01*
X128722493Y-101079342D02*
X128674874Y-100888866D01*
X128674874Y-100888866D02*
X128674874Y-100650771D01*
X128674874Y-100650771D02*
X128722493Y-100460295D01*
X128722493Y-100460295D02*
X128770112Y-100365057D01*
X128770112Y-100365057D02*
X128817731Y-100317438D01*
X128817731Y-100317438D02*
X128912969Y-100269819D01*
X129579636Y-100269819D02*
X130246302Y-100269819D01*
X130246302Y-100269819D02*
X129817731Y-101269819D01*
D11*
X143859420Y-101460000D02*
X144140580Y-101460000D01*
X143859420Y-100440000D02*
X144140580Y-100440000D01*
X157842164Y-85540000D02*
X158057836Y-85540000D01*
X157842164Y-86260000D02*
X158057836Y-86260000D01*
X155950000Y-93500000D02*
X158250000Y-93500000D01*
X158250000Y-93500000D02*
X158250000Y-90800000D01*
D12*
X156950000Y-74215000D02*
G75*
G03*
X156950000Y-74215000I-100000J0D01*
G01*
D13*
X164420000Y-66815000D02*
X160670000Y-66815000D01*
X158550000Y-66815000D02*
X157440000Y-66815000D01*
X157440000Y-66815000D02*
X157440000Y-68185000D01*
X157440000Y-74645000D02*
X157440000Y-76015000D01*
X160670000Y-76015000D02*
X164420000Y-76015000D01*
X157440000Y-76015000D02*
X158550000Y-76015000D01*
X142800000Y-75250000D02*
X142170000Y-75250000D01*
X140200000Y-75250000D02*
X140830000Y-75250000D01*
X140200000Y-72650000D02*
X142800000Y-72650000D01*
D11*
X137440580Y-101460000D02*
X137159420Y-101460000D01*
X137440580Y-100440000D02*
X137159420Y-100440000D01*
X150050000Y-63200000D02*
G75*
G03*
X150050000Y-63200000I-1200000J0D01*
G01*
X154407836Y-66610000D02*
X154192164Y-66610000D01*
X154407836Y-65890000D02*
X154192164Y-65890000D01*
X149090000Y-82757836D02*
X149090000Y-82542164D01*
X149810000Y-82757836D02*
X149810000Y-82542164D01*
X144800000Y-63200000D02*
G75*
G03*
X144800000Y-63200000I-1200000J0D01*
G01*
X147490000Y-91010000D02*
X148050000Y-91010000D01*
X147490000Y-91010000D02*
X147490000Y-90450000D01*
X154710000Y-91010000D02*
X154150000Y-91010000D01*
X154710000Y-91010000D02*
X154710000Y-90450000D01*
X147490000Y-83790000D02*
X147490000Y-84350000D01*
X147490000Y-83790000D02*
X148050000Y-83790000D01*
X154710000Y-83790000D02*
X154710000Y-84350000D01*
X137440580Y-99960000D02*
X137159420Y-99960000D01*
X137440580Y-98940000D02*
X137159420Y-98940000D01*
X164500000Y-80400000D02*
G75*
G03*
X164500000Y-80400000I-1200000J0D01*
G01*
X157950000Y-63200000D02*
G75*
G03*
X157950000Y-63200000I-1200000J0D01*
G01*
X164500000Y-87400000D02*
G75*
G03*
X164500000Y-87400000I-1200000J0D01*
G01*
X164500000Y-90900000D02*
G75*
G03*
X164500000Y-90900000I-1200000J0D01*
G01*
X145034420Y-70560000D02*
X145315580Y-70560000D01*
X145034420Y-69540000D02*
X145315580Y-69540000D01*
X163200000Y-63200000D02*
G75*
G03*
X163200000Y-63200000I-1200000J0D01*
G01*
X122150000Y-74150000D02*
G75*
G03*
X122150000Y-74150000I-1200000J0D01*
G01*
X122900000Y-95950000D02*
G75*
G03*
X122900000Y-95950000I-1200000J0D01*
G01*
D12*
X127840000Y-76547500D02*
G75*
G03*
X127840000Y-76547500I-100000J0D01*
G01*
D13*
X124170000Y-60027500D02*
X136820000Y-60027500D01*
X124170000Y-69047500D02*
X124170000Y-63047500D01*
X136820000Y-69547500D02*
X136820000Y-62547500D01*
X136820000Y-75477500D02*
X136820000Y-73777500D01*
X133495000Y-75477500D02*
X136820000Y-75477500D01*
X124170000Y-75477500D02*
X124170000Y-73777500D01*
X124170000Y-75477500D02*
X125415000Y-75477500D01*
D11*
X151390000Y-75587836D02*
X151390000Y-75372164D01*
X152110000Y-75587836D02*
X152110000Y-75372164D01*
X145034420Y-67560000D02*
X145315580Y-67560000D01*
X145034420Y-66540000D02*
X145315580Y-66540000D01*
X122900000Y-92450000D02*
G75*
G03*
X122900000Y-92450000I-1200000J0D01*
G01*
D12*
X153520000Y-81610000D02*
G75*
G03*
X153520000Y-81610000I-100000J0D01*
G01*
D11*
X114557836Y-88460000D02*
X114342164Y-88460000D01*
X114557836Y-87740000D02*
X114342164Y-87740000D01*
D13*
X119875000Y-79100000D02*
X122475000Y-79100000D01*
X119875000Y-81700000D02*
X120505000Y-81700000D01*
X122475000Y-81700000D02*
X121845000Y-81700000D01*
D11*
X146457836Y-85360000D02*
X146242164Y-85360000D01*
X146457836Y-84640000D02*
X146242164Y-84640000D01*
X152312164Y-65890000D02*
X152527836Y-65890000D01*
X152312164Y-66610000D02*
X152527836Y-66610000D01*
X145034420Y-69060000D02*
X145315580Y-69060000D01*
X145034420Y-68040000D02*
X145315580Y-68040000D01*
D13*
X124100000Y-96850000D02*
X124100000Y-78050000D01*
X143300000Y-96850000D02*
X124100000Y-96850000D01*
X143300000Y-96850000D02*
X143300000Y-78050000D01*
X124100000Y-78050000D02*
X143300000Y-78050000D01*
D12*
X152950000Y-76410000D02*
G75*
G03*
X152950000Y-76410000I-100000J0D01*
G01*
D13*
X154630000Y-75500000D02*
X154630000Y-73500000D01*
X152370000Y-75500000D02*
X152370000Y-73500000D01*
D11*
X140911252Y-99990000D02*
X140388748Y-99990000D01*
X140911252Y-101410000D02*
X140388748Y-101410000D01*
X146790000Y-82262779D02*
X146790000Y-81937221D01*
X147810000Y-82262779D02*
X147810000Y-81937221D01*
X143859420Y-99960000D02*
X144140580Y-99960000D01*
X143859420Y-98940000D02*
X144140580Y-98940000D01*
X146457836Y-84410000D02*
X146242164Y-84410000D01*
X146457836Y-83690000D02*
X146242164Y-83690000D01*
X116310000Y-88792164D02*
X116310000Y-89007836D01*
X115590000Y-88792164D02*
X115590000Y-89007836D01*
X122150000Y-70650000D02*
G75*
G03*
X122150000Y-70650000I-1200000J0D01*
G01*
X156237221Y-83790000D02*
X156562779Y-83790000D01*
X156237221Y-84810000D02*
X156562779Y-84810000D01*
X148140000Y-82757836D02*
X148140000Y-82542164D01*
X148860000Y-82757836D02*
X148860000Y-82542164D01*
X154490000Y-82757836D02*
X154490000Y-82542164D01*
X155210000Y-82757836D02*
X155210000Y-82542164D01*
X146460000Y-81992164D02*
X146460000Y-82207836D01*
X145740000Y-81992164D02*
X145740000Y-82207836D01*
X151390000Y-73462164D02*
X151390000Y-73677836D01*
X152110000Y-73462164D02*
X152110000Y-73677836D01*
D13*
X151800000Y-67000000D02*
X154900000Y-67000000D01*
X151800000Y-70100000D02*
X154900000Y-70100000D01*
D12*
X150955000Y-67600000D02*
G75*
G03*
X150955000Y-67600000I-100000J0D01*
G01*
D11*
X164500000Y-83900000D02*
G75*
G03*
X164500000Y-83900000I-1200000J0D01*
G01*
X164500000Y-94400000D02*
G75*
G03*
X164500000Y-94400000I-1200000J0D01*
G01*
%LPC*%
D14*
X144775000Y-100950000D03*
X143225000Y-100950000D03*
D15*
X152000000Y-92415000D03*
X152000000Y-93385000D03*
D16*
X154435000Y-71695000D03*
X155075000Y-71695000D03*
D17*
X157470000Y-85900000D03*
X158430000Y-85900000D03*
D18*
X157650000Y-92850000D03*
X157650000Y-91450000D03*
X156550000Y-91450000D03*
X156550000Y-92850000D03*
D19*
X165550000Y-75905000D03*
X165550000Y-66925000D03*
X159600000Y-67285000D03*
X159600000Y-75545000D03*
D20*
X159390000Y-74415000D03*
X159390000Y-73915000D03*
X159390000Y-73415000D03*
X159390000Y-72915000D03*
X159390000Y-72415000D03*
X159390000Y-71915000D03*
X159390000Y-71415000D03*
X159390000Y-70915000D03*
X159390000Y-70415000D03*
X159390000Y-69915000D03*
X159390000Y-69415000D03*
X159390000Y-68915000D03*
X157690000Y-68665000D03*
X157690000Y-69165000D03*
X157690000Y-69665000D03*
X157690000Y-70165000D03*
X157690000Y-70665000D03*
X157690000Y-71165000D03*
X157690000Y-71665000D03*
X157690000Y-72165000D03*
X157690000Y-72665000D03*
X157690000Y-73165000D03*
X157690000Y-73665000D03*
X157690000Y-74165000D03*
D21*
X158350000Y-67815000D03*
D22*
X158350000Y-75015000D03*
D16*
X126430000Y-76600000D03*
X127070000Y-76600000D03*
D23*
X142975000Y-73950000D03*
D24*
X141500000Y-75475000D03*
D23*
X140025000Y-73950000D03*
D25*
X144550000Y-95375000D03*
X144550000Y-94735000D03*
X150850000Y-92270000D03*
X150850000Y-91630000D03*
D26*
X145250000Y-94735000D03*
X145250000Y-95375000D03*
D27*
X146470000Y-85850000D03*
X145830000Y-85850000D03*
D16*
X153225000Y-76750000D03*
X153865000Y-76750000D03*
D28*
X138075000Y-100950000D03*
X136525000Y-100950000D03*
D29*
X148850000Y-63200000D03*
D30*
X154780000Y-66250000D03*
X153820000Y-66250000D03*
D31*
X149450000Y-83130000D03*
X149450000Y-82170000D03*
D29*
X143600000Y-63200000D03*
D32*
X149100000Y-90150000D03*
X149100000Y-84650000D03*
X149350000Y-90650000D03*
X149350000Y-84150000D03*
X149600000Y-90150000D03*
X149850000Y-90650000D03*
X149850000Y-84150000D03*
X150100000Y-90150000D03*
X150100000Y-84650000D03*
X150350000Y-90650000D03*
X150350000Y-84150000D03*
X150600000Y-90150000D03*
X150600000Y-84650000D03*
X150850000Y-90650000D03*
X150850000Y-84150000D03*
X151100000Y-84650000D03*
X151350000Y-90650000D03*
X151350000Y-84150000D03*
X151600000Y-84650000D03*
X151850000Y-90650000D03*
X151850000Y-84150000D03*
X152100000Y-90150000D03*
X152100000Y-84650000D03*
X152350000Y-84150000D03*
X152600000Y-90150000D03*
X152600000Y-84650000D03*
D33*
X151100000Y-87400000D03*
D32*
X152850000Y-90650000D03*
X153100000Y-90150000D03*
X153100000Y-84650000D03*
X153350000Y-84150000D03*
X153850000Y-90650000D03*
X153850000Y-88900000D03*
X153850000Y-88400000D03*
X153850000Y-87900000D03*
X153850000Y-87400000D03*
X153850000Y-86900000D03*
X153850000Y-86400000D03*
X153850000Y-85900000D03*
X153850000Y-85400000D03*
X153850000Y-84900000D03*
X153850000Y-84150000D03*
X147850000Y-90150000D03*
X147850000Y-89650000D03*
X147850000Y-89150000D03*
X147850000Y-88650000D03*
X147850000Y-88150000D03*
X147850000Y-87650000D03*
X147850000Y-87150000D03*
X147850000Y-86650000D03*
X147850000Y-86150000D03*
X147850000Y-85650000D03*
X147850000Y-85150000D03*
X147850000Y-84650000D03*
X148350000Y-90650000D03*
X148350000Y-89400000D03*
X148350000Y-88900000D03*
X148350000Y-88400000D03*
X148350000Y-87900000D03*
X148350000Y-87400000D03*
X148350000Y-86900000D03*
X148350000Y-86400000D03*
X148350000Y-85400000D03*
X148600000Y-84650000D03*
X148850000Y-90650000D03*
X154350000Y-90150000D03*
X154350000Y-89650000D03*
X154350000Y-89150000D03*
X154350000Y-88650000D03*
X154350000Y-88150000D03*
X154350000Y-87650000D03*
X154350000Y-87150000D03*
X154350000Y-86650000D03*
X154350000Y-86150000D03*
D28*
X138075000Y-99450000D03*
X136525000Y-99450000D03*
D29*
X163300000Y-80400000D03*
X156750000Y-63200000D03*
X163300000Y-87400000D03*
D27*
X157420000Y-90400000D03*
X156780000Y-90400000D03*
D29*
X163300000Y-90900000D03*
D14*
X145950000Y-70050000D03*
X144400000Y-70050000D03*
D29*
X162000000Y-63200000D03*
X120950000Y-74150000D03*
X121700000Y-95950000D03*
D34*
X133035000Y-61897500D03*
X127955000Y-61897500D03*
D35*
X124390000Y-61317500D03*
X136600000Y-61317500D03*
D36*
X136765000Y-70877500D03*
X136765000Y-72877500D03*
X124225000Y-70877500D03*
X124225000Y-72877500D03*
D37*
X131550000Y-75047500D03*
X129010000Y-75047500D03*
X126470000Y-75047500D03*
X132820000Y-75047500D03*
X130280000Y-75047500D03*
X127740000Y-75047500D03*
D25*
X144550000Y-91775000D03*
X144550000Y-91135000D03*
D31*
X151750000Y-75960000D03*
X151750000Y-75000000D03*
D14*
X145950000Y-67050000D03*
X144400000Y-67050000D03*
D29*
X121700000Y-92450000D03*
D16*
X136980000Y-98250000D03*
X137620000Y-98250000D03*
D38*
X152435000Y-81610000D03*
X152435000Y-80790000D03*
X151765000Y-80790000D03*
X151765000Y-81610000D03*
D39*
X112950000Y-89385000D03*
X112950000Y-88415000D03*
D30*
X114930000Y-88100000D03*
X113970000Y-88100000D03*
D23*
X119700000Y-80400000D03*
D24*
X121175000Y-81925000D03*
D23*
X122650000Y-80400000D03*
D30*
X146830000Y-85000000D03*
X145870000Y-85000000D03*
D17*
X151940000Y-66250000D03*
X152900000Y-66250000D03*
D14*
X145950000Y-68550000D03*
X144400000Y-68550000D03*
D40*
X125900000Y-96450000D03*
X127100000Y-96450000D03*
X128300000Y-96450000D03*
X129500000Y-96450000D03*
X130700000Y-96450000D03*
X131900000Y-96450000D03*
X133100000Y-96450000D03*
X134300000Y-96450000D03*
X135500000Y-96450000D03*
X136700000Y-96450000D03*
X137900000Y-96450000D03*
X139100000Y-96450000D03*
X140300000Y-96450000D03*
X141500000Y-96450000D03*
D41*
X142900000Y-94650000D03*
X142900000Y-93450000D03*
X142900000Y-92250000D03*
X142900000Y-91050000D03*
X142900000Y-89850000D03*
X142900000Y-88650000D03*
X142900000Y-87450000D03*
X142900000Y-86250000D03*
X142900000Y-85050000D03*
X142900000Y-83850000D03*
X142900000Y-82650000D03*
X142900000Y-81450000D03*
X142900000Y-80250000D03*
D42*
X141500000Y-78450000D03*
X140300000Y-78450000D03*
X139100000Y-78450000D03*
X137900000Y-78450000D03*
X136700000Y-78450000D03*
X135500000Y-78450000D03*
X134300000Y-78450000D03*
X133100000Y-78450000D03*
X131900000Y-78450000D03*
X130700000Y-78450000D03*
X129500000Y-78450000D03*
X128300000Y-78450000D03*
X127100000Y-78450000D03*
X125900000Y-78450000D03*
D41*
X124500000Y-80250000D03*
X124500000Y-81450000D03*
X124500000Y-82650000D03*
X124500000Y-83850000D03*
X124500000Y-85050000D03*
X124500000Y-86250000D03*
X124500000Y-87450000D03*
X124500000Y-88650000D03*
X124500000Y-89850000D03*
X124500000Y-91050000D03*
X124500000Y-92250000D03*
X124500000Y-93450000D03*
X124500000Y-94650000D03*
D43*
X129000000Y-91650000D03*
D44*
X135600000Y-89350000D03*
D45*
X153500000Y-74500000D03*
D46*
X152850000Y-73480000D03*
X153500000Y-73480000D03*
X154150000Y-73480000D03*
X154150000Y-75520000D03*
X153500000Y-75520000D03*
X152850000Y-75520000D03*
D27*
X143170000Y-76650000D03*
X142530000Y-76650000D03*
D16*
X156780000Y-93900000D03*
X157420000Y-93900000D03*
D27*
X152570000Y-91600000D03*
X151930000Y-91600000D03*
D47*
X139625000Y-100700000D03*
X141675000Y-100700000D03*
D26*
X153300000Y-80880000D03*
X153300000Y-81520000D03*
D27*
X155970000Y-89650000D03*
X155330000Y-89650000D03*
D48*
X147300000Y-82887500D03*
X147300000Y-81312500D03*
D15*
X158400000Y-84015000D03*
X158400000Y-84985000D03*
D27*
X155970000Y-85400000D03*
X155330000Y-85400000D03*
D25*
X153300000Y-92270000D03*
X153300000Y-91630000D03*
D16*
X146130000Y-90150000D03*
X146770000Y-90150000D03*
D14*
X144775000Y-99450000D03*
X143225000Y-99450000D03*
D30*
X146830000Y-84050000D03*
X145870000Y-84050000D03*
D16*
X154435000Y-70950000D03*
X155075000Y-70950000D03*
D49*
X115950000Y-88420000D03*
X115950000Y-89380000D03*
D27*
X152420000Y-79900000D03*
X151780000Y-79900000D03*
D50*
X110000000Y-88100000D03*
D51*
X106000000Y-101500000D03*
X106000000Y-62500000D03*
D29*
X120950000Y-70650000D03*
D26*
X145250000Y-91135000D03*
X145250000Y-91775000D03*
D25*
X155900000Y-69270000D03*
X155900000Y-68630000D03*
D26*
X153300000Y-82530000D03*
X153300000Y-83170000D03*
X154000000Y-82530000D03*
X154000000Y-83170000D03*
D27*
X152570000Y-94200000D03*
X151930000Y-94200000D03*
D52*
X155612500Y-84300000D03*
X157187500Y-84300000D03*
D25*
X154000000Y-92270000D03*
X154000000Y-91630000D03*
D16*
X145830000Y-86550000D03*
X146470000Y-86550000D03*
D31*
X148500000Y-83130000D03*
X148500000Y-82170000D03*
D26*
X134550000Y-99130000D03*
X134550000Y-99770000D03*
D31*
X154850000Y-83130000D03*
X154850000Y-82170000D03*
D49*
X146100000Y-81620000D03*
X146100000Y-82580000D03*
D16*
X146130000Y-87650000D03*
X146770000Y-87650000D03*
D49*
X151750000Y-74050000D03*
X151750000Y-73090000D03*
D53*
X151915000Y-67600000D03*
X151915000Y-68550000D03*
X151915000Y-69500000D03*
X154785000Y-69500000D03*
X154785000Y-68550000D03*
X154785000Y-67600000D03*
D54*
X153350000Y-68550000D03*
D29*
X163300000Y-83900000D03*
X163300000Y-94400000D03*
%LPD*%
M02*
