M48
; DRILL file {KiCad 7.0.7} date 2024 August 26, Monday 03:28:38
; FORMAT={-:-/ absolute / inch / decimal}
; #@! TF.CreationDate,2024-08-26T03:28:38+03:00
; #@! TF.GenerationSoftware,Kicad,Pcbnew,7.0.7
; #@! TF.FileFunction,Plated,1,4,PTH
FMAT,2
INCH
; #@! TA.AperFunction,Plated,PTH,ViaDrill
T1C0.0079
; #@! TA.AperFunction,Plated,PTH,ComponentDrill
T2C0.0197
; #@! TA.AperFunction,Plated,PTH,ComponentDrill
T3C0.0394
%
G90
G05
T1
X4.5453Y-2.3996
X4.5453Y-2.4783
X4.5453Y-2.5571
X4.5453Y-2.6358
X4.5453Y-2.7146
X4.5453Y-2.7933
X4.5453Y-2.872
X4.5453Y-2.9508
X4.5453Y-3.0295
X4.5453Y-3.1083
X4.5453Y-3.187
X4.5453Y-3.2657
X4.5453Y-3.3445
X4.5453Y-3.4232
X4.5453Y-3.5433
X4.5453Y-3.5925
X4.5453Y-3.6713
X4.5453Y-3.75
X4.5453Y-3.8287
X4.5453Y-3.9075
X4.5453Y-3.9862
X4.5453Y-4.065
X4.5886Y-2.8406
X4.5945Y-3.4232
X4.5945Y-3.5138
X4.5984Y-2.6732
X4.622Y-2.5965
X4.628Y-3.1535
X4.6339Y-3.4232
X4.6339Y-3.5138
X4.6417Y-3.7244
X4.6457Y-3.6102
X4.6457Y-3.8327
X4.6476Y-3.9232
X4.6496Y-4.0531
X4.6535Y-2.5217
X4.6673Y-2.4193
X4.6673Y-2.9882
X4.6752Y-3.4154
X4.6791Y-3.5098
X4.687Y-3.3799
X4.6929Y-3.3406
X4.7106Y-3.3071
X4.7165Y-3.4941
X4.7185Y-3.0728
X4.7264Y-3.9232
X4.7382Y-3.2795
X4.7402Y-2.4961
X4.748Y-3.4665
X4.75Y-4.0492
X4.7618Y-2.5965
X4.7677Y-3.4311
X4.7736Y-3.2618
X4.7756Y-3.3917
X4.7854Y-3.3563
X4.7992Y-3.498
X4.8012Y-2.4154
X4.8051Y-3.9232
X4.813Y-3.0512
X4.815Y-3.2559
X4.815Y-3.3465
X4.8189Y-2.5177
X4.8287Y-4.0492
X4.8327Y-2.7815
X4.8327Y-2.9193
X4.8543Y-3.2559
X4.8543Y-3.3465
X4.8563Y-3.8839
X4.8937Y-2.5827
X4.9055Y-2.7185
X4.9075Y-2.9488
X4.9075Y-4.0492
X4.9449Y-3.2717
X4.9449Y-3.3307
X4.9528Y-3.1594
X4.9528Y-3.9331
X4.9567Y-3.3012
X4.9567Y-3.7165
X4.9744Y-2.4094
X4.9823Y-3.1378
X4.9862Y-4.0492
X4.9902Y-3.7165
X4.9941Y-2.6594
X5.0039Y-2.815
X5.0236Y-2.5433
X5.0315Y-3.2264
X5.0315Y-3.4114
X5.0354Y-3.565
X5.0354Y-3.6083
X5.0354Y-3.6516
X5.065Y-3.937
X5.065Y-4.0492
X5.0787Y-3.565
X5.0787Y-3.6083
X5.0787Y-3.6516
X5.0807Y-2.7579
X5.0925Y-3.0276
X5.0984Y-3.1476
X5.1024Y-3.4921
X5.122Y-3.565
X5.122Y-3.6083
X5.122Y-3.6516
X5.124Y-2.9941
X5.128Y-2.6201
X5.1299Y-2.4272
X5.1437Y-4.0492
X5.1457Y-3.1476
X5.1457Y-3.3504
X5.1476Y-3.248
X5.1496Y-2.815
X5.1516Y-3.9449
X5.1673Y-2.5256
X5.1831Y-3.6299
X5.2087Y-2.685
X5.2224Y-4.0492
X5.2362Y-3.4665
X5.2618Y-3.3425
X5.2657Y-3.2362
X5.2677Y-2.5984
X5.2854Y-2.7953
X5.2972Y-3.9508
X5.3189Y-3.498
X5.3189Y-3.5374
X5.3228Y-4.0492
X5.3248Y-2.5256
X5.3327Y-2.7106
X5.3327Y-2.9469
X5.3327Y-3.6476
X5.3386Y-3.5177
X5.3386Y-3.8996
X5.3386Y-3.9311
X5.3386Y-3.9587
X5.3386Y-3.9902
X5.3563Y-3.3661
X5.3583Y-3.498
X5.3583Y-3.5374
X5.3701Y-3.8681
X5.3819Y-3.748
X5.3858Y-3.2598
X5.4016Y-4.0492
X5.4449Y-2.6535
X5.4803Y-4.0492
X5.5315Y-3.0
X5.5315Y-3.0413
X5.5315Y-3.4055
X5.5413Y-3.128
X5.5453Y-2.4547
X5.5453Y-2.5335
X5.5453Y-2.6122
X5.5453Y-2.6909
X5.5453Y-2.7697
X5.5591Y-4.0492
X5.561Y-3.8661
X5.561Y-3.8957
X5.561Y-3.9252
X5.5709Y-3.1417
X5.5807Y-2.3878
X5.5906Y-3.8661
X5.5906Y-3.8957
X5.5906Y-3.9252
X5.6004Y-2.6102
X5.6004Y-2.6693
X5.6004Y-2.7264
X5.6004Y-2.7874
X5.6043Y-3.122
X5.6083Y-2.9902
X5.6102Y-3.0413
X5.6102Y-3.0827
X5.622Y-3.8661
X5.6378Y-4.0492
X5.6496Y-2.5807
X5.6496Y-2.6398
X5.6496Y-2.6988
X5.6496Y-2.7579
X5.6496Y-2.8169
X5.6516Y-3.8661
X5.6594Y-2.3878
X5.6831Y-2.9803
X5.687Y-3.0827
X5.689Y-3.1673
X5.6909Y-3.6358
X5.6909Y-3.7776
X5.7067Y-2.6102
X5.7067Y-2.7874
X5.7165Y-3.3091
X5.7165Y-3.3465
X5.7165Y-3.3858
X5.7165Y-3.4075
X5.7165Y-4.0492
X5.7185Y-3.6358
X5.7185Y-3.7776
X5.7244Y-3.252
X5.7283Y-3.4508
X5.7283Y-3.5492
X5.7362Y-3.8996
X5.7362Y-3.9311
X5.7362Y-3.9587
X5.7362Y-3.9902
X5.7382Y-2.3878
X5.752Y-3.1713
X5.752Y-3.189
X5.752Y-3.2776
X5.7756Y-3.4685
X5.7776Y-3.5236
X5.7815Y-3.4291
X5.7835Y-2.6398
X5.7835Y-2.6988
X5.7835Y-2.7579
X5.7854Y-3.8248
X5.7854Y-3.8602
X5.7854Y-3.8957
X5.7854Y-3.9311
X5.7854Y-3.9665
X5.7854Y-4.002
X5.7854Y-4.0374
X5.7854Y-4.0728
X5.7972Y-3.4744
X5.7983Y-3.5091
X5.803Y-3.3412
X5.8031Y-3.5669
X5.815Y-3.8091
X5.8169Y-2.3878
X5.8189Y-2.6693
X5.8189Y-2.7283
X5.8228Y-3.5984
X5.8465Y-3.1831
X5.8465Y-3.2087
X5.8465Y-3.5984
X5.8544Y-3.2991
X5.8701Y-3.3622
X5.8701Y-3.4016
X5.8701Y-3.4409
X5.8701Y-3.4803
X5.8701Y-3.5197
X5.874Y-3.8091
X5.8839Y-3.1831
X5.8839Y-3.2087
X5.8957Y-2.3878
X5.9055Y-3.2697
X5.9094Y-3.3622
X5.9094Y-3.4016
X5.9094Y-3.4409
X5.9094Y-3.4803
X5.9094Y-3.5197
X5.9094Y-3.8091
X5.9213Y-3.6575
X5.9429Y-3.6752
X5.9429Y-3.7047
X5.9449Y-3.8091
X5.9488Y-3.3622
X5.9488Y-3.4016
X5.9488Y-3.4409
X5.9488Y-3.4803
X5.9488Y-3.5197
X5.9744Y-2.3878
X5.9744Y-2.815
X5.9744Y-2.8346
X5.9744Y-2.8543
X5.9744Y-3.0236
X5.9744Y-3.0413
X5.9744Y-3.0591
X5.9803Y-3.8091
X5.9882Y-3.3622
X5.9882Y-3.4016
X5.9882Y-3.4409
X5.9882Y-3.4803
X5.9882Y-3.5197
X6.0157Y-2.6634
X6.0157Y-2.7343
X6.0157Y-3.8091
X6.0217Y-3.6752
X6.0217Y-3.7343
X6.0217Y-3.7638
X6.0256Y-3.7047
X6.0276Y-3.3622
X6.0276Y-3.4016
X6.0276Y-3.4409
X6.0276Y-3.4803
X6.0276Y-3.5197
X6.0354Y-3.0689
X6.0354Y-3.1594
X6.0354Y-3.5906
X6.0374Y-2.685
X6.0374Y-2.7126
X6.0433Y-2.9331
X6.0433Y-3.6575
X6.0512Y-3.8091
X6.0531Y-2.3878
X6.0591Y-2.6634
X6.0591Y-2.7343
X6.063Y-3.185
X6.063Y-3.2244
X6.065Y-3.7224
X6.0709Y-3.6575
X6.0866Y-3.8091
X6.094Y-3.3593
X6.0965Y-3.2087
X6.1142Y-3.0689
X6.1154Y-3.5079
X6.1201Y-3.2697
X6.122Y-3.8091
X6.128Y-2.7933
X6.128Y-2.8228
X6.1295Y-3.4937
X6.1319Y-2.3878
X6.1339Y-3.2835
X6.1476Y-3.6969
X6.1575Y-3.8091
X6.1614Y-3.3622
X6.1713Y-3.1614
X6.1909Y-3.4744
X6.1929Y-3.0689
X6.1929Y-3.8091
X6.1988Y-3.4055
X6.2106Y-2.3878
X6.2224Y-3.5591
X6.2283Y-3.8091
X6.2382Y-2.8406
X6.2461Y-2.7913
X6.2638Y-3.3819
X6.2638Y-3.8091
X6.2717Y-3.0689
X6.2795Y-3.4744
X6.2835Y-3.5925
X6.2835Y-3.6713
X6.2835Y-3.75
X6.2894Y-2.3878
X6.2992Y-3.8091
X6.3346Y-3.8091
X6.3504Y-3.0689
X6.3622Y-3.3031
X6.3622Y-3.4409
X6.3622Y-3.5787
X6.3622Y-3.7165
X6.3681Y-2.3878
X6.3701Y-3.8091
X6.4055Y-3.8091
X6.4291Y-3.0689
X6.4409Y-3.8091
X6.4469Y-2.3878
X6.4764Y-3.8091
X6.5118Y-3.8091
X6.5256Y-2.3878
X6.5256Y-2.4665
X6.5256Y-2.5453
X6.5256Y-2.7028
X6.5256Y-2.7815
X6.5256Y-2.8602
X6.5256Y-2.939
X6.5256Y-3.0965
X6.5256Y-3.1752
X6.5256Y-3.2539
X6.5256Y-3.3327
X6.5256Y-3.4114
X6.5256Y-3.4902
X6.5256Y-3.5689
X6.5256Y-3.6476
X6.5256Y-3.7264
X6.5472Y-3.8091
T3
X5.6535Y-2.4882
X5.8602Y-2.4882
X6.1713Y-2.4882
X6.378Y-2.4882
T2
G00X6.2717Y-2.649
M15
G01X6.2953Y-2.649
M16
G05
G00X6.2717Y-2.9742
M15
G01X6.2953Y-2.9742
M16
G05
G00X6.5059Y-2.6348
M15
G01X6.5295Y-2.6348
M16
G05
G00X6.5059Y-2.9884
M15
G01X6.5295Y-2.9884
M16
G05
T0
M30
