G04 #@! TF.GenerationSoftware,KiCad,Pcbnew,7.0.7*
G04 #@! TF.CreationDate,2024-08-26T03:28:25+03:00*
G04 #@! TF.ProjectId,telemetry_box_01,74656c65-6d65-4747-9279-5f626f785f30,rev?*
G04 #@! TF.SameCoordinates,Original*
G04 #@! TF.FileFunction,Copper,L4,Bot*
G04 #@! TF.FilePolarity,Positive*
%FSLAX46Y46*%
G04 Gerber Fmt 4.6, Leading zero omitted, Abs format (unit mm)*
G04 Created by KiCad (PCBNEW 7.0.7) date 2024-08-26 03:28:25*
%MOMM*%
%LPD*%
G01*
G04 APERTURE LIST*
G04 #@! TA.AperFunction,ComponentPad*
%ADD10O,1.600000X0.800000*%
G04 #@! TD*
G04 #@! TA.AperFunction,ComponentPad*
%ADD11C,2.000000*%
G04 #@! TD*
G04 #@! TA.AperFunction,ViaPad*
%ADD12C,0.400000*%
G04 #@! TD*
G04 #@! TA.AperFunction,ViaPad*
%ADD13C,0.420000*%
G04 #@! TD*
G04 APERTURE END LIST*
D10*
X165550000Y-75905000D03*
X165550000Y-66925000D03*
X159600000Y-67285000D03*
X159600000Y-75545000D03*
D11*
X148850000Y-63200000D03*
X143600000Y-63200000D03*
X156750000Y-63200000D03*
X162000000Y-63200000D03*
D12*
X142450000Y-75950000D03*
X122750000Y-70650000D03*
X122750000Y-74150000D03*
X130700000Y-79950000D03*
X129500000Y-79950000D03*
D13*
X146950000Y-98050000D03*
X146950000Y-97150000D03*
X146950000Y-102550000D03*
X146950000Y-103450000D03*
X146950000Y-101650000D03*
X146950000Y-98950000D03*
X146950000Y-100750000D03*
X146950000Y-99850000D03*
X162700000Y-96750000D03*
X163600000Y-96750000D03*
X166300000Y-96750000D03*
X164500000Y-96750000D03*
X165400000Y-96750000D03*
X158200000Y-96750000D03*
X159100000Y-96750000D03*
X161800000Y-96750000D03*
X160000000Y-96750000D03*
X160900000Y-96750000D03*
X157300000Y-96750000D03*
X155500000Y-96750000D03*
X156400000Y-96750000D03*
X154600000Y-96750000D03*
X152800000Y-96750000D03*
X153700000Y-96750000D03*
X151900000Y-96750000D03*
X151000000Y-96750000D03*
X150100000Y-96750000D03*
X149200000Y-96750000D03*
X147700000Y-96750000D03*
X115450000Y-82950000D03*
X146900000Y-70050000D03*
X117700000Y-89250000D03*
X150400000Y-92900000D03*
X121900000Y-88850000D03*
X165750000Y-90650000D03*
X125900000Y-83850000D03*
X140850000Y-64350000D03*
X129000000Y-91650000D03*
X125800000Y-99900000D03*
X144350000Y-75700000D03*
X150100000Y-85400000D03*
X153900000Y-69450000D03*
X135450000Y-74850000D03*
X142350000Y-79300000D03*
X153300000Y-77950000D03*
X133800000Y-66000000D03*
X115450000Y-60950000D03*
X161750000Y-60650000D03*
X130300000Y-61650000D03*
X115450000Y-95250000D03*
X118000000Y-97350000D03*
X145200000Y-84050000D03*
X157250000Y-88250000D03*
X129600000Y-88700000D03*
X131250000Y-64150000D03*
X145700000Y-99050000D03*
X163750000Y-60650000D03*
X115450000Y-66950000D03*
X150100000Y-86400000D03*
X146900000Y-67050000D03*
X130700000Y-85100000D03*
X153350000Y-68200000D03*
X165750000Y-82650000D03*
X115450000Y-97250000D03*
X135450000Y-68850000D03*
X135600000Y-101350000D03*
X139200000Y-102850000D03*
X141200000Y-102850000D03*
X125600000Y-83100000D03*
X140500000Y-86500000D03*
X115450000Y-62950000D03*
X131650000Y-92200000D03*
X135600000Y-99850000D03*
X141500000Y-79800000D03*
X159300000Y-77950000D03*
X119050000Y-85850000D03*
X142500000Y-78300000D03*
X135600000Y-99050000D03*
X138300000Y-67400000D03*
X118550000Y-75900000D03*
X116700000Y-89250000D03*
X149100000Y-85400000D03*
X153750000Y-60650000D03*
X118200000Y-64050000D03*
X122050000Y-99650000D03*
X151100000Y-85400000D03*
X134250000Y-71000000D03*
X140750000Y-79450000D03*
X165750000Y-84650000D03*
X119800000Y-88750000D03*
X145200000Y-86550000D03*
X154200000Y-92900000D03*
X140850000Y-66350000D03*
X159100000Y-85900000D03*
X156150000Y-93900000D03*
X118750000Y-86750000D03*
X115450000Y-93250000D03*
X118100000Y-102950000D03*
X154850000Y-81500000D03*
X117900000Y-94600000D03*
X152950000Y-95600000D03*
X165750000Y-68650000D03*
X123350000Y-98650000D03*
X152950000Y-94850000D03*
X130250000Y-66550000D03*
X148500000Y-80850000D03*
X140500000Y-77250000D03*
X133650000Y-84900000D03*
X145200000Y-102850000D03*
X165750000Y-94650000D03*
X115450000Y-80950000D03*
X145700000Y-100550000D03*
X120400000Y-63400000D03*
X152800000Y-69450000D03*
X147750000Y-60650000D03*
X123300000Y-82700000D03*
X149450000Y-81500000D03*
X165750000Y-74650000D03*
X146100000Y-83250000D03*
X127600000Y-64600000D03*
X115450000Y-68950000D03*
X135100000Y-88850000D03*
X143750000Y-60650000D03*
X158050000Y-90400000D03*
X130800000Y-71500000D03*
X133000000Y-88050000D03*
X127900000Y-90550000D03*
X115450000Y-70950000D03*
X116800000Y-67900000D03*
X152950000Y-93350000D03*
X118550000Y-61450000D03*
X130750000Y-82500000D03*
X146900000Y-68550000D03*
X144500000Y-80450000D03*
X150100000Y-87400000D03*
X127800000Y-81950000D03*
X134550000Y-100350000D03*
X154000000Y-81900000D03*
X120600000Y-88050000D03*
X119850000Y-78050000D03*
X127900000Y-91650000D03*
X149750000Y-60650000D03*
X130100000Y-92750000D03*
X115450000Y-86950000D03*
X149100000Y-87400000D03*
X122650000Y-102850000D03*
X130100000Y-90550000D03*
X125600000Y-84600000D03*
X155750000Y-60650000D03*
X165750000Y-88650000D03*
X126850000Y-67550000D03*
X115450000Y-99250000D03*
X121250000Y-82850000D03*
X151100000Y-89400000D03*
X115450000Y-90000000D03*
X121950000Y-61350000D03*
X124650000Y-102850000D03*
X145700000Y-101350000D03*
X115450000Y-74950000D03*
X121100000Y-87150000D03*
X127100000Y-71500000D03*
X130850000Y-100200000D03*
X149100000Y-86400000D03*
X140850000Y-70350000D03*
X151100000Y-87400000D03*
X135600000Y-100550000D03*
X117400000Y-65950000D03*
X122400000Y-63950000D03*
X126650000Y-102850000D03*
X120650000Y-102850000D03*
X116550000Y-72150000D03*
X136400000Y-98250000D03*
X152100000Y-87400000D03*
X159600000Y-93250000D03*
X136700000Y-95200000D03*
X119650000Y-84000000D03*
X115450000Y-91250000D03*
X120350000Y-83300000D03*
X140850000Y-62350000D03*
X163300000Y-77950000D03*
X159600000Y-91250000D03*
X128650000Y-100000000D03*
X165750000Y-86650000D03*
X124650000Y-74900000D03*
X120950000Y-65950000D03*
X140500000Y-76200000D03*
X153100000Y-85400000D03*
X137200000Y-102850000D03*
X153100000Y-87400000D03*
X121300000Y-86150000D03*
X159600000Y-95250000D03*
X118000000Y-91700000D03*
X123300000Y-85000000D03*
X154050000Y-94550000D03*
X156500000Y-85400000D03*
X135100000Y-89850000D03*
X126350000Y-61200000D03*
X127900000Y-92750000D03*
X115450000Y-78950000D03*
X132300000Y-68200000D03*
X155300000Y-77950000D03*
X117550000Y-80100000D03*
X153300000Y-80250000D03*
X153500000Y-92900000D03*
X143200000Y-102850000D03*
X122300000Y-85000000D03*
X145700000Y-99850000D03*
X121550000Y-85250000D03*
X153100000Y-88400000D03*
X152800000Y-67650000D03*
X145750000Y-60650000D03*
X130100000Y-91650000D03*
X120050000Y-99650000D03*
X124600000Y-69050000D03*
X141750000Y-60650000D03*
X153100000Y-86400000D03*
X152100000Y-88400000D03*
X159750000Y-60650000D03*
X142500000Y-77250000D03*
X118850000Y-89150000D03*
X165750000Y-92650000D03*
X118050000Y-99650000D03*
X135200000Y-102850000D03*
X147800000Y-69300000D03*
X150950000Y-94100000D03*
X122300000Y-82700000D03*
X150100000Y-89400000D03*
X136100000Y-88850000D03*
X140850000Y-68350000D03*
X161300000Y-77950000D03*
X165750000Y-72650000D03*
X129000000Y-92750000D03*
X115450000Y-76950000D03*
X150950000Y-93350000D03*
X157300000Y-77950000D03*
X119200000Y-84850000D03*
X145400000Y-82600000D03*
X165750000Y-78650000D03*
X157750000Y-60650000D03*
X127800000Y-86650000D03*
X165750000Y-62650000D03*
X144550000Y-95950000D03*
X153350000Y-68900000D03*
X145500000Y-90150000D03*
X152100000Y-86400000D03*
X165750000Y-64650000D03*
X115450000Y-72950000D03*
X149100000Y-89400000D03*
X136100000Y-89850000D03*
X145200000Y-85000000D03*
X136800000Y-82800000D03*
X115450000Y-64950000D03*
X159500000Y-88250000D03*
X152100000Y-89400000D03*
X129050000Y-70050000D03*
X136050000Y-85500000D03*
X153500000Y-74500000D03*
X149450000Y-80850000D03*
X153050000Y-94100000D03*
X115450000Y-101250000D03*
X147800000Y-67800000D03*
X115450000Y-103250000D03*
X151100000Y-86400000D03*
X132650000Y-102850000D03*
X135250000Y-64150000D03*
X165750000Y-60650000D03*
X165750000Y-80650000D03*
X153900000Y-67650000D03*
X135450000Y-92650000D03*
X156750000Y-80300000D03*
X130650000Y-102850000D03*
X122250000Y-77500000D03*
X144550000Y-92350000D03*
X165750000Y-70650000D03*
X129000000Y-90550000D03*
X154000000Y-80900000D03*
X145500000Y-87650000D03*
X151750000Y-60650000D03*
X117700000Y-86950000D03*
X116700000Y-86950000D03*
X115450000Y-84950000D03*
X148500000Y-81500000D03*
X144450000Y-78300000D03*
X153100000Y-89400000D03*
X150100000Y-88400000D03*
X124300000Y-65600000D03*
X151100000Y-88400000D03*
X133750000Y-82200000D03*
X152100000Y-85400000D03*
X135600000Y-89350000D03*
X128650000Y-102850000D03*
X149100000Y-88400000D03*
D12*
X130150000Y-76050000D03*
X125800000Y-80250000D03*
X129350000Y-76900000D03*
X126550000Y-79700000D03*
X147277996Y-89130403D03*
X126750000Y-94400000D03*
X147250000Y-88250000D03*
X125900000Y-94400000D03*
X147400000Y-90600000D03*
X146850000Y-87100000D03*
X161600000Y-90900000D03*
X155330000Y-89100000D03*
X147396397Y-84865881D03*
X161600000Y-94400000D03*
X151750000Y-76800000D03*
X155690000Y-88740000D03*
X146100000Y-81000000D03*
X155800000Y-83400000D03*
X146100000Y-80550000D03*
X146700000Y-88100000D03*
X148700940Y-83796740D03*
X151750000Y-77700000D03*
X145200000Y-86000000D03*
X155450000Y-83050000D03*
X150000000Y-83050000D03*
X151750000Y-77250000D03*
X146750000Y-89500000D03*
X161600000Y-87400000D03*
X147900000Y-91400000D03*
X154787371Y-85325500D03*
D13*
X157450000Y-86500000D03*
D12*
X153300000Y-91200000D03*
X161600000Y-83900000D03*
X148500000Y-91400000D03*
X155650000Y-70950000D03*
X158650000Y-70900000D03*
X158450000Y-72150000D03*
X155650000Y-71700000D03*
X144950000Y-70800000D03*
X142250000Y-69250000D03*
X143500000Y-67050000D03*
X142800000Y-98200000D03*
X145250000Y-95950000D03*
X143500000Y-71550000D03*
X142000000Y-99700000D03*
X151750000Y-72500000D03*
X142000000Y-98950000D03*
X142000000Y-98200000D03*
X142250000Y-66300000D03*
X151750000Y-72000000D03*
X145250000Y-92350000D03*
X143500000Y-68550000D03*
X141250000Y-99700000D03*
X151750000Y-71500000D03*
X142250000Y-67800000D03*
X143500000Y-65550000D03*
X141250000Y-98200000D03*
X141250000Y-98950000D03*
X144950000Y-66300000D03*
X142250000Y-70800000D03*
X143500000Y-70050000D03*
X143550000Y-98200000D03*
G04 #@! TA.AperFunction,Conductor*
G36*
X166679290Y-60120710D02*
G01*
X166699500Y-60169500D01*
X166699500Y-96931000D01*
X166679290Y-96979790D01*
X166630500Y-97000000D01*
X147200000Y-97000000D01*
X147200000Y-103830500D01*
X147179790Y-103879290D01*
X147131000Y-103899500D01*
X115269000Y-103899500D01*
X115220210Y-103879290D01*
X115200000Y-103830500D01*
X115200000Y-99700000D01*
X140904247Y-99700000D01*
X140922378Y-99802832D01*
X140925098Y-99818254D01*
X140985138Y-99922246D01*
X140985140Y-99922248D01*
X140985139Y-99922248D01*
X141065925Y-99990034D01*
X141077123Y-99999431D01*
X141189961Y-100040500D01*
X141310038Y-100040500D01*
X141310039Y-100040500D01*
X141422877Y-99999431D01*
X141514862Y-99922246D01*
X141565245Y-99834980D01*
X141607142Y-99802832D01*
X141659500Y-99809725D01*
X141684754Y-99834979D01*
X141735138Y-99922246D01*
X141735140Y-99922248D01*
X141735139Y-99922248D01*
X141815925Y-99990034D01*
X141827123Y-99999431D01*
X141939961Y-100040500D01*
X142060038Y-100040500D01*
X142060039Y-100040500D01*
X142172877Y-99999431D01*
X142264862Y-99922246D01*
X142324902Y-99818254D01*
X142345753Y-99700000D01*
X142324902Y-99581746D01*
X142264862Y-99477754D01*
X142264859Y-99477751D01*
X142264860Y-99477751D01*
X142172877Y-99400569D01*
X142172876Y-99400569D01*
X142143394Y-99389838D01*
X142104459Y-99354161D01*
X142102155Y-99301401D01*
X142137833Y-99262465D01*
X142143387Y-99260164D01*
X142172877Y-99249431D01*
X142264862Y-99172246D01*
X142324902Y-99068254D01*
X142345753Y-98950000D01*
X142324902Y-98831746D01*
X142264862Y-98727754D01*
X142264859Y-98727751D01*
X142264860Y-98727751D01*
X142172877Y-98650569D01*
X142172876Y-98650569D01*
X142143394Y-98639838D01*
X142104459Y-98604161D01*
X142102155Y-98551401D01*
X142137833Y-98512465D01*
X142143387Y-98510164D01*
X142172877Y-98499431D01*
X142264862Y-98422246D01*
X142324902Y-98318254D01*
X142332047Y-98277727D01*
X142360423Y-98233187D01*
X142411981Y-98221756D01*
X142456521Y-98250131D01*
X142467952Y-98277727D01*
X142475097Y-98318252D01*
X142475097Y-98318253D01*
X142475098Y-98318254D01*
X142535138Y-98422246D01*
X142535140Y-98422248D01*
X142535139Y-98422248D01*
X142615925Y-98490034D01*
X142627123Y-98499431D01*
X142739961Y-98540500D01*
X142860038Y-98540500D01*
X142860039Y-98540500D01*
X142972877Y-98499431D01*
X143064862Y-98422246D01*
X143115245Y-98334978D01*
X143157140Y-98302832D01*
X143209499Y-98309725D01*
X143234754Y-98334980D01*
X143285138Y-98422246D01*
X143285139Y-98422248D01*
X143365925Y-98490034D01*
X143377123Y-98499431D01*
X143489961Y-98540500D01*
X143610038Y-98540500D01*
X143610039Y-98540500D01*
X143722877Y-98499431D01*
X143814862Y-98422246D01*
X143874902Y-98318254D01*
X143895753Y-98200000D01*
X143874902Y-98081746D01*
X143814862Y-97977754D01*
X143814859Y-97977751D01*
X143814860Y-97977751D01*
X143722877Y-97900569D01*
X143610040Y-97859500D01*
X143610039Y-97859500D01*
X143489961Y-97859500D01*
X143433542Y-97880034D01*
X143377123Y-97900569D01*
X143285139Y-97977751D01*
X143234756Y-98065018D01*
X143192858Y-98097167D01*
X143140500Y-98090274D01*
X143115244Y-98065018D01*
X143064862Y-97977754D01*
X143064859Y-97977751D01*
X143064860Y-97977751D01*
X142972877Y-97900569D01*
X142860040Y-97859500D01*
X142860039Y-97859500D01*
X142739961Y-97859500D01*
X142683542Y-97880034D01*
X142627123Y-97900569D01*
X142535140Y-97977751D01*
X142475097Y-98081748D01*
X142467952Y-98122272D01*
X142439577Y-98166812D01*
X142388019Y-98178243D01*
X142343479Y-98149868D01*
X142332048Y-98122272D01*
X142327621Y-98097167D01*
X142324902Y-98081746D01*
X142264862Y-97977754D01*
X142264859Y-97977751D01*
X142264860Y-97977751D01*
X142172877Y-97900569D01*
X142060040Y-97859500D01*
X142060039Y-97859500D01*
X141939961Y-97859500D01*
X141883542Y-97880034D01*
X141827123Y-97900569D01*
X141735139Y-97977751D01*
X141684756Y-98065018D01*
X141642858Y-98097167D01*
X141590500Y-98090274D01*
X141565244Y-98065018D01*
X141514862Y-97977754D01*
X141514859Y-97977751D01*
X141514860Y-97977751D01*
X141422877Y-97900569D01*
X141310040Y-97859500D01*
X141310039Y-97859500D01*
X141189961Y-97859500D01*
X141133542Y-97880034D01*
X141077123Y-97900569D01*
X140985140Y-97977751D01*
X140925097Y-98081748D01*
X140904247Y-98200000D01*
X140922378Y-98302832D01*
X140925098Y-98318254D01*
X140985138Y-98422246D01*
X140985140Y-98422248D01*
X140985139Y-98422248D01*
X141065925Y-98490034D01*
X141077123Y-98499431D01*
X141106604Y-98510161D01*
X141145540Y-98545839D01*
X141147844Y-98598599D01*
X141112166Y-98637535D01*
X141106605Y-98639839D01*
X141077122Y-98650569D01*
X140985140Y-98727751D01*
X140925097Y-98831748D01*
X140904247Y-98949999D01*
X140922378Y-99052832D01*
X140925098Y-99068254D01*
X140985138Y-99172246D01*
X140985140Y-99172248D01*
X140985139Y-99172248D01*
X141065925Y-99240034D01*
X141077123Y-99249431D01*
X141106604Y-99260161D01*
X141145540Y-99295839D01*
X141147844Y-99348599D01*
X141112166Y-99387535D01*
X141106605Y-99389839D01*
X141077122Y-99400569D01*
X140985140Y-99477751D01*
X140985138Y-99477753D01*
X140985138Y-99477754D01*
X140925098Y-99581746D01*
X140925097Y-99581748D01*
X140904247Y-99700000D01*
X115200000Y-99700000D01*
X115200000Y-95950000D01*
X144904247Y-95950000D01*
X144925098Y-96068254D01*
X144985138Y-96172246D01*
X144985140Y-96172248D01*
X144985139Y-96172248D01*
X145065925Y-96240034D01*
X145077123Y-96249431D01*
X145189961Y-96290500D01*
X145310038Y-96290500D01*
X145310039Y-96290500D01*
X145422877Y-96249431D01*
X145514862Y-96172246D01*
X145574902Y-96068254D01*
X145595753Y-95950000D01*
X145574902Y-95831746D01*
X145514862Y-95727754D01*
X145514859Y-95727751D01*
X145514860Y-95727751D01*
X145422877Y-95650569D01*
X145310040Y-95609500D01*
X145310039Y-95609500D01*
X145189961Y-95609500D01*
X145133542Y-95630034D01*
X145077123Y-95650569D01*
X144985140Y-95727751D01*
X144925097Y-95831748D01*
X144904247Y-95949999D01*
X144904247Y-95950000D01*
X115200000Y-95950000D01*
X115200000Y-94400000D01*
X125554247Y-94400000D01*
X125575098Y-94518254D01*
X125635138Y-94622246D01*
X125635140Y-94622248D01*
X125635139Y-94622248D01*
X125715925Y-94690034D01*
X125727123Y-94699431D01*
X125839961Y-94740500D01*
X125960038Y-94740500D01*
X125960039Y-94740500D01*
X126072877Y-94699431D01*
X126164862Y-94622246D01*
X126224902Y-94518254D01*
X126245753Y-94400000D01*
X126404247Y-94400000D01*
X126425098Y-94518254D01*
X126485138Y-94622246D01*
X126485140Y-94622248D01*
X126485139Y-94622248D01*
X126565925Y-94690034D01*
X126577123Y-94699431D01*
X126689961Y-94740500D01*
X126810038Y-94740500D01*
X126810039Y-94740500D01*
X126922877Y-94699431D01*
X127014862Y-94622246D01*
X127074902Y-94518254D01*
X127095753Y-94400000D01*
X161254247Y-94400000D01*
X161275098Y-94518254D01*
X161335138Y-94622246D01*
X161335140Y-94622248D01*
X161335139Y-94622248D01*
X161415925Y-94690034D01*
X161427123Y-94699431D01*
X161539961Y-94740500D01*
X161660038Y-94740500D01*
X161660039Y-94740500D01*
X161772877Y-94699431D01*
X161864862Y-94622246D01*
X161924902Y-94518254D01*
X161945753Y-94400000D01*
X161924902Y-94281746D01*
X161864862Y-94177754D01*
X161864859Y-94177751D01*
X161864860Y-94177751D01*
X161772877Y-94100569D01*
X161660040Y-94059500D01*
X161660039Y-94059500D01*
X161539961Y-94059500D01*
X161483542Y-94080034D01*
X161427123Y-94100569D01*
X161335140Y-94177751D01*
X161275097Y-94281748D01*
X161254247Y-94399999D01*
X161254247Y-94400000D01*
X127095753Y-94400000D01*
X127074902Y-94281746D01*
X127014862Y-94177754D01*
X127014859Y-94177751D01*
X127014860Y-94177751D01*
X126922877Y-94100569D01*
X126810040Y-94059500D01*
X126810039Y-94059500D01*
X126689961Y-94059500D01*
X126633542Y-94080034D01*
X126577123Y-94100569D01*
X126485140Y-94177751D01*
X126425097Y-94281748D01*
X126404247Y-94399999D01*
X126404247Y-94400000D01*
X126245753Y-94400000D01*
X126224902Y-94281746D01*
X126164862Y-94177754D01*
X126164859Y-94177751D01*
X126164860Y-94177751D01*
X126072877Y-94100569D01*
X125960040Y-94059500D01*
X125960039Y-94059500D01*
X125839961Y-94059500D01*
X125783542Y-94080034D01*
X125727123Y-94100569D01*
X125635140Y-94177751D01*
X125575097Y-94281748D01*
X125554247Y-94399999D01*
X125554247Y-94400000D01*
X115200000Y-94400000D01*
X115200000Y-92350000D01*
X144904247Y-92350000D01*
X144925098Y-92468254D01*
X144985138Y-92572246D01*
X144985140Y-92572248D01*
X144985139Y-92572248D01*
X145065925Y-92640034D01*
X145077123Y-92649431D01*
X145189961Y-92690500D01*
X145310038Y-92690500D01*
X145310039Y-92690500D01*
X145422877Y-92649431D01*
X145514862Y-92572246D01*
X145574902Y-92468254D01*
X145595753Y-92350000D01*
X145574902Y-92231746D01*
X145514862Y-92127754D01*
X145514859Y-92127751D01*
X145514860Y-92127751D01*
X145422877Y-92050569D01*
X145310040Y-92009500D01*
X145310039Y-92009500D01*
X145189961Y-92009500D01*
X145133542Y-92030034D01*
X145077123Y-92050569D01*
X144985140Y-92127751D01*
X144925097Y-92231748D01*
X144904247Y-92349999D01*
X144904247Y-92350000D01*
X115200000Y-92350000D01*
X115200000Y-91400000D01*
X147554247Y-91400000D01*
X147571778Y-91499430D01*
X147575098Y-91518254D01*
X147635138Y-91622246D01*
X147635140Y-91622248D01*
X147635139Y-91622248D01*
X147715925Y-91690034D01*
X147727123Y-91699431D01*
X147839961Y-91740500D01*
X147960038Y-91740500D01*
X147960039Y-91740500D01*
X148072877Y-91699431D01*
X148128283Y-91652939D01*
X148155648Y-91629978D01*
X148206014Y-91614098D01*
X148244352Y-91629978D01*
X148306783Y-91682363D01*
X148327123Y-91699431D01*
X148439961Y-91740500D01*
X148560038Y-91740500D01*
X148560039Y-91740500D01*
X148672877Y-91699431D01*
X148764862Y-91622246D01*
X148824902Y-91518254D01*
X148845753Y-91400000D01*
X148824902Y-91281746D01*
X148777706Y-91200000D01*
X152954247Y-91200000D01*
X152968660Y-91281746D01*
X152975098Y-91318254D01*
X153035138Y-91422246D01*
X153035140Y-91422248D01*
X153035139Y-91422248D01*
X153115925Y-91490034D01*
X153127123Y-91499431D01*
X153239961Y-91540500D01*
X153360038Y-91540500D01*
X153360039Y-91540500D01*
X153472877Y-91499431D01*
X153564862Y-91422246D01*
X153624902Y-91318254D01*
X153645753Y-91200000D01*
X153624902Y-91081746D01*
X153564862Y-90977754D01*
X153564859Y-90977751D01*
X153564860Y-90977751D01*
X153472877Y-90900569D01*
X153471314Y-90900000D01*
X161254247Y-90900000D01*
X161275098Y-91018254D01*
X161335138Y-91122246D01*
X161335140Y-91122248D01*
X161335139Y-91122248D01*
X161392075Y-91170022D01*
X161427123Y-91199431D01*
X161539961Y-91240500D01*
X161660038Y-91240500D01*
X161660039Y-91240500D01*
X161772877Y-91199431D01*
X161864862Y-91122246D01*
X161924902Y-91018254D01*
X161945753Y-90900000D01*
X161924902Y-90781746D01*
X161864862Y-90677754D01*
X161864859Y-90677751D01*
X161864860Y-90677751D01*
X161772877Y-90600569D01*
X161660040Y-90559500D01*
X161660039Y-90559500D01*
X161539961Y-90559500D01*
X161483542Y-90580034D01*
X161427123Y-90600569D01*
X161335140Y-90677751D01*
X161275097Y-90781748D01*
X161261388Y-90859500D01*
X161254247Y-90900000D01*
X153471314Y-90900000D01*
X153360040Y-90859500D01*
X153360039Y-90859500D01*
X153239961Y-90859500D01*
X153183542Y-90880034D01*
X153127123Y-90900569D01*
X153035140Y-90977751D01*
X152975097Y-91081748D01*
X152954247Y-91200000D01*
X148777706Y-91200000D01*
X148764862Y-91177754D01*
X148764859Y-91177751D01*
X148764860Y-91177751D01*
X148672877Y-91100569D01*
X148560040Y-91059500D01*
X148560039Y-91059500D01*
X148439961Y-91059500D01*
X148398893Y-91074447D01*
X148327125Y-91100568D01*
X148244352Y-91170022D01*
X148193985Y-91185901D01*
X148155648Y-91170021D01*
X148072877Y-91100569D01*
X147960040Y-91059500D01*
X147960039Y-91059500D01*
X147839961Y-91059500D01*
X147783542Y-91080034D01*
X147727123Y-91100569D01*
X147635140Y-91177751D01*
X147635138Y-91177753D01*
X147635138Y-91177754D01*
X147575098Y-91281746D01*
X147575097Y-91281748D01*
X147554247Y-91400000D01*
X115200000Y-91400000D01*
X115200000Y-90600000D01*
X147054247Y-90600000D01*
X147075098Y-90718254D01*
X147135138Y-90822246D01*
X147135140Y-90822248D01*
X147135139Y-90822248D01*
X147179535Y-90859500D01*
X147227123Y-90899431D01*
X147339961Y-90940500D01*
X147460038Y-90940500D01*
X147460039Y-90940500D01*
X147572877Y-90899431D01*
X147664862Y-90822246D01*
X147724902Y-90718254D01*
X147745753Y-90600000D01*
X147724902Y-90481746D01*
X147664862Y-90377754D01*
X147664859Y-90377751D01*
X147664860Y-90377751D01*
X147572877Y-90300569D01*
X147460040Y-90259500D01*
X147460039Y-90259500D01*
X147339961Y-90259500D01*
X147283542Y-90280034D01*
X147227123Y-90300569D01*
X147135140Y-90377751D01*
X147075097Y-90481748D01*
X147061388Y-90559500D01*
X147054247Y-90600000D01*
X115200000Y-90600000D01*
X115200000Y-89500000D01*
X146404247Y-89500000D01*
X146425098Y-89618254D01*
X146485138Y-89722246D01*
X146485140Y-89722248D01*
X146485139Y-89722248D01*
X146565925Y-89790034D01*
X146577123Y-89799431D01*
X146689961Y-89840500D01*
X146810038Y-89840500D01*
X146810039Y-89840500D01*
X146922877Y-89799431D01*
X147014862Y-89722246D01*
X147074902Y-89618254D01*
X147093664Y-89511842D01*
X147122039Y-89467304D01*
X147173597Y-89455873D01*
X147185211Y-89458984D01*
X147217957Y-89470903D01*
X147338034Y-89470903D01*
X147338035Y-89470903D01*
X147450873Y-89429834D01*
X147542858Y-89352649D01*
X147602898Y-89248657D01*
X147623749Y-89130403D01*
X147618388Y-89100000D01*
X154984247Y-89100000D01*
X155001979Y-89200569D01*
X155005098Y-89218254D01*
X155065138Y-89322246D01*
X155065140Y-89322248D01*
X155065139Y-89322248D01*
X155136047Y-89381746D01*
X155157123Y-89399431D01*
X155269961Y-89440500D01*
X155390038Y-89440500D01*
X155390039Y-89440500D01*
X155502877Y-89399431D01*
X155594862Y-89322246D01*
X155654902Y-89218254D01*
X155669137Y-89137518D01*
X155697513Y-89092979D01*
X155737090Y-89080500D01*
X155750038Y-89080500D01*
X155750039Y-89080500D01*
X155862877Y-89039431D01*
X155954862Y-88962246D01*
X156014902Y-88858254D01*
X156035753Y-88740000D01*
X156014902Y-88621746D01*
X155954862Y-88517754D01*
X155954859Y-88517751D01*
X155954860Y-88517751D01*
X155862877Y-88440569D01*
X155750040Y-88399500D01*
X155750039Y-88399500D01*
X155629961Y-88399500D01*
X155573542Y-88420034D01*
X155517123Y-88440569D01*
X155425140Y-88517751D01*
X155365097Y-88621747D01*
X155350862Y-88702482D01*
X155322487Y-88747021D01*
X155282910Y-88759500D01*
X155269961Y-88759500D01*
X155213542Y-88780034D01*
X155157123Y-88800569D01*
X155065140Y-88877751D01*
X155065138Y-88877753D01*
X155065138Y-88877754D01*
X155016355Y-88962248D01*
X155005097Y-88981748D01*
X154984247Y-89100000D01*
X147618388Y-89100000D01*
X147602898Y-89012149D01*
X147542858Y-88908157D01*
X147542855Y-88908154D01*
X147542856Y-88908154D01*
X147450873Y-88830972D01*
X147338036Y-88789903D01*
X147338035Y-88789903D01*
X147217957Y-88789903D01*
X147161538Y-88810437D01*
X147105119Y-88830972D01*
X147013136Y-88908154D01*
X146953093Y-89012150D01*
X146934331Y-89118559D01*
X146905956Y-89163098D01*
X146854397Y-89174529D01*
X146842780Y-89171416D01*
X146810040Y-89159500D01*
X146810039Y-89159500D01*
X146689961Y-89159500D01*
X146680076Y-89163098D01*
X146577123Y-89200569D01*
X146485140Y-89277751D01*
X146485138Y-89277753D01*
X146485138Y-89277754D01*
X146441897Y-89352649D01*
X146425097Y-89381748D01*
X146411479Y-89458986D01*
X146404247Y-89500000D01*
X115200000Y-89500000D01*
X115200000Y-88100000D01*
X146354247Y-88100000D01*
X146359844Y-88131746D01*
X146375098Y-88218254D01*
X146435138Y-88322246D01*
X146435140Y-88322248D01*
X146435139Y-88322248D01*
X146515925Y-88390034D01*
X146527123Y-88399431D01*
X146639961Y-88440500D01*
X146760038Y-88440500D01*
X146760039Y-88440500D01*
X146872877Y-88399431D01*
X146872879Y-88399428D01*
X146876497Y-88398112D01*
X146929257Y-88400416D01*
X146959852Y-88428450D01*
X146985138Y-88472246D01*
X146985139Y-88472248D01*
X147039368Y-88517751D01*
X147077123Y-88549431D01*
X147189961Y-88590500D01*
X147310038Y-88590500D01*
X147310039Y-88590500D01*
X147422877Y-88549431D01*
X147514862Y-88472246D01*
X147574902Y-88368254D01*
X147595753Y-88250000D01*
X147574902Y-88131746D01*
X147514862Y-88027754D01*
X147514859Y-88027751D01*
X147514860Y-88027751D01*
X147422877Y-87950569D01*
X147310040Y-87909500D01*
X147310039Y-87909500D01*
X147189961Y-87909500D01*
X147156859Y-87921548D01*
X147073501Y-87951887D01*
X147020741Y-87949583D01*
X146990147Y-87921549D01*
X146964862Y-87877754D01*
X146964859Y-87877751D01*
X146964860Y-87877751D01*
X146872877Y-87800569D01*
X146760040Y-87759500D01*
X146760039Y-87759500D01*
X146639961Y-87759500D01*
X146583542Y-87780034D01*
X146527123Y-87800569D01*
X146435140Y-87877751D01*
X146435138Y-87877753D01*
X146435138Y-87877754D01*
X146393098Y-87950569D01*
X146375097Y-87981748D01*
X146354247Y-88100000D01*
X115200000Y-88100000D01*
X115200000Y-87100000D01*
X146504247Y-87100000D01*
X146525098Y-87218254D01*
X146585138Y-87322246D01*
X146585140Y-87322248D01*
X146585139Y-87322248D01*
X146665925Y-87390034D01*
X146677123Y-87399431D01*
X146789961Y-87440500D01*
X146910038Y-87440500D01*
X146910039Y-87440500D01*
X147021314Y-87400000D01*
X161254247Y-87400000D01*
X161275098Y-87518254D01*
X161335138Y-87622246D01*
X161335140Y-87622248D01*
X161335139Y-87622248D01*
X161415925Y-87690034D01*
X161427123Y-87699431D01*
X161539961Y-87740500D01*
X161660038Y-87740500D01*
X161660039Y-87740500D01*
X161772877Y-87699431D01*
X161864862Y-87622246D01*
X161924902Y-87518254D01*
X161945753Y-87400000D01*
X161924902Y-87281746D01*
X161864862Y-87177754D01*
X161864859Y-87177751D01*
X161864860Y-87177751D01*
X161772877Y-87100569D01*
X161660040Y-87059500D01*
X161660039Y-87059500D01*
X161539961Y-87059500D01*
X161483542Y-87080034D01*
X161427123Y-87100569D01*
X161335140Y-87177751D01*
X161275097Y-87281748D01*
X161254348Y-87399430D01*
X161254247Y-87400000D01*
X147021314Y-87400000D01*
X147022877Y-87399431D01*
X147114862Y-87322246D01*
X147174902Y-87218254D01*
X147195753Y-87100000D01*
X147174902Y-86981746D01*
X147114862Y-86877754D01*
X147114859Y-86877751D01*
X147114860Y-86877751D01*
X147022877Y-86800569D01*
X146910040Y-86759500D01*
X146910039Y-86759500D01*
X146789961Y-86759500D01*
X146733542Y-86780034D01*
X146677123Y-86800569D01*
X146585140Y-86877751D01*
X146525097Y-86981748D01*
X146511388Y-87059500D01*
X146504247Y-87100000D01*
X115200000Y-87100000D01*
X115200000Y-86500003D01*
X157095131Y-86500003D01*
X157112498Y-86609658D01*
X157112501Y-86609665D01*
X157162902Y-86708583D01*
X157162905Y-86708587D01*
X157241412Y-86787094D01*
X157241416Y-86787097D01*
X157340334Y-86837498D01*
X157340341Y-86837501D01*
X157449996Y-86854869D01*
X157450000Y-86854869D01*
X157450004Y-86854869D01*
X157559658Y-86837501D01*
X157559659Y-86837500D01*
X157559661Y-86837500D01*
X157658587Y-86787095D01*
X157737095Y-86708587D01*
X157787500Y-86609661D01*
X157787500Y-86609659D01*
X157787501Y-86609658D01*
X157804869Y-86500003D01*
X157804869Y-86499996D01*
X157787501Y-86390341D01*
X157787498Y-86390334D01*
X157737097Y-86291416D01*
X157737094Y-86291412D01*
X157658587Y-86212905D01*
X157658583Y-86212902D01*
X157559665Y-86162501D01*
X157559658Y-86162498D01*
X157450004Y-86145131D01*
X157449996Y-86145131D01*
X157340341Y-86162498D01*
X157340334Y-86162501D01*
X157241416Y-86212902D01*
X157241412Y-86212905D01*
X157162905Y-86291412D01*
X157162902Y-86291416D01*
X157112501Y-86390334D01*
X157112498Y-86390341D01*
X157095131Y-86499996D01*
X157095131Y-86500003D01*
X115200000Y-86500003D01*
X115200000Y-86000000D01*
X144854247Y-86000000D01*
X144875098Y-86118254D01*
X144935138Y-86222246D01*
X144935140Y-86222248D01*
X144935139Y-86222248D01*
X145015925Y-86290034D01*
X145027123Y-86299431D01*
X145139961Y-86340500D01*
X145260038Y-86340500D01*
X145260039Y-86340500D01*
X145372877Y-86299431D01*
X145464862Y-86222246D01*
X145524902Y-86118254D01*
X145545753Y-86000000D01*
X145524902Y-85881746D01*
X145464862Y-85777754D01*
X145464859Y-85777751D01*
X145464860Y-85777751D01*
X145372877Y-85700569D01*
X145260040Y-85659500D01*
X145260039Y-85659500D01*
X145139961Y-85659500D01*
X145083542Y-85680034D01*
X145027123Y-85700569D01*
X144935140Y-85777751D01*
X144875097Y-85881748D01*
X144854247Y-85999999D01*
X144854247Y-86000000D01*
X115200000Y-86000000D01*
X115200000Y-85325500D01*
X154441618Y-85325500D01*
X154462469Y-85443754D01*
X154522509Y-85547746D01*
X154522511Y-85547748D01*
X154522510Y-85547748D01*
X154603296Y-85615534D01*
X154614494Y-85624931D01*
X154727332Y-85666000D01*
X154847409Y-85666000D01*
X154847410Y-85666000D01*
X154960248Y-85624931D01*
X155052233Y-85547746D01*
X155112273Y-85443754D01*
X155133124Y-85325500D01*
X155112273Y-85207246D01*
X155052233Y-85103254D01*
X155052230Y-85103251D01*
X155052231Y-85103251D01*
X154960248Y-85026069D01*
X154847411Y-84985000D01*
X154847410Y-84985000D01*
X154727332Y-84985000D01*
X154670913Y-85005534D01*
X154614494Y-85026069D01*
X154522511Y-85103251D01*
X154522509Y-85103253D01*
X154522509Y-85103254D01*
X154462469Y-85207246D01*
X154462468Y-85207248D01*
X154441618Y-85325499D01*
X154441618Y-85325500D01*
X115200000Y-85325500D01*
X115200000Y-84865881D01*
X147050643Y-84865881D01*
X147050644Y-84865881D01*
X147071495Y-84984135D01*
X147131535Y-85088127D01*
X147131537Y-85088129D01*
X147131536Y-85088129D01*
X147212322Y-85155915D01*
X147223520Y-85165312D01*
X147336358Y-85206381D01*
X147456435Y-85206381D01*
X147456436Y-85206381D01*
X147569274Y-85165312D01*
X147661259Y-85088127D01*
X147721299Y-84984135D01*
X147742150Y-84865881D01*
X147721299Y-84747627D01*
X147661259Y-84643635D01*
X147661256Y-84643632D01*
X147661257Y-84643632D01*
X147569274Y-84566450D01*
X147456437Y-84525381D01*
X147456436Y-84525381D01*
X147336358Y-84525381D01*
X147279939Y-84545915D01*
X147223520Y-84566450D01*
X147131537Y-84643632D01*
X147071494Y-84747629D01*
X147050643Y-84865881D01*
X115200000Y-84865881D01*
X115200000Y-83796740D01*
X148355187Y-83796740D01*
X148376038Y-83914994D01*
X148436078Y-84018986D01*
X148436080Y-84018988D01*
X148436079Y-84018988D01*
X148516865Y-84086774D01*
X148528063Y-84096171D01*
X148640901Y-84137240D01*
X148760978Y-84137240D01*
X148760979Y-84137240D01*
X148873817Y-84096171D01*
X148965802Y-84018986D01*
X149025842Y-83914994D01*
X149028486Y-83900000D01*
X161254247Y-83900000D01*
X161275098Y-84018254D01*
X161335138Y-84122246D01*
X161335140Y-84122248D01*
X161335139Y-84122248D01*
X161415925Y-84190034D01*
X161427123Y-84199431D01*
X161539961Y-84240500D01*
X161660038Y-84240500D01*
X161660039Y-84240500D01*
X161772877Y-84199431D01*
X161864862Y-84122246D01*
X161924902Y-84018254D01*
X161945753Y-83900000D01*
X161924902Y-83781746D01*
X161864862Y-83677754D01*
X161864859Y-83677751D01*
X161864860Y-83677751D01*
X161772877Y-83600569D01*
X161660040Y-83559500D01*
X161660039Y-83559500D01*
X161539961Y-83559500D01*
X161498765Y-83574494D01*
X161427123Y-83600569D01*
X161335140Y-83677751D01*
X161335138Y-83677753D01*
X161335138Y-83677754D01*
X161275098Y-83781746D01*
X161275097Y-83781748D01*
X161272454Y-83796740D01*
X161254247Y-83900000D01*
X149028486Y-83900000D01*
X149046693Y-83796740D01*
X149025842Y-83678486D01*
X148965802Y-83574494D01*
X148965799Y-83574491D01*
X148965800Y-83574491D01*
X148873817Y-83497309D01*
X148760980Y-83456240D01*
X148760979Y-83456240D01*
X148640901Y-83456240D01*
X148584482Y-83476774D01*
X148528063Y-83497309D01*
X148436080Y-83574491D01*
X148436078Y-83574493D01*
X148436078Y-83574494D01*
X148376461Y-83677754D01*
X148376037Y-83678488D01*
X148365103Y-83740500D01*
X148355187Y-83796740D01*
X115200000Y-83796740D01*
X115200000Y-83049999D01*
X149654247Y-83049999D01*
X149663163Y-83100569D01*
X149675098Y-83168254D01*
X149735138Y-83272246D01*
X149735140Y-83272248D01*
X149735139Y-83272248D01*
X149815925Y-83340034D01*
X149827123Y-83349431D01*
X149939961Y-83390500D01*
X150060038Y-83390500D01*
X150060039Y-83390500D01*
X150172877Y-83349431D01*
X150264862Y-83272246D01*
X150324902Y-83168254D01*
X150345753Y-83050000D01*
X155104247Y-83050000D01*
X155113163Y-83100569D01*
X155125098Y-83168254D01*
X155185138Y-83272246D01*
X155185140Y-83272248D01*
X155185139Y-83272248D01*
X155265925Y-83340034D01*
X155277123Y-83349431D01*
X155389961Y-83390500D01*
X155394674Y-83390500D01*
X155443464Y-83410710D01*
X155462625Y-83447518D01*
X155466269Y-83468184D01*
X155475097Y-83518252D01*
X155475097Y-83518253D01*
X155475098Y-83518254D01*
X155535138Y-83622246D01*
X155535140Y-83622248D01*
X155535139Y-83622248D01*
X155601286Y-83677751D01*
X155627123Y-83699431D01*
X155739961Y-83740500D01*
X155860038Y-83740500D01*
X155860039Y-83740500D01*
X155972877Y-83699431D01*
X156064862Y-83622246D01*
X156124902Y-83518254D01*
X156145753Y-83400000D01*
X156124902Y-83281746D01*
X156064862Y-83177754D01*
X156064859Y-83177751D01*
X156064860Y-83177751D01*
X155972877Y-83100569D01*
X155860040Y-83059500D01*
X155860039Y-83059500D01*
X155855326Y-83059500D01*
X155806536Y-83039290D01*
X155787374Y-83002481D01*
X155774902Y-82931747D01*
X155774902Y-82931746D01*
X155714862Y-82827754D01*
X155714859Y-82827751D01*
X155714860Y-82827751D01*
X155622877Y-82750569D01*
X155510040Y-82709500D01*
X155510039Y-82709500D01*
X155389961Y-82709500D01*
X155333542Y-82730034D01*
X155277123Y-82750569D01*
X155185140Y-82827751D01*
X155125097Y-82931748D01*
X155104247Y-83050000D01*
X150345753Y-83050000D01*
X150324902Y-82931746D01*
X150264862Y-82827754D01*
X150264859Y-82827751D01*
X150264860Y-82827751D01*
X150172877Y-82750569D01*
X150060040Y-82709500D01*
X150060039Y-82709500D01*
X149939961Y-82709500D01*
X149883542Y-82730034D01*
X149827123Y-82750569D01*
X149735140Y-82827751D01*
X149675097Y-82931748D01*
X149654247Y-83049999D01*
X115200000Y-83049999D01*
X115200000Y-81000000D01*
X145754247Y-81000000D01*
X145775098Y-81118254D01*
X145835138Y-81222246D01*
X145835140Y-81222248D01*
X145835139Y-81222248D01*
X145915925Y-81290034D01*
X145927123Y-81299431D01*
X146039961Y-81340500D01*
X146160038Y-81340500D01*
X146160039Y-81340500D01*
X146272877Y-81299431D01*
X146364862Y-81222246D01*
X146424902Y-81118254D01*
X146445753Y-81000000D01*
X146424902Y-80881746D01*
X146383189Y-80809498D01*
X146376297Y-80757140D01*
X146383189Y-80740502D01*
X146424902Y-80668254D01*
X146445753Y-80550000D01*
X146424902Y-80431746D01*
X146364862Y-80327754D01*
X146364859Y-80327751D01*
X146364860Y-80327751D01*
X146272877Y-80250569D01*
X146160040Y-80209500D01*
X146160039Y-80209500D01*
X146039961Y-80209500D01*
X145983542Y-80230034D01*
X145927123Y-80250569D01*
X145835140Y-80327751D01*
X145775097Y-80431748D01*
X145754247Y-80549999D01*
X145775097Y-80668252D01*
X145816809Y-80740500D01*
X145823702Y-80792859D01*
X145816809Y-80809500D01*
X145775097Y-80881747D01*
X145754247Y-80999999D01*
X145754247Y-81000000D01*
X115200000Y-81000000D01*
X115200000Y-80250000D01*
X125454247Y-80250000D01*
X125475098Y-80368254D01*
X125535138Y-80472246D01*
X125535140Y-80472248D01*
X125535139Y-80472248D01*
X125615925Y-80540034D01*
X125627123Y-80549431D01*
X125739961Y-80590500D01*
X125860038Y-80590500D01*
X125860039Y-80590500D01*
X125972877Y-80549431D01*
X126064862Y-80472246D01*
X126124902Y-80368254D01*
X126145753Y-80250000D01*
X126124902Y-80131746D01*
X126064862Y-80027754D01*
X126064859Y-80027751D01*
X126064860Y-80027751D01*
X125972877Y-79950569D01*
X125860040Y-79909500D01*
X125860039Y-79909500D01*
X125739961Y-79909500D01*
X125704936Y-79922248D01*
X125627123Y-79950569D01*
X125535140Y-80027751D01*
X125475097Y-80131748D01*
X125454347Y-80249431D01*
X125454247Y-80250000D01*
X115200000Y-80250000D01*
X115200000Y-79700000D01*
X126204247Y-79700000D01*
X126225098Y-79818254D01*
X126285138Y-79922246D01*
X126285140Y-79922248D01*
X126285139Y-79922248D01*
X126365925Y-79990034D01*
X126377123Y-79999431D01*
X126489961Y-80040500D01*
X126610038Y-80040500D01*
X126610039Y-80040500D01*
X126722877Y-79999431D01*
X126781786Y-79950000D01*
X129154247Y-79950000D01*
X129175098Y-80068254D01*
X129235138Y-80172246D01*
X129235140Y-80172248D01*
X129235139Y-80172248D01*
X129279535Y-80209500D01*
X129327123Y-80249431D01*
X129439961Y-80290500D01*
X129560038Y-80290500D01*
X129560039Y-80290500D01*
X129672877Y-80249431D01*
X129764862Y-80172246D01*
X129824902Y-80068254D01*
X129845753Y-79950000D01*
X130354247Y-79950000D01*
X130375098Y-80068254D01*
X130435138Y-80172246D01*
X130435140Y-80172248D01*
X130435139Y-80172248D01*
X130479535Y-80209500D01*
X130527123Y-80249431D01*
X130639961Y-80290500D01*
X130760038Y-80290500D01*
X130760039Y-80290500D01*
X130872877Y-80249431D01*
X130964862Y-80172246D01*
X131024902Y-80068254D01*
X131045753Y-79950000D01*
X131024902Y-79831746D01*
X130964862Y-79727754D01*
X130964859Y-79727751D01*
X130964860Y-79727751D01*
X130872877Y-79650569D01*
X130760040Y-79609500D01*
X130760039Y-79609500D01*
X130639961Y-79609500D01*
X130583542Y-79630034D01*
X130527123Y-79650569D01*
X130435140Y-79727751D01*
X130435138Y-79727753D01*
X130435138Y-79727754D01*
X130382888Y-79818254D01*
X130375097Y-79831748D01*
X130359140Y-79922248D01*
X130354247Y-79950000D01*
X129845753Y-79950000D01*
X129824902Y-79831746D01*
X129764862Y-79727754D01*
X129764859Y-79727751D01*
X129764860Y-79727751D01*
X129672877Y-79650569D01*
X129560040Y-79609500D01*
X129560039Y-79609500D01*
X129439961Y-79609500D01*
X129383542Y-79630034D01*
X129327123Y-79650569D01*
X129235140Y-79727751D01*
X129235138Y-79727753D01*
X129235138Y-79727754D01*
X129182888Y-79818254D01*
X129175097Y-79831748D01*
X129159140Y-79922248D01*
X129154247Y-79950000D01*
X126781786Y-79950000D01*
X126814862Y-79922246D01*
X126874902Y-79818254D01*
X126895753Y-79700000D01*
X126874902Y-79581746D01*
X126814862Y-79477754D01*
X126814859Y-79477751D01*
X126814860Y-79477751D01*
X126722877Y-79400569D01*
X126610040Y-79359500D01*
X126610039Y-79359500D01*
X126489961Y-79359500D01*
X126433542Y-79380034D01*
X126377123Y-79400569D01*
X126285140Y-79477751D01*
X126225097Y-79581748D01*
X126220204Y-79609500D01*
X126204247Y-79700000D01*
X115200000Y-79700000D01*
X115200000Y-77700000D01*
X151404246Y-77700000D01*
X151404247Y-77700000D01*
X151425098Y-77818254D01*
X151485138Y-77922246D01*
X151485140Y-77922248D01*
X151485139Y-77922248D01*
X151565925Y-77990034D01*
X151577123Y-77999431D01*
X151689961Y-78040500D01*
X151810038Y-78040500D01*
X151810039Y-78040500D01*
X151922877Y-77999431D01*
X152014862Y-77922246D01*
X152074902Y-77818254D01*
X152095753Y-77700000D01*
X152074902Y-77581746D01*
X152033189Y-77509498D01*
X152026297Y-77457142D01*
X152033188Y-77440503D01*
X152074902Y-77368254D01*
X152095753Y-77250000D01*
X152074902Y-77131746D01*
X152033189Y-77059498D01*
X152026297Y-77007142D01*
X152033188Y-76990503D01*
X152074902Y-76918254D01*
X152095753Y-76800000D01*
X152074902Y-76681746D01*
X152014862Y-76577754D01*
X152014859Y-76577751D01*
X152014860Y-76577751D01*
X151922877Y-76500569D01*
X151810040Y-76459500D01*
X151810039Y-76459500D01*
X151689961Y-76459500D01*
X151633542Y-76480034D01*
X151577123Y-76500569D01*
X151485140Y-76577751D01*
X151425097Y-76681748D01*
X151404247Y-76800000D01*
X151425097Y-76918252D01*
X151466809Y-76990500D01*
X151473702Y-77042859D01*
X151466809Y-77059500D01*
X151425097Y-77131747D01*
X151404247Y-77250000D01*
X151425097Y-77368252D01*
X151466809Y-77440500D01*
X151473702Y-77492859D01*
X151466809Y-77509500D01*
X151425097Y-77581747D01*
X151404246Y-77700000D01*
X115200000Y-77700000D01*
X115200000Y-76900000D01*
X129004247Y-76900000D01*
X129023138Y-77007142D01*
X129025098Y-77018254D01*
X129085138Y-77122246D01*
X129085140Y-77122248D01*
X129085139Y-77122248D01*
X129165925Y-77190034D01*
X129177123Y-77199431D01*
X129289961Y-77240500D01*
X129410038Y-77240500D01*
X129410039Y-77240500D01*
X129522877Y-77199431D01*
X129614862Y-77122246D01*
X129674902Y-77018254D01*
X129695753Y-76900000D01*
X129674902Y-76781746D01*
X129614862Y-76677754D01*
X129614859Y-76677751D01*
X129614860Y-76677751D01*
X129522877Y-76600569D01*
X129410040Y-76559500D01*
X129410039Y-76559500D01*
X129289961Y-76559500D01*
X129239808Y-76577754D01*
X129177123Y-76600569D01*
X129085140Y-76677751D01*
X129025097Y-76781748D01*
X129004247Y-76900000D01*
X115200000Y-76900000D01*
X115200000Y-76049999D01*
X129804247Y-76049999D01*
X129822937Y-76156003D01*
X129825098Y-76168254D01*
X129885138Y-76272246D01*
X129885140Y-76272248D01*
X129885139Y-76272248D01*
X129951840Y-76328216D01*
X129977123Y-76349431D01*
X130089961Y-76390500D01*
X130210038Y-76390500D01*
X130210039Y-76390500D01*
X130322877Y-76349431D01*
X130414862Y-76272246D01*
X130474902Y-76168254D01*
X130495753Y-76050000D01*
X130478120Y-75949999D01*
X142104247Y-75949999D01*
X142121070Y-76045414D01*
X142125098Y-76068254D01*
X142185138Y-76172246D01*
X142185140Y-76172248D01*
X142185139Y-76172248D01*
X142241603Y-76219626D01*
X142277123Y-76249431D01*
X142389961Y-76290500D01*
X142510038Y-76290500D01*
X142510039Y-76290500D01*
X142622877Y-76249431D01*
X142714862Y-76172246D01*
X142774902Y-76068254D01*
X142795753Y-75950000D01*
X142774902Y-75831746D01*
X142714862Y-75727754D01*
X142714859Y-75727751D01*
X142714860Y-75727751D01*
X142622877Y-75650569D01*
X142510040Y-75609500D01*
X142510039Y-75609500D01*
X142389961Y-75609500D01*
X142333542Y-75630034D01*
X142277123Y-75650569D01*
X142185140Y-75727751D01*
X142185138Y-75727753D01*
X142185138Y-75727754D01*
X142146892Y-75793998D01*
X142125097Y-75831748D01*
X142104247Y-75949999D01*
X130478120Y-75949999D01*
X130474902Y-75931746D01*
X130414862Y-75827754D01*
X130414859Y-75827751D01*
X130414860Y-75827751D01*
X130322877Y-75750569D01*
X130210040Y-75709500D01*
X130210039Y-75709500D01*
X130089961Y-75709500D01*
X130039808Y-75727754D01*
X129977123Y-75750569D01*
X129885140Y-75827751D01*
X129825097Y-75931748D01*
X129804247Y-76049999D01*
X115200000Y-76049999D01*
X115200000Y-74981896D01*
X157908292Y-74981896D01*
X157918158Y-75113561D01*
X157918159Y-75113566D01*
X157966395Y-75236470D01*
X157966396Y-75236472D01*
X157966397Y-75236473D01*
X158048720Y-75339703D01*
X158157812Y-75414081D01*
X158208930Y-75429849D01*
X158283977Y-75452999D01*
X158283980Y-75452999D01*
X158283982Y-75453000D01*
X158283983Y-75453000D01*
X158382819Y-75453000D01*
X158382821Y-75453000D01*
X158443136Y-75443908D01*
X158480556Y-75438269D01*
X158480557Y-75438269D01*
X158480558Y-75438268D01*
X158480561Y-75438268D01*
X158564967Y-75397619D01*
X158617692Y-75394659D01*
X158657070Y-75429849D01*
X158663742Y-75464495D01*
X158655690Y-75582231D01*
X158685918Y-75727703D01*
X158754274Y-75859624D01*
X158754276Y-75859626D01*
X158855690Y-75968214D01*
X158855693Y-75968216D01*
X158855692Y-75968216D01*
X158926300Y-76011153D01*
X158982640Y-76045414D01*
X159125710Y-76085500D01*
X159125712Y-76085500D01*
X160036970Y-76085500D01*
X160036974Y-76085500D01*
X160082157Y-76079289D01*
X160147192Y-76070351D01*
X160147193Y-76070350D01*
X160147196Y-76070350D01*
X160283476Y-76011156D01*
X160368196Y-75942231D01*
X164605690Y-75942231D01*
X164635918Y-76087703D01*
X164704274Y-76219624D01*
X164704276Y-76219626D01*
X164805690Y-76328214D01*
X164805693Y-76328216D01*
X164805692Y-76328216D01*
X164876300Y-76371153D01*
X164932640Y-76405414D01*
X165075710Y-76445500D01*
X165075712Y-76445500D01*
X165986970Y-76445500D01*
X165986974Y-76445500D01*
X166032157Y-76439289D01*
X166097192Y-76430351D01*
X166097193Y-76430350D01*
X166097196Y-76430350D01*
X166233476Y-76371156D01*
X166348731Y-76277389D01*
X166434414Y-76156003D01*
X166484171Y-76016002D01*
X166494310Y-75867768D01*
X166464081Y-75722296D01*
X166426915Y-75650569D01*
X166395725Y-75590375D01*
X166318575Y-75507768D01*
X166294310Y-75481786D01*
X166294307Y-75481784D01*
X166294306Y-75481783D01*
X166294307Y-75481783D01*
X166167362Y-75404587D01*
X166167361Y-75404586D01*
X166167360Y-75404586D01*
X166167357Y-75404585D01*
X166167354Y-75404584D01*
X166024295Y-75364501D01*
X166024292Y-75364500D01*
X166024290Y-75364500D01*
X165113026Y-75364500D01*
X165113020Y-75364500D01*
X165002807Y-75379648D01*
X164866519Y-75438846D01*
X164751268Y-75532611D01*
X164665587Y-75653995D01*
X164665586Y-75653997D01*
X164664873Y-75656004D01*
X164615829Y-75793995D01*
X164615828Y-75793997D01*
X164605690Y-75942231D01*
X160368196Y-75942231D01*
X160398731Y-75917389D01*
X160484414Y-75796003D01*
X160534171Y-75656002D01*
X160544310Y-75507768D01*
X160514081Y-75362296D01*
X160477228Y-75291173D01*
X160445725Y-75230375D01*
X160440425Y-75224700D01*
X160344310Y-75121786D01*
X160344307Y-75121784D01*
X160344306Y-75121783D01*
X160344307Y-75121783D01*
X160217362Y-75044587D01*
X160217361Y-75044586D01*
X160217360Y-75044586D01*
X160217357Y-75044585D01*
X160217354Y-75044584D01*
X160074295Y-75004501D01*
X160074292Y-75004500D01*
X160074290Y-75004500D01*
X159163026Y-75004500D01*
X159163020Y-75004500D01*
X159052807Y-75019648D01*
X158916519Y-75078846D01*
X158903531Y-75089414D01*
X158852930Y-75104528D01*
X158806462Y-75079435D01*
X158791179Y-75041046D01*
X158789575Y-75019648D01*
X158781841Y-74916435D01*
X158733603Y-74793527D01*
X158651280Y-74690297D01*
X158651277Y-74690295D01*
X158651278Y-74690295D01*
X158590738Y-74649020D01*
X158542188Y-74615919D01*
X158542185Y-74615918D01*
X158416022Y-74577000D01*
X158416018Y-74577000D01*
X158317179Y-74577000D01*
X158317174Y-74577000D01*
X158219443Y-74591730D01*
X158219442Y-74591730D01*
X158100479Y-74649020D01*
X158003690Y-74738826D01*
X157937670Y-74853175D01*
X157937670Y-74853176D01*
X157908292Y-74981896D01*
X115200000Y-74981896D01*
X115200000Y-74150000D01*
X122404247Y-74150000D01*
X122425098Y-74268254D01*
X122485138Y-74372246D01*
X122485140Y-74372248D01*
X122485139Y-74372248D01*
X122565925Y-74440034D01*
X122577123Y-74449431D01*
X122689961Y-74490500D01*
X122810038Y-74490500D01*
X122810039Y-74490500D01*
X122922877Y-74449431D01*
X123014862Y-74372246D01*
X123074902Y-74268254D01*
X123095753Y-74150000D01*
X123074902Y-74031746D01*
X123014862Y-73927754D01*
X123014859Y-73927751D01*
X123014860Y-73927751D01*
X122922877Y-73850569D01*
X122810040Y-73809500D01*
X122810039Y-73809500D01*
X122689961Y-73809500D01*
X122633542Y-73830034D01*
X122577123Y-73850569D01*
X122485140Y-73927751D01*
X122425097Y-74031748D01*
X122404247Y-74149999D01*
X122404247Y-74150000D01*
X115200000Y-74150000D01*
X115200000Y-72500000D01*
X151404247Y-72500000D01*
X151425098Y-72618254D01*
X151485138Y-72722246D01*
X151485140Y-72722248D01*
X151485139Y-72722248D01*
X151565925Y-72790034D01*
X151577123Y-72799431D01*
X151689961Y-72840500D01*
X151810038Y-72840500D01*
X151810039Y-72840500D01*
X151922877Y-72799431D01*
X152014862Y-72722246D01*
X152074902Y-72618254D01*
X152095753Y-72500000D01*
X152074902Y-72381746D01*
X152018755Y-72284498D01*
X152011863Y-72232141D01*
X152018754Y-72215503D01*
X152056573Y-72150000D01*
X158104247Y-72150000D01*
X158116985Y-72222246D01*
X158125098Y-72268254D01*
X158185138Y-72372246D01*
X158185140Y-72372248D01*
X158185139Y-72372248D01*
X158265925Y-72440034D01*
X158277123Y-72449431D01*
X158389961Y-72490500D01*
X158510038Y-72490500D01*
X158510039Y-72490500D01*
X158622877Y-72449431D01*
X158714862Y-72372246D01*
X158774902Y-72268254D01*
X158795753Y-72150000D01*
X158774902Y-72031746D01*
X158714862Y-71927754D01*
X158714859Y-71927751D01*
X158714860Y-71927751D01*
X158622877Y-71850569D01*
X158510040Y-71809500D01*
X158510039Y-71809500D01*
X158389961Y-71809500D01*
X158333542Y-71830034D01*
X158277123Y-71850569D01*
X158185140Y-71927751D01*
X158125097Y-72031748D01*
X158104247Y-72150000D01*
X152056573Y-72150000D01*
X152074902Y-72118254D01*
X152095753Y-72000000D01*
X152074902Y-71881746D01*
X152018755Y-71784498D01*
X152011863Y-71732141D01*
X152018754Y-71715503D01*
X152027705Y-71700000D01*
X155304247Y-71700000D01*
X155316985Y-71772246D01*
X155325098Y-71818254D01*
X155385138Y-71922246D01*
X155385140Y-71922248D01*
X155385139Y-71922248D01*
X155465925Y-71990034D01*
X155477123Y-71999431D01*
X155589961Y-72040500D01*
X155710038Y-72040500D01*
X155710039Y-72040500D01*
X155822877Y-71999431D01*
X155914862Y-71922246D01*
X155974902Y-71818254D01*
X155995753Y-71700000D01*
X155974902Y-71581746D01*
X155914862Y-71477754D01*
X155914859Y-71477751D01*
X155914860Y-71477751D01*
X155822877Y-71400569D01*
X155793394Y-71389838D01*
X155754459Y-71354161D01*
X155752155Y-71301401D01*
X155787833Y-71262465D01*
X155793387Y-71260164D01*
X155822877Y-71249431D01*
X155914862Y-71172246D01*
X155974902Y-71068254D01*
X155995753Y-70950000D01*
X155986937Y-70900000D01*
X158304247Y-70900000D01*
X158312962Y-70949430D01*
X158325098Y-71018254D01*
X158385138Y-71122246D01*
X158385140Y-71122248D01*
X158385139Y-71122248D01*
X158465925Y-71190034D01*
X158477123Y-71199431D01*
X158589961Y-71240500D01*
X158710038Y-71240500D01*
X158710039Y-71240500D01*
X158822877Y-71199431D01*
X158914862Y-71122246D01*
X158974902Y-71018254D01*
X158995753Y-70900000D01*
X158974902Y-70781746D01*
X158914862Y-70677754D01*
X158914859Y-70677751D01*
X158914860Y-70677751D01*
X158822877Y-70600569D01*
X158710040Y-70559500D01*
X158710039Y-70559500D01*
X158589961Y-70559500D01*
X158539808Y-70577754D01*
X158477123Y-70600569D01*
X158385140Y-70677751D01*
X158385138Y-70677753D01*
X158385138Y-70677754D01*
X158332888Y-70768254D01*
X158325097Y-70781748D01*
X158304247Y-70900000D01*
X155986937Y-70900000D01*
X155974902Y-70831746D01*
X155914862Y-70727754D01*
X155914859Y-70727751D01*
X155914860Y-70727751D01*
X155822877Y-70650569D01*
X155710040Y-70609500D01*
X155710039Y-70609500D01*
X155589961Y-70609500D01*
X155533542Y-70630034D01*
X155477123Y-70650569D01*
X155385140Y-70727751D01*
X155385138Y-70727753D01*
X155385138Y-70727754D01*
X155343427Y-70799999D01*
X155325097Y-70831748D01*
X155304247Y-70950000D01*
X155316985Y-71022246D01*
X155325098Y-71068254D01*
X155385138Y-71172246D01*
X155385140Y-71172248D01*
X155385139Y-71172248D01*
X155429535Y-71209500D01*
X155477123Y-71249431D01*
X155506604Y-71260161D01*
X155545540Y-71295839D01*
X155547844Y-71348599D01*
X155512166Y-71387535D01*
X155506605Y-71389839D01*
X155477122Y-71400569D01*
X155385140Y-71477751D01*
X155325097Y-71581748D01*
X155304247Y-71700000D01*
X152027705Y-71700000D01*
X152074902Y-71618254D01*
X152095753Y-71500000D01*
X152074902Y-71381746D01*
X152014862Y-71277754D01*
X152014859Y-71277751D01*
X152014860Y-71277751D01*
X151922877Y-71200569D01*
X151810040Y-71159500D01*
X151810039Y-71159500D01*
X151689961Y-71159500D01*
X151654936Y-71172248D01*
X151577123Y-71200569D01*
X151485140Y-71277751D01*
X151485138Y-71277753D01*
X151485138Y-71277754D01*
X151441024Y-71354161D01*
X151425097Y-71381748D01*
X151404247Y-71500000D01*
X151425097Y-71618252D01*
X151481243Y-71715500D01*
X151488136Y-71767859D01*
X151481243Y-71784500D01*
X151425097Y-71881747D01*
X151404247Y-72000000D01*
X151425097Y-72118252D01*
X151481243Y-72215500D01*
X151488136Y-72267859D01*
X151481243Y-72284500D01*
X151425097Y-72381747D01*
X151405922Y-72490500D01*
X151404247Y-72500000D01*
X115200000Y-72500000D01*
X115200000Y-71550000D01*
X143154247Y-71550000D01*
X143175098Y-71668254D01*
X143235138Y-71772246D01*
X143235140Y-71772248D01*
X143235139Y-71772248D01*
X143315925Y-71840034D01*
X143327123Y-71849431D01*
X143439961Y-71890500D01*
X143560038Y-71890500D01*
X143560039Y-71890500D01*
X143672877Y-71849431D01*
X143764862Y-71772246D01*
X143824902Y-71668254D01*
X143845753Y-71550000D01*
X143824902Y-71431746D01*
X143764862Y-71327754D01*
X143764859Y-71327751D01*
X143764860Y-71327751D01*
X143672877Y-71250569D01*
X143560040Y-71209500D01*
X143560039Y-71209500D01*
X143439961Y-71209500D01*
X143383542Y-71230034D01*
X143327123Y-71250569D01*
X143235140Y-71327751D01*
X143235138Y-71327753D01*
X143235138Y-71327754D01*
X143199293Y-71389839D01*
X143175097Y-71431748D01*
X143163063Y-71500000D01*
X143154247Y-71550000D01*
X115200000Y-71550000D01*
X115200000Y-70650000D01*
X122404247Y-70650000D01*
X122409844Y-70681746D01*
X122425098Y-70768254D01*
X122485138Y-70872246D01*
X122485140Y-70872248D01*
X122485139Y-70872248D01*
X122565925Y-70940034D01*
X122577123Y-70949431D01*
X122689961Y-70990500D01*
X122810038Y-70990500D01*
X122810039Y-70990500D01*
X122922877Y-70949431D01*
X123014862Y-70872246D01*
X123056573Y-70800000D01*
X141904247Y-70800000D01*
X141916985Y-70872246D01*
X141925098Y-70918254D01*
X141985138Y-71022246D01*
X141985140Y-71022248D01*
X141985139Y-71022248D01*
X142065925Y-71090034D01*
X142077123Y-71099431D01*
X142189961Y-71140500D01*
X142310038Y-71140500D01*
X142310039Y-71140500D01*
X142422877Y-71099431D01*
X142514862Y-71022246D01*
X142574902Y-70918254D01*
X142595753Y-70800000D01*
X144604247Y-70800000D01*
X144616985Y-70872246D01*
X144625098Y-70918254D01*
X144685138Y-71022246D01*
X144685140Y-71022248D01*
X144685139Y-71022248D01*
X144765925Y-71090034D01*
X144777123Y-71099431D01*
X144889961Y-71140500D01*
X145010038Y-71140500D01*
X145010039Y-71140500D01*
X145122877Y-71099431D01*
X145214862Y-71022246D01*
X145274902Y-70918254D01*
X145295753Y-70800000D01*
X145274902Y-70681746D01*
X145214862Y-70577754D01*
X145214859Y-70577751D01*
X145214860Y-70577751D01*
X145122877Y-70500569D01*
X145010040Y-70459500D01*
X145010039Y-70459500D01*
X144889961Y-70459500D01*
X144833542Y-70480034D01*
X144777123Y-70500569D01*
X144685140Y-70577751D01*
X144685138Y-70577753D01*
X144685138Y-70577754D01*
X144643427Y-70650000D01*
X144625097Y-70681748D01*
X144604247Y-70800000D01*
X142595753Y-70800000D01*
X142574902Y-70681746D01*
X142514862Y-70577754D01*
X142514859Y-70577751D01*
X142514860Y-70577751D01*
X142422877Y-70500569D01*
X142310040Y-70459500D01*
X142310039Y-70459500D01*
X142189961Y-70459500D01*
X142133542Y-70480034D01*
X142077123Y-70500569D01*
X141985140Y-70577751D01*
X141985138Y-70577753D01*
X141985138Y-70577754D01*
X141943427Y-70650000D01*
X141925097Y-70681748D01*
X141904247Y-70800000D01*
X123056573Y-70800000D01*
X123074902Y-70768254D01*
X123095753Y-70650000D01*
X123074902Y-70531746D01*
X123014862Y-70427754D01*
X123014859Y-70427751D01*
X123014860Y-70427751D01*
X122922877Y-70350569D01*
X122810040Y-70309500D01*
X122810039Y-70309500D01*
X122689961Y-70309500D01*
X122633542Y-70330034D01*
X122577123Y-70350569D01*
X122485140Y-70427751D01*
X122485138Y-70427753D01*
X122485138Y-70427754D01*
X122443098Y-70500569D01*
X122425097Y-70531748D01*
X122404247Y-70650000D01*
X115200000Y-70650000D01*
X115200000Y-70050000D01*
X143154247Y-70050000D01*
X143175098Y-70168254D01*
X143235138Y-70272246D01*
X143235140Y-70272248D01*
X143235139Y-70272248D01*
X143279535Y-70309500D01*
X143327123Y-70349431D01*
X143439961Y-70390500D01*
X143560038Y-70390500D01*
X143560039Y-70390500D01*
X143672877Y-70349431D01*
X143764862Y-70272246D01*
X143824902Y-70168254D01*
X143845753Y-70050000D01*
X143824902Y-69931746D01*
X143764862Y-69827754D01*
X143764859Y-69827751D01*
X143764860Y-69827751D01*
X143672877Y-69750569D01*
X143560040Y-69709500D01*
X143560039Y-69709500D01*
X143439961Y-69709500D01*
X143383542Y-69730034D01*
X143327123Y-69750569D01*
X143235140Y-69827751D01*
X143175097Y-69931748D01*
X143154247Y-70049999D01*
X143154247Y-70050000D01*
X115200000Y-70050000D01*
X115200000Y-69250000D01*
X141904247Y-69250000D01*
X141925098Y-69368254D01*
X141985138Y-69472246D01*
X141985140Y-69472248D01*
X141985139Y-69472248D01*
X142065925Y-69540034D01*
X142077123Y-69549431D01*
X142189961Y-69590500D01*
X142310038Y-69590500D01*
X142310039Y-69590500D01*
X142422877Y-69549431D01*
X142514862Y-69472246D01*
X142574902Y-69368254D01*
X142595753Y-69250000D01*
X142574902Y-69131746D01*
X142514862Y-69027754D01*
X142514859Y-69027751D01*
X142514860Y-69027751D01*
X142422877Y-68950569D01*
X142310040Y-68909500D01*
X142310039Y-68909500D01*
X142189961Y-68909500D01*
X142133542Y-68930034D01*
X142077123Y-68950569D01*
X141985140Y-69027751D01*
X141925097Y-69131748D01*
X141904247Y-69249999D01*
X141904247Y-69250000D01*
X115200000Y-69250000D01*
X115200000Y-68550000D01*
X143154247Y-68550000D01*
X143175098Y-68668254D01*
X143235138Y-68772246D01*
X143235140Y-68772248D01*
X143235139Y-68772248D01*
X143315925Y-68840034D01*
X143327123Y-68849431D01*
X143439961Y-68890500D01*
X143560038Y-68890500D01*
X143560039Y-68890500D01*
X143672877Y-68849431D01*
X143764862Y-68772246D01*
X143824902Y-68668254D01*
X143845753Y-68550000D01*
X143824902Y-68431746D01*
X143764862Y-68327754D01*
X143764859Y-68327751D01*
X143764860Y-68327751D01*
X143672877Y-68250569D01*
X143560040Y-68209500D01*
X143560039Y-68209500D01*
X143439961Y-68209500D01*
X143383542Y-68230034D01*
X143327123Y-68250569D01*
X143235140Y-68327751D01*
X143235138Y-68327753D01*
X143235138Y-68327754D01*
X143196386Y-68394875D01*
X143175097Y-68431748D01*
X143154247Y-68549999D01*
X143154247Y-68550000D01*
X115200000Y-68550000D01*
X115200000Y-67800000D01*
X141904247Y-67800000D01*
X141913753Y-67853915D01*
X141925098Y-67918254D01*
X141985138Y-68022246D01*
X141985140Y-68022248D01*
X141985139Y-68022248D01*
X142065925Y-68090034D01*
X142077123Y-68099431D01*
X142189961Y-68140500D01*
X142310038Y-68140500D01*
X142310039Y-68140500D01*
X142422877Y-68099431D01*
X142514862Y-68022246D01*
X142574902Y-67918254D01*
X142593108Y-67815002D01*
X157919196Y-67815002D01*
X157923650Y-67843120D01*
X157924500Y-67853915D01*
X157924500Y-68026177D01*
X157958067Y-68140500D01*
X157958971Y-68143577D01*
X158025121Y-68246509D01*
X158117591Y-68326635D01*
X158228890Y-68377463D01*
X158350000Y-68394876D01*
X158471110Y-68377463D01*
X158582409Y-68326635D01*
X158674879Y-68246509D01*
X158741029Y-68143577D01*
X158775500Y-68026178D01*
X158775500Y-67965000D01*
X158775500Y-67938071D01*
X158775500Y-67938070D01*
X158775500Y-67853914D01*
X158776350Y-67843120D01*
X158780804Y-67815002D01*
X158780804Y-67814998D01*
X158777416Y-67793609D01*
X158789743Y-67742257D01*
X158834771Y-67714664D01*
X158881417Y-67723859D01*
X158982640Y-67785414D01*
X159125710Y-67825500D01*
X159125712Y-67825500D01*
X160036970Y-67825500D01*
X160036974Y-67825500D01*
X160082157Y-67819289D01*
X160147192Y-67810351D01*
X160147193Y-67810350D01*
X160147196Y-67810350D01*
X160283476Y-67751156D01*
X160398731Y-67657389D01*
X160484414Y-67536003D01*
X160534171Y-67396002D01*
X160544310Y-67247768D01*
X160514081Y-67102296D01*
X160445724Y-66970374D01*
X160438119Y-66962231D01*
X164605690Y-66962231D01*
X164635918Y-67107703D01*
X164704274Y-67239624D01*
X164704276Y-67239626D01*
X164805690Y-67348214D01*
X164805693Y-67348216D01*
X164805692Y-67348216D01*
X164875226Y-67390500D01*
X164932640Y-67425414D01*
X165075710Y-67465500D01*
X165075712Y-67465500D01*
X165986970Y-67465500D01*
X165986974Y-67465500D01*
X166032157Y-67459289D01*
X166097192Y-67450351D01*
X166097193Y-67450350D01*
X166097196Y-67450350D01*
X166233476Y-67391156D01*
X166234283Y-67390500D01*
X166256842Y-67372146D01*
X166348731Y-67297389D01*
X166434414Y-67176003D01*
X166484171Y-67036002D01*
X166494310Y-66887768D01*
X166464081Y-66742296D01*
X166428690Y-66673995D01*
X166395725Y-66610375D01*
X166341777Y-66552611D01*
X166294310Y-66501786D01*
X166294307Y-66501784D01*
X166294306Y-66501783D01*
X166294307Y-66501783D01*
X166167362Y-66424587D01*
X166167361Y-66424586D01*
X166167360Y-66424586D01*
X166167357Y-66424585D01*
X166167354Y-66424584D01*
X166024295Y-66384501D01*
X166024292Y-66384500D01*
X166024290Y-66384500D01*
X165113026Y-66384500D01*
X165113020Y-66384500D01*
X165002807Y-66399648D01*
X164866519Y-66458846D01*
X164751268Y-66552611D01*
X164665587Y-66673995D01*
X164615829Y-66813995D01*
X164615828Y-66813997D01*
X164605690Y-66962231D01*
X160438119Y-66962231D01*
X160344310Y-66861786D01*
X160344307Y-66861784D01*
X160344306Y-66861783D01*
X160344307Y-66861783D01*
X160217362Y-66784587D01*
X160217361Y-66784586D01*
X160217360Y-66784586D01*
X160217357Y-66784585D01*
X160217354Y-66784584D01*
X160074295Y-66744501D01*
X160074292Y-66744500D01*
X160074290Y-66744500D01*
X159163026Y-66744500D01*
X159163020Y-66744500D01*
X159052807Y-66759648D01*
X158916519Y-66818846D01*
X158801268Y-66912611D01*
X158715587Y-67033995D01*
X158715586Y-67033997D01*
X158704970Y-67063865D01*
X158665829Y-67173995D01*
X158665828Y-67173997D01*
X158661525Y-67236912D01*
X158638033Y-67284210D01*
X158587977Y-67301042D01*
X158564023Y-67294968D01*
X158471112Y-67252538D01*
X158471110Y-67252537D01*
X158350000Y-67235124D01*
X158228890Y-67252537D01*
X158228888Y-67252537D01*
X158228887Y-67252538D01*
X158117591Y-67303364D01*
X158025120Y-67383491D01*
X157958970Y-67486424D01*
X157924499Y-67603822D01*
X157924498Y-67677651D01*
X157924500Y-67677664D01*
X157924500Y-67776077D01*
X157923651Y-67786869D01*
X157919196Y-67815000D01*
X157919196Y-67815002D01*
X142593108Y-67815002D01*
X142595753Y-67800000D01*
X142574902Y-67681746D01*
X142514862Y-67577754D01*
X142514859Y-67577751D01*
X142514860Y-67577751D01*
X142422877Y-67500569D01*
X142310040Y-67459500D01*
X142310039Y-67459500D01*
X142189961Y-67459500D01*
X142133542Y-67480034D01*
X142077123Y-67500569D01*
X141985140Y-67577751D01*
X141925097Y-67681748D01*
X141904247Y-67800000D01*
X115200000Y-67800000D01*
X115200000Y-67049999D01*
X143154247Y-67049999D01*
X143164421Y-67107704D01*
X143175098Y-67168254D01*
X143235138Y-67272246D01*
X143235140Y-67272248D01*
X143235139Y-67272248D01*
X143315925Y-67340034D01*
X143327123Y-67349431D01*
X143439961Y-67390500D01*
X143560038Y-67390500D01*
X143560039Y-67390500D01*
X143672877Y-67349431D01*
X143764862Y-67272246D01*
X143824902Y-67168254D01*
X143845753Y-67050000D01*
X143824902Y-66931746D01*
X143764862Y-66827754D01*
X143764859Y-66827751D01*
X143764860Y-66827751D01*
X143672877Y-66750569D01*
X143560040Y-66709500D01*
X143560039Y-66709500D01*
X143439961Y-66709500D01*
X143383542Y-66730034D01*
X143327123Y-66750569D01*
X143235140Y-66827751D01*
X143235138Y-66827753D01*
X143235138Y-66827754D01*
X143215490Y-66861786D01*
X143175097Y-66931748D01*
X143154247Y-67049999D01*
X115200000Y-67049999D01*
X115200000Y-66300000D01*
X141904247Y-66300000D01*
X141921817Y-66399650D01*
X141925098Y-66418254D01*
X141985138Y-66522246D01*
X141985140Y-66522248D01*
X141985139Y-66522248D01*
X142021325Y-66552611D01*
X142077123Y-66599431D01*
X142189961Y-66640500D01*
X142310038Y-66640500D01*
X142310039Y-66640500D01*
X142422877Y-66599431D01*
X142514862Y-66522246D01*
X142574902Y-66418254D01*
X142595753Y-66300000D01*
X144604247Y-66300000D01*
X144621817Y-66399650D01*
X144625098Y-66418254D01*
X144685138Y-66522246D01*
X144685140Y-66522248D01*
X144685139Y-66522248D01*
X144721325Y-66552611D01*
X144777123Y-66599431D01*
X144889961Y-66640500D01*
X145010038Y-66640500D01*
X145010039Y-66640500D01*
X145122877Y-66599431D01*
X145214862Y-66522246D01*
X145274902Y-66418254D01*
X145295753Y-66300000D01*
X145274902Y-66181746D01*
X145214862Y-66077754D01*
X145214859Y-66077751D01*
X145214860Y-66077751D01*
X145122877Y-66000569D01*
X145010040Y-65959500D01*
X145010039Y-65959500D01*
X144889961Y-65959500D01*
X144833542Y-65980034D01*
X144777123Y-66000569D01*
X144685140Y-66077751D01*
X144625097Y-66181748D01*
X144604247Y-66300000D01*
X142595753Y-66300000D01*
X142574902Y-66181746D01*
X142514862Y-66077754D01*
X142514859Y-66077751D01*
X142514860Y-66077751D01*
X142422877Y-66000569D01*
X142310040Y-65959500D01*
X142310039Y-65959500D01*
X142189961Y-65959500D01*
X142133542Y-65980034D01*
X142077123Y-66000569D01*
X141985140Y-66077751D01*
X141925097Y-66181748D01*
X141904247Y-66300000D01*
X115200000Y-66300000D01*
X115200000Y-65550000D01*
X143154247Y-65550000D01*
X143175098Y-65668254D01*
X143235138Y-65772246D01*
X143235140Y-65772248D01*
X143235139Y-65772248D01*
X143315925Y-65840034D01*
X143327123Y-65849431D01*
X143439961Y-65890500D01*
X143560038Y-65890500D01*
X143560039Y-65890500D01*
X143672877Y-65849431D01*
X143764862Y-65772246D01*
X143824902Y-65668254D01*
X143845753Y-65550000D01*
X143824902Y-65431746D01*
X143764862Y-65327754D01*
X143764859Y-65327751D01*
X143764860Y-65327751D01*
X143672877Y-65250569D01*
X143560040Y-65209500D01*
X143560039Y-65209500D01*
X143439961Y-65209500D01*
X143383542Y-65230034D01*
X143327123Y-65250569D01*
X143235140Y-65327751D01*
X143175097Y-65431748D01*
X143154247Y-65549999D01*
X143154247Y-65550000D01*
X115200000Y-65550000D01*
X115200000Y-63200000D01*
X142454614Y-63200000D01*
X142474116Y-63410464D01*
X142474117Y-63410467D01*
X142531959Y-63613760D01*
X142626171Y-63802965D01*
X142626175Y-63802971D01*
X142753547Y-63971639D01*
X142909749Y-64114036D01*
X142909752Y-64114039D01*
X143040528Y-64195011D01*
X143089458Y-64225308D01*
X143286550Y-64301662D01*
X143494317Y-64340500D01*
X143494318Y-64340500D01*
X143705682Y-64340500D01*
X143705683Y-64340500D01*
X143913450Y-64301662D01*
X144110542Y-64225308D01*
X144290249Y-64114038D01*
X144446450Y-63971642D01*
X144573827Y-63802968D01*
X144668041Y-63613761D01*
X144725884Y-63410464D01*
X144745386Y-63200000D01*
X144745386Y-63199999D01*
X147704614Y-63199999D01*
X147724116Y-63410464D01*
X147724117Y-63410467D01*
X147781959Y-63613760D01*
X147876171Y-63802965D01*
X147876175Y-63802971D01*
X148003547Y-63971639D01*
X148159749Y-64114036D01*
X148159752Y-64114039D01*
X148290528Y-64195011D01*
X148339458Y-64225308D01*
X148536550Y-64301662D01*
X148744317Y-64340500D01*
X148744318Y-64340500D01*
X148955682Y-64340500D01*
X148955683Y-64340500D01*
X149163450Y-64301662D01*
X149360542Y-64225308D01*
X149540249Y-64114038D01*
X149696450Y-63971642D01*
X149823827Y-63802968D01*
X149918041Y-63613761D01*
X149975884Y-63410464D01*
X149995386Y-63200000D01*
X149995386Y-63199999D01*
X155604614Y-63199999D01*
X155624116Y-63410464D01*
X155624117Y-63410467D01*
X155681959Y-63613760D01*
X155776171Y-63802965D01*
X155776175Y-63802971D01*
X155903547Y-63971639D01*
X156059749Y-64114036D01*
X156059752Y-64114039D01*
X156190528Y-64195011D01*
X156239458Y-64225308D01*
X156436550Y-64301662D01*
X156644317Y-64340500D01*
X156644318Y-64340500D01*
X156855682Y-64340500D01*
X156855683Y-64340500D01*
X157063450Y-64301662D01*
X157260542Y-64225308D01*
X157440249Y-64114038D01*
X157596450Y-63971642D01*
X157723827Y-63802968D01*
X157818041Y-63613761D01*
X157875884Y-63410464D01*
X157895386Y-63200000D01*
X157875884Y-62989536D01*
X157818041Y-62786239D01*
X157723827Y-62597032D01*
X157596450Y-62428358D01*
X157440249Y-62285962D01*
X157440247Y-62285960D01*
X157260544Y-62174693D01*
X157260542Y-62174692D01*
X157063450Y-62098338D01*
X157063449Y-62098337D01*
X157063447Y-62098337D01*
X156917709Y-62071094D01*
X156855683Y-62059500D01*
X156644317Y-62059500D01*
X156596551Y-62068428D01*
X156436552Y-62098337D01*
X156239455Y-62174693D01*
X156059752Y-62285960D01*
X156059749Y-62285963D01*
X155903547Y-62428360D01*
X155776175Y-62597028D01*
X155776171Y-62597034D01*
X155681959Y-62786239D01*
X155624117Y-62989532D01*
X155624116Y-62989535D01*
X155604614Y-63199999D01*
X149995386Y-63199999D01*
X149975884Y-62989536D01*
X149918041Y-62786239D01*
X149823827Y-62597032D01*
X149696450Y-62428358D01*
X149540249Y-62285962D01*
X149540247Y-62285960D01*
X149360544Y-62174693D01*
X149360542Y-62174692D01*
X149163450Y-62098338D01*
X149163449Y-62098337D01*
X149163447Y-62098337D01*
X149017709Y-62071094D01*
X148955683Y-62059500D01*
X148744317Y-62059500D01*
X148696551Y-62068428D01*
X148536552Y-62098337D01*
X148339455Y-62174693D01*
X148159752Y-62285960D01*
X148159749Y-62285963D01*
X148003547Y-62428360D01*
X147876175Y-62597028D01*
X147876171Y-62597034D01*
X147781959Y-62786239D01*
X147724117Y-62989532D01*
X147724116Y-62989535D01*
X147704614Y-63199999D01*
X144745386Y-63199999D01*
X144725884Y-62989536D01*
X144668041Y-62786239D01*
X144573827Y-62597032D01*
X144446450Y-62428358D01*
X144290249Y-62285962D01*
X144290247Y-62285960D01*
X144110544Y-62174693D01*
X144110542Y-62174692D01*
X143913450Y-62098338D01*
X143913449Y-62098337D01*
X143913447Y-62098337D01*
X143767709Y-62071094D01*
X143705683Y-62059500D01*
X143494317Y-62059500D01*
X143446551Y-62068428D01*
X143286552Y-62098337D01*
X143089455Y-62174693D01*
X142909752Y-62285960D01*
X142909749Y-62285963D01*
X142753547Y-62428360D01*
X142626175Y-62597028D01*
X142626171Y-62597034D01*
X142531959Y-62786239D01*
X142474117Y-62989532D01*
X142474116Y-62989535D01*
X142454614Y-63200000D01*
X115200000Y-63200000D01*
X115200000Y-60169500D01*
X115220210Y-60120710D01*
X115269000Y-60100500D01*
X166630500Y-60100500D01*
X166679290Y-60120710D01*
G37*
G04 #@! TD.AperFunction*
M02*
